<svg xmlns="http://www.w3.org/2000/svg" viewBox="-98.09 -24.00 801.34 354.30" width="801" height="354">
<polygon points="0.00,-8.00 11.28,-3.90 0.00,0.21 -11.28,-3.90" fill="#9be9a8"/>
<polygon points="-11.28,4.10 -11.28,-3.90 0.00,0.21 0.00,8.21" fill="#88cd93"/>
<polygon points="0.00,8.21 0.00,0.21 11.28,-3.90 11.28,4.10" fill="#72ac7c"/>
<polygon points="13.16,4.79 24.43,8.89 13.16,13.00 1.88,8.89" fill="#ebedf0"/>
<polygon points="-13.16,-6.21 -1.88,-2.11 -13.16,2.00 -24.43,-2.11" fill="#9be9a8"/>
<polygon points="-24.43,8.89 -24.43,-2.11 -13.16,2.00 -13.16,13.00" fill="#88cd93"/>
<polygon points="-13.16,13.00 -13.16,2.00 -1.88,-2.11 -1.88,8.89" fill="#72ac7c"/>
<polygon points="-26.31,9.58 -15.04,13.68 -26.31,17.79 -37.59,13.68" fill="#ebedf0"/>
<polygon points="26.31,9.58 37.59,13.68 26.31,17.79 15.04,13.68" fill="#ebedf0"/>
<polygon points="0.00,-1.42 11.28,2.68 0.00,6.79 -11.28,2.68" fill="#9be9a8"/>
<polygon points="-11.28,13.68 -11.28,2.68 0.00,6.79 0.00,17.79" fill="#88cd93"/>
<polygon points="0.00,17.79 0.00,6.79 11.28,2.68 11.28,13.68" fill="#72ac7c"/>
<polygon points="-39.47,14.36 -28.19,18.47 -39.47,22.57 -50.74,18.47" fill="#ebedf0"/>
<polygon points="13.16,14.36 24.43,18.47 13.16,22.57 1.88,18.47" fill="#ebedf0"/>
<polygon points="39.47,14.36 50.74,18.47 39.47,22.57 28.19,18.47" fill="#ebedf0"/>
<polygon points="-13.16,1.36 -1.88,5.47 -13.16,9.57 -24.43,5.47" fill="#9be9a8"/>
<polygon points="-24.43,18.47 -24.43,5.47 -13.16,9.57 -13.16,22.57" fill="#88cd93"/>
<polygon points="-13.16,22.57 -13.16,9.57 -1.88,5.47 -1.88,18.47" fill="#72ac7c"/>
<polygon points="-52.62,19.15 -41.35,23.26 -52.62,27.36 -63.90,23.26" fill="#ebedf0"/>
<polygon points="52.62,19.15 63.90,23.26 52.62,27.36 41.35,23.26" fill="#ebedf0"/>
<polygon points="0.00,8.15 11.28,12.26 0.00,16.36 -11.28,12.26" fill="#9be9a8"/>
<polygon points="-11.28,23.26 -11.28,12.26 0.00,16.36 0.00,27.36" fill="#88cd93"/>
<polygon points="0.00,27.36 0.00,16.36 11.28,12.26 11.28,23.26" fill="#72ac7c"/>
<polygon points="26.31,11.15 37.59,15.26 26.31,19.36 15.04,15.26" fill="#9be9a8"/>
<polygon points="15.04,23.26 15.04,15.26 26.31,19.36 26.31,27.36" fill="#88cd93"/>
<polygon points="26.31,27.36 26.31,19.36 37.59,15.26 37.59,23.26" fill="#72ac7c"/>
<polygon points="-26.31,2.15 -15.04,6.26 -26.31,10.36 -37.59,6.26" fill="#40c463"/>
<polygon points="-37.59,23.26 -37.59,6.26 -26.31,10.36 -26.31,27.36" fill="#38ac57"/>
<polygon points="-26.31,27.36 -26.31,10.36 -15.04,6.26 -15.04,23.26" fill="#2f9149"/>
<polygon points="-65.78,23.94 -54.50,28.05 -65.78,32.15 -77.05,28.05" fill="#ebedf0"/>
<polygon points="13.16,23.94 24.43,28.05 13.16,32.15 1.88,28.05" fill="#ebedf0"/>
<polygon points="-39.47,10.94 -28.19,15.05 -39.47,19.15 -50.74,15.05" fill="#9be9a8"/>
<polygon points="-50.74,28.05 -50.74,15.05 -39.47,19.15 -39.47,32.15" fill="#88cd93"/>
<polygon points="-39.47,32.15 -39.47,19.15 -28.19,15.05 -28.19,28.05" fill="#72ac7c"/>
<polygon points="-13.16,7.94 -1.88,12.05 -13.16,16.15 -24.43,12.05" fill="#9be9a8"/>
<polygon points="-24.43,28.05 -24.43,12.05 -13.16,16.15 -13.16,32.15" fill="#88cd93"/>
<polygon points="-13.16,32.15 -13.16,16.15 -1.88,12.05 -1.88,28.05" fill="#72ac7c"/>
<polygon points="39.47,12.94 50.74,17.05 39.47,21.15 28.19,17.05" fill="#9be9a8"/>
<polygon points="28.19,28.05 28.19,17.05 39.47,21.15 39.47,32.15" fill="#88cd93"/>
<polygon points="39.47,32.15 39.47,21.15 50.74,17.05 50.74,28.05" fill="#72ac7c"/>
<polygon points="65.78,6.94 77.05,11.05 65.78,15.15 54.50,11.05" fill="#40c463"/>
<polygon points="54.50,28.05 54.50,11.05 65.78,15.15 65.78,32.15" fill="#38ac57"/>
<polygon points="65.78,32.15 65.78,15.15 77.05,11.05 77.05,28.05" fill="#2f9149"/>
<polygon points="-78.93,28.73 -67.66,32.83 -78.93,36.94 -90.21,32.83" fill="#ebedf0"/>
<polygon points="78.93,28.73 90.21,32.83 78.93,36.94 67.66,32.83" fill="#ebedf0"/>
<polygon points="-52.62,12.73 -41.35,16.83 -52.62,20.94 -63.90,16.83" fill="#9be9a8"/>
<polygon points="-63.90,32.83 -63.90,16.83 -52.62,20.94 -52.62,36.94" fill="#88cd93"/>
<polygon points="-52.62,36.94 -52.62,20.94 -41.35,16.83 -41.35,32.83" fill="#72ac7c"/>
<polygon points="-26.31,17.73 -15.04,21.83 -26.31,25.94 -37.59,21.83" fill="#9be9a8"/>
<polygon points="-37.59,32.83 -37.59,21.83 -26.31,25.94 -26.31,36.94" fill="#88cd93"/>
<polygon points="-26.31,36.94 -26.31,25.94 -15.04,21.83 -15.04,32.83" fill="#72ac7c"/>
<polygon points="0.00,11.73 11.28,15.83 0.00,19.94 -11.28,15.83" fill="#40c463"/>
<polygon points="-11.28,32.83 -11.28,15.83 0.00,19.94 0.00,36.94" fill="#38ac57"/>
<polygon points="0.00,36.94 0.00,19.94 11.28,15.83 11.28,32.83" fill="#2f9149"/>
<polygon points="26.31,11.73 37.59,15.83 26.31,19.94 15.04,15.83" fill="#40c463"/>
<polygon points="15.04,32.83 15.04,15.83 26.31,19.94 26.31,36.94" fill="#38ac57"/>
<polygon points="26.31,36.94 26.31,19.94 37.59,15.83 37.59,32.83" fill="#2f9149"/>
<polygon points="52.62,11.73 63.90,15.83 52.62,19.94 41.35,15.83" fill="#40c463"/>
<polygon points="41.35,32.83 41.35,15.83 52.62,19.94 52.62,36.94" fill="#38ac57"/>
<polygon points="52.62,36.94 52.62,19.94 63.90,15.83 63.90,32.83" fill="#2f9149"/>
<polygon points="-65.78,33.52 -54.50,37.62 -65.78,41.73 -77.05,37.62" fill="#ebedf0"/>
<polygon points="-39.47,33.52 -28.19,37.62 -39.47,41.73 -50.74,37.62" fill="#ebedf0"/>
<polygon points="65.78,33.52 77.05,37.62 65.78,41.73 54.50,37.62" fill="#ebedf0"/>
<polygon points="92.09,33.52 103.37,37.62 92.09,41.73 80.81,37.62" fill="#ebedf0"/>
<polygon points="-13.16,20.52 -1.88,24.62 -13.16,28.73 -24.43,24.62" fill="#9be9a8"/>
<polygon points="-24.43,37.62 -24.43,24.62 -13.16,28.73 -13.16,41.73" fill="#88cd93"/>
<polygon points="-13.16,41.73 -13.16,28.73 -1.88,24.62 -1.88,37.62" fill="#72ac7c"/>
<polygon points="39.47,17.52 50.74,21.62 39.47,25.73 28.19,21.62" fill="#9be9a8"/>
<polygon points="28.19,37.62 28.19,21.62 39.47,25.73 39.47,41.73" fill="#88cd93"/>
<polygon points="39.47,41.73 39.47,25.73 50.74,21.62 50.74,37.62" fill="#72ac7c"/>
<polygon points="13.16,15.52 24.43,19.62 13.16,23.73 1.88,19.62" fill="#40c463"/>
<polygon points="1.88,37.62 1.88,19.62 13.16,23.73 13.16,41.73" fill="#38ac57"/>
<polygon points="13.16,41.73 13.16,23.73 24.43,19.62 24.43,37.62" fill="#2f9149"/>
<polygon points="-52.62,38.31 -41.35,42.41 -52.62,46.51 -63.90,42.41" fill="#ebedf0"/>
<polygon points="78.93,38.31 90.21,42.41 78.93,46.51 67.66,42.41" fill="#ebedf0"/>
<polygon points="105.25,38.31 116.52,42.41 105.25,46.51 93.97,42.41" fill="#ebedf0"/>
<polygon points="-26.31,25.31 -15.04,29.41 -26.31,33.51 -37.59,29.41" fill="#9be9a8"/>
<polygon points="-37.59,42.41 -37.59,29.41 -26.31,33.51 -26.31,46.51" fill="#88cd93"/>
<polygon points="-26.31,46.51 -26.31,33.51 -15.04,29.41 -15.04,42.41" fill="#72ac7c"/>
<polygon points="0.00,22.31 11.28,26.41 0.00,30.51 -11.28,26.41" fill="#9be9a8"/>
<polygon points="-11.28,42.41 -11.28,26.41 0.00,30.51 0.00,46.51" fill="#88cd93"/>
<polygon points="0.00,46.51 0.00,30.51 11.28,26.41 11.28,42.41" fill="#72ac7c"/>
<polygon points="26.31,30.31 37.59,34.41 26.31,38.51 15.04,34.41" fill="#9be9a8"/>
<polygon points="15.04,42.41 15.04,34.41 26.31,38.51 26.31,46.51" fill="#88cd93"/>
<polygon points="26.31,46.51 26.31,38.51 37.59,34.41 37.59,42.41" fill="#72ac7c"/>
<polygon points="52.62,23.31 63.90,27.41 52.62,31.51 41.35,27.41" fill="#9be9a8"/>
<polygon points="41.35,42.41 41.35,27.41 52.62,31.51 52.62,46.51" fill="#88cd93"/>
<polygon points="52.62,46.51 52.62,31.51 63.90,27.41 63.90,42.41" fill="#72ac7c"/>
<polygon points="-39.47,43.09 -28.19,47.20 -39.47,51.30 -50.74,47.20" fill="#ebedf0"/>
<polygon points="39.47,43.09 50.74,47.20 39.47,51.30 28.19,47.20" fill="#ebedf0"/>
<polygon points="65.78,43.09 77.05,47.20 65.78,51.30 54.50,47.20" fill="#ebedf0"/>
<polygon points="92.09,43.09 103.37,47.20 92.09,51.30 80.81,47.20" fill="#ebedf0"/>
<polygon points="118.40,43.09 129.68,47.20 118.40,51.30 107.12,47.20" fill="#ebedf0"/>
<polygon points="-13.16,28.09 -1.88,32.20 -13.16,36.30 -24.43,32.20" fill="#9be9a8"/>
<polygon points="-24.43,47.20 -24.43,32.20 -13.16,36.30 -13.16,51.30" fill="#88cd93"/>
<polygon points="-13.16,51.30 -13.16,36.30 -1.88,32.20 -1.88,47.20" fill="#72ac7c"/>
<polygon points="13.16,29.09 24.43,33.20 13.16,37.30 1.88,33.20" fill="#9be9a8"/>
<polygon points="1.88,47.20 1.88,33.20 13.16,37.30 13.16,51.30" fill="#88cd93"/>
<polygon points="13.16,51.30 13.16,37.30 24.43,33.20 24.43,47.20" fill="#72ac7c"/>
<polygon points="26.31,47.88 37.59,51.99 26.31,56.09 15.04,51.99" fill="#ebedf0"/>
<polygon points="52.62,47.88 63.90,51.99 52.62,56.09 41.35,51.99" fill="#ebedf0"/>
<polygon points="78.93,47.88 90.21,51.99 78.93,56.09 67.66,51.99" fill="#ebedf0"/>
<polygon points="105.25,47.88 116.52,51.99 105.25,56.09 93.97,51.99" fill="#ebedf0"/>
<polygon points="131.56,47.88 142.83,51.99 131.56,56.09 120.28,51.99" fill="#ebedf0"/>
<polygon points="-26.31,36.88 -15.04,40.99 -26.31,45.09 -37.59,40.99" fill="#9be9a8"/>
<polygon points="-37.59,51.99 -37.59,40.99 -26.31,45.09 -26.31,56.09" fill="#88cd93"/>
<polygon points="-26.31,56.09 -26.31,45.09 -15.04,40.99 -15.04,51.99" fill="#72ac7c"/>
<polygon points="0.00,39.88 11.28,43.99 0.00,48.09 -11.28,43.99" fill="#9be9a8"/>
<polygon points="-11.28,51.99 -11.28,43.99 0.00,48.09 0.00,56.09" fill="#88cd93"/>
<polygon points="0.00,56.09 0.00,48.09 11.28,43.99 11.28,51.99" fill="#72ac7c"/>
<polygon points="-13.16,52.67 -1.88,56.78 -13.16,60.88 -24.43,56.78" fill="#ebedf0"/>
<polygon points="13.16,52.67 24.43,56.78 13.16,60.88 1.88,56.78" fill="#ebedf0"/>
<polygon points="118.40,52.67 129.68,56.78 118.40,60.88 107.12,56.78" fill="#ebedf0"/>
<polygon points="144.71,52.67 155.99,56.78 144.71,60.88 133.44,56.78" fill="#ebedf0"/>
<polygon points="39.47,44.67 50.74,48.78 39.47,52.88 28.19,48.78" fill="#9be9a8"/>
<polygon points="28.19,56.78 28.19,48.78 39.47,52.88 39.47,60.88" fill="#88cd93"/>
<polygon points="39.47,60.88 39.47,52.88 50.74,48.78 50.74,56.78" fill="#72ac7c"/>
<polygon points="65.78,41.67 77.05,45.78 65.78,49.88 54.50,45.78" fill="#9be9a8"/>
<polygon points="54.50,56.78 54.50,45.78 65.78,49.88 65.78,60.88" fill="#88cd93"/>
<polygon points="65.78,60.88 65.78,49.88 77.05,45.78 77.05,56.78" fill="#72ac7c"/>
<polygon points="92.09,34.67 103.37,38.78 92.09,42.88 80.81,38.78" fill="#30a14e"/>
<polygon points="80.81,56.78 80.81,38.78 92.09,42.88 92.09,60.88" fill="#2a8d44"/>
<polygon points="92.09,60.88 92.09,42.88 103.37,38.78 103.37,56.78" fill="#237739"/>
<polygon points="0.00,57.46 11.28,61.56 0.00,65.67 -11.28,61.56" fill="#ebedf0"/>
<polygon points="26.31,57.46 37.59,61.56 26.31,65.67 15.04,61.56" fill="#ebedf0"/>
<polygon points="78.93,57.46 90.21,61.56 78.93,65.67 67.66,61.56" fill="#ebedf0"/>
<polygon points="157.87,57.46 169.14,61.56 157.87,65.67 146.59,61.56" fill="#ebedf0"/>
<polygon points="52.62,49.46 63.90,53.56 52.62,57.67 41.35,53.56" fill="#9be9a8"/>
<polygon points="41.35,61.56 41.35,53.56 52.62,57.67 52.62,65.67" fill="#88cd93"/>
<polygon points="52.62,65.67 52.62,57.67 63.90,53.56 63.90,61.56" fill="#72ac7c"/>
<polygon points="105.25,46.46 116.52,50.56 105.25,54.67 93.97,50.56" fill="#9be9a8"/>
<polygon points="93.97,61.56 93.97,50.56 105.25,54.67 105.25,65.67" fill="#88cd93"/>
<polygon points="105.25,65.67 105.25,54.67 116.52,50.56 116.52,61.56" fill="#72ac7c"/>
<polygon points="131.56,49.46 142.83,53.56 131.56,57.67 120.28,53.56" fill="#9be9a8"/>
<polygon points="120.28,61.56 120.28,53.56 131.56,57.67 131.56,65.67" fill="#88cd93"/>
<polygon points="131.56,65.67 131.56,57.67 142.83,53.56 142.83,61.56" fill="#72ac7c"/>
<polygon points="13.16,62.25 24.43,66.35 13.16,70.46 1.88,66.35" fill="#ebedf0"/>
<polygon points="65.78,62.25 77.05,66.35 65.78,70.46 54.50,66.35" fill="#ebedf0"/>
<polygon points="144.71,62.25 155.99,66.35 144.71,70.46 133.44,66.35" fill="#ebedf0"/>
<polygon points="171.02,62.25 182.30,66.35 171.02,70.46 159.75,66.35" fill="#ebedf0"/>
<polygon points="92.09,54.25 103.37,58.35 92.09,62.46 80.81,58.35" fill="#9be9a8"/>
<polygon points="80.81,66.35 80.81,58.35 92.09,62.46 92.09,70.46" fill="#88cd93"/>
<polygon points="92.09,70.46 92.09,62.46 103.37,58.35 103.37,66.35" fill="#72ac7c"/>
<polygon points="118.40,51.25 129.68,55.35 118.40,59.46 107.12,55.35" fill="#9be9a8"/>
<polygon points="107.12,66.35 107.12,55.35 118.40,59.46 118.40,70.46" fill="#88cd93"/>
<polygon points="118.40,70.46 118.40,59.46 129.68,55.35 129.68,66.35" fill="#72ac7c"/>
<polygon points="39.47,45.25 50.74,49.35 39.47,53.46 28.19,49.35" fill="#40c463"/>
<polygon points="28.19,66.35 28.19,49.35 39.47,53.46 39.47,70.46" fill="#38ac57"/>
<polygon points="39.47,70.46 39.47,53.46 50.74,49.35 50.74,66.35" fill="#2f9149"/>
<polygon points="26.31,67.04 37.59,71.14 26.31,75.24 15.04,71.14" fill="#ebedf0"/>
<polygon points="78.93,67.04 90.21,71.14 78.93,75.24 67.66,71.14" fill="#ebedf0"/>
<polygon points="105.25,67.04 116.52,71.14 105.25,75.24 93.97,71.14" fill="#ebedf0"/>
<polygon points="131.56,67.04 142.83,71.14 131.56,75.24 120.28,71.14" fill="#ebedf0"/>
<polygon points="157.87,67.04 169.14,71.14 157.87,75.24 146.59,71.14" fill="#ebedf0"/>
<polygon points="184.18,67.04 195.46,71.14 184.18,75.24 172.90,71.14" fill="#ebedf0"/>
<polygon points="52.62,59.04 63.90,63.14 52.62,67.24 41.35,63.14" fill="#9be9a8"/>
<polygon points="41.35,71.14 41.35,63.14 52.62,67.24 52.62,75.24" fill="#88cd93"/>
<polygon points="52.62,75.24 52.62,67.24 63.90,63.14 63.90,71.14" fill="#72ac7c"/>
<polygon points="39.47,71.82 50.74,75.93 39.47,80.03 28.19,75.93" fill="#ebedf0"/>
<polygon points="65.78,71.82 77.05,75.93 65.78,80.03 54.50,75.93" fill="#ebedf0"/>
<polygon points="92.09,71.82 103.37,75.93 92.09,80.03 80.81,75.93" fill="#ebedf0"/>
<polygon points="118.40,71.82 129.68,75.93 118.40,80.03 107.12,75.93" fill="#ebedf0"/>
<polygon points="144.71,71.82 155.99,75.93 144.71,80.03 133.44,75.93" fill="#ebedf0"/>
<polygon points="197.34,71.82 208.61,75.93 197.34,80.03 186.06,75.93" fill="#ebedf0"/>
<polygon points="171.02,56.82 182.30,60.93 171.02,65.03 159.75,60.93" fill="#9be9a8"/>
<polygon points="159.75,75.93 159.75,60.93 171.02,65.03 171.02,80.03" fill="#88cd93"/>
<polygon points="171.02,80.03 171.02,65.03 182.30,60.93 182.30,75.93" fill="#72ac7c"/>
<polygon points="52.62,76.61 63.90,80.72 52.62,84.82 41.35,80.72" fill="#ebedf0"/>
<polygon points="78.93,76.61 90.21,80.72 78.93,84.82 67.66,80.72" fill="#ebedf0"/>
<polygon points="105.25,76.61 116.52,80.72 105.25,84.82 93.97,80.72" fill="#ebedf0"/>
<polygon points="131.56,76.61 142.83,80.72 131.56,84.82 120.28,80.72" fill="#ebedf0"/>
<polygon points="210.49,76.61 221.77,80.72 210.49,84.82 199.21,80.72" fill="#ebedf0"/>
<polygon points="157.87,68.61 169.14,72.72 157.87,76.82 146.59,72.72" fill="#9be9a8"/>
<polygon points="146.59,80.72 146.59,72.72 157.87,76.82 157.87,84.82" fill="#88cd93"/>
<polygon points="157.87,84.82 157.87,76.82 169.14,72.72 169.14,80.72" fill="#72ac7c"/>
<polygon points="184.18,68.61 195.46,72.72 184.18,76.82 172.90,72.72" fill="#9be9a8"/>
<polygon points="172.90,80.72 172.90,72.72 184.18,76.82 184.18,84.82" fill="#88cd93"/>
<polygon points="184.18,84.82 184.18,76.82 195.46,72.72 195.46,80.72" fill="#72ac7c"/>
<polygon points="65.78,81.40 77.05,85.51 65.78,89.61 54.50,85.51" fill="#ebedf0"/>
<polygon points="92.09,81.40 103.37,85.51 92.09,89.61 80.81,85.51" fill="#ebedf0"/>
<polygon points="118.40,81.40 129.68,85.51 118.40,89.61 107.12,85.51" fill="#ebedf0"/>
<polygon points="223.65,81.40 234.92,85.51 223.65,89.61 212.37,85.51" fill="#ebedf0"/>
<polygon points="144.71,65.40 155.99,69.51 144.71,73.61 133.44,69.51" fill="#9be9a8"/>
<polygon points="133.44,85.51 133.44,69.51 144.71,73.61 144.71,89.61" fill="#88cd93"/>
<polygon points="144.71,89.61 144.71,73.61 155.99,69.51 155.99,85.51" fill="#72ac7c"/>
<polygon points="197.34,67.40 208.61,71.51 197.34,75.61 186.06,71.51" fill="#9be9a8"/>
<polygon points="186.06,85.51 186.06,71.51 197.34,75.61 197.34,89.61" fill="#88cd93"/>
<polygon points="197.34,89.61 197.34,75.61 208.61,71.51 208.61,85.51" fill="#72ac7c"/>
<polygon points="171.02,63.40 182.30,67.51 171.02,71.61 159.75,67.51" fill="#40c463"/>
<polygon points="159.75,85.51 159.75,67.51 171.02,71.61 171.02,89.61" fill="#38ac57"/>
<polygon points="171.02,89.61 171.02,71.61 182.30,67.51 182.30,85.51" fill="#2f9149"/>
<polygon points="78.93,86.19 90.21,90.29 78.93,94.40 67.66,90.29" fill="#ebedf0"/>
<polygon points="236.80,86.19 248.08,90.29 236.80,94.40 225.53,90.29" fill="#ebedf0"/>
<polygon points="105.25,78.19 116.52,82.29 105.25,86.40 93.97,82.29" fill="#9be9a8"/>
<polygon points="93.97,90.29 93.97,82.29 105.25,86.40 105.25,94.40" fill="#88cd93"/>
<polygon points="105.25,94.40 105.25,86.40 116.52,82.29 116.52,90.29" fill="#72ac7c"/>
<polygon points="131.56,70.19 142.83,74.29 131.56,78.40 120.28,74.29" fill="#9be9a8"/>
<polygon points="120.28,90.29 120.28,74.29 131.56,78.40 131.56,94.40" fill="#88cd93"/>
<polygon points="131.56,94.40 131.56,78.40 142.83,74.29 142.83,90.29" fill="#72ac7c"/>
<polygon points="184.18,78.19 195.46,82.29 184.18,86.40 172.90,82.29" fill="#9be9a8"/>
<polygon points="172.90,90.29 172.90,82.29 184.18,86.40 184.18,94.40" fill="#88cd93"/>
<polygon points="184.18,94.40 184.18,86.40 195.46,82.29 195.46,90.29" fill="#72ac7c"/>
<polygon points="157.87,68.19 169.14,72.29 157.87,76.40 146.59,72.29" fill="#40c463"/>
<polygon points="146.59,90.29 146.59,72.29 157.87,76.40 157.87,94.40" fill="#38ac57"/>
<polygon points="157.87,94.40 157.87,76.40 169.14,72.29 169.14,90.29" fill="#2f9149"/>
<polygon points="210.49,68.19 221.77,72.29 210.49,76.40 199.21,72.29" fill="#40c463"/>
<polygon points="199.21,90.29 199.21,72.29 210.49,76.40 210.49,94.40" fill="#38ac57"/>
<polygon points="210.49,94.40 210.49,76.40 221.77,72.29 221.77,90.29" fill="#2f9149"/>
<polygon points="249.96,90.98 261.23,95.08 249.96,99.19 238.68,95.08" fill="#ebedf0"/>
<polygon points="92.09,82.98 103.37,87.08 92.09,91.19 80.81,87.08" fill="#9be9a8"/>
<polygon points="80.81,95.08 80.81,87.08 92.09,91.19 92.09,99.19" fill="#88cd93"/>
<polygon points="92.09,99.19 92.09,91.19 103.37,87.08 103.37,95.08" fill="#72ac7c"/>
<polygon points="118.40,74.98 129.68,79.08 118.40,83.19 107.12,79.08" fill="#9be9a8"/>
<polygon points="107.12,95.08 107.12,79.08 118.40,83.19 118.40,99.19" fill="#88cd93"/>
<polygon points="118.40,99.19 118.40,83.19 129.68,79.08 129.68,95.08" fill="#72ac7c"/>
<polygon points="144.71,77.98 155.99,82.08 144.71,86.19 133.44,82.08" fill="#9be9a8"/>
<polygon points="133.44,95.08 133.44,82.08 144.71,86.19 144.71,99.19" fill="#88cd93"/>
<polygon points="144.71,99.19 144.71,86.19 155.99,82.08 155.99,95.08" fill="#72ac7c"/>
<polygon points="171.02,76.98 182.30,81.08 171.02,85.19 159.75,81.08" fill="#9be9a8"/>
<polygon points="159.75,95.08 159.75,81.08 171.02,85.19 171.02,99.19" fill="#88cd93"/>
<polygon points="171.02,99.19 171.02,85.19 182.30,81.08 182.30,95.08" fill="#72ac7c"/>
<polygon points="197.34,75.98 208.61,80.08 197.34,84.19 186.06,80.08" fill="#9be9a8"/>
<polygon points="186.06,95.08 186.06,80.08 197.34,84.19 197.34,99.19" fill="#88cd93"/>
<polygon points="197.34,99.19 197.34,84.19 208.61,80.08 208.61,95.08" fill="#72ac7c"/>
<polygon points="223.65,79.98 234.92,84.08 223.65,88.19 212.37,84.08" fill="#9be9a8"/>
<polygon points="212.37,95.08 212.37,84.08 223.65,88.19 223.65,99.19" fill="#88cd93"/>
<polygon points="223.65,99.19 223.65,88.19 234.92,84.08 234.92,95.08" fill="#72ac7c"/>
<polygon points="105.25,87.77 116.52,91.87 105.25,95.97 93.97,91.87" fill="#9be9a8"/>
<polygon points="93.97,99.87 93.97,91.87 105.25,95.97 105.25,103.97" fill="#88cd93"/>
<polygon points="105.25,103.97 105.25,95.97 116.52,91.87 116.52,99.87" fill="#72ac7c"/>
<polygon points="131.56,84.77 142.83,88.87 131.56,92.97 120.28,88.87" fill="#9be9a8"/>
<polygon points="120.28,99.87 120.28,88.87 131.56,92.97 131.56,103.97" fill="#88cd93"/>
<polygon points="131.56,103.97 131.56,92.97 142.83,88.87 142.83,99.87" fill="#72ac7c"/>
<polygon points="210.49,82.77 221.77,86.87 210.49,90.97 199.21,86.87" fill="#9be9a8"/>
<polygon points="199.21,99.87 199.21,86.87 210.49,90.97 210.49,103.97" fill="#88cd93"/>
<polygon points="210.49,103.97 210.49,90.97 221.77,86.87 221.77,99.87" fill="#72ac7c"/>
<polygon points="236.80,84.77 248.08,88.87 236.80,92.97 225.53,88.87" fill="#9be9a8"/>
<polygon points="225.53,99.87 225.53,88.87 236.80,92.97 236.80,103.97" fill="#88cd93"/>
<polygon points="236.80,103.97 236.80,92.97 248.08,88.87 248.08,99.87" fill="#72ac7c"/>
<polygon points="263.11,82.77 274.39,86.87 263.11,90.97 251.84,86.87" fill="#9be9a8"/>
<polygon points="251.84,99.87 251.84,86.87 263.11,90.97 263.11,103.97" fill="#88cd93"/>
<polygon points="263.11,103.97 263.11,90.97 274.39,86.87 274.39,99.87" fill="#72ac7c"/>
<polygon points="157.87,78.77 169.14,82.87 157.87,86.97 146.59,82.87" fill="#40c463"/>
<polygon points="146.59,99.87 146.59,82.87 157.87,86.97 157.87,103.97" fill="#38ac57"/>
<polygon points="157.87,103.97 157.87,86.97 169.14,82.87 169.14,99.87" fill="#2f9149"/>
<polygon points="184.18,78.77 195.46,82.87 184.18,86.97 172.90,82.87" fill="#40c463"/>
<polygon points="172.90,99.87 172.90,82.87 184.18,86.97 184.18,103.97" fill="#38ac57"/>
<polygon points="184.18,103.97 184.18,86.97 195.46,82.87 195.46,99.87" fill="#2f9149"/>
<polygon points="118.40,100.55 129.68,104.66 118.40,108.76 107.12,104.66" fill="#ebedf0"/>
<polygon points="144.71,100.55 155.99,104.66 144.71,108.76 133.44,104.66" fill="#ebedf0"/>
<polygon points="276.27,100.55 287.55,104.66 276.27,108.76 264.99,104.66" fill="#ebedf0"/>
<polygon points="197.34,92.55 208.61,96.66 197.34,100.76 186.06,96.66" fill="#9be9a8"/>
<polygon points="186.06,104.66 186.06,96.66 197.34,100.76 197.34,108.76" fill="#88cd93"/>
<polygon points="197.34,108.76 197.34,100.76 208.61,96.66 208.61,104.66" fill="#72ac7c"/>
<polygon points="223.65,87.55 234.92,91.66 223.65,95.76 212.37,91.66" fill="#9be9a8"/>
<polygon points="212.37,104.66 212.37,91.66 223.65,95.76 223.65,108.76" fill="#88cd93"/>
<polygon points="223.65,108.76 223.65,95.76 234.92,91.66 234.92,104.66" fill="#72ac7c"/>
<polygon points="249.96,85.55 261.23,89.66 249.96,93.76 238.68,89.66" fill="#9be9a8"/>
<polygon points="238.68,104.66 238.68,89.66 249.96,93.76 249.96,108.76" fill="#88cd93"/>
<polygon points="249.96,108.76 249.96,93.76 261.23,89.66 261.23,104.66" fill="#72ac7c"/>
<polygon points="171.02,82.55 182.30,86.66 171.02,90.76 159.75,86.66" fill="#40c463"/>
<polygon points="159.75,104.66 159.75,86.66 171.02,90.76 171.02,108.76" fill="#38ac57"/>
<polygon points="171.02,108.76 171.02,90.76 182.30,86.66 182.30,104.66" fill="#2f9149"/>
<polygon points="131.56,105.34 142.83,109.45 131.56,113.55 120.28,109.45" fill="#ebedf0"/>
<polygon points="289.43,105.34 300.70,109.45 289.43,113.55 278.15,109.45" fill="#ebedf0"/>
<polygon points="157.87,90.34 169.14,94.45 157.87,98.55 146.59,94.45" fill="#9be9a8"/>
<polygon points="146.59,109.45 146.59,94.45 157.87,98.55 157.87,113.55" fill="#88cd93"/>
<polygon points="157.87,113.55 157.87,98.55 169.14,94.45 169.14,109.45" fill="#72ac7c"/>
<polygon points="184.18,89.34 195.46,93.45 184.18,97.55 172.90,93.45" fill="#9be9a8"/>
<polygon points="172.90,109.45 172.90,93.45 184.18,97.55 184.18,113.55" fill="#88cd93"/>
<polygon points="184.18,113.55 184.18,97.55 195.46,93.45 195.46,109.45" fill="#72ac7c"/>
<polygon points="210.49,92.34 221.77,96.45 210.49,100.55 199.21,96.45" fill="#9be9a8"/>
<polygon points="199.21,109.45 199.21,96.45 210.49,100.55 210.49,113.55" fill="#88cd93"/>
<polygon points="210.49,113.55 210.49,100.55 221.77,96.45 221.77,109.45" fill="#72ac7c"/>
<polygon points="263.11,94.34 274.39,98.45 263.11,102.55 251.84,98.45" fill="#9be9a8"/>
<polygon points="251.84,109.45 251.84,98.45 263.11,102.55 263.11,113.55" fill="#88cd93"/>
<polygon points="263.11,113.55 263.11,102.55 274.39,98.45 274.39,109.45" fill="#72ac7c"/>
<polygon points="236.80,87.34 248.08,91.45 236.80,95.55 225.53,91.45" fill="#40c463"/>
<polygon points="225.53,109.45 225.53,91.45 236.80,95.55 236.80,113.55" fill="#38ac57"/>
<polygon points="236.80,113.55 236.80,95.55 248.08,91.45 248.08,109.45" fill="#2f9149"/>
<polygon points="144.71,110.13 155.99,114.23 144.71,118.34 133.44,114.23" fill="#ebedf0"/>
<polygon points="171.02,110.13 182.30,114.23 171.02,118.34 159.75,114.23" fill="#ebedf0"/>
<polygon points="302.58,110.13 313.86,114.23 302.58,118.34 291.30,114.23" fill="#ebedf0"/>
<polygon points="223.65,94.13 234.92,98.23 223.65,102.34 212.37,98.23" fill="#9be9a8"/>
<polygon points="212.37,114.23 212.37,98.23 223.65,102.34 223.65,118.34" fill="#88cd93"/>
<polygon points="223.65,118.34 223.65,102.34 234.92,98.23 234.92,114.23" fill="#72ac7c"/>
<polygon points="197.34,92.13 208.61,96.23 197.34,100.34 186.06,96.23" fill="#40c463"/>
<polygon points="186.06,114.23 186.06,96.23 197.34,100.34 197.34,118.34" fill="#38ac57"/>
<polygon points="197.34,118.34 197.34,100.34 208.61,96.23 208.61,114.23" fill="#2f9149"/>
<polygon points="249.96,92.13 261.23,96.23 249.96,100.34 238.68,96.23" fill="#40c463"/>
<polygon points="238.68,114.23 238.68,96.23 249.96,100.34 249.96,118.34" fill="#38ac57"/>
<polygon points="249.96,118.34 249.96,100.34 261.23,96.23 261.23,114.23" fill="#2f9149"/>
<polygon points="276.27,92.13 287.55,96.23 276.27,100.34 264.99,96.23" fill="#30a14e"/>
<polygon points="264.99,114.23 264.99,96.23 276.27,100.34 276.27,118.34" fill="#2a8d44"/>
<polygon points="276.27,118.34 276.27,100.34 287.55,96.23 287.55,114.23" fill="#237739"/>
<polygon points="157.87,114.92 169.14,119.02 157.87,123.13 146.59,119.02" fill="#ebedf0"/>
<polygon points="184.18,103.92 195.46,108.02 184.18,112.13 172.90,108.02" fill="#9be9a8"/>
<polygon points="172.90,119.02 172.90,108.02 184.18,112.13 184.18,123.13" fill="#88cd93"/>
<polygon points="184.18,123.13 184.18,112.13 195.46,108.02 195.46,119.02" fill="#72ac7c"/>
<polygon points="210.49,106.92 221.77,111.02 210.49,115.13 199.21,111.02" fill="#9be9a8"/>
<polygon points="199.21,119.02 199.21,111.02 210.49,115.13 210.49,123.13" fill="#88cd93"/>
<polygon points="210.49,123.13 210.49,115.13 221.77,111.02 221.77,119.02" fill="#72ac7c"/>
<polygon points="236.80,99.92 248.08,104.02 236.80,108.13 225.53,104.02" fill="#9be9a8"/>
<polygon points="225.53,119.02 225.53,104.02 236.80,108.13 236.80,123.13" fill="#88cd93"/>
<polygon points="236.80,123.13 236.80,108.13 248.08,104.02 248.08,119.02" fill="#72ac7c"/>
<polygon points="263.11,98.92 274.39,103.02 263.11,107.13 251.84,103.02" fill="#9be9a8"/>
<polygon points="251.84,119.02 251.84,103.02 263.11,107.13 263.11,123.13" fill="#88cd93"/>
<polygon points="263.11,123.13 263.11,107.13 274.39,103.02 274.39,119.02" fill="#72ac7c"/>
<polygon points="289.43,103.92 300.70,108.02 289.43,112.13 278.15,108.02" fill="#9be9a8"/>
<polygon points="278.15,119.02 278.15,108.02 289.43,112.13 289.43,123.13" fill="#88cd93"/>
<polygon points="289.43,123.13 289.43,112.13 300.70,108.02 300.70,119.02" fill="#72ac7c"/>
<polygon points="315.74,106.92 327.01,111.02 315.74,115.13 304.46,111.02" fill="#9be9a8"/>
<polygon points="304.46,119.02 304.46,111.02 315.74,115.13 315.74,123.13" fill="#88cd93"/>
<polygon points="315.74,123.13 315.74,115.13 327.01,111.02 327.01,119.02" fill="#72ac7c"/>
<polygon points="328.89,119.71 340.17,123.81 328.89,127.92 317.62,123.81" fill="#ebedf0"/>
<polygon points="171.02,111.71 182.30,115.81 171.02,119.92 159.75,115.81" fill="#9be9a8"/>
<polygon points="159.75,123.81 159.75,115.81 171.02,119.92 171.02,127.92" fill="#88cd93"/>
<polygon points="171.02,127.92 171.02,119.92 182.30,115.81 182.30,123.81" fill="#72ac7c"/>
<polygon points="197.34,105.71 208.61,109.81 197.34,113.92 186.06,109.81" fill="#9be9a8"/>
<polygon points="186.06,123.81 186.06,109.81 197.34,113.92 197.34,127.92" fill="#88cd93"/>
<polygon points="197.34,127.92 197.34,113.92 208.61,109.81 208.61,123.81" fill="#72ac7c"/>
<polygon points="249.96,108.71 261.23,112.81 249.96,116.92 238.68,112.81" fill="#9be9a8"/>
<polygon points="238.68,123.81 238.68,112.81 249.96,116.92 249.96,127.92" fill="#88cd93"/>
<polygon points="249.96,127.92 249.96,116.92 261.23,112.81 261.23,123.81" fill="#72ac7c"/>
<polygon points="276.27,106.71 287.55,110.81 276.27,114.92 264.99,110.81" fill="#9be9a8"/>
<polygon points="264.99,123.81 264.99,110.81 276.27,114.92 276.27,127.92" fill="#88cd93"/>
<polygon points="276.27,127.92 276.27,114.92 287.55,110.81 287.55,123.81" fill="#72ac7c"/>
<polygon points="302.58,106.71 313.86,110.81 302.58,114.92 291.30,110.81" fill="#9be9a8"/>
<polygon points="291.30,123.81 291.30,110.81 302.58,114.92 302.58,127.92" fill="#88cd93"/>
<polygon points="302.58,127.92 302.58,114.92 313.86,110.81 313.86,123.81" fill="#72ac7c"/>
<polygon points="223.65,101.71 234.92,105.81 223.65,109.92 212.37,105.81" fill="#30a14e"/>
<polygon points="212.37,123.81 212.37,105.81 223.65,109.92 223.65,127.92" fill="#2a8d44"/>
<polygon points="223.65,127.92 223.65,109.92 234.92,105.81 234.92,123.81" fill="#237739"/>
<polygon points="184.18,124.50 195.46,128.60 184.18,132.70 172.90,128.60" fill="#ebedf0"/>
<polygon points="289.43,124.50 300.70,128.60 289.43,132.70 278.15,128.60" fill="#ebedf0"/>
<polygon points="315.74,124.50 327.01,128.60 315.74,132.70 304.46,128.60" fill="#ebedf0"/>
<polygon points="342.05,124.50 353.32,128.60 342.05,132.70 330.77,128.60" fill="#ebedf0"/>
<polygon points="210.49,108.50 221.77,112.60 210.49,116.70 199.21,112.60" fill="#9be9a8"/>
<polygon points="199.21,128.60 199.21,112.60 210.49,116.70 210.49,132.70" fill="#88cd93"/>
<polygon points="210.49,132.70 210.49,116.70 221.77,112.60 221.77,128.60" fill="#72ac7c"/>
<polygon points="236.80,113.50 248.08,117.60 236.80,121.70 225.53,117.60" fill="#9be9a8"/>
<polygon points="225.53,128.60 225.53,117.60 236.80,121.70 236.80,132.70" fill="#88cd93"/>
<polygon points="236.80,132.70 236.80,121.70 248.08,117.60 248.08,128.60" fill="#72ac7c"/>
<polygon points="263.11,109.50 274.39,113.60 263.11,117.70 251.84,113.60" fill="#9be9a8"/>
<polygon points="251.84,128.60 251.84,113.60 263.11,117.70 263.11,132.70" fill="#88cd93"/>
<polygon points="263.11,132.70 263.11,117.70 274.39,113.60 274.39,128.60" fill="#72ac7c"/>
<polygon points="197.34,129.28 208.61,133.39 197.34,137.49 186.06,133.39" fill="#ebedf0"/>
<polygon points="223.65,115.28 234.92,119.39 223.65,123.49 212.37,119.39" fill="#9be9a8"/>
<polygon points="212.37,133.39 212.37,119.39 223.65,123.49 223.65,137.49" fill="#88cd93"/>
<polygon points="223.65,137.49 223.65,123.49 234.92,119.39 234.92,133.39" fill="#72ac7c"/>
<polygon points="249.96,118.28 261.23,122.39 249.96,126.49 238.68,122.39" fill="#9be9a8"/>
<polygon points="238.68,133.39 238.68,122.39 249.96,126.49 249.96,137.49" fill="#88cd93"/>
<polygon points="249.96,137.49 249.96,126.49 261.23,122.39 261.23,133.39" fill="#72ac7c"/>
<polygon points="276.27,121.28 287.55,125.39 276.27,129.49 264.99,125.39" fill="#9be9a8"/>
<polygon points="264.99,133.39 264.99,125.39 276.27,129.49 276.27,137.49" fill="#88cd93"/>
<polygon points="276.27,137.49 276.27,129.49 287.55,125.39 287.55,133.39" fill="#72ac7c"/>
<polygon points="302.58,116.28 313.86,120.39 302.58,124.49 291.30,120.39" fill="#9be9a8"/>
<polygon points="291.30,133.39 291.30,120.39 302.58,124.49 302.58,137.49" fill="#88cd93"/>
<polygon points="302.58,137.49 302.58,124.49 313.86,120.39 313.86,133.39" fill="#72ac7c"/>
<polygon points="328.89,115.28 340.17,119.39 328.89,123.49 317.62,119.39" fill="#9be9a8"/>
<polygon points="317.62,133.39 317.62,119.39 328.89,123.49 328.89,137.49" fill="#88cd93"/>
<polygon points="328.89,137.49 328.89,123.49 340.17,119.39 340.17,133.39" fill="#72ac7c"/>
<polygon points="355.20,121.28 366.48,125.39 355.20,129.49 343.93,125.39" fill="#9be9a8"/>
<polygon points="343.93,133.39 343.93,125.39 355.20,129.49 355.20,137.49" fill="#88cd93"/>
<polygon points="355.20,137.49 355.20,129.49 366.48,125.39 366.48,133.39" fill="#72ac7c"/>
<polygon points="210.49,134.07 221.77,138.18 210.49,142.28 199.21,138.18" fill="#ebedf0"/>
<polygon points="236.80,134.07 248.08,138.18 236.80,142.28 225.53,138.18" fill="#ebedf0"/>
<polygon points="263.11,134.07 274.39,138.18 263.11,142.28 251.84,138.18" fill="#ebedf0"/>
<polygon points="315.74,134.07 327.01,138.18 315.74,142.28 304.46,138.18" fill="#ebedf0"/>
<polygon points="368.36,134.07 379.64,138.18 368.36,142.28 357.08,138.18" fill="#ebedf0"/>
<polygon points="289.43,120.07 300.70,124.18 289.43,128.28 278.15,124.18" fill="#9be9a8"/>
<polygon points="278.15,138.18 278.15,124.18 289.43,128.28 289.43,142.28" fill="#88cd93"/>
<polygon points="289.43,142.28 289.43,128.28 300.70,124.18 300.70,138.18" fill="#72ac7c"/>
<polygon points="342.05,118.07 353.32,122.18 342.05,126.28 330.77,122.18" fill="#9be9a8"/>
<polygon points="330.77,138.18 330.77,122.18 342.05,126.28 342.05,142.28" fill="#88cd93"/>
<polygon points="342.05,142.28 342.05,126.28 353.32,122.18 353.32,138.18" fill="#72ac7c"/>
<polygon points="223.65,138.86 234.92,142.96 223.65,147.07 212.37,142.96" fill="#ebedf0"/>
<polygon points="249.96,138.86 261.23,142.96 249.96,147.07 238.68,142.96" fill="#ebedf0"/>
<polygon points="276.27,138.86 287.55,142.96 276.27,147.07 264.99,142.96" fill="#ebedf0"/>
<polygon points="328.89,138.86 340.17,142.96 328.89,147.07 317.62,142.96" fill="#ebedf0"/>
<polygon points="302.58,130.86 313.86,134.96 302.58,139.07 291.30,134.96" fill="#9be9a8"/>
<polygon points="291.30,142.96 291.30,134.96 302.58,139.07 302.58,147.07" fill="#88cd93"/>
<polygon points="302.58,147.07 302.58,139.07 313.86,134.96 313.86,142.96" fill="#72ac7c"/>
<polygon points="355.20,122.86 366.48,126.96 355.20,131.07 343.93,126.96" fill="#9be9a8"/>
<polygon points="343.93,142.96 343.93,126.96 355.20,131.07 355.20,147.07" fill="#88cd93"/>
<polygon points="355.20,147.07 355.20,131.07 366.48,126.96 366.48,142.96" fill="#72ac7c"/>
<polygon points="381.52,121.86 392.79,125.96 381.52,130.07 370.24,125.96" fill="#40c463"/>
<polygon points="370.24,142.96 370.24,125.96 381.52,130.07 381.52,147.07" fill="#38ac57"/>
<polygon points="381.52,147.07 381.52,130.07 392.79,125.96 392.79,142.96" fill="#2f9149"/>
<polygon points="236.80,143.65 248.08,147.75 236.80,151.86 225.53,147.75" fill="#ebedf0"/>
<polygon points="263.11,143.65 274.39,147.75 263.11,151.86 251.84,147.75" fill="#ebedf0"/>
<polygon points="289.43,143.65 300.70,147.75 289.43,151.86 278.15,147.75" fill="#ebedf0"/>
<polygon points="394.67,143.65 405.95,147.75 394.67,151.86 383.39,147.75" fill="#ebedf0"/>
<polygon points="315.74,132.65 327.01,136.75 315.74,140.86 304.46,136.75" fill="#9be9a8"/>
<polygon points="304.46,147.75 304.46,136.75 315.74,140.86 315.74,151.86" fill="#88cd93"/>
<polygon points="315.74,151.86 315.74,140.86 327.01,136.75 327.01,147.75" fill="#72ac7c"/>
<polygon points="342.05,132.65 353.32,136.75 342.05,140.86 330.77,136.75" fill="#9be9a8"/>
<polygon points="330.77,147.75 330.77,136.75 342.05,140.86 342.05,151.86" fill="#88cd93"/>
<polygon points="342.05,151.86 342.05,140.86 353.32,136.75 353.32,147.75" fill="#72ac7c"/>
<polygon points="368.36,132.65 379.64,136.75 368.36,140.86 357.08,136.75" fill="#9be9a8"/>
<polygon points="357.08,147.75 357.08,136.75 368.36,140.86 368.36,151.86" fill="#88cd93"/>
<polygon points="368.36,151.86 368.36,140.86 379.64,136.75 379.64,147.75" fill="#72ac7c"/>
<polygon points="249.96,148.44 261.23,152.54 249.96,156.65 238.68,152.54" fill="#ebedf0"/>
<polygon points="276.27,148.44 287.55,152.54 276.27,156.65 264.99,152.54" fill="#ebedf0"/>
<polygon points="302.58,148.44 313.86,152.54 302.58,156.65 291.30,152.54" fill="#ebedf0"/>
<polygon points="328.89,148.44 340.17,152.54 328.89,156.65 317.62,152.54" fill="#ebedf0"/>
<polygon points="355.20,148.44 366.48,152.54 355.20,156.65 343.93,152.54" fill="#ebedf0"/>
<polygon points="407.83,148.44 419.10,152.54 407.83,156.65 396.55,152.54" fill="#ebedf0"/>
<polygon points="381.52,137.44 392.79,141.54 381.52,145.65 370.24,141.54" fill="#9be9a8"/>
<polygon points="370.24,152.54 370.24,141.54 381.52,145.65 381.52,156.65" fill="#88cd93"/>
<polygon points="381.52,156.65 381.52,145.65 392.79,141.54 392.79,152.54" fill="#72ac7c"/>
<polygon points="263.11,153.23 274.39,157.33 263.11,161.43 251.84,157.33" fill="#ebedf0"/>
<polygon points="315.74,153.23 327.01,157.33 315.74,161.43 304.46,157.33" fill="#ebedf0"/>
<polygon points="342.05,153.23 353.32,157.33 342.05,161.43 330.77,157.33" fill="#ebedf0"/>
<polygon points="420.98,153.23 432.26,157.33 420.98,161.43 409.71,157.33" fill="#ebedf0"/>
<polygon points="289.43,145.23 300.70,149.33 289.43,153.43 278.15,149.33" fill="#9be9a8"/>
<polygon points="278.15,157.33 278.15,149.33 289.43,153.43 289.43,161.43" fill="#88cd93"/>
<polygon points="289.43,161.43 289.43,153.43 300.70,149.33 300.70,157.33" fill="#72ac7c"/>
<polygon points="394.67,145.23 405.95,149.33 394.67,153.43 383.39,149.33" fill="#9be9a8"/>
<polygon points="383.39,157.33 383.39,149.33 394.67,153.43 394.67,161.43" fill="#88cd93"/>
<polygon points="394.67,161.43 394.67,153.43 405.95,149.33 405.95,157.33" fill="#72ac7c"/>
<polygon points="368.36,136.23 379.64,140.33 368.36,144.43 357.08,140.33" fill="#40c463"/>
<polygon points="357.08,157.33 357.08,140.33 368.36,144.43 368.36,161.43" fill="#38ac57"/>
<polygon points="368.36,161.43 368.36,144.43 379.64,140.33 379.64,157.33" fill="#2f9149"/>
<polygon points="276.27,158.01 287.55,162.12 276.27,166.22 264.99,162.12" fill="#ebedf0"/>
<polygon points="434.14,158.01 445.41,162.12 434.14,166.22 422.86,162.12" fill="#ebedf0"/>
<polygon points="407.83,142.01 419.10,146.12 407.83,150.22 396.55,146.12" fill="#9be9a8"/>
<polygon points="396.55,162.12 396.55,146.12 407.83,150.22 407.83,166.22" fill="#88cd93"/>
<polygon points="407.83,166.22 407.83,150.22 419.10,146.12 419.10,162.12" fill="#72ac7c"/>
<polygon points="328.89,141.01 340.17,145.12 328.89,149.22 317.62,145.12" fill="#40c463"/>
<polygon points="317.62,162.12 317.62,145.12 328.89,149.22 328.89,166.22" fill="#38ac57"/>
<polygon points="328.89,166.22 328.89,149.22 340.17,145.12 340.17,162.12" fill="#2f9149"/>
<polygon points="355.20,141.01 366.48,145.12 355.20,149.22 343.93,145.12" fill="#40c463"/>
<polygon points="343.93,162.12 343.93,145.12 355.20,149.22 355.20,166.22" fill="#38ac57"/>
<polygon points="355.20,166.22 355.20,149.22 366.48,145.12 366.48,162.12" fill="#2f9149"/>
<polygon points="381.52,140.01 392.79,144.12 381.52,148.22 370.24,144.12" fill="#40c463"/>
<polygon points="370.24,162.12 370.24,144.12 381.52,148.22 381.52,166.22" fill="#38ac57"/>
<polygon points="381.52,166.22 381.52,148.22 392.79,144.12 392.79,162.12" fill="#2f9149"/>
<polygon points="302.58,140.01 313.86,144.12 302.58,148.22 291.30,144.12" fill="#30a14e"/>
<polygon points="291.30,162.12 291.30,144.12 302.58,148.22 302.58,166.22" fill="#2a8d44"/>
<polygon points="302.58,166.22 302.58,148.22 313.86,144.12 313.86,162.12" fill="#237739"/>
<polygon points="315.74,148.80 327.01,152.91 315.74,157.01 304.46,152.91" fill="#9be9a8"/>
<polygon points="304.46,166.91 304.46,152.91 315.74,157.01 315.74,171.01" fill="#88cd93"/>
<polygon points="315.74,171.01 315.74,157.01 327.01,152.91 327.01,166.91" fill="#72ac7c"/>
<polygon points="368.36,149.80 379.64,153.91 368.36,158.01 357.08,153.91" fill="#9be9a8"/>
<polygon points="357.08,166.91 357.08,153.91 368.36,158.01 368.36,171.01" fill="#88cd93"/>
<polygon points="368.36,171.01 368.36,158.01 379.64,153.91 379.64,166.91" fill="#72ac7c"/>
<polygon points="394.67,146.80 405.95,150.91 394.67,155.01 383.39,150.91" fill="#9be9a8"/>
<polygon points="383.39,166.91 383.39,150.91 394.67,155.01 394.67,171.01" fill="#88cd93"/>
<polygon points="394.67,171.01 394.67,155.01 405.95,150.91 405.95,166.91" fill="#72ac7c"/>
<polygon points="447.29,151.80 458.57,155.91 447.29,160.01 436.02,155.91" fill="#9be9a8"/>
<polygon points="436.02,166.91 436.02,155.91 447.29,160.01 447.29,171.01" fill="#88cd93"/>
<polygon points="447.29,171.01 447.29,160.01 458.57,155.91 458.57,166.91" fill="#72ac7c"/>
<polygon points="289.43,144.80 300.70,148.91 289.43,153.01 278.15,148.91" fill="#40c463"/>
<polygon points="278.15,166.91 278.15,148.91 289.43,153.01 289.43,171.01" fill="#38ac57"/>
<polygon points="289.43,171.01 289.43,153.01 300.70,148.91 300.70,166.91" fill="#2f9149"/>
<polygon points="342.05,144.80 353.32,148.91 342.05,153.01 330.77,148.91" fill="#40c463"/>
<polygon points="330.77,166.91 330.77,148.91 342.05,153.01 342.05,171.01" fill="#38ac57"/>
<polygon points="342.05,171.01 342.05,153.01 353.32,148.91 353.32,166.91" fill="#2f9149"/>
<polygon points="420.98,144.80 432.26,148.91 420.98,153.01 409.71,148.91" fill="#40c463"/>
<polygon points="409.71,166.91 409.71,148.91 420.98,153.01 420.98,171.01" fill="#38ac57"/>
<polygon points="420.98,171.01 420.98,153.01 432.26,148.91 432.26,166.91" fill="#2f9149"/>
<polygon points="302.58,167.59 313.86,171.69 302.58,175.80 291.30,171.69" fill="#ebedf0"/>
<polygon points="407.83,152.59 419.10,156.69 407.83,160.80 396.55,156.69" fill="#9be9a8"/>
<polygon points="396.55,171.69 396.55,156.69 407.83,160.80 407.83,175.80" fill="#88cd93"/>
<polygon points="407.83,175.80 407.83,160.80 419.10,156.69 419.10,171.69" fill="#72ac7c"/>
<polygon points="434.14,151.59 445.41,155.69 434.14,159.80 422.86,155.69" fill="#9be9a8"/>
<polygon points="422.86,171.69 422.86,155.69 434.14,159.80 434.14,175.80" fill="#88cd93"/>
<polygon points="434.14,175.80 434.14,159.80 445.41,155.69 445.41,171.69" fill="#72ac7c"/>
<polygon points="460.45,156.59 471.73,160.69 460.45,164.80 449.17,160.69" fill="#9be9a8"/>
<polygon points="449.17,171.69 449.17,160.69 460.45,164.80 460.45,175.80" fill="#88cd93"/>
<polygon points="460.45,175.80 460.45,164.80 471.73,160.69 471.73,171.69" fill="#72ac7c"/>
<polygon points="355.20,149.59 366.48,153.69 355.20,157.80 343.93,153.69" fill="#40c463"/>
<polygon points="343.93,171.69 343.93,153.69 355.20,157.80 355.20,175.80" fill="#38ac57"/>
<polygon points="355.20,175.80 355.20,157.80 366.48,153.69 366.48,171.69" fill="#2f9149"/>
<polygon points="381.52,149.59 392.79,153.69 381.52,157.80 370.24,153.69" fill="#40c463"/>
<polygon points="370.24,171.69 370.24,153.69 381.52,157.80 381.52,175.80" fill="#38ac57"/>
<polygon points="381.52,175.80 381.52,157.80 392.79,153.69 392.79,171.69" fill="#2f9149"/>
<polygon points="328.89,149.59 340.17,153.69 328.89,157.80 317.62,153.69" fill="#30a14e"/>
<polygon points="317.62,171.69 317.62,153.69 328.89,157.80 328.89,175.80" fill="#2a8d44"/>
<polygon points="328.89,175.80 328.89,157.80 340.17,153.69 340.17,171.69" fill="#237739"/>
<polygon points="315.74,157.38 327.01,161.48 315.74,165.59 304.46,161.48" fill="#9be9a8"/>
<polygon points="304.46,176.48 304.46,161.48 315.74,165.59 315.74,180.59" fill="#88cd93"/>
<polygon points="315.74,180.59 315.74,165.59 327.01,161.48 327.01,176.48" fill="#72ac7c"/>
<polygon points="342.05,161.38 353.32,165.48 342.05,169.59 330.77,165.48" fill="#9be9a8"/>
<polygon points="330.77,176.48 330.77,165.48 342.05,169.59 342.05,180.59" fill="#88cd93"/>
<polygon points="342.05,180.59 342.05,169.59 353.32,165.48 353.32,176.48" fill="#72ac7c"/>
<polygon points="394.67,156.38 405.95,160.48 394.67,164.59 383.39,160.48" fill="#9be9a8"/>
<polygon points="383.39,176.48 383.39,160.48 394.67,164.59 394.67,180.59" fill="#88cd93"/>
<polygon points="394.67,180.59 394.67,164.59 405.95,160.48 405.95,176.48" fill="#72ac7c"/>
<polygon points="447.29,158.38 458.57,162.48 447.29,166.59 436.02,162.48" fill="#9be9a8"/>
<polygon points="436.02,176.48 436.02,162.48 447.29,166.59 447.29,180.59" fill="#88cd93"/>
<polygon points="447.29,180.59 447.29,166.59 458.57,162.48 458.57,176.48" fill="#72ac7c"/>
<polygon points="473.61,164.38 484.88,168.48 473.61,172.59 462.33,168.48" fill="#9be9a8"/>
<polygon points="462.33,176.48 462.33,168.48 473.61,172.59 473.61,180.59" fill="#88cd93"/>
<polygon points="473.61,180.59 473.61,172.59 484.88,168.48 484.88,176.48" fill="#72ac7c"/>
<polygon points="368.36,154.38 379.64,158.48 368.36,162.59 357.08,158.48" fill="#30a14e"/>
<polygon points="357.08,176.48 357.08,158.48 368.36,162.59 368.36,180.59" fill="#2a8d44"/>
<polygon points="368.36,180.59 368.36,162.59 379.64,158.48 379.64,176.48" fill="#237739"/>
<polygon points="420.98,154.38 432.26,158.48 420.98,162.59 409.71,158.48" fill="#30a14e"/>
<polygon points="409.71,176.48 409.71,158.48 420.98,162.59 420.98,180.59" fill="#2a8d44"/>
<polygon points="420.98,180.59 420.98,162.59 432.26,158.48 432.26,176.48" fill="#237739"/>
<polygon points="328.89,177.17 340.17,181.27 328.89,185.37 317.62,181.27" fill="#ebedf0"/>
<polygon points="486.76,177.17 498.04,181.27 486.76,185.37 475.48,181.27" fill="#ebedf0"/>
<polygon points="355.20,161.17 366.48,165.27 355.20,169.37 343.93,165.27" fill="#9be9a8"/>
<polygon points="343.93,181.27 343.93,165.27 355.20,169.37 355.20,185.37" fill="#88cd93"/>
<polygon points="355.20,185.37 355.20,169.37 366.48,165.27 366.48,181.27" fill="#72ac7c"/>
<polygon points="381.52,161.17 392.79,165.27 381.52,169.37 370.24,165.27" fill="#9be9a8"/>
<polygon points="370.24,181.27 370.24,165.27 381.52,169.37 381.52,185.37" fill="#88cd93"/>
<polygon points="381.52,185.37 381.52,169.37 392.79,165.27 392.79,181.27" fill="#72ac7c"/>
<polygon points="434.14,162.17 445.41,166.27 434.14,170.37 422.86,166.27" fill="#9be9a8"/>
<polygon points="422.86,181.27 422.86,166.27 434.14,170.37 434.14,185.37" fill="#88cd93"/>
<polygon points="434.14,185.37 434.14,170.37 445.41,166.27 445.41,181.27" fill="#72ac7c"/>
<polygon points="407.83,159.17 419.10,163.27 407.83,167.37 396.55,163.27" fill="#40c463"/>
<polygon points="396.55,181.27 396.55,163.27 407.83,167.37 407.83,185.37" fill="#38ac57"/>
<polygon points="407.83,185.37 407.83,167.37 419.10,163.27 419.10,181.27" fill="#2f9149"/>
<polygon points="460.45,160.17 471.73,164.27 460.45,168.37 449.17,164.27" fill="#40c463"/>
<polygon points="449.17,181.27 449.17,164.27 460.45,168.37 460.45,185.37" fill="#38ac57"/>
<polygon points="460.45,185.37 460.45,168.37 471.73,164.27 471.73,181.27" fill="#2f9149"/>
<polygon points="342.05,181.95 353.32,186.06 342.05,190.16 330.77,186.06" fill="#ebedf0"/>
<polygon points="368.36,168.95 379.64,173.06 368.36,177.16 357.08,173.06" fill="#9be9a8"/>
<polygon points="357.08,186.06 357.08,173.06 368.36,177.16 368.36,190.16" fill="#88cd93"/>
<polygon points="368.36,190.16 368.36,177.16 379.64,173.06 379.64,186.06" fill="#72ac7c"/>
<polygon points="447.29,165.95 458.57,170.06 447.29,174.16 436.02,170.06" fill="#9be9a8"/>
<polygon points="436.02,186.06 436.02,170.06 447.29,174.16 447.29,190.16" fill="#88cd93"/>
<polygon points="447.29,190.16 447.29,174.16 458.57,170.06 458.57,186.06" fill="#72ac7c"/>
<polygon points="499.92,170.95 511.19,175.06 499.92,179.16 488.64,175.06" fill="#9be9a8"/>
<polygon points="488.64,186.06 488.64,175.06 499.92,179.16 499.92,190.16" fill="#88cd93"/>
<polygon points="499.92,190.16 499.92,179.16 511.19,175.06 511.19,186.06" fill="#72ac7c"/>
<polygon points="394.67,163.95 405.95,168.06 394.67,172.16 383.39,168.06" fill="#40c463"/>
<polygon points="383.39,186.06 383.39,168.06 394.67,172.16 394.67,190.16" fill="#38ac57"/>
<polygon points="394.67,190.16 394.67,172.16 405.95,168.06 405.95,186.06" fill="#2f9149"/>
<polygon points="420.98,164.95 432.26,169.06 420.98,173.16 409.71,169.06" fill="#40c463"/>
<polygon points="409.71,186.06 409.71,169.06 420.98,173.16 420.98,190.16" fill="#38ac57"/>
<polygon points="420.98,190.16 420.98,173.16 432.26,169.06 432.26,186.06" fill="#2f9149"/>
<polygon points="473.61,163.95 484.88,168.06 473.61,172.16 462.33,168.06" fill="#40c463"/>
<polygon points="462.33,186.06 462.33,168.06 473.61,172.16 473.61,190.16" fill="#38ac57"/>
<polygon points="473.61,190.16 473.61,172.16 484.88,168.06 484.88,186.06" fill="#2f9149"/>
<polygon points="355.20,178.74 366.48,182.85 355.20,186.95 343.93,182.85" fill="#9be9a8"/>
<polygon points="343.93,190.85 343.93,182.85 355.20,186.95 355.20,194.95" fill="#88cd93"/>
<polygon points="355.20,194.95 355.20,186.95 366.48,182.85 366.48,190.85" fill="#72ac7c"/>
<polygon points="407.83,175.74 419.10,179.85 407.83,183.95 396.55,179.85" fill="#9be9a8"/>
<polygon points="396.55,190.85 396.55,179.85 407.83,183.95 407.83,194.95" fill="#88cd93"/>
<polygon points="407.83,194.95 407.83,183.95 419.10,179.85 419.10,190.85" fill="#72ac7c"/>
<polygon points="434.14,171.74 445.41,175.85 434.14,179.95 422.86,175.85" fill="#9be9a8"/>
<polygon points="422.86,190.85 422.86,175.85 434.14,179.95 434.14,194.95" fill="#88cd93"/>
<polygon points="434.14,194.95 434.14,179.95 445.41,175.85 445.41,190.85" fill="#72ac7c"/>
<polygon points="381.52,168.74 392.79,172.85 381.52,176.95 370.24,172.85" fill="#40c463"/>
<polygon points="370.24,190.85 370.24,172.85 381.52,176.95 381.52,194.95" fill="#38ac57"/>
<polygon points="381.52,194.95 381.52,176.95 392.79,172.85 392.79,190.85" fill="#2f9149"/>
<polygon points="460.45,168.74 471.73,172.85 460.45,176.95 449.17,172.85" fill="#40c463"/>
<polygon points="449.17,190.85 449.17,172.85 460.45,176.95 460.45,194.95" fill="#38ac57"/>
<polygon points="460.45,194.95 460.45,176.95 471.73,172.85 471.73,190.85" fill="#2f9149"/>
<polygon points="486.76,168.74 498.04,172.85 486.76,176.95 475.48,172.85" fill="#40c463"/>
<polygon points="475.48,190.85 475.48,172.85 486.76,176.95 486.76,194.95" fill="#38ac57"/>
<polygon points="486.76,194.95 486.76,176.95 498.04,172.85 498.04,190.85" fill="#2f9149"/>
<polygon points="513.07,168.74 524.35,172.85 513.07,176.95 501.80,172.85" fill="#40c463"/>
<polygon points="501.80,190.85 501.80,172.85 513.07,176.95 513.07,194.95" fill="#38ac57"/>
<polygon points="513.07,194.95 513.07,176.95 524.35,172.85 524.35,190.85" fill="#2f9149"/>
<polygon points="368.36,191.53 379.64,195.64 368.36,199.74 357.08,195.64" fill="#ebedf0"/>
<polygon points="526.23,191.53 537.50,195.64 526.23,199.74 514.95,195.64" fill="#ebedf0"/>
<polygon points="447.29,177.53 458.57,181.64 447.29,185.74 436.02,181.64" fill="#9be9a8"/>
<polygon points="436.02,195.64 436.02,181.64 447.29,185.74 447.29,199.74" fill="#88cd93"/>
<polygon points="447.29,199.74 447.29,185.74 458.57,181.64 458.57,195.64" fill="#72ac7c"/>
<polygon points="499.92,175.53 511.19,179.64 499.92,183.74 488.64,179.64" fill="#9be9a8"/>
<polygon points="488.64,195.64 488.64,179.64 499.92,183.74 499.92,199.74" fill="#88cd93"/>
<polygon points="499.92,199.74 499.92,183.74 511.19,179.64 511.19,195.64" fill="#72ac7c"/>
<polygon points="394.67,173.53 405.95,177.64 394.67,181.74 383.39,177.64" fill="#40c463"/>
<polygon points="383.39,195.64 383.39,177.64 394.67,181.74 394.67,199.74" fill="#38ac57"/>
<polygon points="394.67,199.74 394.67,181.74 405.95,177.64 405.95,195.64" fill="#2f9149"/>
<polygon points="420.98,173.53 432.26,177.64 420.98,181.74 409.71,177.64" fill="#40c463"/>
<polygon points="409.71,195.64 409.71,177.64 420.98,181.74 420.98,199.74" fill="#38ac57"/>
<polygon points="420.98,199.74 420.98,181.74 432.26,177.64 432.26,195.64" fill="#2f9149"/>
<polygon points="473.61,173.53 484.88,177.64 473.61,181.74 462.33,177.64" fill="#216e39"/>
<polygon points="462.33,195.64 462.33,177.64 473.61,181.74 473.61,199.74" fill="#1d6032"/>
<polygon points="473.61,199.74 473.61,181.74 484.88,177.64 484.88,195.64" fill="#18512a"/>
<polygon points="381.52,196.32 392.79,200.42 381.52,204.53 370.24,200.42" fill="#ebedf0"/>
<polygon points="407.83,185.32 419.10,189.42 407.83,193.53 396.55,189.42" fill="#9be9a8"/>
<polygon points="396.55,200.42 396.55,189.42 407.83,193.53 407.83,204.53" fill="#88cd93"/>
<polygon points="407.83,204.53 407.83,193.53 419.10,189.42 419.10,200.42" fill="#72ac7c"/>
<polygon points="539.38,180.32 550.66,184.42 539.38,188.53 528.11,184.42" fill="#9be9a8"/>
<polygon points="528.11,200.42 528.11,184.42 539.38,188.53 539.38,204.53" fill="#88cd93"/>
<polygon points="539.38,204.53 539.38,188.53 550.66,184.42 550.66,200.42" fill="#72ac7c"/>
<polygon points="434.14,178.32 445.41,182.42 434.14,186.53 422.86,182.42" fill="#40c463"/>
<polygon points="422.86,200.42 422.86,182.42 434.14,186.53 434.14,204.53" fill="#38ac57"/>
<polygon points="434.14,204.53 434.14,186.53 445.41,182.42 445.41,200.42" fill="#2f9149"/>
<polygon points="460.45,178.32 471.73,182.42 460.45,186.53 449.17,182.42" fill="#40c463"/>
<polygon points="449.17,200.42 449.17,182.42 460.45,186.53 460.45,204.53" fill="#38ac57"/>
<polygon points="460.45,204.53 460.45,186.53 471.73,182.42 471.73,200.42" fill="#2f9149"/>
<polygon points="486.76,178.32 498.04,182.42 486.76,186.53 475.48,182.42" fill="#40c463"/>
<polygon points="475.48,200.42 475.48,182.42 486.76,186.53 486.76,204.53" fill="#38ac57"/>
<polygon points="486.76,204.53 486.76,186.53 498.04,182.42 498.04,200.42" fill="#2f9149"/>
<polygon points="513.07,178.32 524.35,182.42 513.07,186.53 501.80,182.42" fill="#40c463"/>
<polygon points="501.80,200.42 501.80,182.42 513.07,186.53 513.07,204.53" fill="#38ac57"/>
<polygon points="513.07,204.53 513.07,186.53 524.35,182.42 524.35,200.42" fill="#2f9149"/>
<polygon points="394.67,201.11 405.95,205.21 394.67,209.32 383.39,205.21" fill="#ebedf0"/>
<polygon points="552.54,201.11 563.82,205.21 552.54,209.32 541.26,205.21" fill="#ebedf0"/>
<polygon points="420.98,190.11 432.26,194.21 420.98,198.32 409.71,194.21" fill="#9be9a8"/>
<polygon points="409.71,205.21 409.71,194.21 420.98,198.32 420.98,209.32" fill="#88cd93"/>
<polygon points="420.98,209.32 420.98,198.32 432.26,194.21 432.26,205.21" fill="#72ac7c"/>
<polygon points="526.23,190.11 537.50,194.21 526.23,198.32 514.95,194.21" fill="#9be9a8"/>
<polygon points="514.95,205.21 514.95,194.21 526.23,198.32 526.23,209.32" fill="#88cd93"/>
<polygon points="526.23,209.32 526.23,198.32 537.50,194.21 537.50,205.21" fill="#72ac7c"/>
<polygon points="473.61,183.11 484.88,187.21 473.61,191.32 462.33,187.21" fill="#40c463"/>
<polygon points="462.33,205.21 462.33,187.21 473.61,191.32 473.61,209.32" fill="#38ac57"/>
<polygon points="473.61,209.32 473.61,191.32 484.88,187.21 484.88,205.21" fill="#2f9149"/>
<polygon points="499.92,183.11 511.19,187.21 499.92,191.32 488.64,187.21" fill="#40c463"/>
<polygon points="488.64,205.21 488.64,187.21 499.92,191.32 499.92,209.32" fill="#38ac57"/>
<polygon points="499.92,209.32 499.92,191.32 511.19,187.21 511.19,205.21" fill="#2f9149"/>
<polygon points="447.29,183.11 458.57,187.21 447.29,191.32 436.02,187.21" fill="#30a14e"/>
<polygon points="436.02,205.21 436.02,187.21 447.29,191.32 447.29,209.32" fill="#2a8d44"/>
<polygon points="447.29,209.32 447.29,191.32 458.57,187.21 458.57,205.21" fill="#237739"/>
<polygon points="407.83,205.90 419.10,210.00 407.83,214.10 396.55,210.00" fill="#ebedf0"/>
<polygon points="565.69,191.90 576.97,196.00 565.69,200.10 554.42,196.00" fill="#9be9a8"/>
<polygon points="554.42,210.00 554.42,196.00 565.69,200.10 565.69,214.10" fill="#88cd93"/>
<polygon points="565.69,214.10 565.69,200.10 576.97,196.00 576.97,210.00" fill="#72ac7c"/>
<polygon points="434.14,187.90 445.41,192.00 434.14,196.10 422.86,192.00" fill="#40c463"/>
<polygon points="422.86,210.00 422.86,192.00 434.14,196.10 434.14,214.10" fill="#38ac57"/>
<polygon points="434.14,214.10 434.14,196.10 445.41,192.00 445.41,210.00" fill="#2f9149"/>
<polygon points="460.45,187.90 471.73,192.00 460.45,196.10 449.17,192.00" fill="#40c463"/>
<polygon points="449.17,210.00 449.17,192.00 460.45,196.10 460.45,214.10" fill="#38ac57"/>
<polygon points="460.45,214.10 460.45,196.10 471.73,192.00 471.73,210.00" fill="#2f9149"/>
<polygon points="486.76,187.90 498.04,192.00 486.76,196.10 475.48,192.00" fill="#40c463"/>
<polygon points="475.48,210.00 475.48,192.00 486.76,196.10 486.76,214.10" fill="#38ac57"/>
<polygon points="486.76,214.10 486.76,196.10 498.04,192.00 498.04,210.00" fill="#2f9149"/>
<polygon points="539.38,187.90 550.66,192.00 539.38,196.10 528.11,192.00" fill="#40c463"/>
<polygon points="528.11,210.00 528.11,192.00 539.38,196.10 539.38,214.10" fill="#38ac57"/>
<polygon points="539.38,214.10 539.38,196.10 550.66,192.00 550.66,210.00" fill="#2f9149"/>
<polygon points="513.07,187.90 524.35,192.00 513.07,196.10 501.80,192.00" fill="#216e39"/>
<polygon points="501.80,210.00 501.80,192.00 513.07,196.10 513.07,214.10" fill="#1d6032"/>
<polygon points="513.07,214.10 513.07,196.10 524.35,192.00 524.35,210.00" fill="#18512a"/>
<polygon points="578.85,210.68 590.13,214.79 578.85,218.89 567.57,214.79" fill="#ebedf0"/>
<polygon points="420.98,194.68 432.26,198.79 420.98,202.89 409.71,198.79" fill="#9be9a8"/>
<polygon points="409.71,214.79 409.71,198.79 420.98,202.89 420.98,218.89" fill="#88cd93"/>
<polygon points="420.98,218.89 420.98,202.89 432.26,198.79 432.26,214.79" fill="#72ac7c"/>
<polygon points="447.29,194.68 458.57,198.79 447.29,202.89 436.02,198.79" fill="#9be9a8"/>
<polygon points="436.02,214.79 436.02,198.79 447.29,202.89 447.29,218.89" fill="#88cd93"/>
<polygon points="447.29,218.89 447.29,202.89 458.57,198.79 458.57,214.79" fill="#72ac7c"/>
<polygon points="473.61,193.68 484.88,197.79 473.61,201.89 462.33,197.79" fill="#40c463"/>
<polygon points="462.33,214.79 462.33,197.79 473.61,201.89 473.61,218.89" fill="#38ac57"/>
<polygon points="473.61,218.89 473.61,201.89 484.88,197.79 484.88,214.79" fill="#2f9149"/>
<polygon points="499.92,192.68 511.19,196.79 499.92,200.89 488.64,196.79" fill="#40c463"/>
<polygon points="488.64,214.79 488.64,196.79 499.92,200.89 499.92,218.89" fill="#38ac57"/>
<polygon points="499.92,218.89 499.92,200.89 511.19,196.79 511.19,214.79" fill="#2f9149"/>
<polygon points="552.54,192.68 563.82,196.79 552.54,200.89 541.26,196.79" fill="#40c463"/>
<polygon points="541.26,214.79 541.26,196.79 552.54,200.89 552.54,218.89" fill="#38ac57"/>
<polygon points="552.54,218.89 552.54,200.89 563.82,196.79 563.82,214.79" fill="#2f9149"/>
<polygon points="526.23,192.68 537.50,196.79 526.23,200.89 514.95,196.79" fill="#216e39"/>
<polygon points="514.95,214.79 514.95,196.79 526.23,200.89 526.23,218.89" fill="#1d6032"/>
<polygon points="526.23,218.89 526.23,200.89 537.50,196.79 537.50,214.79" fill="#18512a"/>
<polygon points="434.14,215.47 445.41,219.58 434.14,223.68 422.86,219.58" fill="#ebedf0"/>
<polygon points="592.01,215.47 603.28,219.58 592.01,223.68 580.73,219.58" fill="#ebedf0"/>
<polygon points="460.45,199.47 471.73,203.58 460.45,207.68 449.17,203.58" fill="#9be9a8"/>
<polygon points="449.17,219.58 449.17,203.58 460.45,207.68 460.45,223.68" fill="#88cd93"/>
<polygon points="460.45,223.68 460.45,207.68 471.73,203.58 471.73,219.58" fill="#72ac7c"/>
<polygon points="513.07,197.47 524.35,201.58 513.07,205.68 501.80,201.58" fill="#40c463"/>
<polygon points="501.80,219.58 501.80,201.58 513.07,205.68 513.07,223.68" fill="#38ac57"/>
<polygon points="513.07,223.68 513.07,205.68 524.35,201.58 524.35,219.58" fill="#2f9149"/>
<polygon points="486.76,197.47 498.04,201.58 486.76,205.68 475.48,201.58" fill="#30a14e"/>
<polygon points="475.48,219.58 475.48,201.58 486.76,205.68 486.76,223.68" fill="#2a8d44"/>
<polygon points="486.76,223.68 486.76,205.68 498.04,201.58 498.04,219.58" fill="#237739"/>
<polygon points="539.38,197.47 550.66,201.58 539.38,205.68 528.11,201.58" fill="#30a14e"/>
<polygon points="528.11,219.58 528.11,201.58 539.38,205.68 539.38,223.68" fill="#2a8d44"/>
<polygon points="539.38,223.68 539.38,205.68 550.66,201.58 550.66,219.58" fill="#237739"/>
<polygon points="565.69,197.47 576.97,201.58 565.69,205.68 554.42,201.58" fill="#30a14e"/>
<polygon points="554.42,219.58 554.42,201.58 565.69,205.68 565.69,223.68" fill="#2a8d44"/>
<polygon points="565.69,223.68 565.69,205.68 576.97,201.58 576.97,219.58" fill="#237739"/>
<polygon points="447.29,220.26 458.57,224.37 447.29,228.47 436.02,224.37" fill="#ebedf0"/>
<polygon points="552.54,204.26 563.82,208.37 552.54,212.47 541.26,208.37" fill="#9be9a8"/>
<polygon points="541.26,224.37 541.26,208.37 552.54,212.47 552.54,228.47" fill="#88cd93"/>
<polygon points="552.54,228.47 552.54,212.47 563.82,208.37 563.82,224.37" fill="#72ac7c"/>
<polygon points="578.85,212.26 590.13,216.37 578.85,220.47 567.57,216.37" fill="#9be9a8"/>
<polygon points="567.57,224.37 567.57,216.37 578.85,220.47 578.85,228.47" fill="#88cd93"/>
<polygon points="578.85,228.47 578.85,220.47 590.13,216.37 590.13,224.37" fill="#72ac7c"/>
<polygon points="605.16,206.26 616.44,210.37 605.16,214.47 593.89,210.37" fill="#9be9a8"/>
<polygon points="593.89,224.37 593.89,210.37 605.16,214.47 605.16,228.47" fill="#88cd93"/>
<polygon points="605.16,228.47 605.16,214.47 616.44,210.37 616.44,224.37" fill="#72ac7c"/>
<polygon points="473.61,202.26 484.88,206.37 473.61,210.47 462.33,206.37" fill="#40c463"/>
<polygon points="462.33,224.37 462.33,206.37 473.61,210.47 473.61,228.47" fill="#38ac57"/>
<polygon points="473.61,228.47 473.61,210.47 484.88,206.37 484.88,224.37" fill="#2f9149"/>
<polygon points="499.92,202.26 511.19,206.37 499.92,210.47 488.64,206.37" fill="#216e39"/>
<polygon points="488.64,224.37 488.64,206.37 499.92,210.47 499.92,228.47" fill="#1d6032"/>
<polygon points="499.92,228.47 499.92,210.47 511.19,206.37 511.19,224.37" fill="#18512a"/>
<polygon points="526.23,202.26 537.50,206.37 526.23,210.47 514.95,206.37" fill="#216e39"/>
<polygon points="514.95,224.37 514.95,206.37 526.23,210.47 526.23,228.47" fill="#1d6032"/>
<polygon points="526.23,228.47 526.23,210.47 537.50,206.37 537.50,224.37" fill="#18512a"/>
<polygon points="460.45,225.05 471.73,229.15 460.45,233.26 449.17,229.15" fill="#ebedf0"/>
<polygon points="618.32,225.05 629.59,229.15 618.32,233.26 607.04,229.15" fill="#ebedf0"/>
<polygon points="513.07,212.05 524.35,216.15 513.07,220.26 501.80,216.15" fill="#9be9a8"/>
<polygon points="501.80,229.15 501.80,216.15 513.07,220.26 513.07,233.26" fill="#88cd93"/>
<polygon points="513.07,233.26 513.07,220.26 524.35,216.15 524.35,229.15" fill="#72ac7c"/>
<polygon points="565.69,217.05 576.97,221.15 565.69,225.26 554.42,221.15" fill="#9be9a8"/>
<polygon points="554.42,229.15 554.42,221.15 565.69,225.26 565.69,233.26" fill="#88cd93"/>
<polygon points="565.69,233.26 565.69,225.26 576.97,221.15 576.97,229.15" fill="#72ac7c"/>
<polygon points="592.01,209.05 603.28,213.15 592.01,217.26 580.73,213.15" fill="#9be9a8"/>
<polygon points="580.73,229.15 580.73,213.15 592.01,217.26 592.01,233.26" fill="#88cd93"/>
<polygon points="592.01,233.26 592.01,217.26 603.28,213.15 603.28,229.15" fill="#72ac7c"/>
<polygon points="486.76,207.05 498.04,211.15 486.76,215.26 475.48,211.15" fill="#40c463"/>
<polygon points="475.48,229.15 475.48,211.15 486.76,215.26 486.76,233.26" fill="#38ac57"/>
<polygon points="486.76,233.26 486.76,215.26 498.04,211.15 498.04,229.15" fill="#2f9149"/>
<polygon points="539.38,207.05 550.66,211.15 539.38,215.26 528.11,211.15" fill="#40c463"/>
<polygon points="528.11,229.15 528.11,211.15 539.38,215.26 539.38,233.26" fill="#38ac57"/>
<polygon points="539.38,233.26 539.38,215.26 550.66,211.15 550.66,229.15" fill="#2f9149"/>
<polygon points="473.61,229.84 484.88,233.94 473.61,238.05 462.33,233.94" fill="#ebedf0"/>
<polygon points="499.92,212.84 511.19,216.94 499.92,221.05 488.64,216.94" fill="#40c463"/>
<polygon points="488.64,233.94 488.64,216.94 499.92,221.05 499.92,238.05" fill="#38ac57"/>
<polygon points="499.92,238.05 499.92,221.05 511.19,216.94 511.19,233.94" fill="#2f9149"/>
<polygon points="526.23,211.84 537.50,215.94 526.23,220.05 514.95,215.94" fill="#40c463"/>
<polygon points="514.95,233.94 514.95,215.94 526.23,220.05 526.23,238.05" fill="#38ac57"/>
<polygon points="526.23,238.05 526.23,220.05 537.50,215.94 537.50,233.94" fill="#2f9149"/>
<polygon points="552.54,211.84 563.82,215.94 552.54,220.05 541.26,215.94" fill="#40c463"/>
<polygon points="541.26,233.94 541.26,215.94 552.54,220.05 552.54,238.05" fill="#38ac57"/>
<polygon points="552.54,238.05 552.54,220.05 563.82,215.94 563.82,233.94" fill="#2f9149"/>
<polygon points="578.85,211.84 590.13,215.94 578.85,220.05 567.57,215.94" fill="#40c463"/>
<polygon points="567.57,233.94 567.57,215.94 578.85,220.05 578.85,238.05" fill="#38ac57"/>
<polygon points="578.85,238.05 578.85,220.05 590.13,215.94 590.13,233.94" fill="#2f9149"/>
<polygon points="605.16,211.84 616.44,215.94 605.16,220.05 593.89,215.94" fill="#40c463"/>
<polygon points="593.89,233.94 593.89,215.94 605.16,220.05 605.16,238.05" fill="#38ac57"/>
<polygon points="605.16,238.05 605.16,220.05 616.44,215.94 616.44,233.94" fill="#2f9149"/>
<polygon points="631.47,211.84 642.75,215.94 631.47,220.05 620.20,215.94" fill="#40c463"/>
<polygon points="620.20,233.94 620.20,215.94 631.47,220.05 631.47,238.05" fill="#38ac57"/>
<polygon points="631.47,238.05 631.47,220.05 642.75,215.94 642.75,233.94" fill="#2f9149"/>
<polygon points="486.76,234.63 498.04,238.73 486.76,242.83 475.48,238.73" fill="#ebedf0"/>
<polygon points="644.63,234.63 655.91,238.73 644.63,242.83 633.35,238.73" fill="#ebedf0"/>
<polygon points="539.38,223.63 550.66,227.73 539.38,231.83 528.11,227.73" fill="#9be9a8"/>
<polygon points="528.11,238.73 528.11,227.73 539.38,231.83 539.38,242.83" fill="#88cd93"/>
<polygon points="539.38,242.83 539.38,231.83 550.66,227.73 550.66,238.73" fill="#72ac7c"/>
<polygon points="565.69,218.63 576.97,222.73 565.69,226.83 554.42,222.73" fill="#9be9a8"/>
<polygon points="554.42,238.73 554.42,222.73 565.69,226.83 565.69,242.83" fill="#88cd93"/>
<polygon points="565.69,242.83 565.69,226.83 576.97,222.73 576.97,238.73" fill="#72ac7c"/>
<polygon points="592.01,220.63 603.28,224.73 592.01,228.83 580.73,224.73" fill="#9be9a8"/>
<polygon points="580.73,238.73 580.73,224.73 592.01,228.83 592.01,242.83" fill="#88cd93"/>
<polygon points="592.01,242.83 592.01,228.83 603.28,224.73 603.28,238.73" fill="#72ac7c"/>
<polygon points="513.07,216.63 524.35,220.73 513.07,224.83 501.80,220.73" fill="#40c463"/>
<polygon points="501.80,238.73 501.80,220.73 513.07,224.83 513.07,242.83" fill="#38ac57"/>
<polygon points="513.07,242.83 513.07,224.83 524.35,220.73 524.35,238.73" fill="#2f9149"/>
<polygon points="618.32,216.63 629.59,220.73 618.32,224.83 607.04,220.73" fill="#40c463"/>
<polygon points="607.04,238.73 607.04,220.73 618.32,224.83 618.32,242.83" fill="#38ac57"/>
<polygon points="618.32,242.83 618.32,224.83 629.59,220.73 629.59,238.73" fill="#2f9149"/>
<polygon points="499.92,239.41 511.19,243.52 499.92,247.62 488.64,243.52" fill="#ebedf0"/>
<polygon points="605.16,239.41 616.44,243.52 605.16,247.62 593.89,243.52" fill="#ebedf0"/>
<polygon points="657.78,239.41 669.06,243.52 657.78,247.62 646.51,243.52" fill="#ebedf0"/>
<polygon points="526.23,223.41 537.50,227.52 526.23,231.62 514.95,227.52" fill="#9be9a8"/>
<polygon points="514.95,243.52 514.95,227.52 526.23,231.62 526.23,247.62" fill="#88cd93"/>
<polygon points="526.23,247.62 526.23,231.62 537.50,227.52 537.50,243.52" fill="#72ac7c"/>
<polygon points="552.54,223.41 563.82,227.52 552.54,231.62 541.26,227.52" fill="#9be9a8"/>
<polygon points="541.26,243.52 541.26,227.52 552.54,231.62 552.54,247.62" fill="#88cd93"/>
<polygon points="552.54,247.62 552.54,231.62 563.82,227.52 563.82,243.52" fill="#72ac7c"/>
<polygon points="578.85,225.41 590.13,229.52 578.85,233.62 567.57,229.52" fill="#9be9a8"/>
<polygon points="567.57,243.52 567.57,229.52 578.85,233.62 578.85,247.62" fill="#88cd93"/>
<polygon points="578.85,247.62 578.85,233.62 590.13,229.52 590.13,243.52" fill="#72ac7c"/>
<polygon points="631.47,223.41 642.75,227.52 631.47,231.62 620.20,227.52" fill="#9be9a8"/>
<polygon points="620.20,243.52 620.20,227.52 631.47,231.62 631.47,247.62" fill="#88cd93"/>
<polygon points="631.47,247.62 631.47,231.62 642.75,227.52 642.75,243.52" fill="#72ac7c"/>
<polygon points="513.07,244.20 524.35,248.31 513.07,252.41 501.80,248.31" fill="#ebedf0"/>
<polygon points="592.01,244.20 603.28,248.31 592.01,252.41 580.73,248.31" fill="#ebedf0"/>
<polygon points="618.32,244.20 629.59,248.31 618.32,252.41 607.04,248.31" fill="#ebedf0"/>
<polygon points="670.94,244.20 682.22,248.31 670.94,252.41 659.66,248.31" fill="#ebedf0"/>
<polygon points="539.38,229.20 550.66,233.31 539.38,237.41 528.11,233.31" fill="#9be9a8"/>
<polygon points="528.11,248.31 528.11,233.31 539.38,237.41 539.38,252.41" fill="#88cd93"/>
<polygon points="539.38,252.41 539.38,237.41 550.66,233.31 550.66,248.31" fill="#72ac7c"/>
<polygon points="565.69,228.20 576.97,232.31 565.69,236.41 554.42,232.31" fill="#9be9a8"/>
<polygon points="554.42,248.31 554.42,232.31 565.69,236.41 565.69,252.41" fill="#88cd93"/>
<polygon points="565.69,252.41 565.69,236.41 576.97,232.31 576.97,248.31" fill="#72ac7c"/>
<polygon points="644.63,231.20 655.91,235.31 644.63,239.41 633.35,235.31" fill="#9be9a8"/>
<polygon points="633.35,248.31 633.35,235.31 644.63,239.41 644.63,252.41" fill="#88cd93"/>
<polygon points="644.63,252.41 644.63,239.41 655.91,235.31 655.91,248.31" fill="#72ac7c"/>
<polygon points="526.23,248.99 537.50,253.09 526.23,257.20 514.95,253.09" fill="#ebedf0"/>
<polygon points="684.10,248.99 695.37,253.09 684.10,257.20 672.82,253.09" fill="#ebedf0"/>
<polygon points="578.85,237.99 590.13,242.09 578.85,246.20 567.57,242.09" fill="#9be9a8"/>
<polygon points="567.57,253.09 567.57,242.09 578.85,246.20 578.85,257.20" fill="#88cd93"/>
<polygon points="578.85,257.20 578.85,246.20 590.13,242.09 590.13,253.09" fill="#72ac7c"/>
<polygon points="605.16,234.99 616.44,239.09 605.16,243.20 593.89,239.09" fill="#9be9a8"/>
<polygon points="593.89,253.09 593.89,239.09 605.16,243.20 605.16,257.20" fill="#88cd93"/>
<polygon points="605.16,257.20 605.16,243.20 616.44,239.09 616.44,253.09" fill="#72ac7c"/>
<polygon points="631.47,231.99 642.75,236.09 631.47,240.20 620.20,236.09" fill="#40c463"/>
<polygon points="620.20,253.09 620.20,236.09 631.47,240.20 631.47,257.20" fill="#38ac57"/>
<polygon points="631.47,257.20 631.47,240.20 642.75,236.09 642.75,253.09" fill="#2f9149"/>
<polygon points="657.78,230.99 669.06,235.09 657.78,239.20 646.51,235.09" fill="#30a14e"/>
<polygon points="646.51,253.09 646.51,235.09 657.78,239.20 657.78,257.20" fill="#2a8d44"/>
<polygon points="657.78,257.20 657.78,239.20 669.06,235.09 669.06,253.09" fill="#237739"/>
<polygon points="552.54,230.99 563.82,235.09 552.54,239.20 541.26,235.09" fill="#216e39"/>
<polygon points="541.26,253.09 541.26,235.09 552.54,239.20 552.54,257.20" fill="#1d6032"/>
<polygon points="552.54,257.20 552.54,239.20 563.82,235.09 563.82,253.09" fill="#18512a"/>
<polygon points="618.32,237.78 629.59,241.88 618.32,245.99 607.04,241.88" fill="#9be9a8"/>
<polygon points="607.04,257.88 607.04,241.88 618.32,245.99 618.32,261.99" fill="#88cd93"/>
<polygon points="618.32,261.99 618.32,245.99 629.59,241.88 629.59,257.88" fill="#72ac7c"/>
<polygon points="644.63,239.78 655.91,243.88 644.63,247.99 633.35,243.88" fill="#9be9a8"/>
<polygon points="633.35,257.88 633.35,243.88 644.63,247.99 644.63,261.99" fill="#88cd93"/>
<polygon points="644.63,261.99 644.63,247.99 655.91,243.88 655.91,257.88" fill="#72ac7c"/>
<polygon points="539.38,235.78 550.66,239.88 539.38,243.99 528.11,239.88" fill="#40c463"/>
<polygon points="528.11,257.88 528.11,239.88 539.38,243.99 539.38,261.99" fill="#38ac57"/>
<polygon points="539.38,261.99 539.38,243.99 550.66,239.88 550.66,257.88" fill="#2f9149"/>
<polygon points="565.69,236.78 576.97,240.88 565.69,244.99 554.42,240.88" fill="#40c463"/>
<polygon points="554.42,257.88 554.42,240.88 565.69,244.99 565.69,261.99" fill="#38ac57"/>
<polygon points="565.69,261.99 565.69,244.99 576.97,240.88 576.97,257.88" fill="#2f9149"/>
<polygon points="592.01,235.78 603.28,239.88 592.01,243.99 580.73,239.88" fill="#40c463"/>
<polygon points="580.73,257.88 580.73,239.88 592.01,243.99 592.01,261.99" fill="#38ac57"/>
<polygon points="592.01,261.99 592.01,243.99 603.28,239.88 603.28,257.88" fill="#2f9149"/>
<polygon points="552.54,258.57 563.82,262.67 552.54,266.78 541.26,262.67" fill="#ebedf0"/>
<polygon points="578.85,250.57 590.13,254.67 578.85,258.78 567.57,254.67" fill="#9be9a8"/>
<polygon points="567.57,262.67 567.57,254.67 578.85,258.78 578.85,266.78" fill="#88cd93"/>
<polygon points="578.85,266.78 578.85,258.78 590.13,254.67 590.13,262.67" fill="#72ac7c"/>
<polygon points="605.16,247.57 616.44,251.67 605.16,255.78 593.89,251.67" fill="#9be9a8"/>
<polygon points="593.89,262.67 593.89,251.67 605.16,255.78 605.16,266.78" fill="#88cd93"/>
<polygon points="605.16,266.78 605.16,255.78 616.44,251.67 616.44,262.67" fill="#72ac7c"/>
<polygon points="631.47,242.57 642.75,246.67 631.47,250.78 620.20,246.67" fill="#9be9a8"/>
<polygon points="620.20,262.67 620.20,246.67 631.47,250.78 631.47,266.78" fill="#88cd93"/>
<polygon points="631.47,266.78 631.47,250.78 642.75,246.67 642.75,262.67" fill="#72ac7c"/>
<polygon points="565.69,263.36 576.97,267.46 565.69,271.56 554.42,267.46" fill="#ebedf0"/>
<polygon points="618.32,263.36 629.59,267.46 618.32,271.56 607.04,267.46" fill="#ebedf0"/>
<polygon points="592.01,249.36 603.28,253.46 592.01,257.56 580.73,253.46" fill="#9be9a8"/>
<polygon points="580.73,267.46 580.73,253.46 592.01,257.56 592.01,271.56" fill="#88cd93"/>
<polygon points="592.01,271.56 592.01,257.56 603.28,253.46 603.28,267.46" fill="#72ac7c"/>
<polygon points="578.85,268.14 590.13,272.25 578.85,276.35 567.57,272.25" fill="#ebedf0"/>
<polygon points="605.16,257.14 616.44,261.25 605.16,265.35 593.89,261.25" fill="#9be9a8"/>
<polygon points="593.89,272.25 593.89,261.25 605.16,265.35 605.16,276.35" fill="#88cd93"/>
<polygon points="605.16,276.35 605.16,265.35 616.44,261.25 616.44,272.25" fill="#72ac7c"/>
<polygon points="592.01,272.93 603.28,277.04 592.01,281.14 580.73,277.04" fill="#ebedf0"/>
<text x="697.25" y="14.00" text-anchor="end" font-family='-apple-system, BlinkMacSystemFont, "Segoe UI", Helvetica, Arial, sans-serif' font-size="34" font-weight="700" fill="#216e39">1,657</text>
<text x="697.25" y="26.00" text-anchor="end" font-family='-apple-system, BlinkMacSystemFont, "Segoe UI", Helvetica, Arial, sans-serif' font-size="10" fill="#59636e" letter-spacing="0.8">TOTAL CONTRIBUTIONS</text>
<rect x="-92.09" y="229.87" width="12" height="9.42" rx="1" fill="#40c463"/>
<text x="-86.09" y="257.30" text-anchor="middle" font-family='-apple-system, BlinkMacSystemFont, "Segoe UI", Helvetica, Arial, sans-serif' font-size="11" fill="#59636e">S</text>
<rect x="-76.09" y="199.36" width="12" height="39.94" rx="1" fill="#40c463"/>
<text x="-70.09" y="257.30" text-anchor="middle" font-family='-apple-system, BlinkMacSystemFont, "Segoe UI", Helvetica, Arial, sans-serif' font-size="11" fill="#59636e">M</text>
<rect x="-60.09" y="185.30" width="12" height="54.00" rx="1" fill="#216e39"/>
<text x="-54.09" y="257.30" text-anchor="middle" font-family='-apple-system, BlinkMacSystemFont, "Segoe UI", Helvetica, Arial, sans-serif' font-size="11" fill="#59636e">T</text>
<rect x="-44.09" y="193.82" width="12" height="45.47" rx="1" fill="#40c463"/>
<text x="-38.09" y="257.30" text-anchor="middle" font-family='-apple-system, BlinkMacSystemFont, "Segoe UI", Helvetica, Arial, sans-serif' font-size="11" fill="#59636e">W</text>
<rect x="-28.09" y="191.58" width="12" height="47.72" rx="1" fill="#40c463"/>
<text x="-22.09" y="257.30" text-anchor="middle" font-family='-apple-system, BlinkMacSystemFont, "Segoe UI", Helvetica, Arial, sans-serif' font-size="11" fill="#59636e">T</text>
<rect x="-12.09" y="199.21" width="12" height="40.09" rx="1" fill="#40c463"/>
<text x="-6.09" y="257.30" text-anchor="middle" font-family='-apple-system, BlinkMacSystemFont, "Segoe UI", Helvetica, Arial, sans-serif' font-size="11" fill="#59636e">F</text>
<rect x="3.91" y="233.61" width="12" height="5.68" rx="1" fill="#40c463"/>
<text x="9.91" y="257.30" text-anchor="middle" font-family='-apple-system, BlinkMacSystemFont, "Segoe UI", Helvetica, Arial, sans-serif' font-size="11" fill="#59636e">S</text>
<text x="-92.09" y="277.30" font-family='-apple-system, BlinkMacSystemFont, "Segoe UI", Helvetica, Arial, sans-serif' font-size="12" fill="#59636e" letter-spacing="0.3">Most active days</text>
<text x="-92.09" y="293.30" font-family='-apple-system, BlinkMacSystemFont, "Segoe UI", Helvetica, Arial, sans-serif' font-size="9" fill="#59636e">Data pulled daily from GitHub.</text>
<text x="-92.09" y="303.30" font-family='-apple-system, BlinkMacSystemFont, "Segoe UI", Helvetica, Arial, sans-serif' font-size="9" fill="#59636e">Rolling last-12-month activity.</text>
</svg>