<svg xmlns="http://www.w3.org/2000/svg" viewBox="-98.09 -22.00 801.34 336.30" width="801" height="336">
<polygon points="0.00,0.00 11.28,4.10 0.00,8.21 -11.28,4.10" fill="#ebedf0"/>
<polygon points="-13.16,2.79 -1.88,6.89 -13.16,11.00 -24.43,6.89" fill="#9be9a8"/>
<polygon points="-24.43,8.89 -24.43,6.89 -13.16,11.00 -13.16,13.00" fill="#88cd93"/>
<polygon points="-13.16,13.00 -13.16,11.00 -1.88,6.89 -1.88,8.89" fill="#72ac7c"/>
<polygon points="13.16,-3.21 24.43,0.89 13.16,5.00 1.88,0.89" fill="#40c463"/>
<polygon points="1.88,8.89 1.88,0.89 13.16,5.00 13.16,13.00" fill="#38ac57"/>
<polygon points="13.16,13.00 13.16,5.00 24.43,0.89 24.43,8.89" fill="#2f9149"/>
<polygon points="-26.31,9.58 -15.04,13.68 -26.31,17.79 -37.59,13.68" fill="#ebedf0"/>
<polygon points="26.31,9.58 37.59,13.68 26.31,17.79 15.04,13.68" fill="#ebedf0"/>
<polygon points="0.00,-0.42 11.28,3.68 0.00,7.79 -11.28,3.68" fill="#30a14e"/>
<polygon points="-11.28,13.68 -11.28,3.68 0.00,7.79 0.00,17.79" fill="#2a8d44"/>
<polygon points="0.00,17.79 0.00,7.79 11.28,3.68 11.28,13.68" fill="#237739"/>
<polygon points="-39.47,14.36 -28.19,18.47 -39.47,22.57 -50.74,18.47" fill="#ebedf0"/>
<polygon points="13.16,14.36 24.43,18.47 13.16,22.57 1.88,18.47" fill="#ebedf0"/>
<polygon points="-13.16,10.36 -1.88,14.47 -13.16,18.57 -24.43,14.47" fill="#9be9a8"/>
<polygon points="-24.43,18.47 -24.43,14.47 -13.16,18.57 -13.16,22.57" fill="#88cd93"/>
<polygon points="-13.16,22.57 -13.16,18.57 -1.88,14.47 -1.88,18.47" fill="#72ac7c"/>
<polygon points="39.47,9.36 50.74,13.47 39.47,17.57 28.19,13.47" fill="#40c463"/>
<polygon points="28.19,18.47 28.19,13.47 39.47,17.57 39.47,22.57" fill="#38ac57"/>
<polygon points="39.47,22.57 39.47,17.57 50.74,13.47 50.74,18.47" fill="#2f9149"/>
<polygon points="52.62,19.15 63.90,23.26 52.62,27.36 41.35,23.26" fill="#ebedf0"/>
<polygon points="-52.62,11.15 -41.35,15.26 -52.62,19.36 -63.90,15.26" fill="#40c463"/>
<polygon points="-63.90,23.26 -63.90,15.26 -52.62,19.36 -52.62,27.36" fill="#38ac57"/>
<polygon points="-52.62,27.36 -52.62,19.36 -41.35,15.26 -41.35,23.26" fill="#2f9149"/>
<polygon points="-26.31,9.15 -15.04,13.26 -26.31,17.36 -37.59,13.26" fill="#30a14e"/>
<polygon points="-37.59,23.26 -37.59,13.26 -26.31,17.36 -26.31,27.36" fill="#2a8d44"/>
<polygon points="-26.31,27.36 -26.31,17.36 -15.04,13.26 -15.04,23.26" fill="#237739"/>
<polygon points="0.00,6.15 11.28,10.26 0.00,14.36 -11.28,10.26" fill="#216e39"/>
<polygon points="-11.28,23.26 -11.28,10.26 0.00,14.36 0.00,27.36" fill="#1d6032"/>
<polygon points="0.00,27.36 0.00,14.36 11.28,10.26 11.28,23.26" fill="#18512a"/>
<polygon points="26.31,5.15 37.59,9.26 26.31,13.36 15.04,9.26" fill="#216e39"/>
<polygon points="15.04,23.26 15.04,9.26 26.31,13.36 26.31,27.36" fill="#1d6032"/>
<polygon points="26.31,27.36 26.31,13.36 37.59,9.26 37.59,23.26" fill="#18512a"/>
<polygon points="-65.78,23.94 -54.50,28.05 -65.78,32.15 -77.05,28.05" fill="#ebedf0"/>
<polygon points="-13.16,23.94 -1.88,28.05 -13.16,32.15 -24.43,28.05" fill="#ebedf0"/>
<polygon points="39.47,23.94 50.74,28.05 39.47,32.15 28.19,28.05" fill="#ebedf0"/>
<polygon points="65.78,23.94 77.05,28.05 65.78,32.15 54.50,28.05" fill="#ebedf0"/>
<polygon points="13.16,20.94 24.43,25.05 13.16,29.15 1.88,25.05" fill="#9be9a8"/>
<polygon points="1.88,28.05 1.88,25.05 13.16,29.15 13.16,32.15" fill="#88cd93"/>
<polygon points="13.16,32.15 13.16,29.15 24.43,25.05 24.43,28.05" fill="#72ac7c"/>
<polygon points="-39.47,15.94 -28.19,20.05 -39.47,24.15 -50.74,20.05" fill="#40c463"/>
<polygon points="-50.74,28.05 -50.74,20.05 -39.47,24.15 -39.47,32.15" fill="#38ac57"/>
<polygon points="-39.47,32.15 -39.47,24.15 -28.19,20.05 -28.19,28.05" fill="#2f9149"/>
<polygon points="-78.93,28.73 -67.66,32.83 -78.93,36.94 -90.21,32.83" fill="#ebedf0"/>
<polygon points="26.31,28.73 37.59,32.83 26.31,36.94 15.04,32.83" fill="#ebedf0"/>
<polygon points="78.93,28.73 90.21,32.83 78.93,36.94 67.66,32.83" fill="#ebedf0"/>
<polygon points="-26.31,25.73 -15.04,29.83 -26.31,33.94 -37.59,29.83" fill="#9be9a8"/>
<polygon points="-37.59,32.83 -37.59,29.83 -26.31,33.94 -26.31,36.94" fill="#88cd93"/>
<polygon points="-26.31,36.94 -26.31,33.94 -15.04,29.83 -15.04,32.83" fill="#72ac7c"/>
<polygon points="-52.62,23.73 -41.35,27.83 -52.62,31.94 -63.90,27.83" fill="#40c463"/>
<polygon points="-63.90,32.83 -63.90,27.83 -52.62,31.94 -52.62,36.94" fill="#38ac57"/>
<polygon points="-52.62,36.94 -52.62,31.94 -41.35,27.83 -41.35,32.83" fill="#2f9149"/>
<polygon points="0.00,13.73 11.28,17.83 0.00,21.94 -11.28,17.83" fill="#216e39"/>
<polygon points="-11.28,32.83 -11.28,17.83 0.00,21.94 0.00,36.94" fill="#1d6032"/>
<polygon points="0.00,36.94 0.00,21.94 11.28,17.83 11.28,32.83" fill="#18512a"/>
<polygon points="52.62,13.73 63.90,17.83 52.62,21.94 41.35,17.83" fill="#216e39"/>
<polygon points="41.35,32.83 41.35,17.83 52.62,21.94 52.62,36.94" fill="#1d6032"/>
<polygon points="52.62,36.94 52.62,21.94 63.90,17.83 63.90,32.83" fill="#18512a"/>
<polygon points="13.16,33.52 24.43,37.62 13.16,41.73 1.88,37.62" fill="#ebedf0"/>
<polygon points="39.47,33.52 50.74,37.62 39.47,41.73 28.19,37.62" fill="#ebedf0"/>
<polygon points="92.09,33.52 103.37,37.62 92.09,41.73 80.81,37.62" fill="#ebedf0"/>
<polygon points="65.78,31.52 77.05,35.62 65.78,39.73 54.50,35.62" fill="#9be9a8"/>
<polygon points="54.50,37.62 54.50,35.62 65.78,39.73 65.78,41.73" fill="#88cd93"/>
<polygon points="65.78,41.73 65.78,39.73 77.05,35.62 77.05,37.62" fill="#72ac7c"/>
<polygon points="-65.78,24.52 -54.50,28.62 -65.78,32.73 -77.05,28.62" fill="#30a14e"/>
<polygon points="-77.05,37.62 -77.05,28.62 -65.78,32.73 -65.78,41.73" fill="#2a8d44"/>
<polygon points="-65.78,41.73 -65.78,32.73 -54.50,28.62 -54.50,37.62" fill="#237739"/>
<polygon points="-39.47,23.52 -28.19,27.62 -39.47,31.73 -50.74,27.62" fill="#30a14e"/>
<polygon points="-50.74,37.62 -50.74,27.62 -39.47,31.73 -39.47,41.73" fill="#2a8d44"/>
<polygon points="-39.47,41.73 -39.47,31.73 -28.19,27.62 -28.19,37.62" fill="#237739"/>
<polygon points="-13.16,20.52 -1.88,24.62 -13.16,28.73 -24.43,24.62" fill="#216e39"/>
<polygon points="-24.43,37.62 -24.43,24.62 -13.16,28.73 -13.16,41.73" fill="#1d6032"/>
<polygon points="-13.16,41.73 -13.16,28.73 -1.88,24.62 -1.88,37.62" fill="#18512a"/>
<polygon points="-52.62,38.31 -41.35,42.41 -52.62,46.51 -63.90,42.41" fill="#ebedf0"/>
<polygon points="52.62,38.31 63.90,42.41 52.62,46.51 41.35,42.41" fill="#ebedf0"/>
<polygon points="0.00,34.31 11.28,38.41 0.00,42.51 -11.28,38.41" fill="#9be9a8"/>
<polygon points="-11.28,42.41 -11.28,38.41 0.00,42.51 0.00,46.51" fill="#88cd93"/>
<polygon points="0.00,46.51 0.00,42.51 11.28,38.41 11.28,42.41" fill="#72ac7c"/>
<polygon points="26.31,30.31 37.59,34.41 26.31,38.51 15.04,34.41" fill="#40c463"/>
<polygon points="15.04,42.41 15.04,34.41 26.31,38.51 26.31,46.51" fill="#38ac57"/>
<polygon points="26.31,46.51 26.31,38.51 37.59,34.41 37.59,42.41" fill="#2f9149"/>
<polygon points="78.93,31.31 90.21,35.41 78.93,39.51 67.66,35.41" fill="#40c463"/>
<polygon points="67.66,42.41 67.66,35.41 78.93,39.51 78.93,46.51" fill="#38ac57"/>
<polygon points="78.93,46.51 78.93,39.51 90.21,35.41 90.21,42.41" fill="#2f9149"/>
<polygon points="105.25,31.31 116.52,35.41 105.25,39.51 93.97,35.41" fill="#40c463"/>
<polygon points="93.97,42.41 93.97,35.41 105.25,39.51 105.25,46.51" fill="#38ac57"/>
<polygon points="105.25,46.51 105.25,39.51 116.52,35.41 116.52,42.41" fill="#2f9149"/>
<polygon points="-26.31,27.31 -15.04,31.41 -26.31,35.51 -37.59,31.41" fill="#30a14e"/>
<polygon points="-37.59,42.41 -37.59,31.41 -26.31,35.51 -26.31,46.51" fill="#2a8d44"/>
<polygon points="-26.31,46.51 -26.31,35.51 -15.04,31.41 -15.04,42.41" fill="#237739"/>
<polygon points="39.47,43.09 50.74,47.20 39.47,51.30 28.19,47.20" fill="#ebedf0"/>
<polygon points="-39.47,39.09 -28.19,43.20 -39.47,47.30 -50.74,43.20" fill="#9be9a8"/>
<polygon points="-50.74,47.20 -50.74,43.20 -39.47,47.30 -39.47,51.30" fill="#88cd93"/>
<polygon points="-39.47,51.30 -39.47,47.30 -28.19,43.20 -28.19,47.20" fill="#72ac7c"/>
<polygon points="92.09,41.09 103.37,45.20 92.09,49.30 80.81,45.20" fill="#9be9a8"/>
<polygon points="80.81,47.20 80.81,45.20 92.09,49.30 92.09,51.30" fill="#88cd93"/>
<polygon points="92.09,51.30 92.09,49.30 103.37,45.20 103.37,47.20" fill="#72ac7c"/>
<polygon points="13.16,37.09 24.43,41.20 13.16,45.30 1.88,41.20" fill="#40c463"/>
<polygon points="1.88,47.20 1.88,41.20 13.16,45.30 13.16,51.30" fill="#38ac57"/>
<polygon points="13.16,51.30 13.16,45.30 24.43,41.20 24.43,47.20" fill="#2f9149"/>
<polygon points="118.40,36.09 129.68,40.20 118.40,44.30 107.12,40.20" fill="#40c463"/>
<polygon points="107.12,47.20 107.12,40.20 118.40,44.30 118.40,51.30" fill="#38ac57"/>
<polygon points="118.40,51.30 118.40,44.30 129.68,40.20 129.68,47.20" fill="#2f9149"/>
<polygon points="-13.16,34.09 -1.88,38.20 -13.16,42.30 -24.43,38.20" fill="#30a14e"/>
<polygon points="-24.43,47.20 -24.43,38.20 -13.16,42.30 -13.16,51.30" fill="#2a8d44"/>
<polygon points="-13.16,51.30 -13.16,42.30 -1.88,38.20 -1.88,47.20" fill="#237739"/>
<polygon points="65.78,32.09 77.05,36.20 65.78,40.30 54.50,36.20" fill="#30a14e"/>
<polygon points="54.50,47.20 54.50,36.20 65.78,40.30 65.78,51.30" fill="#2a8d44"/>
<polygon points="65.78,51.30 65.78,40.30 77.05,36.20 77.05,47.20" fill="#237739"/>
<polygon points="-26.31,47.88 -15.04,51.99 -26.31,56.09 -37.59,51.99" fill="#ebedf0"/>
<polygon points="131.56,47.88 142.83,51.99 131.56,56.09 120.28,51.99" fill="#ebedf0"/>
<polygon points="0.00,44.88 11.28,48.99 0.00,53.09 -11.28,48.99" fill="#9be9a8"/>
<polygon points="-11.28,51.99 -11.28,48.99 0.00,53.09 0.00,56.09" fill="#88cd93"/>
<polygon points="0.00,56.09 0.00,53.09 11.28,48.99 11.28,51.99" fill="#72ac7c"/>
<polygon points="26.31,44.88 37.59,48.99 26.31,53.09 15.04,48.99" fill="#9be9a8"/>
<polygon points="15.04,51.99 15.04,48.99 26.31,53.09 26.31,56.09" fill="#88cd93"/>
<polygon points="26.31,56.09 26.31,53.09 37.59,48.99 37.59,51.99" fill="#72ac7c"/>
<polygon points="52.62,44.88 63.90,48.99 52.62,53.09 41.35,48.99" fill="#9be9a8"/>
<polygon points="41.35,51.99 41.35,48.99 52.62,53.09 52.62,56.09" fill="#88cd93"/>
<polygon points="52.62,56.09 52.62,53.09 63.90,48.99 63.90,51.99" fill="#72ac7c"/>
<polygon points="78.93,45.88 90.21,49.99 78.93,54.09 67.66,49.99" fill="#9be9a8"/>
<polygon points="67.66,51.99 67.66,49.99 78.93,54.09 78.93,56.09" fill="#88cd93"/>
<polygon points="78.93,56.09 78.93,54.09 90.21,49.99 90.21,51.99" fill="#72ac7c"/>
<polygon points="105.25,37.88 116.52,41.99 105.25,46.09 93.97,41.99" fill="#30a14e"/>
<polygon points="93.97,51.99 93.97,41.99 105.25,46.09 105.25,56.09" fill="#2a8d44"/>
<polygon points="105.25,56.09 105.25,46.09 116.52,41.99 116.52,51.99" fill="#237739"/>
<polygon points="13.16,52.67 24.43,56.78 13.16,60.88 1.88,56.78" fill="#ebedf0"/>
<polygon points="39.47,52.67 50.74,56.78 39.47,60.88 28.19,56.78" fill="#ebedf0"/>
<polygon points="118.40,52.67 129.68,56.78 118.40,60.88 107.12,56.78" fill="#ebedf0"/>
<polygon points="144.71,52.67 155.99,56.78 144.71,60.88 133.44,56.78" fill="#ebedf0"/>
<polygon points="65.78,47.67 77.05,51.78 65.78,55.88 54.50,51.78" fill="#40c463"/>
<polygon points="54.50,56.78 54.50,51.78 65.78,55.88 65.78,60.88" fill="#38ac57"/>
<polygon points="65.78,60.88 65.78,55.88 77.05,51.78 77.05,56.78" fill="#2f9149"/>
<polygon points="-13.16,37.67 -1.88,41.78 -13.16,45.88 -24.43,41.78" fill="#216e39"/>
<polygon points="-24.43,56.78 -24.43,41.78 -13.16,45.88 -13.16,60.88" fill="#1d6032"/>
<polygon points="-13.16,60.88 -13.16,45.88 -1.88,41.78 -1.88,56.78" fill="#18512a"/>
<polygon points="92.09,41.67 103.37,45.78 92.09,49.88 80.81,45.78" fill="#216e39"/>
<polygon points="80.81,56.78 80.81,45.78 92.09,49.88 92.09,60.88" fill="#1d6032"/>
<polygon points="92.09,60.88 92.09,49.88 103.37,45.78 103.37,56.78" fill="#18512a"/>
<polygon points="52.62,57.46 63.90,61.56 52.62,65.67 41.35,61.56" fill="#ebedf0"/>
<polygon points="131.56,55.46 142.83,59.56 131.56,63.67 120.28,59.56" fill="#9be9a8"/>
<polygon points="120.28,61.56 120.28,59.56 131.56,63.67 131.56,65.67" fill="#88cd93"/>
<polygon points="131.56,65.67 131.56,63.67 142.83,59.56 142.83,61.56" fill="#72ac7c"/>
<polygon points="0.00,49.46 11.28,53.56 0.00,57.67 -11.28,53.56" fill="#40c463"/>
<polygon points="-11.28,61.56 -11.28,53.56 0.00,57.67 0.00,65.67" fill="#38ac57"/>
<polygon points="0.00,65.67 0.00,57.67 11.28,53.56 11.28,61.56" fill="#2f9149"/>
<polygon points="26.31,49.46 37.59,53.56 26.31,57.67 15.04,53.56" fill="#40c463"/>
<polygon points="15.04,61.56 15.04,53.56 26.31,57.67 26.31,65.67" fill="#38ac57"/>
<polygon points="26.31,65.67 26.31,57.67 37.59,53.56 37.59,61.56" fill="#2f9149"/>
<polygon points="105.25,51.46 116.52,55.56 105.25,59.67 93.97,55.56" fill="#40c463"/>
<polygon points="93.97,61.56 93.97,55.56 105.25,59.67 105.25,65.67" fill="#38ac57"/>
<polygon points="105.25,65.67 105.25,59.67 116.52,55.56 116.52,61.56" fill="#2f9149"/>
<polygon points="157.87,51.46 169.14,55.56 157.87,59.67 146.59,55.56" fill="#40c463"/>
<polygon points="146.59,61.56 146.59,55.56 157.87,59.67 157.87,65.67" fill="#38ac57"/>
<polygon points="157.87,65.67 157.87,59.67 169.14,55.56 169.14,61.56" fill="#2f9149"/>
<polygon points="78.93,49.46 90.21,53.56 78.93,57.67 67.66,53.56" fill="#30a14e"/>
<polygon points="67.66,61.56 67.66,53.56 78.93,57.67 78.93,65.67" fill="#2a8d44"/>
<polygon points="78.93,65.67 78.93,57.67 90.21,53.56 90.21,61.56" fill="#237739"/>
<polygon points="13.16,62.25 24.43,66.35 13.16,70.46 1.88,66.35" fill="#ebedf0"/>
<polygon points="39.47,62.25 50.74,66.35 39.47,70.46 28.19,66.35" fill="#ebedf0"/>
<polygon points="144.71,62.25 155.99,66.35 144.71,70.46 133.44,66.35" fill="#ebedf0"/>
<polygon points="118.40,58.25 129.68,62.35 118.40,66.46 107.12,62.35" fill="#9be9a8"/>
<polygon points="107.12,66.35 107.12,62.35 118.40,66.46 118.40,70.46" fill="#88cd93"/>
<polygon points="118.40,70.46 118.40,66.46 129.68,62.35 129.68,66.35" fill="#72ac7c"/>
<polygon points="65.78,52.25 77.05,56.35 65.78,60.46 54.50,56.35" fill="#30a14e"/>
<polygon points="54.50,66.35 54.50,56.35 65.78,60.46 65.78,70.46" fill="#2a8d44"/>
<polygon points="65.78,70.46 65.78,60.46 77.05,56.35 77.05,66.35" fill="#237739"/>
<polygon points="171.02,53.25 182.30,57.35 171.02,61.46 159.75,57.35" fill="#30a14e"/>
<polygon points="159.75,66.35 159.75,57.35 171.02,61.46 171.02,70.46" fill="#2a8d44"/>
<polygon points="171.02,70.46 171.02,61.46 182.30,57.35 182.30,66.35" fill="#237739"/>
<polygon points="92.09,46.25 103.37,50.35 92.09,54.46 80.81,50.35" fill="#216e39"/>
<polygon points="80.81,66.35 80.81,50.35 92.09,54.46 92.09,70.46" fill="#1d6032"/>
<polygon points="92.09,70.46 92.09,54.46 103.37,50.35 103.37,66.35" fill="#18512a"/>
<polygon points="78.93,67.04 90.21,71.14 78.93,75.24 67.66,71.14" fill="#ebedf0"/>
<polygon points="26.31,63.04 37.59,67.14 26.31,71.24 15.04,67.14" fill="#9be9a8"/>
<polygon points="15.04,71.14 15.04,67.14 26.31,71.24 26.31,75.24" fill="#88cd93"/>
<polygon points="26.31,75.24 26.31,71.24 37.59,67.14 37.59,71.14" fill="#72ac7c"/>
<polygon points="157.87,63.04 169.14,67.14 157.87,71.24 146.59,67.14" fill="#9be9a8"/>
<polygon points="146.59,71.14 146.59,67.14 157.87,71.24 157.87,75.24" fill="#88cd93"/>
<polygon points="157.87,75.24 157.87,71.24 169.14,67.14 169.14,71.14" fill="#72ac7c"/>
<polygon points="184.18,60.04 195.46,64.14 184.18,68.24 172.90,64.14" fill="#40c463"/>
<polygon points="172.90,71.14 172.90,64.14 184.18,68.24 184.18,75.24" fill="#38ac57"/>
<polygon points="184.18,75.24 184.18,68.24 195.46,64.14 195.46,71.14" fill="#2f9149"/>
<polygon points="52.62,56.04 63.90,60.14 52.62,64.24 41.35,60.14" fill="#30a14e"/>
<polygon points="41.35,71.14 41.35,60.14 52.62,64.24 52.62,75.24" fill="#2a8d44"/>
<polygon points="52.62,75.24 52.62,64.24 63.90,60.14 63.90,71.14" fill="#237739"/>
<polygon points="105.25,57.04 116.52,61.14 105.25,65.24 93.97,61.14" fill="#30a14e"/>
<polygon points="93.97,71.14 93.97,61.14 105.25,65.24 105.25,75.24" fill="#2a8d44"/>
<polygon points="105.25,75.24 105.25,65.24 116.52,61.14 116.52,71.14" fill="#237739"/>
<polygon points="131.56,59.04 142.83,63.14 131.56,67.24 120.28,63.14" fill="#30a14e"/>
<polygon points="120.28,71.14 120.28,63.14 131.56,67.24 131.56,75.24" fill="#2a8d44"/>
<polygon points="131.56,75.24 131.56,67.24 142.83,63.14 142.83,71.14" fill="#237739"/>
<polygon points="118.40,71.82 129.68,75.93 118.40,80.03 107.12,75.93" fill="#ebedf0"/>
<polygon points="171.02,71.82 182.30,75.93 171.02,80.03 159.75,75.93" fill="#ebedf0"/>
<polygon points="197.34,71.82 208.61,75.93 197.34,80.03 186.06,75.93" fill="#ebedf0"/>
<polygon points="92.09,69.82 103.37,73.93 92.09,78.03 80.81,73.93" fill="#9be9a8"/>
<polygon points="80.81,75.93 80.81,73.93 92.09,78.03 92.09,80.03" fill="#88cd93"/>
<polygon points="92.09,80.03 92.09,78.03 103.37,73.93 103.37,75.93" fill="#72ac7c"/>
<polygon points="144.71,69.82 155.99,73.93 144.71,78.03 133.44,73.93" fill="#9be9a8"/>
<polygon points="133.44,75.93 133.44,73.93 144.71,78.03 144.71,80.03" fill="#88cd93"/>
<polygon points="144.71,80.03 144.71,78.03 155.99,73.93 155.99,75.93" fill="#72ac7c"/>
<polygon points="39.47,63.82 50.74,67.93 39.47,72.03 28.19,67.93" fill="#30a14e"/>
<polygon points="28.19,75.93 28.19,67.93 39.47,72.03 39.47,80.03" fill="#2a8d44"/>
<polygon points="39.47,80.03 39.47,72.03 50.74,67.93 50.74,75.93" fill="#237739"/>
<polygon points="65.78,60.82 77.05,64.93 65.78,69.03 54.50,64.93" fill="#30a14e"/>
<polygon points="54.50,75.93 54.50,64.93 65.78,69.03 65.78,80.03" fill="#2a8d44"/>
<polygon points="65.78,80.03 65.78,69.03 77.05,64.93 77.05,75.93" fill="#237739"/>
<polygon points="78.93,76.61 90.21,80.72 78.93,84.82 67.66,80.72" fill="#ebedf0"/>
<polygon points="157.87,76.61 169.14,80.72 157.87,84.82 146.59,80.72" fill="#ebedf0"/>
<polygon points="210.49,76.61 221.77,80.72 210.49,84.82 199.21,80.72" fill="#ebedf0"/>
<polygon points="52.62,72.61 63.90,76.72 52.62,80.82 41.35,76.72" fill="#9be9a8"/>
<polygon points="41.35,80.72 41.35,76.72 52.62,80.82 52.62,84.82" fill="#88cd93"/>
<polygon points="52.62,84.82 52.62,80.82 63.90,76.72 63.90,80.72" fill="#72ac7c"/>
<polygon points="105.25,74.61 116.52,78.72 105.25,82.82 93.97,78.72" fill="#9be9a8"/>
<polygon points="93.97,80.72 93.97,78.72 105.25,82.82 105.25,84.82" fill="#88cd93"/>
<polygon points="105.25,84.82 105.25,82.82 116.52,78.72 116.52,80.72" fill="#72ac7c"/>
<polygon points="131.56,65.61 142.83,69.72 131.56,73.82 120.28,69.72" fill="#30a14e"/>
<polygon points="120.28,80.72 120.28,69.72 131.56,73.82 131.56,84.82" fill="#2a8d44"/>
<polygon points="131.56,84.82 131.56,73.82 142.83,69.72 142.83,80.72" fill="#237739"/>
<polygon points="184.18,65.61 195.46,69.72 184.18,73.82 172.90,69.72" fill="#30a14e"/>
<polygon points="172.90,80.72 172.90,69.72 184.18,73.82 184.18,84.82" fill="#2a8d44"/>
<polygon points="184.18,84.82 184.18,73.82 195.46,69.72 195.46,80.72" fill="#237739"/>
<polygon points="65.78,81.40 77.05,85.51 65.78,89.61 54.50,85.51" fill="#ebedf0"/>
<polygon points="144.71,77.40 155.99,81.51 144.71,85.61 133.44,81.51" fill="#9be9a8"/>
<polygon points="133.44,85.51 133.44,81.51 144.71,85.61 144.71,89.61" fill="#88cd93"/>
<polygon points="144.71,89.61 144.71,85.61 155.99,81.51 155.99,85.51" fill="#72ac7c"/>
<polygon points="171.02,77.40 182.30,81.51 171.02,85.61 159.75,81.51" fill="#9be9a8"/>
<polygon points="159.75,85.51 159.75,81.51 171.02,85.61 171.02,89.61" fill="#88cd93"/>
<polygon points="171.02,89.61 171.02,85.61 182.30,81.51 182.30,85.51" fill="#72ac7c"/>
<polygon points="197.34,78.40 208.61,82.51 197.34,86.61 186.06,82.51" fill="#9be9a8"/>
<polygon points="186.06,85.51 186.06,82.51 197.34,86.61 197.34,89.61" fill="#88cd93"/>
<polygon points="197.34,89.61 197.34,86.61 208.61,82.51 208.61,85.51" fill="#72ac7c"/>
<polygon points="223.65,79.40 234.92,83.51 223.65,87.61 212.37,83.51" fill="#9be9a8"/>
<polygon points="212.37,85.51 212.37,83.51 223.65,87.61 223.65,89.61" fill="#88cd93"/>
<polygon points="223.65,89.61 223.65,87.61 234.92,83.51 234.92,85.51" fill="#72ac7c"/>
<polygon points="118.40,75.40 129.68,79.51 118.40,83.61 107.12,79.51" fill="#40c463"/>
<polygon points="107.12,85.51 107.12,79.51 118.40,83.61 118.40,89.61" fill="#38ac57"/>
<polygon points="118.40,89.61 118.40,83.61 129.68,79.51 129.68,85.51" fill="#2f9149"/>
<polygon points="92.09,66.40 103.37,70.51 92.09,74.61 80.81,70.51" fill="#216e39"/>
<polygon points="80.81,85.51 80.81,70.51 92.09,74.61 92.09,89.61" fill="#1d6032"/>
<polygon points="92.09,89.61 92.09,74.61 103.37,70.51 103.37,85.51" fill="#18512a"/>
<polygon points="157.87,86.19 169.14,90.29 157.87,94.40 146.59,90.29" fill="#ebedf0"/>
<polygon points="184.18,86.19 195.46,90.29 184.18,94.40 172.90,90.29" fill="#ebedf0"/>
<polygon points="78.93,84.19 90.21,88.29 78.93,92.40 67.66,88.29" fill="#9be9a8"/>
<polygon points="67.66,90.29 67.66,88.29 78.93,92.40 78.93,94.40" fill="#88cd93"/>
<polygon points="78.93,94.40 78.93,92.40 90.21,88.29 90.21,90.29" fill="#72ac7c"/>
<polygon points="210.49,83.19 221.77,87.29 210.49,91.40 199.21,87.29" fill="#9be9a8"/>
<polygon points="199.21,90.29 199.21,87.29 210.49,91.40 210.49,94.40" fill="#88cd93"/>
<polygon points="210.49,94.40 210.49,91.40 221.77,87.29 221.77,90.29" fill="#72ac7c"/>
<polygon points="105.25,79.19 116.52,83.29 105.25,87.40 93.97,83.29" fill="#40c463"/>
<polygon points="93.97,90.29 93.97,83.29 105.25,87.40 105.25,94.40" fill="#38ac57"/>
<polygon points="105.25,94.40 105.25,87.40 116.52,83.29 116.52,90.29" fill="#2f9149"/>
<polygon points="131.56,78.19 142.83,82.29 131.56,86.40 120.28,82.29" fill="#40c463"/>
<polygon points="120.28,90.29 120.28,82.29 131.56,86.40 131.56,94.40" fill="#38ac57"/>
<polygon points="131.56,94.40 131.56,86.40 142.83,82.29 142.83,90.29" fill="#2f9149"/>
<polygon points="236.80,81.19 248.08,85.29 236.80,89.40 225.53,85.29" fill="#40c463"/>
<polygon points="225.53,90.29 225.53,85.29 236.80,89.40 236.80,94.40" fill="#38ac57"/>
<polygon points="236.80,94.40 236.80,89.40 248.08,85.29 248.08,90.29" fill="#2f9149"/>
<polygon points="118.40,90.98 129.68,95.08 118.40,99.19 107.12,95.08" fill="#ebedf0"/>
<polygon points="171.02,90.98 182.30,95.08 171.02,99.19 159.75,95.08" fill="#ebedf0"/>
<polygon points="249.96,90.98 261.23,95.08 249.96,99.19 238.68,95.08" fill="#ebedf0"/>
<polygon points="223.65,86.98 234.92,91.08 223.65,95.19 212.37,91.08" fill="#9be9a8"/>
<polygon points="212.37,95.08 212.37,91.08 223.65,95.19 223.65,99.19" fill="#88cd93"/>
<polygon points="223.65,99.19 223.65,95.19 234.92,91.08 234.92,95.08" fill="#72ac7c"/>
<polygon points="144.71,84.98 155.99,89.08 144.71,93.19 133.44,89.08" fill="#40c463"/>
<polygon points="133.44,95.08 133.44,89.08 144.71,93.19 144.71,99.19" fill="#38ac57"/>
<polygon points="144.71,99.19 144.71,93.19 155.99,89.08 155.99,95.08" fill="#2f9149"/>
<polygon points="197.34,82.98 208.61,87.08 197.34,91.19 186.06,87.08" fill="#30a14e"/>
<polygon points="186.06,95.08 186.06,87.08 197.34,91.19 197.34,99.19" fill="#2a8d44"/>
<polygon points="197.34,99.19 197.34,91.19 208.61,87.08 208.61,95.08" fill="#237739"/>
<polygon points="92.09,75.98 103.37,80.08 92.09,84.19 80.81,80.08" fill="#216e39"/>
<polygon points="80.81,95.08 80.81,80.08 92.09,84.19 92.09,99.19" fill="#1d6032"/>
<polygon points="92.09,99.19 92.09,84.19 103.37,80.08 103.37,95.08" fill="#18512a"/>
<polygon points="105.25,95.77 116.52,99.87 105.25,103.97 93.97,99.87" fill="#ebedf0"/>
<polygon points="184.18,95.77 195.46,99.87 184.18,103.97 172.90,99.87" fill="#ebedf0"/>
<polygon points="210.49,95.77 221.77,99.87 210.49,103.97 199.21,99.87" fill="#ebedf0"/>
<polygon points="131.56,91.77 142.83,95.87 131.56,99.97 120.28,95.87" fill="#9be9a8"/>
<polygon points="120.28,99.87 120.28,95.87 131.56,99.97 131.56,103.97" fill="#88cd93"/>
<polygon points="131.56,103.97 131.56,99.97 142.83,95.87 142.83,99.87" fill="#72ac7c"/>
<polygon points="157.87,92.77 169.14,96.87 157.87,100.97 146.59,96.87" fill="#9be9a8"/>
<polygon points="146.59,99.87 146.59,96.87 157.87,100.97 157.87,103.97" fill="#88cd93"/>
<polygon points="157.87,103.97 157.87,100.97 169.14,96.87 169.14,99.87" fill="#72ac7c"/>
<polygon points="263.11,93.77 274.39,97.87 263.11,101.97 251.84,97.87" fill="#9be9a8"/>
<polygon points="251.84,99.87 251.84,97.87 263.11,101.97 263.11,103.97" fill="#88cd93"/>
<polygon points="263.11,103.97 263.11,101.97 274.39,97.87 274.39,99.87" fill="#72ac7c"/>
<polygon points="236.80,87.77 248.08,91.87 236.80,95.97 225.53,91.87" fill="#30a14e"/>
<polygon points="225.53,99.87 225.53,91.87 236.80,95.97 236.80,103.97" fill="#2a8d44"/>
<polygon points="236.80,103.97 236.80,95.97 248.08,91.87 248.08,99.87" fill="#237739"/>
<polygon points="171.02,100.55 182.30,104.66 171.02,108.76 159.75,104.66" fill="#ebedf0"/>
<polygon points="223.65,100.55 234.92,104.66 223.65,108.76 212.37,104.66" fill="#ebedf0"/>
<polygon points="249.96,100.55 261.23,104.66 249.96,108.76 238.68,104.66" fill="#ebedf0"/>
<polygon points="144.71,96.55 155.99,100.66 144.71,104.76 133.44,100.66" fill="#9be9a8"/>
<polygon points="133.44,104.66 133.44,100.66 144.71,104.76 144.71,108.76" fill="#88cd93"/>
<polygon points="144.71,108.76 144.71,104.76 155.99,100.66 155.99,104.66" fill="#72ac7c"/>
<polygon points="197.34,92.55 208.61,96.66 197.34,100.76 186.06,96.66" fill="#40c463"/>
<polygon points="186.06,104.66 186.06,96.66 197.34,100.76 197.34,108.76" fill="#38ac57"/>
<polygon points="197.34,108.76 197.34,100.76 208.61,96.66 208.61,104.66" fill="#2f9149"/>
<polygon points="276.27,92.55 287.55,96.66 276.27,100.76 264.99,96.66" fill="#40c463"/>
<polygon points="264.99,104.66 264.99,96.66 276.27,100.76 276.27,108.76" fill="#38ac57"/>
<polygon points="276.27,108.76 276.27,100.76 287.55,96.66 287.55,104.66" fill="#2f9149"/>
<polygon points="118.40,90.55 129.68,94.66 118.40,98.76 107.12,94.66" fill="#30a14e"/>
<polygon points="107.12,104.66 107.12,94.66 118.40,98.76 118.40,108.76" fill="#2a8d44"/>
<polygon points="118.40,108.76 118.40,98.76 129.68,94.66 129.68,104.66" fill="#237739"/>
<polygon points="131.56,105.34 142.83,109.45 131.56,113.55 120.28,109.45" fill="#ebedf0"/>
<polygon points="210.49,105.34 221.77,109.45 210.49,113.55 199.21,109.45" fill="#ebedf0"/>
<polygon points="236.80,105.34 248.08,109.45 236.80,113.55 225.53,109.45" fill="#ebedf0"/>
<polygon points="263.11,105.34 274.39,109.45 263.11,113.55 251.84,109.45" fill="#ebedf0"/>
<polygon points="157.87,102.34 169.14,106.45 157.87,110.55 146.59,106.45" fill="#9be9a8"/>
<polygon points="146.59,109.45 146.59,106.45 157.87,110.55 157.87,113.55" fill="#88cd93"/>
<polygon points="157.87,113.55 157.87,110.55 169.14,106.45 169.14,109.45" fill="#72ac7c"/>
<polygon points="289.43,102.34 300.70,106.45 289.43,110.55 278.15,106.45" fill="#9be9a8"/>
<polygon points="278.15,109.45 278.15,106.45 289.43,110.55 289.43,113.55" fill="#88cd93"/>
<polygon points="289.43,113.55 289.43,110.55 300.70,106.45 300.70,109.45" fill="#72ac7c"/>
<polygon points="184.18,97.34 195.46,101.45 184.18,105.55 172.90,101.45" fill="#30a14e"/>
<polygon points="172.90,109.45 172.90,101.45 184.18,105.55 184.18,113.55" fill="#2a8d44"/>
<polygon points="184.18,113.55 184.18,105.55 195.46,101.45 195.46,109.45" fill="#237739"/>
<polygon points="144.71,110.13 155.99,114.23 144.71,118.34 133.44,114.23" fill="#ebedf0"/>
<polygon points="223.65,110.13 234.92,114.23 223.65,118.34 212.37,114.23" fill="#ebedf0"/>
<polygon points="197.34,107.13 208.61,111.23 197.34,115.34 186.06,111.23" fill="#9be9a8"/>
<polygon points="186.06,114.23 186.06,111.23 197.34,115.34 197.34,118.34" fill="#88cd93"/>
<polygon points="197.34,118.34 197.34,115.34 208.61,111.23 208.61,114.23" fill="#72ac7c"/>
<polygon points="276.27,102.13 287.55,106.23 276.27,110.34 264.99,106.23" fill="#40c463"/>
<polygon points="264.99,114.23 264.99,106.23 276.27,110.34 276.27,118.34" fill="#38ac57"/>
<polygon points="276.27,118.34 276.27,110.34 287.55,106.23 287.55,114.23" fill="#2f9149"/>
<polygon points="171.02,99.13 182.30,103.23 171.02,107.34 159.75,103.23" fill="#30a14e"/>
<polygon points="159.75,114.23 159.75,103.23 171.02,107.34 171.02,118.34" fill="#2a8d44"/>
<polygon points="171.02,118.34 171.02,107.34 182.30,103.23 182.30,114.23" fill="#237739"/>
<polygon points="302.58,102.13 313.86,106.23 302.58,110.34 291.30,106.23" fill="#30a14e"/>
<polygon points="291.30,114.23 291.30,106.23 302.58,110.34 302.58,118.34" fill="#2a8d44"/>
<polygon points="302.58,118.34 302.58,110.34 313.86,106.23 313.86,114.23" fill="#237739"/>
<polygon points="249.96,98.13 261.23,102.23 249.96,106.34 238.68,102.23" fill="#216e39"/>
<polygon points="238.68,114.23 238.68,102.23 249.96,106.34 249.96,118.34" fill="#1d6032"/>
<polygon points="249.96,118.34 249.96,106.34 261.23,102.23 261.23,114.23" fill="#18512a"/>
<polygon points="157.87,114.92 169.14,119.02 157.87,123.13 146.59,119.02" fill="#ebedf0"/>
<polygon points="289.43,114.92 300.70,119.02 289.43,123.13 278.15,119.02" fill="#ebedf0"/>
<polygon points="315.74,114.92 327.01,119.02 315.74,123.13 304.46,119.02" fill="#ebedf0"/>
<polygon points="184.18,110.92 195.46,115.02 184.18,119.13 172.90,115.02" fill="#9be9a8"/>
<polygon points="172.90,119.02 172.90,115.02 184.18,119.13 184.18,123.13" fill="#88cd93"/>
<polygon points="184.18,123.13 184.18,119.13 195.46,115.02 195.46,119.02" fill="#72ac7c"/>
<polygon points="263.11,111.92 274.39,116.02 263.11,120.13 251.84,116.02" fill="#9be9a8"/>
<polygon points="251.84,119.02 251.84,116.02 263.11,120.13 263.11,123.13" fill="#88cd93"/>
<polygon points="263.11,123.13 263.11,120.13 274.39,116.02 274.39,119.02" fill="#72ac7c"/>
<polygon points="210.49,109.92 221.77,114.02 210.49,118.13 199.21,114.02" fill="#40c463"/>
<polygon points="199.21,119.02 199.21,114.02 210.49,118.13 210.49,123.13" fill="#38ac57"/>
<polygon points="210.49,123.13 210.49,118.13 221.77,114.02 221.77,119.02" fill="#2f9149"/>
<polygon points="236.80,106.92 248.08,111.02 236.80,115.13 225.53,111.02" fill="#30a14e"/>
<polygon points="225.53,119.02 225.53,111.02 236.80,115.13 236.80,123.13" fill="#2a8d44"/>
<polygon points="236.80,123.13 236.80,115.13 248.08,111.02 248.08,119.02" fill="#237739"/>
<polygon points="249.96,119.71 261.23,123.81 249.96,127.92 238.68,123.81" fill="#ebedf0"/>
<polygon points="197.34,114.71 208.61,118.81 197.34,122.92 186.06,118.81" fill="#40c463"/>
<polygon points="186.06,123.81 186.06,118.81 197.34,122.92 197.34,127.92" fill="#38ac57"/>
<polygon points="197.34,127.92 197.34,122.92 208.61,118.81 208.61,123.81" fill="#2f9149"/>
<polygon points="223.65,113.71 234.92,117.81 223.65,121.92 212.37,117.81" fill="#40c463"/>
<polygon points="212.37,123.81 212.37,117.81 223.65,121.92 223.65,127.92" fill="#38ac57"/>
<polygon points="223.65,127.92 223.65,121.92 234.92,117.81 234.92,123.81" fill="#2f9149"/>
<polygon points="276.27,111.71 287.55,115.81 276.27,119.92 264.99,115.81" fill="#40c463"/>
<polygon points="264.99,123.81 264.99,115.81 276.27,119.92 276.27,127.92" fill="#38ac57"/>
<polygon points="276.27,127.92 276.27,119.92 287.55,115.81 287.55,123.81" fill="#2f9149"/>
<polygon points="328.89,111.71 340.17,115.81 328.89,119.92 317.62,115.81" fill="#40c463"/>
<polygon points="317.62,123.81 317.62,115.81 328.89,119.92 328.89,127.92" fill="#38ac57"/>
<polygon points="328.89,127.92 328.89,119.92 340.17,115.81 340.17,123.81" fill="#2f9149"/>
<polygon points="171.02,108.71 182.30,112.81 171.02,116.92 159.75,112.81" fill="#30a14e"/>
<polygon points="159.75,123.81 159.75,112.81 171.02,116.92 171.02,127.92" fill="#2a8d44"/>
<polygon points="171.02,127.92 171.02,116.92 182.30,112.81 182.30,123.81" fill="#237739"/>
<polygon points="302.58,108.71 313.86,112.81 302.58,116.92 291.30,112.81" fill="#30a14e"/>
<polygon points="291.30,123.81 291.30,112.81 302.58,116.92 302.58,127.92" fill="#2a8d44"/>
<polygon points="302.58,127.92 302.58,116.92 313.86,112.81 313.86,123.81" fill="#237739"/>
<polygon points="184.18,124.50 195.46,128.60 184.18,132.70 172.90,128.60" fill="#ebedf0"/>
<polygon points="315.74,124.50 327.01,128.60 315.74,132.70 304.46,128.60" fill="#ebedf0"/>
<polygon points="210.49,120.50 221.77,124.60 210.49,128.70 199.21,124.60" fill="#9be9a8"/>
<polygon points="199.21,128.60 199.21,124.60 210.49,128.70 210.49,132.70" fill="#88cd93"/>
<polygon points="210.49,132.70 210.49,128.70 221.77,124.60 221.77,128.60" fill="#72ac7c"/>
<polygon points="289.43,120.50 300.70,124.60 289.43,128.70 278.15,124.60" fill="#9be9a8"/>
<polygon points="278.15,128.60 278.15,124.60 289.43,128.70 289.43,132.70" fill="#88cd93"/>
<polygon points="289.43,132.70 289.43,128.70 300.70,124.60 300.70,128.60" fill="#72ac7c"/>
<polygon points="236.80,118.50 248.08,122.60 236.80,126.70 225.53,122.60" fill="#40c463"/>
<polygon points="225.53,128.60 225.53,122.60 236.80,126.70 236.80,132.70" fill="#38ac57"/>
<polygon points="236.80,132.70 236.80,126.70 248.08,122.60 248.08,128.60" fill="#2f9149"/>
<polygon points="342.05,118.50 353.32,122.60 342.05,126.70 330.77,122.60" fill="#40c463"/>
<polygon points="330.77,128.60 330.77,122.60 342.05,126.70 342.05,132.70" fill="#38ac57"/>
<polygon points="342.05,132.70 342.05,126.70 353.32,122.60 353.32,128.60" fill="#2f9149"/>
<polygon points="263.11,112.50 274.39,116.60 263.11,120.70 251.84,116.60" fill="#216e39"/>
<polygon points="251.84,128.60 251.84,116.60 263.11,120.70 263.11,132.70" fill="#1d6032"/>
<polygon points="263.11,132.70 263.11,120.70 274.39,116.60 274.39,128.60" fill="#18512a"/>
<polygon points="197.34,129.28 208.61,133.39 197.34,137.49 186.06,133.39" fill="#ebedf0"/>
<polygon points="328.89,129.28 340.17,133.39 328.89,137.49 317.62,133.39" fill="#ebedf0"/>
<polygon points="223.65,127.28 234.92,131.39 223.65,135.49 212.37,131.39" fill="#9be9a8"/>
<polygon points="212.37,133.39 212.37,131.39 223.65,135.49 223.65,137.49" fill="#88cd93"/>
<polygon points="223.65,137.49 223.65,135.49 234.92,131.39 234.92,133.39" fill="#72ac7c"/>
<polygon points="249.96,125.28 261.23,129.39 249.96,133.49 238.68,129.39" fill="#9be9a8"/>
<polygon points="238.68,133.39 238.68,129.39 249.96,133.49 249.96,137.49" fill="#88cd93"/>
<polygon points="249.96,137.49 249.96,133.49 261.23,129.39 261.23,133.39" fill="#72ac7c"/>
<polygon points="276.27,125.28 287.55,129.39 276.27,133.49 264.99,129.39" fill="#9be9a8"/>
<polygon points="264.99,133.39 264.99,129.39 276.27,133.49 276.27,137.49" fill="#88cd93"/>
<polygon points="276.27,137.49 276.27,133.49 287.55,129.39 287.55,133.39" fill="#72ac7c"/>
<polygon points="302.58,127.28 313.86,131.39 302.58,135.49 291.30,131.39" fill="#9be9a8"/>
<polygon points="291.30,133.39 291.30,131.39 302.58,135.49 302.58,137.49" fill="#88cd93"/>
<polygon points="302.58,137.49 302.58,135.49 313.86,131.39 313.86,133.39" fill="#72ac7c"/>
<polygon points="355.20,117.28 366.48,121.39 355.20,125.49 343.93,121.39" fill="#216e39"/>
<polygon points="343.93,133.39 343.93,121.39 355.20,125.49 355.20,137.49" fill="#1d6032"/>
<polygon points="355.20,137.49 355.20,125.49 366.48,121.39 366.48,133.39" fill="#18512a"/>
<polygon points="210.49,131.07 221.77,135.18 210.49,139.28 199.21,135.18" fill="#9be9a8"/>
<polygon points="199.21,138.18 199.21,135.18 210.49,139.28 210.49,142.28" fill="#88cd93"/>
<polygon points="210.49,142.28 210.49,139.28 221.77,135.18 221.77,138.18" fill="#72ac7c"/>
<polygon points="236.80,131.07 248.08,135.18 236.80,139.28 225.53,135.18" fill="#9be9a8"/>
<polygon points="225.53,138.18 225.53,135.18 236.80,139.28 236.80,142.28" fill="#88cd93"/>
<polygon points="236.80,142.28 236.80,139.28 248.08,135.18 248.08,138.18" fill="#72ac7c"/>
<polygon points="368.36,131.07 379.64,135.18 368.36,139.28 357.08,135.18" fill="#9be9a8"/>
<polygon points="357.08,138.18 357.08,135.18 368.36,139.28 368.36,142.28" fill="#88cd93"/>
<polygon points="368.36,142.28 368.36,139.28 379.64,135.18 379.64,138.18" fill="#72ac7c"/>
<polygon points="289.43,128.07 300.70,132.18 289.43,136.28 278.15,132.18" fill="#40c463"/>
<polygon points="278.15,138.18 278.15,132.18 289.43,136.28 289.43,142.28" fill="#38ac57"/>
<polygon points="289.43,142.28 289.43,136.28 300.70,132.18 300.70,138.18" fill="#2f9149"/>
<polygon points="315.74,128.07 327.01,132.18 315.74,136.28 304.46,132.18" fill="#40c463"/>
<polygon points="304.46,138.18 304.46,132.18 315.74,136.28 315.74,142.28" fill="#38ac57"/>
<polygon points="315.74,142.28 315.74,136.28 327.01,132.18 327.01,138.18" fill="#2f9149"/>
<polygon points="263.11,125.07 274.39,129.18 263.11,133.28 251.84,129.18" fill="#30a14e"/>
<polygon points="251.84,138.18 251.84,129.18 263.11,133.28 263.11,142.28" fill="#2a8d44"/>
<polygon points="263.11,142.28 263.11,133.28 274.39,129.18 274.39,138.18" fill="#237739"/>
<polygon points="342.05,123.07 353.32,127.18 342.05,131.28 330.77,127.18" fill="#30a14e"/>
<polygon points="330.77,138.18 330.77,127.18 342.05,131.28 342.05,142.28" fill="#2a8d44"/>
<polygon points="342.05,142.28 342.05,131.28 353.32,127.18 353.32,138.18" fill="#237739"/>
<polygon points="381.52,138.86 392.79,142.96 381.52,147.07 370.24,142.96" fill="#ebedf0"/>
<polygon points="223.65,132.86 234.92,136.96 223.65,141.07 212.37,136.96" fill="#40c463"/>
<polygon points="212.37,142.96 212.37,136.96 223.65,141.07 223.65,147.07" fill="#38ac57"/>
<polygon points="223.65,147.07 223.65,141.07 234.92,136.96 234.92,142.96" fill="#2f9149"/>
<polygon points="276.27,132.86 287.55,136.96 276.27,141.07 264.99,136.96" fill="#40c463"/>
<polygon points="264.99,142.96 264.99,136.96 276.27,141.07 276.27,147.07" fill="#38ac57"/>
<polygon points="276.27,147.07 276.27,141.07 287.55,136.96 287.55,142.96" fill="#2f9149"/>
<polygon points="328.89,130.86 340.17,134.96 328.89,139.07 317.62,134.96" fill="#40c463"/>
<polygon points="317.62,142.96 317.62,134.96 328.89,139.07 328.89,147.07" fill="#38ac57"/>
<polygon points="328.89,147.07 328.89,139.07 340.17,134.96 340.17,142.96" fill="#2f9149"/>
<polygon points="355.20,131.86 366.48,135.96 355.20,140.07 343.93,135.96" fill="#40c463"/>
<polygon points="343.93,142.96 343.93,135.96 355.20,140.07 355.20,147.07" fill="#38ac57"/>
<polygon points="355.20,147.07 355.20,140.07 366.48,135.96 366.48,142.96" fill="#2f9149"/>
<polygon points="302.58,129.86 313.86,133.96 302.58,138.07 291.30,133.96" fill="#30a14e"/>
<polygon points="291.30,142.96 291.30,133.96 302.58,138.07 302.58,147.07" fill="#2a8d44"/>
<polygon points="302.58,147.07 302.58,138.07 313.86,133.96 313.86,142.96" fill="#237739"/>
<polygon points="249.96,126.86 261.23,130.96 249.96,135.07 238.68,130.96" fill="#216e39"/>
<polygon points="238.68,142.96 238.68,130.96 249.96,135.07 249.96,147.07" fill="#1d6032"/>
<polygon points="249.96,147.07 249.96,135.07 261.23,130.96 261.23,142.96" fill="#18512a"/>
<polygon points="263.11,140.65 274.39,144.75 263.11,148.86 251.84,144.75" fill="#9be9a8"/>
<polygon points="251.84,147.75 251.84,144.75 263.11,148.86 263.11,151.86" fill="#88cd93"/>
<polygon points="263.11,151.86 263.11,148.86 274.39,144.75 274.39,147.75" fill="#72ac7c"/>
<polygon points="289.43,140.65 300.70,144.75 289.43,148.86 278.15,144.75" fill="#9be9a8"/>
<polygon points="278.15,147.75 278.15,144.75 289.43,148.86 289.43,151.86" fill="#88cd93"/>
<polygon points="289.43,151.86 289.43,148.86 300.70,144.75 300.70,147.75" fill="#72ac7c"/>
<polygon points="315.74,141.65 327.01,145.75 315.74,149.86 304.46,145.75" fill="#9be9a8"/>
<polygon points="304.46,147.75 304.46,145.75 315.74,149.86 315.74,151.86" fill="#88cd93"/>
<polygon points="315.74,151.86 315.74,149.86 327.01,145.75 327.01,147.75" fill="#72ac7c"/>
<polygon points="368.36,137.65 379.64,141.75 368.36,145.86 357.08,141.75" fill="#40c463"/>
<polygon points="357.08,147.75 357.08,141.75 368.36,145.86 368.36,151.86" fill="#38ac57"/>
<polygon points="368.36,151.86 368.36,145.86 379.64,141.75 379.64,147.75" fill="#2f9149"/>
<polygon points="394.67,137.65 405.95,141.75 394.67,145.86 383.39,141.75" fill="#40c463"/>
<polygon points="383.39,147.75 383.39,141.75 394.67,145.86 394.67,151.86" fill="#38ac57"/>
<polygon points="394.67,151.86 394.67,145.86 405.95,141.75 405.95,147.75" fill="#2f9149"/>
<polygon points="236.80,134.65 248.08,138.75 236.80,142.86 225.53,138.75" fill="#30a14e"/>
<polygon points="225.53,147.75 225.53,138.75 236.80,142.86 236.80,151.86" fill="#2a8d44"/>
<polygon points="236.80,151.86 236.80,142.86 248.08,138.75 248.08,147.75" fill="#237739"/>
<polygon points="342.05,127.65 353.32,131.75 342.05,135.86 330.77,131.75" fill="#216e39"/>
<polygon points="330.77,147.75 330.77,131.75 342.05,135.86 342.05,151.86" fill="#1d6032"/>
<polygon points="342.05,151.86 342.05,135.86 353.32,131.75 353.32,147.75" fill="#18512a"/>
<polygon points="302.58,148.44 313.86,152.54 302.58,156.65 291.30,152.54" fill="#ebedf0"/>
<polygon points="328.89,148.44 340.17,152.54 328.89,156.65 317.62,152.54" fill="#ebedf0"/>
<polygon points="381.52,148.44 392.79,152.54 381.52,156.65 370.24,152.54" fill="#ebedf0"/>
<polygon points="249.96,143.44 261.23,147.54 249.96,151.65 238.68,147.54" fill="#40c463"/>
<polygon points="238.68,152.54 238.68,147.54 249.96,151.65 249.96,156.65" fill="#38ac57"/>
<polygon points="249.96,156.65 249.96,151.65 261.23,147.54 261.23,152.54" fill="#2f9149"/>
<polygon points="355.20,141.44 366.48,145.54 355.20,149.65 343.93,145.54" fill="#40c463"/>
<polygon points="343.93,152.54 343.93,145.54 355.20,149.65 355.20,156.65" fill="#38ac57"/>
<polygon points="355.20,156.65 355.20,149.65 366.48,145.54 366.48,152.54" fill="#2f9149"/>
<polygon points="276.27,138.44 287.55,142.54 276.27,146.65 264.99,142.54" fill="#30a14e"/>
<polygon points="264.99,152.54 264.99,142.54 276.27,146.65 276.27,156.65" fill="#2a8d44"/>
<polygon points="276.27,156.65 276.27,146.65 287.55,142.54 287.55,152.54" fill="#237739"/>
<polygon points="407.83,139.44 419.10,143.54 407.83,147.65 396.55,143.54" fill="#30a14e"/>
<polygon points="396.55,152.54 396.55,143.54 407.83,147.65 407.83,156.65" fill="#2a8d44"/>
<polygon points="407.83,156.65 407.83,147.65 419.10,143.54 419.10,152.54" fill="#237739"/>
<polygon points="394.67,149.23 405.95,153.33 394.67,157.43 383.39,153.33" fill="#9be9a8"/>
<polygon points="383.39,157.33 383.39,153.33 394.67,157.43 394.67,161.43" fill="#88cd93"/>
<polygon points="394.67,161.43 394.67,157.43 405.95,153.33 405.95,157.33" fill="#72ac7c"/>
<polygon points="289.43,148.23 300.70,152.33 289.43,156.43 278.15,152.33" fill="#40c463"/>
<polygon points="278.15,157.33 278.15,152.33 289.43,156.43 289.43,161.43" fill="#38ac57"/>
<polygon points="289.43,161.43 289.43,156.43 300.70,152.33 300.70,157.33" fill="#2f9149"/>
<polygon points="263.11,145.23 274.39,149.33 263.11,153.43 251.84,149.33" fill="#30a14e"/>
<polygon points="251.84,157.33 251.84,149.33 263.11,153.43 263.11,161.43" fill="#2a8d44"/>
<polygon points="263.11,161.43 263.11,153.43 274.39,149.33 274.39,157.33" fill="#237739"/>
<polygon points="315.74,142.23 327.01,146.33 315.74,150.43 304.46,146.33" fill="#30a14e"/>
<polygon points="304.46,157.33 304.46,146.33 315.74,150.43 315.74,161.43" fill="#2a8d44"/>
<polygon points="315.74,161.43 315.74,150.43 327.01,146.33 327.01,157.33" fill="#237739"/>
<polygon points="342.05,142.23 353.32,146.33 342.05,150.43 330.77,146.33" fill="#30a14e"/>
<polygon points="330.77,157.33 330.77,146.33 342.05,150.43 342.05,161.43" fill="#2a8d44"/>
<polygon points="342.05,161.43 342.05,150.43 353.32,146.33 353.32,157.33" fill="#237739"/>
<polygon points="368.36,144.23 379.64,148.33 368.36,152.43 357.08,148.33" fill="#30a14e"/>
<polygon points="357.08,157.33 357.08,148.33 368.36,152.43 368.36,161.43" fill="#2a8d44"/>
<polygon points="368.36,161.43 368.36,152.43 379.64,148.33 379.64,157.33" fill="#237739"/>
<polygon points="420.98,144.23 432.26,148.33 420.98,152.43 409.71,148.33" fill="#30a14e"/>
<polygon points="409.71,157.33 409.71,148.33 420.98,152.43 420.98,161.43" fill="#2a8d44"/>
<polygon points="420.98,161.43 420.98,152.43 432.26,148.33 432.26,157.33" fill="#237739"/>
<polygon points="302.58,158.01 313.86,162.12 302.58,166.22 291.30,162.12" fill="#ebedf0"/>
<polygon points="355.20,156.01 366.48,160.12 355.20,164.22 343.93,160.12" fill="#9be9a8"/>
<polygon points="343.93,162.12 343.93,160.12 355.20,164.22 355.20,166.22" fill="#88cd93"/>
<polygon points="355.20,166.22 355.20,164.22 366.48,160.12 366.48,162.12" fill="#72ac7c"/>
<polygon points="381.52,154.01 392.79,158.12 381.52,162.22 370.24,158.12" fill="#9be9a8"/>
<polygon points="370.24,162.12 370.24,158.12 381.52,162.22 381.52,166.22" fill="#88cd93"/>
<polygon points="381.52,166.22 381.52,162.22 392.79,158.12 392.79,162.12" fill="#72ac7c"/>
<polygon points="434.14,154.01 445.41,158.12 434.14,162.22 422.86,158.12" fill="#9be9a8"/>
<polygon points="422.86,162.12 422.86,158.12 434.14,162.22 434.14,166.22" fill="#88cd93"/>
<polygon points="434.14,166.22 434.14,162.22 445.41,158.12 445.41,162.12" fill="#72ac7c"/>
<polygon points="328.89,152.01 340.17,156.12 328.89,160.22 317.62,156.12" fill="#40c463"/>
<polygon points="317.62,162.12 317.62,156.12 328.89,160.22 328.89,166.22" fill="#38ac57"/>
<polygon points="328.89,166.22 328.89,160.22 340.17,156.12 340.17,162.12" fill="#2f9149"/>
<polygon points="407.83,149.01 419.10,153.12 407.83,157.22 396.55,153.12" fill="#30a14e"/>
<polygon points="396.55,162.12 396.55,153.12 407.83,157.22 407.83,166.22" fill="#2a8d44"/>
<polygon points="407.83,166.22 407.83,157.22 419.10,153.12 419.10,162.12" fill="#237739"/>
<polygon points="276.27,145.01 287.55,149.12 276.27,153.22 264.99,149.12" fill="#216e39"/>
<polygon points="264.99,162.12 264.99,149.12 276.27,153.22 276.27,166.22" fill="#1d6032"/>
<polygon points="276.27,166.22 276.27,153.22 287.55,149.12 287.55,162.12" fill="#18512a"/>
<polygon points="342.05,162.80 353.32,166.91 342.05,171.01 330.77,166.91" fill="#ebedf0"/>
<polygon points="447.29,162.80 458.57,166.91 447.29,171.01 436.02,166.91" fill="#ebedf0"/>
<polygon points="289.43,160.80 300.70,164.91 289.43,169.01 278.15,164.91" fill="#9be9a8"/>
<polygon points="278.15,166.91 278.15,164.91 289.43,169.01 289.43,171.01" fill="#88cd93"/>
<polygon points="289.43,171.01 289.43,169.01 300.70,164.91 300.70,166.91" fill="#72ac7c"/>
<polygon points="315.74,158.80 327.01,162.91 315.74,167.01 304.46,162.91" fill="#9be9a8"/>
<polygon points="304.46,166.91 304.46,162.91 315.74,167.01 315.74,171.01" fill="#88cd93"/>
<polygon points="315.74,171.01 315.74,167.01 327.01,162.91 327.01,166.91" fill="#72ac7c"/>
<polygon points="368.36,160.80 379.64,164.91 368.36,169.01 357.08,164.91" fill="#9be9a8"/>
<polygon points="357.08,166.91 357.08,164.91 368.36,169.01 368.36,171.01" fill="#88cd93"/>
<polygon points="368.36,171.01 368.36,169.01 379.64,164.91 379.64,166.91" fill="#72ac7c"/>
<polygon points="394.67,154.80 405.95,158.91 394.67,163.01 383.39,158.91" fill="#40c463"/>
<polygon points="383.39,166.91 383.39,158.91 394.67,163.01 394.67,171.01" fill="#38ac57"/>
<polygon points="394.67,171.01 394.67,163.01 405.95,158.91 405.95,166.91" fill="#2f9149"/>
<polygon points="420.98,156.80 432.26,160.91 420.98,165.01 409.71,160.91" fill="#40c463"/>
<polygon points="409.71,166.91 409.71,160.91 420.98,165.01 420.98,171.01" fill="#38ac57"/>
<polygon points="420.98,171.01 420.98,165.01 432.26,160.91 432.26,166.91" fill="#2f9149"/>
<polygon points="302.58,167.59 313.86,171.69 302.58,175.80 291.30,171.69" fill="#ebedf0"/>
<polygon points="355.20,167.59 366.48,171.69 355.20,175.80 343.93,171.69" fill="#ebedf0"/>
<polygon points="460.45,167.59 471.73,171.69 460.45,175.80 449.17,171.69" fill="#ebedf0"/>
<polygon points="381.52,163.59 392.79,167.69 381.52,171.80 370.24,167.69" fill="#9be9a8"/>
<polygon points="370.24,171.69 370.24,167.69 381.52,171.80 381.52,175.80" fill="#88cd93"/>
<polygon points="381.52,175.80 381.52,171.80 392.79,167.69 392.79,171.69" fill="#72ac7c"/>
<polygon points="407.83,165.59 419.10,169.69 407.83,173.80 396.55,169.69" fill="#9be9a8"/>
<polygon points="396.55,171.69 396.55,169.69 407.83,173.80 407.83,175.80" fill="#88cd93"/>
<polygon points="407.83,175.80 407.83,173.80 419.10,169.69 419.10,171.69" fill="#72ac7c"/>
<polygon points="328.89,160.59 340.17,164.69 328.89,168.80 317.62,164.69" fill="#40c463"/>
<polygon points="317.62,171.69 317.62,164.69 328.89,168.80 328.89,175.80" fill="#38ac57"/>
<polygon points="328.89,175.80 328.89,168.80 340.17,164.69 340.17,171.69" fill="#2f9149"/>
<polygon points="434.14,159.59 445.41,163.69 434.14,167.80 422.86,163.69" fill="#40c463"/>
<polygon points="422.86,171.69 422.86,163.69 434.14,167.80 434.14,175.80" fill="#38ac57"/>
<polygon points="434.14,175.80 434.14,167.80 445.41,163.69 445.41,171.69" fill="#2f9149"/>
<polygon points="315.74,172.38 327.01,176.48 315.74,180.59 304.46,176.48" fill="#ebedf0"/>
<polygon points="420.98,172.38 432.26,176.48 420.98,180.59 409.71,176.48" fill="#ebedf0"/>
<polygon points="447.29,172.38 458.57,176.48 447.29,180.59 436.02,176.48" fill="#ebedf0"/>
<polygon points="368.36,170.38 379.64,174.48 368.36,178.59 357.08,174.48" fill="#9be9a8"/>
<polygon points="357.08,176.48 357.08,174.48 368.36,178.59 368.36,180.59" fill="#88cd93"/>
<polygon points="368.36,180.59 368.36,178.59 379.64,174.48 379.64,176.48" fill="#72ac7c"/>
<polygon points="473.61,170.38 484.88,174.48 473.61,178.59 462.33,174.48" fill="#9be9a8"/>
<polygon points="462.33,176.48 462.33,174.48 473.61,178.59 473.61,180.59" fill="#88cd93"/>
<polygon points="473.61,180.59 473.61,178.59 484.88,174.48 484.88,176.48" fill="#72ac7c"/>
<polygon points="342.05,160.38 353.32,164.48 342.05,168.59 330.77,164.48" fill="#216e39"/>
<polygon points="330.77,176.48 330.77,164.48 342.05,168.59 342.05,180.59" fill="#1d6032"/>
<polygon points="342.05,180.59 342.05,168.59 353.32,164.48 353.32,176.48" fill="#18512a"/>
<polygon points="394.67,159.38 405.95,163.48 394.67,167.59 383.39,163.48" fill="#216e39"/>
<polygon points="383.39,176.48 383.39,163.48 394.67,167.59 394.67,180.59" fill="#1d6032"/>
<polygon points="394.67,180.59 394.67,167.59 405.95,163.48 405.95,176.48" fill="#18512a"/>
<polygon points="486.76,177.17 498.04,181.27 486.76,185.37 475.48,181.27" fill="#ebedf0"/>
<polygon points="328.89,174.17 340.17,178.27 328.89,182.37 317.62,178.27" fill="#9be9a8"/>
<polygon points="317.62,181.27 317.62,178.27 328.89,182.37 328.89,185.37" fill="#88cd93"/>
<polygon points="328.89,185.37 328.89,182.37 340.17,178.27 340.17,181.27" fill="#72ac7c"/>
<polygon points="407.83,174.17 419.10,178.27 407.83,182.37 396.55,178.27" fill="#9be9a8"/>
<polygon points="396.55,181.27 396.55,178.27 407.83,182.37 407.83,185.37" fill="#88cd93"/>
<polygon points="407.83,185.37 407.83,182.37 419.10,178.27 419.10,181.27" fill="#72ac7c"/>
<polygon points="381.52,172.17 392.79,176.27 381.52,180.37 370.24,176.27" fill="#40c463"/>
<polygon points="370.24,181.27 370.24,176.27 381.52,180.37 381.52,185.37" fill="#38ac57"/>
<polygon points="381.52,185.37 381.52,180.37 392.79,176.27 392.79,181.27" fill="#2f9149"/>
<polygon points="434.14,169.17 445.41,173.27 434.14,177.37 422.86,173.27" fill="#40c463"/>
<polygon points="422.86,181.27 422.86,173.27 434.14,177.37 434.14,185.37" fill="#38ac57"/>
<polygon points="434.14,185.37 434.14,177.37 445.41,173.27 445.41,181.27" fill="#2f9149"/>
<polygon points="460.45,171.17 471.73,175.27 460.45,179.37 449.17,175.27" fill="#40c463"/>
<polygon points="449.17,181.27 449.17,175.27 460.45,179.37 460.45,185.37" fill="#38ac57"/>
<polygon points="460.45,185.37 460.45,179.37 471.73,175.27 471.73,181.27" fill="#2f9149"/>
<polygon points="355.20,169.17 366.48,173.27 355.20,177.37 343.93,173.27" fill="#30a14e"/>
<polygon points="343.93,181.27 343.93,173.27 355.20,177.37 355.20,185.37" fill="#2a8d44"/>
<polygon points="355.20,185.37 355.20,177.37 366.48,173.27 366.48,181.27" fill="#237739"/>
<polygon points="473.61,181.95 484.88,186.06 473.61,190.16 462.33,186.06" fill="#ebedf0"/>
<polygon points="447.29,177.95 458.57,182.06 447.29,186.16 436.02,182.06" fill="#9be9a8"/>
<polygon points="436.02,186.06 436.02,182.06 447.29,186.16 447.29,190.16" fill="#88cd93"/>
<polygon points="447.29,190.16 447.29,186.16 458.57,182.06 458.57,186.06" fill="#72ac7c"/>
<polygon points="499.92,179.95 511.19,184.06 499.92,188.16 488.64,184.06" fill="#9be9a8"/>
<polygon points="488.64,186.06 488.64,184.06 499.92,188.16 499.92,190.16" fill="#88cd93"/>
<polygon points="499.92,190.16 499.92,188.16 511.19,184.06 511.19,186.06" fill="#72ac7c"/>
<polygon points="368.36,175.95 379.64,180.06 368.36,184.16 357.08,180.06" fill="#40c463"/>
<polygon points="357.08,186.06 357.08,180.06 368.36,184.16 368.36,190.16" fill="#38ac57"/>
<polygon points="368.36,190.16 368.36,184.16 379.64,180.06 379.64,186.06" fill="#2f9149"/>
<polygon points="394.67,175.95 405.95,180.06 394.67,184.16 383.39,180.06" fill="#40c463"/>
<polygon points="383.39,186.06 383.39,180.06 394.67,184.16 394.67,190.16" fill="#38ac57"/>
<polygon points="394.67,190.16 394.67,184.16 405.95,180.06 405.95,186.06" fill="#2f9149"/>
<polygon points="420.98,174.95 432.26,179.06 420.98,183.16 409.71,179.06" fill="#40c463"/>
<polygon points="409.71,186.06 409.71,179.06 420.98,183.16 420.98,190.16" fill="#38ac57"/>
<polygon points="420.98,190.16 420.98,183.16 432.26,179.06 432.26,186.06" fill="#2f9149"/>
<polygon points="342.05,170.95 353.32,175.06 342.05,179.16 330.77,175.06" fill="#30a14e"/>
<polygon points="330.77,186.06 330.77,175.06 342.05,179.16 342.05,190.16" fill="#2a8d44"/>
<polygon points="342.05,190.16 342.05,179.16 353.32,175.06 353.32,186.06" fill="#237739"/>
<polygon points="355.20,186.74 366.48,190.85 355.20,194.95 343.93,190.85" fill="#ebedf0"/>
<polygon points="407.83,182.74 419.10,186.85 407.83,190.95 396.55,186.85" fill="#9be9a8"/>
<polygon points="396.55,190.85 396.55,186.85 407.83,190.95 407.83,194.95" fill="#88cd93"/>
<polygon points="407.83,194.95 407.83,190.95 419.10,186.85 419.10,190.85" fill="#72ac7c"/>
<polygon points="381.52,180.74 392.79,184.85 381.52,188.95 370.24,184.85" fill="#40c463"/>
<polygon points="370.24,190.85 370.24,184.85 381.52,188.95 381.52,194.95" fill="#38ac57"/>
<polygon points="381.52,194.95 381.52,188.95 392.79,184.85 392.79,190.85" fill="#2f9149"/>
<polygon points="434.14,181.74 445.41,185.85 434.14,189.95 422.86,185.85" fill="#40c463"/>
<polygon points="422.86,190.85 422.86,185.85 434.14,189.95 434.14,194.95" fill="#38ac57"/>
<polygon points="434.14,194.95 434.14,189.95 445.41,185.85 445.41,190.85" fill="#2f9149"/>
<polygon points="513.07,181.74 524.35,185.85 513.07,189.95 501.80,185.85" fill="#40c463"/>
<polygon points="501.80,190.85 501.80,185.85 513.07,189.95 513.07,194.95" fill="#38ac57"/>
<polygon points="513.07,194.95 513.07,189.95 524.35,185.85 524.35,190.85" fill="#2f9149"/>
<polygon points="486.76,175.74 498.04,179.85 486.76,183.95 475.48,179.85" fill="#30a14e"/>
<polygon points="475.48,190.85 475.48,179.85 486.76,183.95 486.76,194.95" fill="#2a8d44"/>
<polygon points="486.76,194.95 486.76,183.95 498.04,179.85 498.04,190.85" fill="#237739"/>
<polygon points="460.45,171.74 471.73,175.85 460.45,179.95 449.17,175.85" fill="#216e39"/>
<polygon points="449.17,190.85 449.17,175.85 460.45,179.95 460.45,194.95" fill="#1d6032"/>
<polygon points="460.45,194.95 460.45,179.95 471.73,175.85 471.73,190.85" fill="#18512a"/>
<polygon points="368.36,191.53 379.64,195.64 368.36,199.74 357.08,195.64" fill="#ebedf0"/>
<polygon points="394.67,191.53 405.95,195.64 394.67,199.74 383.39,195.64" fill="#ebedf0"/>
<polygon points="499.92,188.53 511.19,192.64 499.92,196.74 488.64,192.64" fill="#9be9a8"/>
<polygon points="488.64,195.64 488.64,192.64 499.92,196.74 499.92,199.74" fill="#88cd93"/>
<polygon points="499.92,199.74 499.92,196.74 511.19,192.64 511.19,195.64" fill="#72ac7c"/>
<polygon points="473.61,186.53 484.88,190.64 473.61,194.74 462.33,190.64" fill="#40c463"/>
<polygon points="462.33,195.64 462.33,190.64 473.61,194.74 473.61,199.74" fill="#38ac57"/>
<polygon points="473.61,199.74 473.61,194.74 484.88,190.64 484.88,195.64" fill="#2f9149"/>
<polygon points="526.23,184.53 537.50,188.64 526.23,192.74 514.95,188.64" fill="#40c463"/>
<polygon points="514.95,195.64 514.95,188.64 526.23,192.74 526.23,199.74" fill="#38ac57"/>
<polygon points="526.23,199.74 526.23,192.74 537.50,188.64 537.50,195.64" fill="#2f9149"/>
<polygon points="420.98,180.53 432.26,184.64 420.98,188.74 409.71,184.64" fill="#30a14e"/>
<polygon points="409.71,195.64 409.71,184.64 420.98,188.74 420.98,199.74" fill="#2a8d44"/>
<polygon points="420.98,199.74 420.98,188.74 432.26,184.64 432.26,195.64" fill="#237739"/>
<polygon points="447.29,183.53 458.57,187.64 447.29,191.74 436.02,187.64" fill="#30a14e"/>
<polygon points="436.02,195.64 436.02,187.64 447.29,191.74 447.29,199.74" fill="#2a8d44"/>
<polygon points="447.29,199.74 447.29,191.74 458.57,187.64 458.57,195.64" fill="#237739"/>
<polygon points="381.52,196.32 392.79,200.42 381.52,204.53 370.24,200.42" fill="#ebedf0"/>
<polygon points="407.83,196.32 419.10,200.42 407.83,204.53 396.55,200.42" fill="#ebedf0"/>
<polygon points="539.38,196.32 550.66,200.42 539.38,204.53 528.11,200.42" fill="#ebedf0"/>
<polygon points="434.14,192.32 445.41,196.42 434.14,200.53 422.86,196.42" fill="#9be9a8"/>
<polygon points="422.86,200.42 422.86,196.42 434.14,200.53 434.14,204.53" fill="#88cd93"/>
<polygon points="434.14,204.53 434.14,200.53 445.41,196.42 445.41,200.42" fill="#72ac7c"/>
<polygon points="513.07,194.32 524.35,198.42 513.07,202.53 501.80,198.42" fill="#9be9a8"/>
<polygon points="501.80,200.42 501.80,198.42 513.07,202.53 513.07,204.53" fill="#88cd93"/>
<polygon points="513.07,204.53 513.07,202.53 524.35,198.42 524.35,200.42" fill="#72ac7c"/>
<polygon points="460.45,190.32 471.73,194.42 460.45,198.53 449.17,194.42" fill="#40c463"/>
<polygon points="449.17,200.42 449.17,194.42 460.45,198.53 460.45,204.53" fill="#38ac57"/>
<polygon points="460.45,204.53 460.45,198.53 471.73,194.42 471.73,200.42" fill="#2f9149"/>
<polygon points="486.76,188.32 498.04,192.42 486.76,196.53 475.48,192.42" fill="#40c463"/>
<polygon points="475.48,200.42 475.48,192.42 486.76,196.53 486.76,204.53" fill="#38ac57"/>
<polygon points="486.76,204.53 486.76,196.53 498.04,192.42 498.04,200.42" fill="#2f9149"/>
<polygon points="394.67,201.11 405.95,205.21 394.67,209.32 383.39,205.21" fill="#ebedf0"/>
<polygon points="447.29,201.11 458.57,205.21 447.29,209.32 436.02,205.21" fill="#ebedf0"/>
<polygon points="552.54,201.11 563.82,205.21 552.54,209.32 541.26,205.21" fill="#ebedf0"/>
<polygon points="526.23,199.11 537.50,203.21 526.23,207.32 514.95,203.21" fill="#9be9a8"/>
<polygon points="514.95,205.21 514.95,203.21 526.23,207.32 526.23,209.32" fill="#88cd93"/>
<polygon points="526.23,209.32 526.23,207.32 537.50,203.21 537.50,205.21" fill="#72ac7c"/>
<polygon points="420.98,194.11 432.26,198.21 420.98,202.32 409.71,198.21" fill="#40c463"/>
<polygon points="409.71,205.21 409.71,198.21 420.98,202.32 420.98,209.32" fill="#38ac57"/>
<polygon points="420.98,209.32 420.98,202.32 432.26,198.21 432.26,205.21" fill="#2f9149"/>
<polygon points="473.61,194.11 484.88,198.21 473.61,202.32 462.33,198.21" fill="#40c463"/>
<polygon points="462.33,205.21 462.33,198.21 473.61,202.32 473.61,209.32" fill="#38ac57"/>
<polygon points="473.61,209.32 473.61,202.32 484.88,198.21 484.88,205.21" fill="#2f9149"/>
<polygon points="499.92,192.11 511.19,196.21 499.92,200.32 488.64,196.21" fill="#30a14e"/>
<polygon points="488.64,205.21 488.64,196.21 499.92,200.32 499.92,209.32" fill="#2a8d44"/>
<polygon points="499.92,209.32 499.92,200.32 511.19,196.21 511.19,205.21" fill="#237739"/>
<polygon points="407.83,205.90 419.10,210.00 407.83,214.10 396.55,210.00" fill="#ebedf0"/>
<polygon points="513.07,205.90 524.35,210.00 513.07,214.10 501.80,210.00" fill="#ebedf0"/>
<polygon points="539.38,201.90 550.66,206.00 539.38,210.10 528.11,206.00" fill="#9be9a8"/>
<polygon points="528.11,210.00 528.11,206.00 539.38,210.10 539.38,214.10" fill="#88cd93"/>
<polygon points="539.38,214.10 539.38,210.10 550.66,206.00 550.66,210.00" fill="#72ac7c"/>
<polygon points="460.45,197.90 471.73,202.00 460.45,206.10 449.17,202.00" fill="#40c463"/>
<polygon points="449.17,210.00 449.17,202.00 460.45,206.10 460.45,214.10" fill="#38ac57"/>
<polygon points="460.45,214.10 460.45,206.10 471.73,202.00 471.73,210.00" fill="#2f9149"/>
<polygon points="486.76,197.90 498.04,202.00 486.76,206.10 475.48,202.00" fill="#40c463"/>
<polygon points="475.48,210.00 475.48,202.00 486.76,206.10 486.76,214.10" fill="#38ac57"/>
<polygon points="486.76,214.10 486.76,206.10 498.04,202.00 498.04,210.00" fill="#2f9149"/>
<polygon points="565.69,198.90 576.97,203.00 565.69,207.10 554.42,203.00" fill="#40c463"/>
<polygon points="554.42,210.00 554.42,203.00 565.69,207.10 565.69,214.10" fill="#38ac57"/>
<polygon points="565.69,214.10 565.69,207.10 576.97,203.00 576.97,210.00" fill="#2f9149"/>
<polygon points="434.14,190.90 445.41,195.00 434.14,199.10 422.86,195.00" fill="#216e39"/>
<polygon points="422.86,210.00 422.86,195.00 434.14,199.10 434.14,214.10" fill="#1d6032"/>
<polygon points="434.14,214.10 434.14,199.10 445.41,195.00 445.41,210.00" fill="#18512a"/>
<polygon points="420.98,210.68 432.26,214.79 420.98,218.89 409.71,214.79" fill="#ebedf0"/>
<polygon points="447.29,206.68 458.57,210.79 447.29,214.89 436.02,210.79" fill="#9be9a8"/>
<polygon points="436.02,214.79 436.02,210.79 447.29,214.89 447.29,218.89" fill="#88cd93"/>
<polygon points="447.29,218.89 447.29,214.89 458.57,210.79 458.57,214.79" fill="#72ac7c"/>
<polygon points="473.61,208.68 484.88,212.79 473.61,216.89 462.33,212.79" fill="#9be9a8"/>
<polygon points="462.33,214.79 462.33,212.79 473.61,216.89 473.61,218.89" fill="#88cd93"/>
<polygon points="473.61,218.89 473.61,216.89 484.88,212.79 484.88,214.79" fill="#72ac7c"/>
<polygon points="499.92,208.68 511.19,212.79 499.92,216.89 488.64,212.79" fill="#9be9a8"/>
<polygon points="488.64,214.79 488.64,212.79 499.92,216.89 499.92,218.89" fill="#88cd93"/>
<polygon points="499.92,218.89 499.92,216.89 511.19,212.79 511.19,214.79" fill="#72ac7c"/>
<polygon points="552.54,206.68 563.82,210.79 552.54,214.89 541.26,210.79" fill="#9be9a8"/>
<polygon points="541.26,214.79 541.26,210.79 552.54,214.89 552.54,218.89" fill="#88cd93"/>
<polygon points="552.54,218.89 552.54,214.89 563.82,210.79 563.82,214.79" fill="#72ac7c"/>
<polygon points="578.85,206.68 590.13,210.79 578.85,214.89 567.57,210.79" fill="#9be9a8"/>
<polygon points="567.57,214.79 567.57,210.79 578.85,214.89 578.85,218.89" fill="#88cd93"/>
<polygon points="578.85,218.89 578.85,214.89 590.13,210.79 590.13,214.79" fill="#72ac7c"/>
<polygon points="526.23,199.68 537.50,203.79 526.23,207.89 514.95,203.79" fill="#216e39"/>
<polygon points="514.95,214.79 514.95,203.79 526.23,207.89 526.23,218.89" fill="#1d6032"/>
<polygon points="526.23,218.89 526.23,207.89 537.50,203.79 537.50,214.79" fill="#18512a"/>
<polygon points="434.14,215.47 445.41,219.58 434.14,223.68 422.86,219.58" fill="#ebedf0"/>
<polygon points="565.69,215.47 576.97,219.58 565.69,223.68 554.42,219.58" fill="#ebedf0"/>
<polygon points="592.01,215.47 603.28,219.58 592.01,223.68 580.73,219.58" fill="#ebedf0"/>
<polygon points="460.45,213.47 471.73,217.58 460.45,221.68 449.17,217.58" fill="#9be9a8"/>
<polygon points="449.17,219.58 449.17,217.58 460.45,221.68 460.45,223.68" fill="#88cd93"/>
<polygon points="460.45,223.68 460.45,221.68 471.73,217.58 471.73,219.58" fill="#72ac7c"/>
<polygon points="539.38,211.47 550.66,215.58 539.38,219.68 528.11,215.58" fill="#9be9a8"/>
<polygon points="528.11,219.58 528.11,215.58 539.38,219.68 539.38,223.68" fill="#88cd93"/>
<polygon points="539.38,223.68 539.38,219.68 550.66,215.58 550.66,219.58" fill="#72ac7c"/>
<polygon points="486.76,210.47 498.04,214.58 486.76,218.68 475.48,214.58" fill="#40c463"/>
<polygon points="475.48,219.58 475.48,214.58 486.76,218.68 486.76,223.68" fill="#38ac57"/>
<polygon points="486.76,223.68 486.76,218.68 498.04,214.58 498.04,219.58" fill="#2f9149"/>
<polygon points="513.07,204.47 524.35,208.58 513.07,212.68 501.80,208.58" fill="#30a14e"/>
<polygon points="501.80,219.58 501.80,208.58 513.07,212.68 513.07,223.68" fill="#2a8d44"/>
<polygon points="513.07,223.68 513.07,212.68 524.35,208.58 524.35,219.58" fill="#237739"/>
<polygon points="605.16,220.26 616.44,224.37 605.16,228.47 593.89,224.37" fill="#ebedf0"/>
<polygon points="447.29,218.26 458.57,222.37 447.29,226.47 436.02,222.37" fill="#9be9a8"/>
<polygon points="436.02,224.37 436.02,222.37 447.29,226.47 447.29,228.47" fill="#88cd93"/>
<polygon points="447.29,228.47 447.29,226.47 458.57,222.37 458.57,224.37" fill="#72ac7c"/>
<polygon points="473.61,217.26 484.88,221.37 473.61,225.47 462.33,221.37" fill="#9be9a8"/>
<polygon points="462.33,224.37 462.33,221.37 473.61,225.47 473.61,228.47" fill="#88cd93"/>
<polygon points="473.61,228.47 473.61,225.47 484.88,221.37 484.88,224.37" fill="#72ac7c"/>
<polygon points="552.54,218.26 563.82,222.37 552.54,226.47 541.26,222.37" fill="#9be9a8"/>
<polygon points="541.26,224.37 541.26,222.37 552.54,226.47 552.54,228.47" fill="#88cd93"/>
<polygon points="552.54,228.47 552.54,226.47 563.82,222.37 563.82,224.37" fill="#72ac7c"/>
<polygon points="578.85,218.26 590.13,222.37 578.85,226.47 567.57,222.37" fill="#9be9a8"/>
<polygon points="567.57,224.37 567.57,222.37 578.85,226.47 578.85,228.47" fill="#88cd93"/>
<polygon points="578.85,228.47 578.85,226.47 590.13,222.37 590.13,224.37" fill="#72ac7c"/>
<polygon points="499.92,213.26 511.19,217.37 499.92,221.47 488.64,217.37" fill="#40c463"/>
<polygon points="488.64,224.37 488.64,217.37 499.92,221.47 499.92,228.47" fill="#38ac57"/>
<polygon points="499.92,228.47 499.92,221.47 511.19,217.37 511.19,224.37" fill="#2f9149"/>
<polygon points="526.23,210.26 537.50,214.37 526.23,218.47 514.95,214.37" fill="#30a14e"/>
<polygon points="514.95,224.37 514.95,214.37 526.23,218.47 526.23,228.47" fill="#2a8d44"/>
<polygon points="526.23,228.47 526.23,218.47 537.50,214.37 537.50,224.37" fill="#237739"/>
<polygon points="460.45,225.05 471.73,229.15 460.45,233.26 449.17,229.15" fill="#ebedf0"/>
<polygon points="486.76,225.05 498.04,229.15 486.76,233.26 475.48,229.15" fill="#ebedf0"/>
<polygon points="513.07,225.05 524.35,229.15 513.07,233.26 501.80,229.15" fill="#ebedf0"/>
<polygon points="618.32,225.05 629.59,229.15 618.32,233.26 607.04,229.15" fill="#ebedf0"/>
<polygon points="565.69,222.05 576.97,226.15 565.69,230.26 554.42,226.15" fill="#9be9a8"/>
<polygon points="554.42,229.15 554.42,226.15 565.69,230.26 565.69,233.26" fill="#88cd93"/>
<polygon points="565.69,233.26 565.69,230.26 576.97,226.15 576.97,229.15" fill="#72ac7c"/>
<polygon points="592.01,216.05 603.28,220.15 592.01,224.26 580.73,220.15" fill="#30a14e"/>
<polygon points="580.73,229.15 580.73,220.15 592.01,224.26 592.01,233.26" fill="#2a8d44"/>
<polygon points="592.01,233.26 592.01,224.26 603.28,220.15 603.28,229.15" fill="#237739"/>
<polygon points="539.38,210.05 550.66,214.15 539.38,218.26 528.11,214.15" fill="#216e39"/>
<polygon points="528.11,229.15 528.11,214.15 539.38,218.26 539.38,233.26" fill="#1d6032"/>
<polygon points="539.38,233.26 539.38,218.26 550.66,214.15 550.66,229.15" fill="#18512a"/>
<polygon points="473.61,229.84 484.88,233.94 473.61,238.05 462.33,233.94" fill="#ebedf0"/>
<polygon points="526.23,229.84 537.50,233.94 526.23,238.05 514.95,233.94" fill="#ebedf0"/>
<polygon points="552.54,229.84 563.82,233.94 552.54,238.05 541.26,233.94" fill="#ebedf0"/>
<polygon points="631.47,229.84 642.75,233.94 631.47,238.05 620.20,233.94" fill="#ebedf0"/>
<polygon points="499.92,227.84 511.19,231.94 499.92,236.05 488.64,231.94" fill="#9be9a8"/>
<polygon points="488.64,233.94 488.64,231.94 499.92,236.05 499.92,238.05" fill="#88cd93"/>
<polygon points="499.92,238.05 499.92,236.05 511.19,231.94 511.19,233.94" fill="#72ac7c"/>
<polygon points="605.16,227.84 616.44,231.94 605.16,236.05 593.89,231.94" fill="#9be9a8"/>
<polygon points="593.89,233.94 593.89,231.94 605.16,236.05 605.16,238.05" fill="#88cd93"/>
<polygon points="605.16,238.05 605.16,236.05 616.44,231.94 616.44,233.94" fill="#72ac7c"/>
<polygon points="578.85,224.84 590.13,228.94 578.85,233.05 567.57,228.94" fill="#40c463"/>
<polygon points="567.57,233.94 567.57,228.94 578.85,233.05 578.85,238.05" fill="#38ac57"/>
<polygon points="578.85,238.05 578.85,233.05 590.13,228.94 590.13,233.94" fill="#2f9149"/>
<polygon points="486.76,234.63 498.04,238.73 486.76,242.83 475.48,238.73" fill="#ebedf0"/>
<polygon points="618.32,234.63 629.59,238.73 618.32,242.83 607.04,238.73" fill="#ebedf0"/>
<polygon points="513.07,230.63 524.35,234.73 513.07,238.83 501.80,234.73" fill="#9be9a8"/>
<polygon points="501.80,238.73 501.80,234.73 513.07,238.83 513.07,242.83" fill="#88cd93"/>
<polygon points="513.07,242.83 513.07,238.83 524.35,234.73 524.35,238.73" fill="#72ac7c"/>
<polygon points="539.38,231.63 550.66,235.73 539.38,239.83 528.11,235.73" fill="#9be9a8"/>
<polygon points="528.11,238.73 528.11,235.73 539.38,239.83 539.38,242.83" fill="#88cd93"/>
<polygon points="539.38,242.83 539.38,239.83 550.66,235.73 550.66,238.73" fill="#72ac7c"/>
<polygon points="644.63,231.63 655.91,235.73 644.63,239.83 633.35,235.73" fill="#9be9a8"/>
<polygon points="633.35,238.73 633.35,235.73 644.63,239.83 644.63,242.83" fill="#88cd93"/>
<polygon points="644.63,242.83 644.63,239.83 655.91,235.73 655.91,238.73" fill="#72ac7c"/>
<polygon points="592.01,228.63 603.28,232.73 592.01,236.83 580.73,232.73" fill="#40c463"/>
<polygon points="580.73,238.73 580.73,232.73 592.01,236.83 592.01,242.83" fill="#38ac57"/>
<polygon points="592.01,242.83 592.01,236.83 603.28,232.73 603.28,238.73" fill="#2f9149"/>
<polygon points="565.69,223.63 576.97,227.73 565.69,231.83 554.42,227.73" fill="#30a14e"/>
<polygon points="554.42,238.73 554.42,227.73 565.69,231.83 565.69,242.83" fill="#2a8d44"/>
<polygon points="565.69,242.83 565.69,231.83 576.97,227.73 576.97,238.73" fill="#237739"/>
<polygon points="552.54,239.41 563.82,243.52 552.54,247.62 541.26,243.52" fill="#ebedf0"/>
<polygon points="657.78,239.41 669.06,243.52 657.78,247.62 646.51,243.52" fill="#ebedf0"/>
<polygon points="499.92,237.41 511.19,241.52 499.92,245.62 488.64,241.52" fill="#9be9a8"/>
<polygon points="488.64,243.52 488.64,241.52 499.92,245.62 499.92,247.62" fill="#88cd93"/>
<polygon points="499.92,247.62 499.92,245.62 511.19,241.52 511.19,243.52" fill="#72ac7c"/>
<polygon points="526.23,236.41 537.50,240.52 526.23,244.62 514.95,240.52" fill="#9be9a8"/>
<polygon points="514.95,243.52 514.95,240.52 526.23,244.62 526.23,247.62" fill="#88cd93"/>
<polygon points="526.23,247.62 526.23,244.62 537.50,240.52 537.50,243.52" fill="#72ac7c"/>
<polygon points="578.85,236.41 590.13,240.52 578.85,244.62 567.57,240.52" fill="#9be9a8"/>
<polygon points="567.57,243.52 567.57,240.52 578.85,244.62 578.85,247.62" fill="#88cd93"/>
<polygon points="578.85,247.62 578.85,244.62 590.13,240.52 590.13,243.52" fill="#72ac7c"/>
<polygon points="605.16,235.41 616.44,239.52 605.16,243.62 593.89,239.52" fill="#9be9a8"/>
<polygon points="593.89,243.52 593.89,239.52 605.16,243.62 605.16,247.62" fill="#88cd93"/>
<polygon points="605.16,247.62 605.16,243.62 616.44,239.52 616.44,243.52" fill="#72ac7c"/>
<polygon points="631.47,229.41 642.75,233.52 631.47,237.62 620.20,233.52" fill="#30a14e"/>
<polygon points="620.20,243.52 620.20,233.52 631.47,237.62 631.47,247.62" fill="#2a8d44"/>
<polygon points="631.47,247.62 631.47,237.62 642.75,233.52 642.75,243.52" fill="#237739"/>
<polygon points="513.07,244.20 524.35,248.31 513.07,252.41 501.80,248.31" fill="#ebedf0"/>
<polygon points="539.38,244.20 550.66,248.31 539.38,252.41 528.11,248.31" fill="#ebedf0"/>
<polygon points="670.94,240.20 682.22,244.31 670.94,248.41 659.66,244.31" fill="#9be9a8"/>
<polygon points="659.66,248.31 659.66,244.31 670.94,248.41 670.94,252.41" fill="#88cd93"/>
<polygon points="670.94,252.41 670.94,248.41 682.22,244.31 682.22,248.31" fill="#72ac7c"/>
<polygon points="565.69,238.20 576.97,242.31 565.69,246.41 554.42,242.31" fill="#40c463"/>
<polygon points="554.42,248.31 554.42,242.31 565.69,246.41 565.69,252.41" fill="#38ac57"/>
<polygon points="565.69,252.41 565.69,246.41 576.97,242.31 576.97,248.31" fill="#2f9149"/>
<polygon points="592.01,234.20 603.28,238.31 592.01,242.41 580.73,238.31" fill="#30a14e"/>
<polygon points="580.73,248.31 580.73,238.31 592.01,242.41 592.01,252.41" fill="#2a8d44"/>
<polygon points="592.01,252.41 592.01,242.41 603.28,238.31 603.28,248.31" fill="#237739"/>
<polygon points="618.32,233.20 629.59,237.31 618.32,241.41 607.04,237.31" fill="#30a14e"/>
<polygon points="607.04,248.31 607.04,237.31 618.32,241.41 618.32,252.41" fill="#2a8d44"/>
<polygon points="618.32,252.41 618.32,241.41 629.59,237.31 629.59,248.31" fill="#237739"/>
<polygon points="644.63,233.20 655.91,237.31 644.63,241.41 633.35,237.31" fill="#30a14e"/>
<polygon points="633.35,248.31 633.35,237.31 644.63,241.41 644.63,252.41" fill="#2a8d44"/>
<polygon points="644.63,252.41 644.63,241.41 655.91,237.31 655.91,248.31" fill="#237739"/>
<polygon points="684.10,248.99 695.37,253.09 684.10,257.20 672.82,253.09" fill="#ebedf0"/>
<polygon points="578.85,244.99 590.13,249.09 578.85,253.20 567.57,249.09" fill="#9be9a8"/>
<polygon points="567.57,253.09 567.57,249.09 578.85,253.20 578.85,257.20" fill="#88cd93"/>
<polygon points="578.85,257.20 578.85,253.20 590.13,249.09 590.13,253.09" fill="#72ac7c"/>
<polygon points="631.47,245.99 642.75,250.09 631.47,254.20 620.20,250.09" fill="#9be9a8"/>
<polygon points="620.20,253.09 620.20,250.09 631.47,254.20 631.47,257.20" fill="#88cd93"/>
<polygon points="631.47,257.20 631.47,254.20 642.75,250.09 642.75,253.09" fill="#72ac7c"/>
<polygon points="526.23,243.99 537.50,248.09 526.23,252.20 514.95,248.09" fill="#40c463"/>
<polygon points="514.95,253.09 514.95,248.09 526.23,252.20 526.23,257.20" fill="#38ac57"/>
<polygon points="526.23,257.20 526.23,252.20 537.50,248.09 537.50,253.09" fill="#2f9149"/>
<polygon points="552.54,243.99 563.82,248.09 552.54,252.20 541.26,248.09" fill="#40c463"/>
<polygon points="541.26,253.09 541.26,248.09 552.54,252.20 552.54,257.20" fill="#38ac57"/>
<polygon points="552.54,257.20 552.54,252.20 563.82,248.09 563.82,253.09" fill="#2f9149"/>
<polygon points="657.78,238.99 669.06,243.09 657.78,247.20 646.51,243.09" fill="#30a14e"/>
<polygon points="646.51,253.09 646.51,243.09 657.78,247.20 657.78,257.20" fill="#2a8d44"/>
<polygon points="657.78,257.20 657.78,247.20 669.06,243.09 669.06,253.09" fill="#237739"/>
<polygon points="605.16,232.99 616.44,237.09 605.16,241.20 593.89,237.09" fill="#216e39"/>
<polygon points="593.89,253.09 593.89,237.09 605.16,241.20 605.16,257.20" fill="#1d6032"/>
<polygon points="605.16,257.20 605.16,241.20 616.44,237.09 616.44,253.09" fill="#18512a"/>
<polygon points="565.69,253.78 576.97,257.88 565.69,261.99 554.42,257.88" fill="#ebedf0"/>
<polygon points="592.01,253.78 603.28,257.88 592.01,261.99 580.73,257.88" fill="#ebedf0"/>
<polygon points="539.38,251.78 550.66,255.88 539.38,259.99 528.11,255.88" fill="#9be9a8"/>
<polygon points="528.11,257.88 528.11,255.88 539.38,259.99 539.38,261.99" fill="#88cd93"/>
<polygon points="539.38,261.99 539.38,259.99 550.66,255.88 550.66,257.88" fill="#72ac7c"/>
<polygon points="670.94,249.78 682.22,253.88 670.94,257.99 659.66,253.88" fill="#9be9a8"/>
<polygon points="659.66,257.88 659.66,253.88 670.94,257.99 670.94,261.99" fill="#88cd93"/>
<polygon points="670.94,261.99 670.94,257.99 682.22,253.88 682.22,257.88" fill="#72ac7c"/>
<polygon points="644.63,246.78 655.91,250.88 644.63,254.99 633.35,250.88" fill="#40c463"/>
<polygon points="633.35,257.88 633.35,250.88 644.63,254.99 644.63,261.99" fill="#38ac57"/>
<polygon points="644.63,261.99 644.63,254.99 655.91,250.88 655.91,257.88" fill="#2f9149"/>
<polygon points="618.32,238.78 629.59,242.88 618.32,246.99 607.04,242.88" fill="#216e39"/>
<polygon points="607.04,257.88 607.04,242.88 618.32,246.99 618.32,261.99" fill="#1d6032"/>
<polygon points="618.32,261.99 618.32,246.99 629.59,242.88 629.59,257.88" fill="#18512a"/>
<polygon points="552.54,254.57 563.82,258.67 552.54,262.78 541.26,258.67" fill="#9be9a8"/>
<polygon points="541.26,262.67 541.26,258.67 552.54,262.78 552.54,266.78" fill="#88cd93"/>
<polygon points="552.54,266.78 552.54,262.78 563.82,258.67 563.82,262.67" fill="#72ac7c"/>
<polygon points="578.85,254.57 590.13,258.67 578.85,262.78 567.57,258.67" fill="#9be9a8"/>
<polygon points="567.57,262.67 567.57,258.67 578.85,262.78 578.85,266.78" fill="#88cd93"/>
<polygon points="578.85,266.78 578.85,262.78 590.13,258.67 590.13,262.67" fill="#72ac7c"/>
<polygon points="631.47,254.57 642.75,258.67 631.47,262.78 620.20,258.67" fill="#9be9a8"/>
<polygon points="620.20,262.67 620.20,258.67 631.47,262.78 631.47,266.78" fill="#88cd93"/>
<polygon points="631.47,266.78 631.47,262.78 642.75,258.67 642.75,262.67" fill="#72ac7c"/>
<polygon points="657.78,252.57 669.06,256.67 657.78,260.78 646.51,256.67" fill="#40c463"/>
<polygon points="646.51,262.67 646.51,256.67 657.78,260.78 657.78,266.78" fill="#38ac57"/>
<polygon points="657.78,266.78 657.78,260.78 669.06,256.67 669.06,262.67" fill="#2f9149"/>
<polygon points="605.16,248.57 616.44,252.67 605.16,256.78 593.89,252.67" fill="#30a14e"/>
<polygon points="593.89,262.67 593.89,252.67 605.16,256.78 605.16,266.78" fill="#2a8d44"/>
<polygon points="605.16,266.78 605.16,256.78 616.44,252.67 616.44,262.67" fill="#237739"/>
<polygon points="565.69,263.36 576.97,267.46 565.69,271.56 554.42,267.46" fill="#ebedf0"/>
<polygon points="644.63,263.36 655.91,267.46 644.63,271.56 633.35,267.46" fill="#ebedf0"/>
<polygon points="592.01,256.36 603.28,260.46 592.01,264.56 580.73,260.46" fill="#40c463"/>
<polygon points="580.73,267.46 580.73,260.46 592.01,264.56 592.01,271.56" fill="#38ac57"/>
<polygon points="592.01,271.56 592.01,264.56 603.28,260.46 603.28,267.46" fill="#2f9149"/>
<polygon points="618.32,257.36 629.59,261.46 618.32,265.56 607.04,261.46" fill="#40c463"/>
<polygon points="607.04,267.46 607.04,261.46 618.32,265.56 618.32,271.56" fill="#38ac57"/>
<polygon points="618.32,271.56 618.32,265.56 629.59,261.46 629.59,267.46" fill="#2f9149"/>
<polygon points="578.85,268.14 590.13,272.25 578.85,276.35 567.57,272.25" fill="#ebedf0"/>
<polygon points="605.16,257.14 616.44,261.25 605.16,265.35 593.89,261.25" fill="#30a14e"/>
<polygon points="593.89,272.25 593.89,261.25 605.16,265.35 605.16,276.35" fill="#2a8d44"/>
<polygon points="605.16,276.35 605.16,265.35 616.44,261.25 616.44,272.25" fill="#237739"/>
<polygon points="631.47,259.14 642.75,263.25 631.47,267.35 620.20,263.25" fill="#30a14e"/>
<polygon points="620.20,272.25 620.20,263.25 631.47,267.35 631.47,276.35" fill="#2a8d44"/>
<polygon points="631.47,276.35 631.47,267.35 642.75,263.25 642.75,272.25" fill="#237739"/>
<polygon points="618.32,269.93 629.59,274.04 618.32,278.14 607.04,274.04" fill="#9be9a8"/>
<polygon points="607.04,277.04 607.04,274.04 618.32,278.14 618.32,281.14" fill="#88cd93"/>
<polygon points="618.32,281.14 618.32,278.14 629.59,274.04 629.59,277.04" fill="#72ac7c"/>
<polygon points="592.01,263.93 603.28,268.04 592.01,272.14 580.73,268.04" fill="#30a14e"/>
<polygon points="580.73,277.04 580.73,268.04 592.01,272.14 592.01,281.14" fill="#2a8d44"/>
<polygon points="592.01,281.14 592.01,272.14 603.28,268.04 603.28,277.04" fill="#237739"/>
<polygon points="605.16,274.72 616.44,278.82 605.16,282.93 593.89,278.82" fill="#9be9a8"/>
<polygon points="593.89,281.82 593.89,278.82 605.16,282.93 605.16,285.93" fill="#88cd93"/>
<polygon points="605.16,285.93 605.16,282.93 616.44,278.82 616.44,281.82" fill="#72ac7c"/>
<text x="697.25" y="16.00" text-anchor="end" font-family='-apple-system, BlinkMacSystemFont, "Segoe UI", Helvetica, Arial, sans-serif' font-size="34" font-weight="700" fill="#216e39">892</text>
<text x="697.25" y="28.00" text-anchor="end" font-family='-apple-system, BlinkMacSystemFont, "Segoe UI", Helvetica, Arial, sans-serif' font-size="10" fill="#59636e" letter-spacing="0.8">TOTAL COMMITS</text>
<rect x="-92.09" y="253.63" width="12" height="9.67" rx="1" fill="#40c463"/>
<text x="-86.09" y="281.30" text-anchor="middle" font-family='-apple-system, BlinkMacSystemFont, "Segoe UI", Helvetica, Arial, sans-serif' font-size="11" fill="#59636e">S</text>
<rect x="-76.09" y="216.75" width="12" height="46.54" rx="1" fill="#40c463"/>
<text x="-70.09" y="281.30" text-anchor="middle" font-family='-apple-system, BlinkMacSystemFont, "Segoe UI", Helvetica, Arial, sans-serif' font-size="11" fill="#59636e">M</text>
<rect x="-60.09" y="209.30" width="12" height="54.00" rx="1" fill="#216e39"/>
<text x="-54.09" y="281.30" text-anchor="middle" font-family='-apple-system, BlinkMacSystemFont, "Segoe UI", Helvetica, Arial, sans-serif' font-size="11" fill="#59636e">T</text>
<rect x="-44.09" y="213.93" width="12" height="49.37" rx="1" fill="#40c463"/>
<text x="-38.09" y="281.30" text-anchor="middle" font-family='-apple-system, BlinkMacSystemFont, "Segoe UI", Helvetica, Arial, sans-serif' font-size="11" fill="#59636e">W</text>
<rect x="-28.09" y="212.52" width="12" height="50.78" rx="1" fill="#40c463"/>
<text x="-22.09" y="281.30" text-anchor="middle" font-family='-apple-system, BlinkMacSystemFont, "Segoe UI", Helvetica, Arial, sans-serif' font-size="11" fill="#59636e">T</text>
<rect x="-12.09" y="227.43" width="12" height="35.87" rx="1" fill="#40c463"/>
<text x="-6.09" y="281.30" text-anchor="middle" font-family='-apple-system, BlinkMacSystemFont, "Segoe UI", Helvetica, Arial, sans-serif' font-size="11" fill="#59636e">F</text>
<rect x="3.91" y="258.26" width="12" height="5.04" rx="1" fill="#40c463"/>
<text x="9.91" y="281.30" text-anchor="middle" font-family='-apple-system, BlinkMacSystemFont, "Segoe UI", Helvetica, Arial, sans-serif' font-size="11" fill="#59636e">S</text>
<text x="-92.09" y="301.30" font-family='-apple-system, BlinkMacSystemFont, "Segoe UI", Helvetica, Arial, sans-serif' font-size="12" fill="#59636e" letter-spacing="0.3">Most active days</text>
<text x="-92.09" y="317.30" font-family='-apple-system, BlinkMacSystemFont, "Segoe UI", Helvetica, Arial, sans-serif' font-size="9" fill="#59636e">Data pulled daily from GitHub.</text>
<text x="-92.09" y="327.30" font-family='-apple-system, BlinkMacSystemFont, "Segoe UI", Helvetica, Arial, sans-serif' font-size="9" fill="#59636e">Rolling last-12-month activity.</text>
</svg>