<svg xmlns="http://www.w3.org/2000/svg" viewBox="-98.09 -22.00 801.34 344.30" width="801" height="344">
<polygon points="13.16,-3.21 24.43,0.89 13.16,5.00 1.88,0.89" fill="#40c463"/>
<polygon points="1.88,8.89 1.88,0.89 13.16,5.00 13.16,13.00" fill="#38ac57"/>
<polygon points="13.16,13.00 13.16,5.00 24.43,0.89 24.43,8.89" fill="#2f9149"/>
<polygon points="26.31,5.58 37.59,9.68 26.31,13.79 15.04,9.68" fill="#9be9a8"/>
<polygon points="15.04,13.68 15.04,9.68 26.31,13.79 26.31,17.79" fill="#88cd93"/>
<polygon points="26.31,17.79 26.31,13.79 37.59,9.68 37.59,13.68" fill="#72ac7c"/>
<polygon points="0.00,-6.42 11.28,-2.32 0.00,1.79 -11.28,-2.32" fill="#216e39"/>
<polygon points="-11.28,13.68 -11.28,-2.32 0.00,1.79 0.00,17.79" fill="#1d6032"/>
<polygon points="0.00,17.79 0.00,1.79 11.28,-2.32 11.28,13.68" fill="#18512a"/>
<polygon points="-13.16,14.36 -1.88,18.47 -13.16,22.57 -24.43,18.47" fill="#ebedf0"/>
<polygon points="39.47,14.36 50.74,18.47 39.47,22.57 28.19,18.47" fill="#ebedf0"/>
<polygon points="13.16,6.36 24.43,10.47 13.16,14.57 1.88,10.47" fill="#40c463"/>
<polygon points="1.88,18.47 1.88,10.47 13.16,14.57 13.16,22.57" fill="#38ac57"/>
<polygon points="13.16,22.57 13.16,14.57 24.43,10.47 24.43,18.47" fill="#2f9149"/>
<polygon points="-26.31,19.15 -15.04,23.26 -26.31,27.36 -37.59,23.26" fill="#ebedf0"/>
<polygon points="52.62,19.15 63.90,23.26 52.62,27.36 41.35,23.26" fill="#ebedf0"/>
<polygon points="0.00,15.15 11.28,19.26 0.00,23.36 -11.28,19.26" fill="#9be9a8"/>
<polygon points="-11.28,23.26 -11.28,19.26 0.00,23.36 0.00,27.36" fill="#88cd93"/>
<polygon points="0.00,27.36 0.00,23.36 11.28,19.26 11.28,23.26" fill="#72ac7c"/>
<polygon points="26.31,15.15 37.59,19.26 26.31,23.36 15.04,19.26" fill="#9be9a8"/>
<polygon points="15.04,23.26 15.04,19.26 26.31,23.36 26.31,27.36" fill="#88cd93"/>
<polygon points="26.31,27.36 26.31,23.36 37.59,19.26 37.59,23.26" fill="#72ac7c"/>
<polygon points="-39.47,23.94 -28.19,28.05 -39.47,32.15 -50.74,28.05" fill="#ebedf0"/>
<polygon points="-13.16,23.94 -1.88,28.05 -13.16,32.15 -24.43,28.05" fill="#ebedf0"/>
<polygon points="13.16,23.94 24.43,28.05 13.16,32.15 1.88,28.05" fill="#ebedf0"/>
<polygon points="39.47,23.94 50.74,28.05 39.47,32.15 28.19,28.05" fill="#ebedf0"/>
<polygon points="-65.78,19.94 -54.50,24.05 -65.78,28.15 -77.05,24.05" fill="#9be9a8"/>
<polygon points="-77.05,28.05 -77.05,24.05 -65.78,28.15 -65.78,32.15" fill="#88cd93"/>
<polygon points="-65.78,32.15 -65.78,28.15 -54.50,24.05 -54.50,28.05" fill="#72ac7c"/>
<polygon points="65.78,19.94 77.05,24.05 65.78,28.15 54.50,24.05" fill="#9be9a8"/>
<polygon points="54.50,28.05 54.50,24.05 65.78,28.15 65.78,32.15" fill="#88cd93"/>
<polygon points="65.78,32.15 65.78,28.15 77.05,24.05 77.05,28.05" fill="#72ac7c"/>
<polygon points="-26.31,28.73 -15.04,32.83 -26.31,36.94 -37.59,32.83" fill="#ebedf0"/>
<polygon points="26.31,28.73 37.59,32.83 26.31,36.94 15.04,32.83" fill="#ebedf0"/>
<polygon points="52.62,28.73 63.90,32.83 52.62,36.94 41.35,32.83" fill="#ebedf0"/>
<polygon points="78.93,28.73 90.21,32.83 78.93,36.94 67.66,32.83" fill="#ebedf0"/>
<polygon points="-78.93,24.73 -67.66,28.83 -78.93,32.94 -90.21,28.83" fill="#9be9a8"/>
<polygon points="-90.21,32.83 -90.21,28.83 -78.93,32.94 -78.93,36.94" fill="#88cd93"/>
<polygon points="-78.93,36.94 -78.93,32.94 -67.66,28.83 -67.66,32.83" fill="#72ac7c"/>
<polygon points="-52.62,24.73 -41.35,28.83 -52.62,32.94 -63.90,28.83" fill="#9be9a8"/>
<polygon points="-63.90,32.83 -63.90,28.83 -52.62,32.94 -52.62,36.94" fill="#88cd93"/>
<polygon points="-52.62,36.94 -52.62,32.94 -41.35,28.83 -41.35,32.83" fill="#72ac7c"/>
<polygon points="0.00,24.73 11.28,28.83 0.00,32.94 -11.28,28.83" fill="#9be9a8"/>
<polygon points="-11.28,32.83 -11.28,28.83 0.00,32.94 0.00,36.94" fill="#88cd93"/>
<polygon points="0.00,36.94 0.00,32.94 11.28,28.83 11.28,32.83" fill="#72ac7c"/>
<polygon points="-65.78,33.52 -54.50,37.62 -65.78,41.73 -77.05,37.62" fill="#ebedf0"/>
<polygon points="-13.16,33.52 -1.88,37.62 -13.16,41.73 -24.43,37.62" fill="#ebedf0"/>
<polygon points="39.47,33.52 50.74,37.62 39.47,41.73 28.19,37.62" fill="#ebedf0"/>
<polygon points="65.78,33.52 77.05,37.62 65.78,41.73 54.50,37.62" fill="#ebedf0"/>
<polygon points="92.09,33.52 103.37,37.62 92.09,41.73 80.81,37.62" fill="#ebedf0"/>
<polygon points="-39.47,25.52 -28.19,29.62 -39.47,33.73 -50.74,29.62" fill="#40c463"/>
<polygon points="-50.74,37.62 -50.74,29.62 -39.47,33.73 -39.47,41.73" fill="#38ac57"/>
<polygon points="-39.47,41.73 -39.47,33.73 -28.19,29.62 -28.19,37.62" fill="#2f9149"/>
<polygon points="13.16,21.52 24.43,25.62 13.16,29.73 1.88,25.62" fill="#30a14e"/>
<polygon points="1.88,37.62 1.88,25.62 13.16,29.73 13.16,41.73" fill="#2a8d44"/>
<polygon points="13.16,41.73 13.16,29.73 24.43,25.62 24.43,37.62" fill="#237739"/>
<polygon points="-26.31,38.31 -15.04,42.41 -26.31,46.51 -37.59,42.41" fill="#ebedf0"/>
<polygon points="0.00,38.31 11.28,42.41 0.00,46.51 -11.28,42.41" fill="#ebedf0"/>
<polygon points="26.31,38.31 37.59,42.41 26.31,46.51 15.04,42.41" fill="#ebedf0"/>
<polygon points="52.62,38.31 63.90,42.41 52.62,46.51 41.35,42.41" fill="#ebedf0"/>
<polygon points="105.25,38.31 116.52,42.41 105.25,46.51 93.97,42.41" fill="#ebedf0"/>
<polygon points="-52.62,34.31 -41.35,38.41 -52.62,42.51 -63.90,38.41" fill="#9be9a8"/>
<polygon points="-63.90,42.41 -63.90,38.41 -52.62,42.51 -52.62,46.51" fill="#88cd93"/>
<polygon points="-52.62,46.51 -52.62,42.51 -41.35,38.41 -41.35,42.41" fill="#72ac7c"/>
<polygon points="78.93,34.31 90.21,38.41 78.93,42.51 67.66,38.41" fill="#9be9a8"/>
<polygon points="67.66,42.41 67.66,38.41 78.93,42.51 78.93,46.51" fill="#88cd93"/>
<polygon points="78.93,46.51 78.93,42.51 90.21,38.41 90.21,42.41" fill="#72ac7c"/>
<polygon points="-39.47,43.09 -28.19,47.20 -39.47,51.30 -50.74,47.20" fill="#ebedf0"/>
<polygon points="-13.16,43.09 -1.88,47.20 -13.16,51.30 -24.43,47.20" fill="#ebedf0"/>
<polygon points="13.16,43.09 24.43,47.20 13.16,51.30 1.88,47.20" fill="#ebedf0"/>
<polygon points="39.47,43.09 50.74,47.20 39.47,51.30 28.19,47.20" fill="#ebedf0"/>
<polygon points="118.40,43.09 129.68,47.20 118.40,51.30 107.12,47.20" fill="#ebedf0"/>
<polygon points="92.09,35.09 103.37,39.20 92.09,43.30 80.81,39.20" fill="#40c463"/>
<polygon points="80.81,47.20 80.81,39.20 92.09,43.30 92.09,51.30" fill="#38ac57"/>
<polygon points="92.09,51.30 92.09,43.30 103.37,39.20 103.37,47.20" fill="#2f9149"/>
<polygon points="65.78,31.09 77.05,35.20 65.78,39.30 54.50,35.20" fill="#30a14e"/>
<polygon points="54.50,47.20 54.50,35.20 65.78,39.30 65.78,51.30" fill="#2a8d44"/>
<polygon points="65.78,51.30 65.78,39.30 77.05,35.20 77.05,47.20" fill="#237739"/>
<polygon points="-26.31,47.88 -15.04,51.99 -26.31,56.09 -37.59,51.99" fill="#ebedf0"/>
<polygon points="0.00,47.88 11.28,51.99 0.00,56.09 -11.28,51.99" fill="#ebedf0"/>
<polygon points="26.31,47.88 37.59,51.99 26.31,56.09 15.04,51.99" fill="#ebedf0"/>
<polygon points="131.56,47.88 142.83,51.99 131.56,56.09 120.28,51.99" fill="#ebedf0"/>
<polygon points="78.93,43.88 90.21,47.99 78.93,52.09 67.66,47.99" fill="#9be9a8"/>
<polygon points="67.66,51.99 67.66,47.99 78.93,52.09 78.93,56.09" fill="#88cd93"/>
<polygon points="78.93,56.09 78.93,52.09 90.21,47.99 90.21,51.99" fill="#72ac7c"/>
<polygon points="105.25,35.88 116.52,39.99 105.25,44.09 93.97,39.99" fill="#30a14e"/>
<polygon points="93.97,51.99 93.97,39.99 105.25,44.09 105.25,56.09" fill="#2a8d44"/>
<polygon points="105.25,56.09 105.25,44.09 116.52,39.99 116.52,51.99" fill="#237739"/>
<polygon points="52.62,31.88 63.90,35.99 52.62,40.09 41.35,35.99" fill="#216e39"/>
<polygon points="41.35,51.99 41.35,35.99 52.62,40.09 52.62,56.09" fill="#1d6032"/>
<polygon points="52.62,56.09 52.62,40.09 63.90,35.99 63.90,51.99" fill="#18512a"/>
<polygon points="-13.16,52.67 -1.88,56.78 -13.16,60.88 -24.43,56.78" fill="#ebedf0"/>
<polygon points="13.16,52.67 24.43,56.78 13.16,60.88 1.88,56.78" fill="#ebedf0"/>
<polygon points="118.40,48.67 129.68,52.78 118.40,56.88 107.12,52.78" fill="#9be9a8"/>
<polygon points="107.12,56.78 107.12,52.78 118.40,56.88 118.40,60.88" fill="#88cd93"/>
<polygon points="118.40,60.88 118.40,56.88 129.68,52.78 129.68,56.78" fill="#72ac7c"/>
<polygon points="144.71,48.67 155.99,52.78 144.71,56.88 133.44,52.78" fill="#9be9a8"/>
<polygon points="133.44,56.78 133.44,52.78 144.71,56.88 144.71,60.88" fill="#88cd93"/>
<polygon points="144.71,60.88 144.71,56.88 155.99,52.78 155.99,56.78" fill="#72ac7c"/>
<polygon points="65.78,44.67 77.05,48.78 65.78,52.88 54.50,48.78" fill="#40c463"/>
<polygon points="54.50,56.78 54.50,48.78 65.78,52.88 65.78,60.88" fill="#38ac57"/>
<polygon points="65.78,60.88 65.78,52.88 77.05,48.78 77.05,56.78" fill="#2f9149"/>
<polygon points="92.09,40.67 103.37,44.78 92.09,48.88 80.81,44.78" fill="#30a14e"/>
<polygon points="80.81,56.78 80.81,44.78 92.09,48.88 92.09,60.88" fill="#2a8d44"/>
<polygon points="92.09,60.88 92.09,48.88 103.37,44.78 103.37,56.78" fill="#237739"/>
<polygon points="39.47,36.67 50.74,40.78 39.47,44.88 28.19,40.78" fill="#216e39"/>
<polygon points="28.19,56.78 28.19,40.78 39.47,44.88 39.47,60.88" fill="#1d6032"/>
<polygon points="39.47,60.88 39.47,44.88 50.74,40.78 50.74,56.78" fill="#18512a"/>
<polygon points="0.00,57.46 11.28,61.56 0.00,65.67 -11.28,61.56" fill="#ebedf0"/>
<polygon points="52.62,57.46 63.90,61.56 52.62,65.67 41.35,61.56" fill="#ebedf0"/>
<polygon points="105.25,57.46 116.52,61.56 105.25,65.67 93.97,61.56" fill="#ebedf0"/>
<polygon points="131.56,57.46 142.83,61.56 131.56,65.67 120.28,61.56" fill="#ebedf0"/>
<polygon points="157.87,57.46 169.14,61.56 157.87,65.67 146.59,61.56" fill="#ebedf0"/>
<polygon points="26.31,53.46 37.59,57.56 26.31,61.67 15.04,57.56" fill="#9be9a8"/>
<polygon points="15.04,61.56 15.04,57.56 26.31,61.67 26.31,65.67" fill="#88cd93"/>
<polygon points="26.31,65.67 26.31,61.67 37.59,57.56 37.59,61.56" fill="#72ac7c"/>
<polygon points="78.93,45.46 90.21,49.56 78.93,53.67 67.66,49.56" fill="#30a14e"/>
<polygon points="67.66,61.56 67.66,49.56 78.93,53.67 78.93,65.67" fill="#2a8d44"/>
<polygon points="78.93,65.67 78.93,53.67 90.21,49.56 90.21,61.56" fill="#237739"/>
<polygon points="13.16,62.25 24.43,66.35 13.16,70.46 1.88,66.35" fill="#ebedf0"/>
<polygon points="39.47,62.25 50.74,66.35 39.47,70.46 28.19,66.35" fill="#ebedf0"/>
<polygon points="144.71,62.25 155.99,66.35 144.71,70.46 133.44,66.35" fill="#ebedf0"/>
<polygon points="171.02,62.25 182.30,66.35 171.02,70.46 159.75,66.35" fill="#ebedf0"/>
<polygon points="92.09,58.25 103.37,62.35 92.09,66.46 80.81,62.35" fill="#9be9a8"/>
<polygon points="80.81,66.35 80.81,62.35 92.09,66.46 92.09,70.46" fill="#88cd93"/>
<polygon points="92.09,70.46 92.09,66.46 103.37,62.35 103.37,66.35" fill="#72ac7c"/>
<polygon points="118.40,58.25 129.68,62.35 118.40,66.46 107.12,62.35" fill="#9be9a8"/>
<polygon points="107.12,66.35 107.12,62.35 118.40,66.46 118.40,70.46" fill="#88cd93"/>
<polygon points="118.40,70.46 118.40,66.46 129.68,62.35 129.68,66.35" fill="#72ac7c"/>
<polygon points="65.78,50.25 77.05,54.35 65.78,58.46 54.50,54.35" fill="#30a14e"/>
<polygon points="54.50,66.35 54.50,54.35 65.78,58.46 65.78,70.46" fill="#2a8d44"/>
<polygon points="65.78,70.46 65.78,58.46 77.05,54.35 77.05,66.35" fill="#237739"/>
<polygon points="26.31,67.04 37.59,71.14 26.31,75.24 15.04,71.14" fill="#ebedf0"/>
<polygon points="78.93,67.04 90.21,71.14 78.93,75.24 67.66,71.14" fill="#ebedf0"/>
<polygon points="131.56,67.04 142.83,71.14 131.56,75.24 120.28,71.14" fill="#ebedf0"/>
<polygon points="184.18,67.04 195.46,71.14 184.18,75.24 172.90,71.14" fill="#ebedf0"/>
<polygon points="52.62,63.04 63.90,67.14 52.62,71.24 41.35,67.14" fill="#9be9a8"/>
<polygon points="41.35,71.14 41.35,67.14 52.62,71.24 52.62,75.24" fill="#88cd93"/>
<polygon points="52.62,75.24 52.62,71.24 63.90,67.14 63.90,71.14" fill="#72ac7c"/>
<polygon points="157.87,63.04 169.14,67.14 157.87,71.24 146.59,67.14" fill="#9be9a8"/>
<polygon points="146.59,71.14 146.59,67.14 157.87,71.24 157.87,75.24" fill="#88cd93"/>
<polygon points="157.87,75.24 157.87,71.24 169.14,67.14 169.14,71.14" fill="#72ac7c"/>
<polygon points="105.25,59.04 116.52,63.14 105.25,67.24 93.97,63.14" fill="#40c463"/>
<polygon points="93.97,71.14 93.97,63.14 105.25,67.24 105.25,75.24" fill="#38ac57"/>
<polygon points="105.25,75.24 105.25,67.24 116.52,63.14 116.52,71.14" fill="#2f9149"/>
<polygon points="39.47,71.82 50.74,75.93 39.47,80.03 28.19,75.93" fill="#ebedf0"/>
<polygon points="65.78,71.82 77.05,75.93 65.78,80.03 54.50,75.93" fill="#ebedf0"/>
<polygon points="171.02,71.82 182.30,75.93 171.02,80.03 159.75,75.93" fill="#ebedf0"/>
<polygon points="197.34,71.82 208.61,75.93 197.34,80.03 186.06,75.93" fill="#ebedf0"/>
<polygon points="92.09,67.82 103.37,71.93 92.09,76.03 80.81,71.93" fill="#9be9a8"/>
<polygon points="80.81,75.93 80.81,71.93 92.09,76.03 92.09,80.03" fill="#88cd93"/>
<polygon points="92.09,80.03 92.09,76.03 103.37,71.93 103.37,75.93" fill="#72ac7c"/>
<polygon points="118.40,67.82 129.68,71.93 118.40,76.03 107.12,71.93" fill="#9be9a8"/>
<polygon points="107.12,75.93 107.12,71.93 118.40,76.03 118.40,80.03" fill="#88cd93"/>
<polygon points="118.40,80.03 118.40,76.03 129.68,71.93 129.68,75.93" fill="#72ac7c"/>
<polygon points="144.71,67.82 155.99,71.93 144.71,76.03 133.44,71.93" fill="#9be9a8"/>
<polygon points="133.44,75.93 133.44,71.93 144.71,76.03 144.71,80.03" fill="#88cd93"/>
<polygon points="144.71,80.03 144.71,76.03 155.99,71.93 155.99,75.93" fill="#72ac7c"/>
<polygon points="52.62,76.61 63.90,80.72 52.62,84.82 41.35,80.72" fill="#ebedf0"/>
<polygon points="105.25,76.61 116.52,80.72 105.25,84.82 93.97,80.72" fill="#ebedf0"/>
<polygon points="131.56,76.61 142.83,80.72 131.56,84.82 120.28,80.72" fill="#ebedf0"/>
<polygon points="157.87,76.61 169.14,80.72 157.87,84.82 146.59,80.72" fill="#ebedf0"/>
<polygon points="184.18,76.61 195.46,80.72 184.18,84.82 172.90,80.72" fill="#ebedf0"/>
<polygon points="210.49,76.61 221.77,80.72 210.49,84.82 199.21,80.72" fill="#ebedf0"/>
<polygon points="78.93,72.61 90.21,76.72 78.93,80.82 67.66,76.72" fill="#9be9a8"/>
<polygon points="67.66,80.72 67.66,76.72 78.93,80.82 78.93,84.82" fill="#88cd93"/>
<polygon points="78.93,84.82 78.93,80.82 90.21,76.72 90.21,80.72" fill="#72ac7c"/>
<polygon points="65.78,81.40 77.05,85.51 65.78,89.61 54.50,85.51" fill="#ebedf0"/>
<polygon points="92.09,81.40 103.37,85.51 92.09,89.61 80.81,85.51" fill="#ebedf0"/>
<polygon points="118.40,81.40 129.68,85.51 118.40,89.61 107.12,85.51" fill="#ebedf0"/>
<polygon points="144.71,81.40 155.99,85.51 144.71,89.61 133.44,85.51" fill="#ebedf0"/>
<polygon points="171.02,81.40 182.30,85.51 171.02,89.61 159.75,85.51" fill="#ebedf0"/>
<polygon points="197.34,81.40 208.61,85.51 197.34,89.61 186.06,85.51" fill="#ebedf0"/>
<polygon points="223.65,81.40 234.92,85.51 223.65,89.61 212.37,85.51" fill="#ebedf0"/>
<polygon points="78.93,86.19 90.21,90.29 78.93,94.40 67.66,90.29" fill="#ebedf0"/>
<polygon points="105.25,86.19 116.52,90.29 105.25,94.40 93.97,90.29" fill="#ebedf0"/>
<polygon points="131.56,86.19 142.83,90.29 131.56,94.40 120.28,90.29" fill="#ebedf0"/>
<polygon points="157.87,86.19 169.14,90.29 157.87,94.40 146.59,90.29" fill="#ebedf0"/>
<polygon points="184.18,86.19 195.46,90.29 184.18,94.40 172.90,90.29" fill="#ebedf0"/>
<polygon points="210.49,86.19 221.77,90.29 210.49,94.40 199.21,90.29" fill="#ebedf0"/>
<polygon points="236.80,86.19 248.08,90.29 236.80,94.40 225.53,90.29" fill="#ebedf0"/>
<polygon points="92.09,90.98 103.37,95.08 92.09,99.19 80.81,95.08" fill="#ebedf0"/>
<polygon points="118.40,90.98 129.68,95.08 118.40,99.19 107.12,95.08" fill="#ebedf0"/>
<polygon points="171.02,90.98 182.30,95.08 171.02,99.19 159.75,95.08" fill="#ebedf0"/>
<polygon points="197.34,90.98 208.61,95.08 197.34,99.19 186.06,95.08" fill="#ebedf0"/>
<polygon points="223.65,90.98 234.92,95.08 223.65,99.19 212.37,95.08" fill="#ebedf0"/>
<polygon points="249.96,90.98 261.23,95.08 249.96,99.19 238.68,95.08" fill="#ebedf0"/>
<polygon points="144.71,86.98 155.99,91.08 144.71,95.19 133.44,91.08" fill="#9be9a8"/>
<polygon points="133.44,95.08 133.44,91.08 144.71,95.19 144.71,99.19" fill="#88cd93"/>
<polygon points="144.71,99.19 144.71,95.19 155.99,91.08 155.99,95.08" fill="#72ac7c"/>
<polygon points="105.25,95.77 116.52,99.87 105.25,103.97 93.97,99.87" fill="#ebedf0"/>
<polygon points="131.56,95.77 142.83,99.87 131.56,103.97 120.28,99.87" fill="#ebedf0"/>
<polygon points="184.18,95.77 195.46,99.87 184.18,103.97 172.90,99.87" fill="#ebedf0"/>
<polygon points="210.49,95.77 221.77,99.87 210.49,103.97 199.21,99.87" fill="#ebedf0"/>
<polygon points="236.80,95.77 248.08,99.87 236.80,103.97 225.53,99.87" fill="#ebedf0"/>
<polygon points="263.11,95.77 274.39,99.87 263.11,103.97 251.84,99.87" fill="#ebedf0"/>
<polygon points="157.87,91.77 169.14,95.87 157.87,99.97 146.59,95.87" fill="#9be9a8"/>
<polygon points="146.59,99.87 146.59,95.87 157.87,99.97 157.87,103.97" fill="#88cd93"/>
<polygon points="157.87,103.97 157.87,99.97 169.14,95.87 169.14,99.87" fill="#72ac7c"/>
<polygon points="118.40,100.55 129.68,104.66 118.40,108.76 107.12,104.66" fill="#ebedf0"/>
<polygon points="144.71,100.55 155.99,104.66 144.71,108.76 133.44,104.66" fill="#ebedf0"/>
<polygon points="171.02,100.55 182.30,104.66 171.02,108.76 159.75,104.66" fill="#ebedf0"/>
<polygon points="197.34,100.55 208.61,104.66 197.34,108.76 186.06,104.66" fill="#ebedf0"/>
<polygon points="276.27,100.55 287.55,104.66 276.27,108.76 264.99,104.66" fill="#ebedf0"/>
<polygon points="223.65,96.55 234.92,100.66 223.65,104.76 212.37,100.66" fill="#9be9a8"/>
<polygon points="212.37,104.66 212.37,100.66 223.65,104.76 223.65,108.76" fill="#88cd93"/>
<polygon points="223.65,108.76 223.65,104.76 234.92,100.66 234.92,104.66" fill="#72ac7c"/>
<polygon points="249.96,96.55 261.23,100.66 249.96,104.76 238.68,100.66" fill="#9be9a8"/>
<polygon points="238.68,104.66 238.68,100.66 249.96,104.76 249.96,108.76" fill="#88cd93"/>
<polygon points="249.96,108.76 249.96,104.76 261.23,100.66 261.23,104.66" fill="#72ac7c"/>
<polygon points="131.56,105.34 142.83,109.45 131.56,113.55 120.28,109.45" fill="#ebedf0"/>
<polygon points="157.87,105.34 169.14,109.45 157.87,113.55 146.59,109.45" fill="#ebedf0"/>
<polygon points="184.18,105.34 195.46,109.45 184.18,113.55 172.90,109.45" fill="#ebedf0"/>
<polygon points="210.49,105.34 221.77,109.45 210.49,113.55 199.21,109.45" fill="#ebedf0"/>
<polygon points="289.43,105.34 300.70,109.45 289.43,113.55 278.15,109.45" fill="#ebedf0"/>
<polygon points="236.80,101.34 248.08,105.45 236.80,109.55 225.53,105.45" fill="#9be9a8"/>
<polygon points="225.53,109.45 225.53,105.45 236.80,109.55 236.80,113.55" fill="#88cd93"/>
<polygon points="236.80,113.55 236.80,109.55 248.08,105.45 248.08,109.45" fill="#72ac7c"/>
<polygon points="263.11,101.34 274.39,105.45 263.11,109.55 251.84,105.45" fill="#9be9a8"/>
<polygon points="251.84,109.45 251.84,105.45 263.11,109.55 263.11,113.55" fill="#88cd93"/>
<polygon points="263.11,113.55 263.11,109.55 274.39,105.45 274.39,109.45" fill="#72ac7c"/>
<polygon points="144.71,110.13 155.99,114.23 144.71,118.34 133.44,114.23" fill="#ebedf0"/>
<polygon points="171.02,110.13 182.30,114.23 171.02,118.34 159.75,114.23" fill="#ebedf0"/>
<polygon points="197.34,110.13 208.61,114.23 197.34,118.34 186.06,114.23" fill="#ebedf0"/>
<polygon points="223.65,106.13 234.92,110.23 223.65,114.34 212.37,110.23" fill="#9be9a8"/>
<polygon points="212.37,114.23 212.37,110.23 223.65,114.34 223.65,118.34" fill="#88cd93"/>
<polygon points="223.65,118.34 223.65,114.34 234.92,110.23 234.92,114.23" fill="#72ac7c"/>
<polygon points="249.96,106.13 261.23,110.23 249.96,114.34 238.68,110.23" fill="#9be9a8"/>
<polygon points="238.68,114.23 238.68,110.23 249.96,114.34 249.96,118.34" fill="#88cd93"/>
<polygon points="249.96,118.34 249.96,114.34 261.23,110.23 261.23,114.23" fill="#72ac7c"/>
<polygon points="276.27,106.13 287.55,110.23 276.27,114.34 264.99,110.23" fill="#9be9a8"/>
<polygon points="264.99,114.23 264.99,110.23 276.27,114.34 276.27,118.34" fill="#88cd93"/>
<polygon points="276.27,118.34 276.27,114.34 287.55,110.23 287.55,114.23" fill="#72ac7c"/>
<polygon points="302.58,106.13 313.86,110.23 302.58,114.34 291.30,110.23" fill="#9be9a8"/>
<polygon points="291.30,114.23 291.30,110.23 302.58,114.34 302.58,118.34" fill="#88cd93"/>
<polygon points="302.58,118.34 302.58,114.34 313.86,110.23 313.86,114.23" fill="#72ac7c"/>
<polygon points="157.87,114.92 169.14,119.02 157.87,123.13 146.59,119.02" fill="#ebedf0"/>
<polygon points="184.18,114.92 195.46,119.02 184.18,123.13 172.90,119.02" fill="#ebedf0"/>
<polygon points="210.49,114.92 221.77,119.02 210.49,123.13 199.21,119.02" fill="#ebedf0"/>
<polygon points="315.74,114.92 327.01,119.02 315.74,123.13 304.46,119.02" fill="#ebedf0"/>
<polygon points="236.80,110.92 248.08,115.02 236.80,119.13 225.53,115.02" fill="#9be9a8"/>
<polygon points="225.53,119.02 225.53,115.02 236.80,119.13 236.80,123.13" fill="#88cd93"/>
<polygon points="236.80,123.13 236.80,119.13 248.08,115.02 248.08,119.02" fill="#72ac7c"/>
<polygon points="263.11,110.92 274.39,115.02 263.11,119.13 251.84,115.02" fill="#9be9a8"/>
<polygon points="251.84,119.02 251.84,115.02 263.11,119.13 263.11,123.13" fill="#88cd93"/>
<polygon points="263.11,123.13 263.11,119.13 274.39,115.02 274.39,119.02" fill="#72ac7c"/>
<polygon points="289.43,110.92 300.70,115.02 289.43,119.13 278.15,115.02" fill="#9be9a8"/>
<polygon points="278.15,119.02 278.15,115.02 289.43,119.13 289.43,123.13" fill="#88cd93"/>
<polygon points="289.43,123.13 289.43,119.13 300.70,115.02 300.70,119.02" fill="#72ac7c"/>
<polygon points="171.02,119.71 182.30,123.81 171.02,127.92 159.75,123.81" fill="#ebedf0"/>
<polygon points="197.34,119.71 208.61,123.81 197.34,127.92 186.06,123.81" fill="#ebedf0"/>
<polygon points="302.58,119.71 313.86,123.81 302.58,127.92 291.30,123.81" fill="#ebedf0"/>
<polygon points="223.65,115.71 234.92,119.81 223.65,123.92 212.37,119.81" fill="#9be9a8"/>
<polygon points="212.37,123.81 212.37,119.81 223.65,123.92 223.65,127.92" fill="#88cd93"/>
<polygon points="223.65,127.92 223.65,123.92 234.92,119.81 234.92,123.81" fill="#72ac7c"/>
<polygon points="249.96,115.71 261.23,119.81 249.96,123.92 238.68,119.81" fill="#9be9a8"/>
<polygon points="238.68,123.81 238.68,119.81 249.96,123.92 249.96,127.92" fill="#88cd93"/>
<polygon points="249.96,127.92 249.96,123.92 261.23,119.81 261.23,123.81" fill="#72ac7c"/>
<polygon points="276.27,115.71 287.55,119.81 276.27,123.92 264.99,119.81" fill="#9be9a8"/>
<polygon points="264.99,123.81 264.99,119.81 276.27,123.92 276.27,127.92" fill="#88cd93"/>
<polygon points="276.27,127.92 276.27,123.92 287.55,119.81 287.55,123.81" fill="#72ac7c"/>
<polygon points="328.89,115.71 340.17,119.81 328.89,123.92 317.62,119.81" fill="#9be9a8"/>
<polygon points="317.62,123.81 317.62,119.81 328.89,123.92 328.89,127.92" fill="#88cd93"/>
<polygon points="328.89,127.92 328.89,123.92 340.17,119.81 340.17,123.81" fill="#72ac7c"/>
<polygon points="184.18,124.50 195.46,128.60 184.18,132.70 172.90,128.60" fill="#ebedf0"/>
<polygon points="236.80,124.50 248.08,128.60 236.80,132.70 225.53,128.60" fill="#ebedf0"/>
<polygon points="289.43,124.50 300.70,128.60 289.43,132.70 278.15,128.60" fill="#ebedf0"/>
<polygon points="210.49,120.50 221.77,124.60 210.49,128.70 199.21,124.60" fill="#9be9a8"/>
<polygon points="199.21,128.60 199.21,124.60 210.49,128.70 210.49,132.70" fill="#88cd93"/>
<polygon points="210.49,132.70 210.49,128.70 221.77,124.60 221.77,128.60" fill="#72ac7c"/>
<polygon points="263.11,120.50 274.39,124.60 263.11,128.70 251.84,124.60" fill="#9be9a8"/>
<polygon points="251.84,128.60 251.84,124.60 263.11,128.70 263.11,132.70" fill="#88cd93"/>
<polygon points="263.11,132.70 263.11,128.70 274.39,124.60 274.39,128.60" fill="#72ac7c"/>
<polygon points="315.74,120.50 327.01,124.60 315.74,128.70 304.46,124.60" fill="#9be9a8"/>
<polygon points="304.46,128.60 304.46,124.60 315.74,128.70 315.74,132.70" fill="#88cd93"/>
<polygon points="315.74,132.70 315.74,128.70 327.01,124.60 327.01,128.60" fill="#72ac7c"/>
<polygon points="342.05,120.50 353.32,124.60 342.05,128.70 330.77,124.60" fill="#9be9a8"/>
<polygon points="330.77,128.60 330.77,124.60 342.05,128.70 342.05,132.70" fill="#88cd93"/>
<polygon points="342.05,132.70 342.05,128.70 353.32,124.60 353.32,128.60" fill="#72ac7c"/>
<polygon points="197.34,129.28 208.61,133.39 197.34,137.49 186.06,133.39" fill="#ebedf0"/>
<polygon points="249.96,129.28 261.23,133.39 249.96,137.49 238.68,133.39" fill="#ebedf0"/>
<polygon points="276.27,129.28 287.55,133.39 276.27,137.49 264.99,133.39" fill="#ebedf0"/>
<polygon points="355.20,129.28 366.48,133.39 355.20,137.49 343.93,133.39" fill="#ebedf0"/>
<polygon points="223.65,125.28 234.92,129.39 223.65,133.49 212.37,129.39" fill="#9be9a8"/>
<polygon points="212.37,133.39 212.37,129.39 223.65,133.49 223.65,137.49" fill="#88cd93"/>
<polygon points="223.65,137.49 223.65,133.49 234.92,129.39 234.92,133.39" fill="#72ac7c"/>
<polygon points="302.58,125.28 313.86,129.39 302.58,133.49 291.30,129.39" fill="#9be9a8"/>
<polygon points="291.30,133.39 291.30,129.39 302.58,133.49 302.58,137.49" fill="#88cd93"/>
<polygon points="302.58,137.49 302.58,133.49 313.86,129.39 313.86,133.39" fill="#72ac7c"/>
<polygon points="328.89,121.28 340.17,125.39 328.89,129.49 317.62,125.39" fill="#40c463"/>
<polygon points="317.62,133.39 317.62,125.39 328.89,129.49 328.89,137.49" fill="#38ac57"/>
<polygon points="328.89,137.49 328.89,129.49 340.17,125.39 340.17,133.39" fill="#2f9149"/>
<polygon points="236.80,134.07 248.08,138.18 236.80,142.28 225.53,138.18" fill="#ebedf0"/>
<polygon points="263.11,134.07 274.39,138.18 263.11,142.28 251.84,138.18" fill="#ebedf0"/>
<polygon points="368.36,134.07 379.64,138.18 368.36,142.28 357.08,138.18" fill="#ebedf0"/>
<polygon points="210.49,130.07 221.77,134.18 210.49,138.28 199.21,134.18" fill="#9be9a8"/>
<polygon points="199.21,138.18 199.21,134.18 210.49,138.28 210.49,142.28" fill="#88cd93"/>
<polygon points="210.49,142.28 210.49,138.28 221.77,134.18 221.77,138.18" fill="#72ac7c"/>
<polygon points="289.43,130.07 300.70,134.18 289.43,138.28 278.15,134.18" fill="#9be9a8"/>
<polygon points="278.15,138.18 278.15,134.18 289.43,138.28 289.43,142.28" fill="#88cd93"/>
<polygon points="289.43,142.28 289.43,138.28 300.70,134.18 300.70,138.18" fill="#72ac7c"/>
<polygon points="342.05,130.07 353.32,134.18 342.05,138.28 330.77,134.18" fill="#9be9a8"/>
<polygon points="330.77,138.18 330.77,134.18 342.05,138.28 342.05,142.28" fill="#88cd93"/>
<polygon points="342.05,142.28 342.05,138.28 353.32,134.18 353.32,138.18" fill="#72ac7c"/>
<polygon points="315.74,126.07 327.01,130.18 315.74,134.28 304.46,130.18" fill="#40c463"/>
<polygon points="304.46,138.18 304.46,130.18 315.74,134.28 315.74,142.28" fill="#38ac57"/>
<polygon points="315.74,142.28 315.74,134.28 327.01,130.18 327.01,138.18" fill="#2f9149"/>
<polygon points="223.65,138.86 234.92,142.96 223.65,147.07 212.37,142.96" fill="#ebedf0"/>
<polygon points="249.96,138.86 261.23,142.96 249.96,147.07 238.68,142.96" fill="#ebedf0"/>
<polygon points="328.89,134.86 340.17,138.96 328.89,143.07 317.62,138.96" fill="#9be9a8"/>
<polygon points="317.62,142.96 317.62,138.96 328.89,143.07 328.89,147.07" fill="#88cd93"/>
<polygon points="328.89,147.07 328.89,143.07 340.17,138.96 340.17,142.96" fill="#72ac7c"/>
<polygon points="355.20,134.86 366.48,138.96 355.20,143.07 343.93,138.96" fill="#9be9a8"/>
<polygon points="343.93,142.96 343.93,138.96 355.20,143.07 355.20,147.07" fill="#88cd93"/>
<polygon points="355.20,147.07 355.20,143.07 366.48,138.96 366.48,142.96" fill="#72ac7c"/>
<polygon points="381.52,134.86 392.79,138.96 381.52,143.07 370.24,138.96" fill="#9be9a8"/>
<polygon points="370.24,142.96 370.24,138.96 381.52,143.07 381.52,147.07" fill="#88cd93"/>
<polygon points="381.52,147.07 381.52,143.07 392.79,138.96 392.79,142.96" fill="#72ac7c"/>
<polygon points="302.58,130.86 313.86,134.96 302.58,139.07 291.30,134.96" fill="#40c463"/>
<polygon points="291.30,142.96 291.30,134.96 302.58,139.07 302.58,147.07" fill="#38ac57"/>
<polygon points="302.58,147.07 302.58,139.07 313.86,134.96 313.86,142.96" fill="#2f9149"/>
<polygon points="276.27,122.86 287.55,126.96 276.27,131.07 264.99,126.96" fill="#216e39"/>
<polygon points="264.99,142.96 264.99,126.96 276.27,131.07 276.27,147.07" fill="#1d6032"/>
<polygon points="276.27,147.07 276.27,131.07 287.55,126.96 287.55,142.96" fill="#18512a"/>
<polygon points="236.80,143.65 248.08,147.75 236.80,151.86 225.53,147.75" fill="#ebedf0"/>
<polygon points="394.67,143.65 405.95,147.75 394.67,151.86 383.39,147.75" fill="#ebedf0"/>
<polygon points="263.11,139.65 274.39,143.75 263.11,147.86 251.84,143.75" fill="#9be9a8"/>
<polygon points="251.84,147.75 251.84,143.75 263.11,147.86 263.11,151.86" fill="#88cd93"/>
<polygon points="263.11,151.86 263.11,147.86 274.39,143.75 274.39,147.75" fill="#72ac7c"/>
<polygon points="289.43,139.65 300.70,143.75 289.43,147.86 278.15,143.75" fill="#9be9a8"/>
<polygon points="278.15,147.75 278.15,143.75 289.43,147.86 289.43,151.86" fill="#88cd93"/>
<polygon points="289.43,151.86 289.43,147.86 300.70,143.75 300.70,147.75" fill="#72ac7c"/>
<polygon points="315.74,139.65 327.01,143.75 315.74,147.86 304.46,143.75" fill="#9be9a8"/>
<polygon points="304.46,147.75 304.46,143.75 315.74,147.86 315.74,151.86" fill="#88cd93"/>
<polygon points="315.74,151.86 315.74,147.86 327.01,143.75 327.01,147.75" fill="#72ac7c"/>
<polygon points="342.05,139.65 353.32,143.75 342.05,147.86 330.77,143.75" fill="#9be9a8"/>
<polygon points="330.77,147.75 330.77,143.75 342.05,147.86 342.05,151.86" fill="#88cd93"/>
<polygon points="342.05,151.86 342.05,147.86 353.32,143.75 353.32,147.75" fill="#72ac7c"/>
<polygon points="368.36,139.65 379.64,143.75 368.36,147.86 357.08,143.75" fill="#9be9a8"/>
<polygon points="357.08,147.75 357.08,143.75 368.36,147.86 368.36,151.86" fill="#88cd93"/>
<polygon points="368.36,151.86 368.36,147.86 379.64,143.75 379.64,147.75" fill="#72ac7c"/>
<polygon points="276.27,148.44 287.55,152.54 276.27,156.65 264.99,152.54" fill="#ebedf0"/>
<polygon points="407.83,148.44 419.10,152.54 407.83,156.65 396.55,152.54" fill="#ebedf0"/>
<polygon points="249.96,144.44 261.23,148.54 249.96,152.65 238.68,148.54" fill="#9be9a8"/>
<polygon points="238.68,152.54 238.68,148.54 249.96,152.65 249.96,156.65" fill="#88cd93"/>
<polygon points="249.96,156.65 249.96,152.65 261.23,148.54 261.23,152.54" fill="#72ac7c"/>
<polygon points="328.89,144.44 340.17,148.54 328.89,152.65 317.62,148.54" fill="#9be9a8"/>
<polygon points="317.62,152.54 317.62,148.54 328.89,152.65 328.89,156.65" fill="#88cd93"/>
<polygon points="328.89,156.65 328.89,152.65 340.17,148.54 340.17,152.54" fill="#72ac7c"/>
<polygon points="355.20,144.44 366.48,148.54 355.20,152.65 343.93,148.54" fill="#9be9a8"/>
<polygon points="343.93,152.54 343.93,148.54 355.20,152.65 355.20,156.65" fill="#88cd93"/>
<polygon points="355.20,156.65 355.20,152.65 366.48,148.54 366.48,152.54" fill="#72ac7c"/>
<polygon points="381.52,144.44 392.79,148.54 381.52,152.65 370.24,148.54" fill="#9be9a8"/>
<polygon points="370.24,152.54 370.24,148.54 381.52,152.65 381.52,156.65" fill="#88cd93"/>
<polygon points="381.52,156.65 381.52,152.65 392.79,148.54 392.79,152.54" fill="#72ac7c"/>
<polygon points="302.58,132.44 313.86,136.54 302.58,140.65 291.30,136.54" fill="#216e39"/>
<polygon points="291.30,152.54 291.30,136.54 302.58,140.65 302.58,156.65" fill="#1d6032"/>
<polygon points="302.58,156.65 302.58,140.65 313.86,136.54 313.86,152.54" fill="#18512a"/>
<polygon points="263.11,153.23 274.39,157.33 263.11,161.43 251.84,157.33" fill="#ebedf0"/>
<polygon points="289.43,153.23 300.70,157.33 289.43,161.43 278.15,157.33" fill="#ebedf0"/>
<polygon points="420.98,153.23 432.26,157.33 420.98,161.43 409.71,157.33" fill="#ebedf0"/>
<polygon points="315.74,149.23 327.01,153.33 315.74,157.43 304.46,153.33" fill="#9be9a8"/>
<polygon points="304.46,157.33 304.46,153.33 315.74,157.43 315.74,161.43" fill="#88cd93"/>
<polygon points="315.74,161.43 315.74,157.43 327.01,153.33 327.01,157.33" fill="#72ac7c"/>
<polygon points="342.05,149.23 353.32,153.33 342.05,157.43 330.77,153.33" fill="#9be9a8"/>
<polygon points="330.77,157.33 330.77,153.33 342.05,157.43 342.05,161.43" fill="#88cd93"/>
<polygon points="342.05,161.43 342.05,157.43 353.32,153.33 353.32,157.33" fill="#72ac7c"/>
<polygon points="394.67,149.23 405.95,153.33 394.67,157.43 383.39,153.33" fill="#9be9a8"/>
<polygon points="383.39,157.33 383.39,153.33 394.67,157.43 394.67,161.43" fill="#88cd93"/>
<polygon points="394.67,161.43 394.67,157.43 405.95,153.33 405.95,157.33" fill="#72ac7c"/>
<polygon points="368.36,145.23 379.64,149.33 368.36,153.43 357.08,149.33" fill="#40c463"/>
<polygon points="357.08,157.33 357.08,149.33 368.36,153.43 368.36,161.43" fill="#38ac57"/>
<polygon points="368.36,161.43 368.36,153.43 379.64,149.33 379.64,157.33" fill="#2f9149"/>
<polygon points="276.27,158.01 287.55,162.12 276.27,166.22 264.99,162.12" fill="#ebedf0"/>
<polygon points="381.52,158.01 392.79,162.12 381.52,166.22 370.24,162.12" fill="#ebedf0"/>
<polygon points="407.83,158.01 419.10,162.12 407.83,166.22 396.55,162.12" fill="#ebedf0"/>
<polygon points="434.14,158.01 445.41,162.12 434.14,166.22 422.86,162.12" fill="#ebedf0"/>
<polygon points="302.58,154.01 313.86,158.12 302.58,162.22 291.30,158.12" fill="#9be9a8"/>
<polygon points="291.30,162.12 291.30,158.12 302.58,162.22 302.58,166.22" fill="#88cd93"/>
<polygon points="302.58,166.22 302.58,162.22 313.86,158.12 313.86,162.12" fill="#72ac7c"/>
<polygon points="328.89,154.01 340.17,158.12 328.89,162.22 317.62,158.12" fill="#9be9a8"/>
<polygon points="317.62,162.12 317.62,158.12 328.89,162.22 328.89,166.22" fill="#88cd93"/>
<polygon points="328.89,166.22 328.89,162.22 340.17,158.12 340.17,162.12" fill="#72ac7c"/>
<polygon points="355.20,154.01 366.48,158.12 355.20,162.22 343.93,158.12" fill="#9be9a8"/>
<polygon points="343.93,162.12 343.93,158.12 355.20,162.22 355.20,166.22" fill="#88cd93"/>
<polygon points="355.20,166.22 355.20,162.22 366.48,158.12 366.48,162.12" fill="#72ac7c"/>
<polygon points="289.43,162.80 300.70,166.91 289.43,171.01 278.15,166.91" fill="#ebedf0"/>
<polygon points="368.36,162.80 379.64,166.91 368.36,171.01 357.08,166.91" fill="#ebedf0"/>
<polygon points="420.98,162.80 432.26,166.91 420.98,171.01 409.71,166.91" fill="#ebedf0"/>
<polygon points="315.74,158.80 327.01,162.91 315.74,167.01 304.46,162.91" fill="#9be9a8"/>
<polygon points="304.46,166.91 304.46,162.91 315.74,167.01 315.74,171.01" fill="#88cd93"/>
<polygon points="315.74,171.01 315.74,167.01 327.01,162.91 327.01,166.91" fill="#72ac7c"/>
<polygon points="342.05,158.80 353.32,162.91 342.05,167.01 330.77,162.91" fill="#9be9a8"/>
<polygon points="330.77,166.91 330.77,162.91 342.05,167.01 342.05,171.01" fill="#88cd93"/>
<polygon points="342.05,171.01 342.05,167.01 353.32,162.91 353.32,166.91" fill="#72ac7c"/>
<polygon points="394.67,158.80 405.95,162.91 394.67,167.01 383.39,162.91" fill="#9be9a8"/>
<polygon points="383.39,166.91 383.39,162.91 394.67,167.01 394.67,171.01" fill="#88cd93"/>
<polygon points="394.67,171.01 394.67,167.01 405.95,162.91 405.95,166.91" fill="#72ac7c"/>
<polygon points="447.29,158.80 458.57,162.91 447.29,167.01 436.02,162.91" fill="#9be9a8"/>
<polygon points="436.02,166.91 436.02,162.91 447.29,167.01 447.29,171.01" fill="#88cd93"/>
<polygon points="447.29,171.01 447.29,167.01 458.57,162.91 458.57,166.91" fill="#72ac7c"/>
<polygon points="302.58,167.59 313.86,171.69 302.58,175.80 291.30,171.69" fill="#ebedf0"/>
<polygon points="355.20,167.59 366.48,171.69 355.20,175.80 343.93,171.69" fill="#ebedf0"/>
<polygon points="460.45,167.59 471.73,171.69 460.45,175.80 449.17,171.69" fill="#ebedf0"/>
<polygon points="328.89,163.59 340.17,167.69 328.89,171.80 317.62,167.69" fill="#9be9a8"/>
<polygon points="317.62,171.69 317.62,167.69 328.89,171.80 328.89,175.80" fill="#88cd93"/>
<polygon points="328.89,175.80 328.89,171.80 340.17,167.69 340.17,171.69" fill="#72ac7c"/>
<polygon points="381.52,163.59 392.79,167.69 381.52,171.80 370.24,167.69" fill="#9be9a8"/>
<polygon points="370.24,171.69 370.24,167.69 381.52,171.80 381.52,175.80" fill="#88cd93"/>
<polygon points="381.52,175.80 381.52,171.80 392.79,167.69 392.79,171.69" fill="#72ac7c"/>
<polygon points="407.83,163.59 419.10,167.69 407.83,171.80 396.55,167.69" fill="#9be9a8"/>
<polygon points="396.55,171.69 396.55,167.69 407.83,171.80 407.83,175.80" fill="#88cd93"/>
<polygon points="407.83,175.80 407.83,171.80 419.10,167.69 419.10,171.69" fill="#72ac7c"/>
<polygon points="434.14,163.59 445.41,167.69 434.14,171.80 422.86,167.69" fill="#9be9a8"/>
<polygon points="422.86,171.69 422.86,167.69 434.14,171.80 434.14,175.80" fill="#88cd93"/>
<polygon points="434.14,175.80 434.14,171.80 445.41,167.69 445.41,171.69" fill="#72ac7c"/>
<polygon points="315.74,172.38 327.01,176.48 315.74,180.59 304.46,176.48" fill="#ebedf0"/>
<polygon points="342.05,172.38 353.32,176.48 342.05,180.59 330.77,176.48" fill="#ebedf0"/>
<polygon points="368.36,172.38 379.64,176.48 368.36,180.59 357.08,176.48" fill="#ebedf0"/>
<polygon points="394.67,172.38 405.95,176.48 394.67,180.59 383.39,176.48" fill="#ebedf0"/>
<polygon points="473.61,172.38 484.88,176.48 473.61,180.59 462.33,176.48" fill="#ebedf0"/>
<polygon points="420.98,168.38 432.26,172.48 420.98,176.59 409.71,172.48" fill="#9be9a8"/>
<polygon points="409.71,176.48 409.71,172.48 420.98,176.59 420.98,180.59" fill="#88cd93"/>
<polygon points="420.98,180.59 420.98,176.59 432.26,172.48 432.26,176.48" fill="#72ac7c"/>
<polygon points="447.29,168.38 458.57,172.48 447.29,176.59 436.02,172.48" fill="#9be9a8"/>
<polygon points="436.02,176.48 436.02,172.48 447.29,176.59 447.29,180.59" fill="#88cd93"/>
<polygon points="447.29,180.59 447.29,176.59 458.57,172.48 458.57,176.48" fill="#72ac7c"/>
<polygon points="328.89,177.17 340.17,181.27 328.89,185.37 317.62,181.27" fill="#ebedf0"/>
<polygon points="434.14,177.17 445.41,181.27 434.14,185.37 422.86,181.27" fill="#ebedf0"/>
<polygon points="355.20,173.17 366.48,177.27 355.20,181.37 343.93,177.27" fill="#9be9a8"/>
<polygon points="343.93,181.27 343.93,177.27 355.20,181.37 355.20,185.37" fill="#88cd93"/>
<polygon points="355.20,185.37 355.20,181.37 366.48,177.27 366.48,181.27" fill="#72ac7c"/>
<polygon points="381.52,173.17 392.79,177.27 381.52,181.37 370.24,177.27" fill="#9be9a8"/>
<polygon points="370.24,181.27 370.24,177.27 381.52,181.37 381.52,185.37" fill="#88cd93"/>
<polygon points="381.52,185.37 381.52,181.37 392.79,177.27 392.79,181.27" fill="#72ac7c"/>
<polygon points="407.83,173.17 419.10,177.27 407.83,181.37 396.55,177.27" fill="#9be9a8"/>
<polygon points="396.55,181.27 396.55,177.27 407.83,181.37 407.83,185.37" fill="#88cd93"/>
<polygon points="407.83,185.37 407.83,181.37 419.10,177.27 419.10,181.27" fill="#72ac7c"/>
<polygon points="460.45,173.17 471.73,177.27 460.45,181.37 449.17,177.27" fill="#9be9a8"/>
<polygon points="449.17,181.27 449.17,177.27 460.45,181.37 460.45,185.37" fill="#88cd93"/>
<polygon points="460.45,185.37 460.45,181.37 471.73,177.27 471.73,181.27" fill="#72ac7c"/>
<polygon points="486.76,173.17 498.04,177.27 486.76,181.37 475.48,177.27" fill="#9be9a8"/>
<polygon points="475.48,181.27 475.48,177.27 486.76,181.37 486.76,185.37" fill="#88cd93"/>
<polygon points="486.76,185.37 486.76,181.37 498.04,177.27 498.04,181.27" fill="#72ac7c"/>
<polygon points="342.05,181.95 353.32,186.06 342.05,190.16 330.77,186.06" fill="#ebedf0"/>
<polygon points="420.98,181.95 432.26,186.06 420.98,190.16 409.71,186.06" fill="#ebedf0"/>
<polygon points="447.29,181.95 458.57,186.06 447.29,190.16 436.02,186.06" fill="#ebedf0"/>
<polygon points="473.61,181.95 484.88,186.06 473.61,190.16 462.33,186.06" fill="#ebedf0"/>
<polygon points="499.92,181.95 511.19,186.06 499.92,190.16 488.64,186.06" fill="#ebedf0"/>
<polygon points="368.36,177.95 379.64,182.06 368.36,186.16 357.08,182.06" fill="#9be9a8"/>
<polygon points="357.08,186.06 357.08,182.06 368.36,186.16 368.36,190.16" fill="#88cd93"/>
<polygon points="368.36,190.16 368.36,186.16 379.64,182.06 379.64,186.06" fill="#72ac7c"/>
<polygon points="394.67,177.95 405.95,182.06 394.67,186.16 383.39,182.06" fill="#9be9a8"/>
<polygon points="383.39,186.06 383.39,182.06 394.67,186.16 394.67,190.16" fill="#88cd93"/>
<polygon points="394.67,190.16 394.67,186.16 405.95,182.06 405.95,186.06" fill="#72ac7c"/>
<polygon points="355.20,186.74 366.48,190.85 355.20,194.95 343.93,190.85" fill="#ebedf0"/>
<polygon points="381.52,186.74 392.79,190.85 381.52,194.95 370.24,190.85" fill="#ebedf0"/>
<polygon points="407.83,186.74 419.10,190.85 407.83,194.95 396.55,190.85" fill="#ebedf0"/>
<polygon points="434.14,186.74 445.41,190.85 434.14,194.95 422.86,190.85" fill="#ebedf0"/>
<polygon points="513.07,186.74 524.35,190.85 513.07,194.95 501.80,190.85" fill="#ebedf0"/>
<polygon points="460.45,182.74 471.73,186.85 460.45,190.95 449.17,186.85" fill="#9be9a8"/>
<polygon points="449.17,190.85 449.17,186.85 460.45,190.95 460.45,194.95" fill="#88cd93"/>
<polygon points="460.45,194.95 460.45,190.95 471.73,186.85 471.73,190.85" fill="#72ac7c"/>
<polygon points="486.76,182.74 498.04,186.85 486.76,190.95 475.48,186.85" fill="#9be9a8"/>
<polygon points="475.48,190.85 475.48,186.85 486.76,190.95 486.76,194.95" fill="#88cd93"/>
<polygon points="486.76,194.95 486.76,190.95 498.04,186.85 498.04,190.85" fill="#72ac7c"/>
<polygon points="368.36,191.53 379.64,195.64 368.36,199.74 357.08,195.64" fill="#ebedf0"/>
<polygon points="394.67,191.53 405.95,195.64 394.67,199.74 383.39,195.64" fill="#ebedf0"/>
<polygon points="420.98,191.53 432.26,195.64 420.98,199.74 409.71,195.64" fill="#ebedf0"/>
<polygon points="473.61,191.53 484.88,195.64 473.61,199.74 462.33,195.64" fill="#ebedf0"/>
<polygon points="526.23,191.53 537.50,195.64 526.23,199.74 514.95,195.64" fill="#ebedf0"/>
<polygon points="447.29,187.53 458.57,191.64 447.29,195.74 436.02,191.64" fill="#9be9a8"/>
<polygon points="436.02,195.64 436.02,191.64 447.29,195.74 447.29,199.74" fill="#88cd93"/>
<polygon points="447.29,199.74 447.29,195.74 458.57,191.64 458.57,195.64" fill="#72ac7c"/>
<polygon points="499.92,187.53 511.19,191.64 499.92,195.74 488.64,191.64" fill="#9be9a8"/>
<polygon points="488.64,195.64 488.64,191.64 499.92,195.74 499.92,199.74" fill="#88cd93"/>
<polygon points="499.92,199.74 499.92,195.74 511.19,191.64 511.19,195.64" fill="#72ac7c"/>
<polygon points="381.52,196.32 392.79,200.42 381.52,204.53 370.24,200.42" fill="#ebedf0"/>
<polygon points="486.76,196.32 498.04,200.42 486.76,204.53 475.48,200.42" fill="#ebedf0"/>
<polygon points="434.14,192.32 445.41,196.42 434.14,200.53 422.86,196.42" fill="#9be9a8"/>
<polygon points="422.86,200.42 422.86,196.42 434.14,200.53 434.14,204.53" fill="#88cd93"/>
<polygon points="434.14,204.53 434.14,200.53 445.41,196.42 445.41,200.42" fill="#72ac7c"/>
<polygon points="460.45,192.32 471.73,196.42 460.45,200.53 449.17,196.42" fill="#9be9a8"/>
<polygon points="449.17,200.42 449.17,196.42 460.45,200.53 460.45,204.53" fill="#88cd93"/>
<polygon points="460.45,204.53 460.45,200.53 471.73,196.42 471.73,200.42" fill="#72ac7c"/>
<polygon points="513.07,192.32 524.35,196.42 513.07,200.53 501.80,196.42" fill="#9be9a8"/>
<polygon points="501.80,200.42 501.80,196.42 513.07,200.53 513.07,204.53" fill="#88cd93"/>
<polygon points="513.07,204.53 513.07,200.53 524.35,196.42 524.35,200.42" fill="#72ac7c"/>
<polygon points="539.38,192.32 550.66,196.42 539.38,200.53 528.11,196.42" fill="#9be9a8"/>
<polygon points="528.11,200.42 528.11,196.42 539.38,200.53 539.38,204.53" fill="#88cd93"/>
<polygon points="539.38,204.53 539.38,200.53 550.66,196.42 550.66,200.42" fill="#72ac7c"/>
<polygon points="407.83,184.32 419.10,188.42 407.83,192.53 396.55,188.42" fill="#30a14e"/>
<polygon points="396.55,200.42 396.55,188.42 407.83,192.53 407.83,204.53" fill="#2a8d44"/>
<polygon points="407.83,204.53 407.83,192.53 419.10,188.42 419.10,200.42" fill="#237739"/>
<polygon points="420.98,201.11 432.26,205.21 420.98,209.32 409.71,205.21" fill="#ebedf0"/>
<polygon points="526.23,201.11 537.50,205.21 526.23,209.32 514.95,205.21" fill="#ebedf0"/>
<polygon points="552.54,201.11 563.82,205.21 552.54,209.32 541.26,205.21" fill="#ebedf0"/>
<polygon points="394.67,197.11 405.95,201.21 394.67,205.32 383.39,201.21" fill="#9be9a8"/>
<polygon points="383.39,205.21 383.39,201.21 394.67,205.32 394.67,209.32" fill="#88cd93"/>
<polygon points="394.67,209.32 394.67,205.32 405.95,201.21 405.95,205.21" fill="#72ac7c"/>
<polygon points="447.29,197.11 458.57,201.21 447.29,205.32 436.02,201.21" fill="#9be9a8"/>
<polygon points="436.02,205.21 436.02,201.21 447.29,205.32 447.29,209.32" fill="#88cd93"/>
<polygon points="447.29,209.32 447.29,205.32 458.57,201.21 458.57,205.21" fill="#72ac7c"/>
<polygon points="473.61,197.11 484.88,201.21 473.61,205.32 462.33,201.21" fill="#9be9a8"/>
<polygon points="462.33,205.21 462.33,201.21 473.61,205.32 473.61,209.32" fill="#88cd93"/>
<polygon points="473.61,209.32 473.61,205.32 484.88,201.21 484.88,205.21" fill="#72ac7c"/>
<polygon points="499.92,197.11 511.19,201.21 499.92,205.32 488.64,201.21" fill="#9be9a8"/>
<polygon points="488.64,205.21 488.64,201.21 499.92,205.32 499.92,209.32" fill="#88cd93"/>
<polygon points="499.92,209.32 499.92,205.32 511.19,201.21 511.19,205.21" fill="#72ac7c"/>
<polygon points="434.14,205.90 445.41,210.00 434.14,214.10 422.86,210.00" fill="#ebedf0"/>
<polygon points="539.38,205.90 550.66,210.00 539.38,214.10 528.11,210.00" fill="#ebedf0"/>
<polygon points="407.83,201.90 419.10,206.00 407.83,210.10 396.55,206.00" fill="#9be9a8"/>
<polygon points="396.55,210.00 396.55,206.00 407.83,210.10 407.83,214.10" fill="#88cd93"/>
<polygon points="407.83,214.10 407.83,210.10 419.10,206.00 419.10,210.00" fill="#72ac7c"/>
<polygon points="486.76,201.90 498.04,206.00 486.76,210.10 475.48,206.00" fill="#9be9a8"/>
<polygon points="475.48,210.00 475.48,206.00 486.76,210.10 486.76,214.10" fill="#88cd93"/>
<polygon points="486.76,214.10 486.76,210.10 498.04,206.00 498.04,210.00" fill="#72ac7c"/>
<polygon points="513.07,201.90 524.35,206.00 513.07,210.10 501.80,206.00" fill="#9be9a8"/>
<polygon points="501.80,210.00 501.80,206.00 513.07,210.10 513.07,214.10" fill="#88cd93"/>
<polygon points="513.07,214.10 513.07,210.10 524.35,206.00 524.35,210.00" fill="#72ac7c"/>
<polygon points="565.69,197.90 576.97,202.00 565.69,206.10 554.42,202.00" fill="#40c463"/>
<polygon points="554.42,210.00 554.42,202.00 565.69,206.10 565.69,214.10" fill="#38ac57"/>
<polygon points="565.69,214.10 565.69,206.10 576.97,202.00 576.97,210.00" fill="#2f9149"/>
<polygon points="460.45,189.90 471.73,194.00 460.45,198.10 449.17,194.00" fill="#216e39"/>
<polygon points="449.17,210.00 449.17,194.00 460.45,198.10 460.45,214.10" fill="#1d6032"/>
<polygon points="460.45,214.10 460.45,198.10 471.73,194.00 471.73,210.00" fill="#18512a"/>
<polygon points="420.98,210.68 432.26,214.79 420.98,218.89 409.71,214.79" fill="#ebedf0"/>
<polygon points="473.61,210.68 484.88,214.79 473.61,218.89 462.33,214.79" fill="#ebedf0"/>
<polygon points="499.92,210.68 511.19,214.79 499.92,218.89 488.64,214.79" fill="#ebedf0"/>
<polygon points="447.29,206.68 458.57,210.79 447.29,214.89 436.02,210.79" fill="#9be9a8"/>
<polygon points="436.02,214.79 436.02,210.79 447.29,214.89 447.29,218.89" fill="#88cd93"/>
<polygon points="447.29,218.89 447.29,214.89 458.57,210.79 458.57,214.79" fill="#72ac7c"/>
<polygon points="526.23,206.68 537.50,210.79 526.23,214.89 514.95,210.79" fill="#9be9a8"/>
<polygon points="514.95,214.79 514.95,210.79 526.23,214.89 526.23,218.89" fill="#88cd93"/>
<polygon points="526.23,218.89 526.23,214.89 537.50,210.79 537.50,214.79" fill="#72ac7c"/>
<polygon points="552.54,206.68 563.82,210.79 552.54,214.89 541.26,210.79" fill="#9be9a8"/>
<polygon points="541.26,214.79 541.26,210.79 552.54,214.89 552.54,218.89" fill="#88cd93"/>
<polygon points="552.54,218.89 552.54,214.89 563.82,210.79 563.82,214.79" fill="#72ac7c"/>
<polygon points="578.85,206.68 590.13,210.79 578.85,214.89 567.57,210.79" fill="#9be9a8"/>
<polygon points="567.57,214.79 567.57,210.79 578.85,214.89 578.85,218.89" fill="#88cd93"/>
<polygon points="578.85,218.89 578.85,214.89 590.13,210.79 590.13,214.79" fill="#72ac7c"/>
<polygon points="592.01,215.47 603.28,219.58 592.01,223.68 580.73,219.58" fill="#ebedf0"/>
<polygon points="434.14,211.47 445.41,215.58 434.14,219.68 422.86,215.58" fill="#9be9a8"/>
<polygon points="422.86,219.58 422.86,215.58 434.14,219.68 434.14,223.68" fill="#88cd93"/>
<polygon points="434.14,223.68 434.14,219.68 445.41,215.58 445.41,219.58" fill="#72ac7c"/>
<polygon points="460.45,211.47 471.73,215.58 460.45,219.68 449.17,215.58" fill="#9be9a8"/>
<polygon points="449.17,219.58 449.17,215.58 460.45,219.68 460.45,223.68" fill="#88cd93"/>
<polygon points="460.45,223.68 460.45,219.68 471.73,215.58 471.73,219.58" fill="#72ac7c"/>
<polygon points="486.76,211.47 498.04,215.58 486.76,219.68 475.48,215.58" fill="#9be9a8"/>
<polygon points="475.48,219.58 475.48,215.58 486.76,219.68 486.76,223.68" fill="#88cd93"/>
<polygon points="486.76,223.68 486.76,219.68 498.04,215.58 498.04,219.58" fill="#72ac7c"/>
<polygon points="513.07,211.47 524.35,215.58 513.07,219.68 501.80,215.58" fill="#9be9a8"/>
<polygon points="501.80,219.58 501.80,215.58 513.07,219.68 513.07,223.68" fill="#88cd93"/>
<polygon points="513.07,223.68 513.07,219.68 524.35,215.58 524.35,219.58" fill="#72ac7c"/>
<polygon points="539.38,211.47 550.66,215.58 539.38,219.68 528.11,215.58" fill="#9be9a8"/>
<polygon points="528.11,219.58 528.11,215.58 539.38,219.68 539.38,223.68" fill="#88cd93"/>
<polygon points="539.38,223.68 539.38,219.68 550.66,215.58 550.66,219.58" fill="#72ac7c"/>
<polygon points="565.69,207.47 576.97,211.58 565.69,215.68 554.42,211.58" fill="#40c463"/>
<polygon points="554.42,219.58 554.42,211.58 565.69,215.68 565.69,223.68" fill="#38ac57"/>
<polygon points="565.69,223.68 565.69,215.68 576.97,211.58 576.97,219.58" fill="#2f9149"/>
<polygon points="447.29,220.26 458.57,224.37 447.29,228.47 436.02,224.37" fill="#ebedf0"/>
<polygon points="473.61,220.26 484.88,224.37 473.61,228.47 462.33,224.37" fill="#ebedf0"/>
<polygon points="499.92,216.26 511.19,220.37 499.92,224.47 488.64,220.37" fill="#9be9a8"/>
<polygon points="488.64,224.37 488.64,220.37 499.92,224.47 499.92,228.47" fill="#88cd93"/>
<polygon points="499.92,228.47 499.92,224.47 511.19,220.37 511.19,224.37" fill="#72ac7c"/>
<polygon points="578.85,216.26 590.13,220.37 578.85,224.47 567.57,220.37" fill="#9be9a8"/>
<polygon points="567.57,224.37 567.57,220.37 578.85,224.47 578.85,228.47" fill="#88cd93"/>
<polygon points="578.85,228.47 578.85,224.47 590.13,220.37 590.13,224.37" fill="#72ac7c"/>
<polygon points="605.16,216.26 616.44,220.37 605.16,224.47 593.89,220.37" fill="#9be9a8"/>
<polygon points="593.89,224.37 593.89,220.37 605.16,224.47 605.16,228.47" fill="#88cd93"/>
<polygon points="605.16,228.47 605.16,224.47 616.44,220.37 616.44,224.37" fill="#72ac7c"/>
<polygon points="526.23,212.26 537.50,216.37 526.23,220.47 514.95,216.37" fill="#40c463"/>
<polygon points="514.95,224.37 514.95,216.37 526.23,220.47 526.23,228.47" fill="#38ac57"/>
<polygon points="526.23,228.47 526.23,220.47 537.50,216.37 537.50,224.37" fill="#2f9149"/>
<polygon points="552.54,208.26 563.82,212.37 552.54,216.47 541.26,212.37" fill="#30a14e"/>
<polygon points="541.26,224.37 541.26,212.37 552.54,216.47 552.54,228.47" fill="#2a8d44"/>
<polygon points="552.54,228.47 552.54,216.47 563.82,212.37 563.82,224.37" fill="#237739"/>
<polygon points="460.45,225.05 471.73,229.15 460.45,233.26 449.17,229.15" fill="#ebedf0"/>
<polygon points="513.07,221.05 524.35,225.15 513.07,229.26 501.80,225.15" fill="#9be9a8"/>
<polygon points="501.80,229.15 501.80,225.15 513.07,229.26 513.07,233.26" fill="#88cd93"/>
<polygon points="513.07,233.26 513.07,229.26 524.35,225.15 524.35,229.15" fill="#72ac7c"/>
<polygon points="565.69,221.05 576.97,225.15 565.69,229.26 554.42,225.15" fill="#9be9a8"/>
<polygon points="554.42,229.15 554.42,225.15 565.69,229.26 565.69,233.26" fill="#88cd93"/>
<polygon points="565.69,233.26 565.69,229.26 576.97,225.15 576.97,229.15" fill="#72ac7c"/>
<polygon points="618.32,221.05 629.59,225.15 618.32,229.26 607.04,225.15" fill="#9be9a8"/>
<polygon points="607.04,229.15 607.04,225.15 618.32,229.26 618.32,233.26" fill="#88cd93"/>
<polygon points="618.32,233.26 618.32,229.26 629.59,225.15 629.59,229.15" fill="#72ac7c"/>
<polygon points="539.38,217.05 550.66,221.15 539.38,225.26 528.11,221.15" fill="#40c463"/>
<polygon points="528.11,229.15 528.11,221.15 539.38,225.26 539.38,233.26" fill="#38ac57"/>
<polygon points="539.38,233.26 539.38,225.26 550.66,221.15 550.66,229.15" fill="#2f9149"/>
<polygon points="592.01,217.05 603.28,221.15 592.01,225.26 580.73,221.15" fill="#40c463"/>
<polygon points="580.73,229.15 580.73,221.15 592.01,225.26 592.01,233.26" fill="#38ac57"/>
<polygon points="592.01,233.26 592.01,225.26 603.28,221.15 603.28,229.15" fill="#2f9149"/>
<polygon points="486.76,213.05 498.04,217.15 486.76,221.26 475.48,217.15" fill="#30a14e"/>
<polygon points="475.48,229.15 475.48,217.15 486.76,221.26 486.76,233.26" fill="#2a8d44"/>
<polygon points="486.76,233.26 486.76,221.26 498.04,217.15 498.04,229.15" fill="#237739"/>
<polygon points="499.92,229.84 511.19,233.94 499.92,238.05 488.64,233.94" fill="#ebedf0"/>
<polygon points="473.61,225.84 484.88,229.94 473.61,234.05 462.33,229.94" fill="#9be9a8"/>
<polygon points="462.33,233.94 462.33,229.94 473.61,234.05 473.61,238.05" fill="#88cd93"/>
<polygon points="473.61,238.05 473.61,234.05 484.88,229.94 484.88,233.94" fill="#72ac7c"/>
<polygon points="526.23,225.84 537.50,229.94 526.23,234.05 514.95,229.94" fill="#9be9a8"/>
<polygon points="514.95,233.94 514.95,229.94 526.23,234.05 526.23,238.05" fill="#88cd93"/>
<polygon points="526.23,238.05 526.23,234.05 537.50,229.94 537.50,233.94" fill="#72ac7c"/>
<polygon points="552.54,225.84 563.82,229.94 552.54,234.05 541.26,229.94" fill="#9be9a8"/>
<polygon points="541.26,233.94 541.26,229.94 552.54,234.05 552.54,238.05" fill="#88cd93"/>
<polygon points="552.54,238.05 552.54,234.05 563.82,229.94 563.82,233.94" fill="#72ac7c"/>
<polygon points="578.85,225.84 590.13,229.94 578.85,234.05 567.57,229.94" fill="#9be9a8"/>
<polygon points="567.57,233.94 567.57,229.94 578.85,234.05 578.85,238.05" fill="#88cd93"/>
<polygon points="578.85,238.05 578.85,234.05 590.13,229.94 590.13,233.94" fill="#72ac7c"/>
<polygon points="605.16,225.84 616.44,229.94 605.16,234.05 593.89,229.94" fill="#9be9a8"/>
<polygon points="593.89,233.94 593.89,229.94 605.16,234.05 605.16,238.05" fill="#88cd93"/>
<polygon points="605.16,238.05 605.16,234.05 616.44,229.94 616.44,233.94" fill="#72ac7c"/>
<polygon points="631.47,221.84 642.75,225.94 631.47,230.05 620.20,225.94" fill="#40c463"/>
<polygon points="620.20,233.94 620.20,225.94 631.47,230.05 631.47,238.05" fill="#38ac57"/>
<polygon points="631.47,238.05 631.47,230.05 642.75,225.94 642.75,233.94" fill="#2f9149"/>
<polygon points="644.63,234.63 655.91,238.73 644.63,242.83 633.35,238.73" fill="#ebedf0"/>
<polygon points="486.76,230.63 498.04,234.73 486.76,238.83 475.48,234.73" fill="#9be9a8"/>
<polygon points="475.48,238.73 475.48,234.73 486.76,238.83 486.76,242.83" fill="#88cd93"/>
<polygon points="486.76,242.83 486.76,238.83 498.04,234.73 498.04,238.73" fill="#72ac7c"/>
<polygon points="513.07,230.63 524.35,234.73 513.07,238.83 501.80,234.73" fill="#9be9a8"/>
<polygon points="501.80,238.73 501.80,234.73 513.07,238.83 513.07,242.83" fill="#88cd93"/>
<polygon points="513.07,242.83 513.07,238.83 524.35,234.73 524.35,238.73" fill="#72ac7c"/>
<polygon points="539.38,230.63 550.66,234.73 539.38,238.83 528.11,234.73" fill="#9be9a8"/>
<polygon points="528.11,238.73 528.11,234.73 539.38,238.83 539.38,242.83" fill="#88cd93"/>
<polygon points="539.38,242.83 539.38,238.83 550.66,234.73 550.66,238.73" fill="#72ac7c"/>
<polygon points="565.69,230.63 576.97,234.73 565.69,238.83 554.42,234.73" fill="#9be9a8"/>
<polygon points="554.42,238.73 554.42,234.73 565.69,238.83 565.69,242.83" fill="#88cd93"/>
<polygon points="565.69,242.83 565.69,238.83 576.97,234.73 576.97,238.73" fill="#72ac7c"/>
<polygon points="592.01,230.63 603.28,234.73 592.01,238.83 580.73,234.73" fill="#9be9a8"/>
<polygon points="580.73,238.73 580.73,234.73 592.01,238.83 592.01,242.83" fill="#88cd93"/>
<polygon points="592.01,242.83 592.01,238.83 603.28,234.73 603.28,238.73" fill="#72ac7c"/>
<polygon points="618.32,230.63 629.59,234.73 618.32,238.83 607.04,234.73" fill="#9be9a8"/>
<polygon points="607.04,238.73 607.04,234.73 618.32,238.83 618.32,242.83" fill="#88cd93"/>
<polygon points="618.32,242.83 618.32,238.83 629.59,234.73 629.59,238.73" fill="#72ac7c"/>
<polygon points="499.92,239.41 511.19,243.52 499.92,247.62 488.64,243.52" fill="#ebedf0"/>
<polygon points="552.54,239.41 563.82,243.52 552.54,247.62 541.26,243.52" fill="#ebedf0"/>
<polygon points="657.78,239.41 669.06,243.52 657.78,247.62 646.51,243.52" fill="#ebedf0"/>
<polygon points="526.23,235.41 537.50,239.52 526.23,243.62 514.95,239.52" fill="#9be9a8"/>
<polygon points="514.95,243.52 514.95,239.52 526.23,243.62 526.23,247.62" fill="#88cd93"/>
<polygon points="526.23,247.62 526.23,243.62 537.50,239.52 537.50,243.52" fill="#72ac7c"/>
<polygon points="578.85,235.41 590.13,239.52 578.85,243.62 567.57,239.52" fill="#9be9a8"/>
<polygon points="567.57,243.52 567.57,239.52 578.85,243.62 578.85,247.62" fill="#88cd93"/>
<polygon points="578.85,247.62 578.85,243.62 590.13,239.52 590.13,243.52" fill="#72ac7c"/>
<polygon points="605.16,235.41 616.44,239.52 605.16,243.62 593.89,239.52" fill="#9be9a8"/>
<polygon points="593.89,243.52 593.89,239.52 605.16,243.62 605.16,247.62" fill="#88cd93"/>
<polygon points="605.16,247.62 605.16,243.62 616.44,239.52 616.44,243.52" fill="#72ac7c"/>
<polygon points="631.47,235.41 642.75,239.52 631.47,243.62 620.20,239.52" fill="#9be9a8"/>
<polygon points="620.20,243.52 620.20,239.52 631.47,243.62 631.47,247.62" fill="#88cd93"/>
<polygon points="631.47,247.62 631.47,243.62 642.75,239.52 642.75,243.52" fill="#72ac7c"/>
<polygon points="513.07,244.20 524.35,248.31 513.07,252.41 501.80,248.31" fill="#ebedf0"/>
<polygon points="670.94,244.20 682.22,248.31 670.94,252.41 659.66,248.31" fill="#ebedf0"/>
<polygon points="539.38,240.20 550.66,244.31 539.38,248.41 528.11,244.31" fill="#9be9a8"/>
<polygon points="528.11,248.31 528.11,244.31 539.38,248.41 539.38,252.41" fill="#88cd93"/>
<polygon points="539.38,252.41 539.38,248.41 550.66,244.31 550.66,248.31" fill="#72ac7c"/>
<polygon points="565.69,240.20 576.97,244.31 565.69,248.41 554.42,244.31" fill="#9be9a8"/>
<polygon points="554.42,248.31 554.42,244.31 565.69,248.41 565.69,252.41" fill="#88cd93"/>
<polygon points="565.69,252.41 565.69,248.41 576.97,244.31 576.97,248.31" fill="#72ac7c"/>
<polygon points="592.01,240.20 603.28,244.31 592.01,248.41 580.73,244.31" fill="#9be9a8"/>
<polygon points="580.73,248.31 580.73,244.31 592.01,248.41 592.01,252.41" fill="#88cd93"/>
<polygon points="592.01,252.41 592.01,248.41 603.28,244.31 603.28,248.31" fill="#72ac7c"/>
<polygon points="618.32,240.20 629.59,244.31 618.32,248.41 607.04,244.31" fill="#9be9a8"/>
<polygon points="607.04,248.31 607.04,244.31 618.32,248.41 618.32,252.41" fill="#88cd93"/>
<polygon points="618.32,252.41 618.32,248.41 629.59,244.31 629.59,248.31" fill="#72ac7c"/>
<polygon points="644.63,240.20 655.91,244.31 644.63,248.41 633.35,244.31" fill="#9be9a8"/>
<polygon points="633.35,248.31 633.35,244.31 644.63,248.41 644.63,252.41" fill="#88cd93"/>
<polygon points="644.63,252.41 644.63,248.41 655.91,244.31 655.91,248.31" fill="#72ac7c"/>
<polygon points="578.85,248.99 590.13,253.09 578.85,257.20 567.57,253.09" fill="#ebedf0"/>
<polygon points="657.78,248.99 669.06,253.09 657.78,257.20 646.51,253.09" fill="#ebedf0"/>
<polygon points="684.10,248.99 695.37,253.09 684.10,257.20 672.82,253.09" fill="#ebedf0"/>
<polygon points="526.23,244.99 537.50,249.09 526.23,253.20 514.95,249.09" fill="#9be9a8"/>
<polygon points="514.95,253.09 514.95,249.09 526.23,253.20 526.23,257.20" fill="#88cd93"/>
<polygon points="526.23,257.20 526.23,253.20 537.50,249.09 537.50,253.09" fill="#72ac7c"/>
<polygon points="552.54,244.99 563.82,249.09 552.54,253.20 541.26,249.09" fill="#9be9a8"/>
<polygon points="541.26,253.09 541.26,249.09 552.54,253.20 552.54,257.20" fill="#88cd93"/>
<polygon points="552.54,257.20 552.54,253.20 563.82,249.09 563.82,253.09" fill="#72ac7c"/>
<polygon points="605.16,244.99 616.44,249.09 605.16,253.20 593.89,249.09" fill="#9be9a8"/>
<polygon points="593.89,253.09 593.89,249.09 605.16,253.20 605.16,257.20" fill="#88cd93"/>
<polygon points="605.16,257.20 605.16,253.20 616.44,249.09 616.44,253.09" fill="#72ac7c"/>
<polygon points="631.47,240.99 642.75,245.09 631.47,249.20 620.20,245.09" fill="#40c463"/>
<polygon points="620.20,253.09 620.20,245.09 631.47,249.20 631.47,257.20" fill="#38ac57"/>
<polygon points="631.47,257.20 631.47,249.20 642.75,245.09 642.75,253.09" fill="#2f9149"/>
<polygon points="539.38,253.78 550.66,257.88 539.38,261.99 528.11,257.88" fill="#ebedf0"/>
<polygon points="565.69,253.78 576.97,257.88 565.69,261.99 554.42,257.88" fill="#ebedf0"/>
<polygon points="592.01,253.78 603.28,257.88 592.01,261.99 580.73,257.88" fill="#ebedf0"/>
<polygon points="644.63,249.78 655.91,253.88 644.63,257.99 633.35,253.88" fill="#9be9a8"/>
<polygon points="633.35,257.88 633.35,253.88 644.63,257.99 644.63,261.99" fill="#88cd93"/>
<polygon points="644.63,261.99 644.63,257.99 655.91,253.88 655.91,257.88" fill="#72ac7c"/>
<polygon points="670.94,249.78 682.22,253.88 670.94,257.99 659.66,253.88" fill="#9be9a8"/>
<polygon points="659.66,257.88 659.66,253.88 670.94,257.99 670.94,261.99" fill="#88cd93"/>
<polygon points="670.94,261.99 670.94,257.99 682.22,253.88 682.22,257.88" fill="#72ac7c"/>
<polygon points="618.32,245.78 629.59,249.88 618.32,253.99 607.04,249.88" fill="#40c463"/>
<polygon points="607.04,257.88 607.04,249.88 618.32,253.99 618.32,261.99" fill="#38ac57"/>
<polygon points="618.32,261.99 618.32,253.99 629.59,249.88 629.59,257.88" fill="#2f9149"/>
<polygon points="552.54,258.57 563.82,262.67 552.54,266.78 541.26,262.67" fill="#ebedf0"/>
<polygon points="578.85,254.57 590.13,258.67 578.85,262.78 567.57,258.67" fill="#9be9a8"/>
<polygon points="567.57,262.67 567.57,258.67 578.85,262.78 578.85,266.78" fill="#88cd93"/>
<polygon points="578.85,266.78 578.85,262.78 590.13,258.67 590.13,262.67" fill="#72ac7c"/>
<polygon points="605.16,254.57 616.44,258.67 605.16,262.78 593.89,258.67" fill="#9be9a8"/>
<polygon points="593.89,262.67 593.89,258.67 605.16,262.78 605.16,266.78" fill="#88cd93"/>
<polygon points="605.16,266.78 605.16,262.78 616.44,258.67 616.44,262.67" fill="#72ac7c"/>
<polygon points="631.47,254.57 642.75,258.67 631.47,262.78 620.20,258.67" fill="#9be9a8"/>
<polygon points="620.20,262.67 620.20,258.67 631.47,262.78 631.47,266.78" fill="#88cd93"/>
<polygon points="631.47,266.78 631.47,262.78 642.75,258.67 642.75,262.67" fill="#72ac7c"/>
<polygon points="657.78,254.57 669.06,258.67 657.78,262.78 646.51,258.67" fill="#9be9a8"/>
<polygon points="646.51,262.67 646.51,258.67 657.78,262.78 657.78,266.78" fill="#88cd93"/>
<polygon points="657.78,266.78 657.78,262.78 669.06,258.67 669.06,262.67" fill="#72ac7c"/>
<polygon points="565.69,263.36 576.97,267.46 565.69,271.56 554.42,267.46" fill="#ebedf0"/>
<polygon points="592.01,259.36 603.28,263.46 592.01,267.56 580.73,263.46" fill="#9be9a8"/>
<polygon points="580.73,267.46 580.73,263.46 592.01,267.56 592.01,271.56" fill="#88cd93"/>
<polygon points="592.01,271.56 592.01,267.56 603.28,263.46 603.28,267.46" fill="#72ac7c"/>
<polygon points="618.32,259.36 629.59,263.46 618.32,267.56 607.04,263.46" fill="#9be9a8"/>
<polygon points="607.04,267.46 607.04,263.46 618.32,267.56 618.32,271.56" fill="#88cd93"/>
<polygon points="618.32,271.56 618.32,267.56 629.59,263.46 629.59,267.46" fill="#72ac7c"/>
<polygon points="644.63,259.36 655.91,263.46 644.63,267.56 633.35,263.46" fill="#9be9a8"/>
<polygon points="633.35,267.46 633.35,263.46 644.63,267.56 644.63,271.56" fill="#88cd93"/>
<polygon points="644.63,271.56 644.63,267.56 655.91,263.46 655.91,267.46" fill="#72ac7c"/>
<polygon points="578.85,268.14 590.13,272.25 578.85,276.35 567.57,272.25" fill="#ebedf0"/>
<polygon points="605.16,264.14 616.44,268.25 605.16,272.35 593.89,268.25" fill="#9be9a8"/>
<polygon points="593.89,272.25 593.89,268.25 605.16,272.35 605.16,276.35" fill="#88cd93"/>
<polygon points="605.16,276.35 605.16,272.35 616.44,268.25 616.44,272.25" fill="#72ac7c"/>
<polygon points="631.47,252.14 642.75,256.25 631.47,260.35 620.20,256.25" fill="#216e39"/>
<polygon points="620.20,272.25 620.20,256.25 631.47,260.35 631.47,276.35" fill="#1d6032"/>
<polygon points="631.47,276.35 631.47,260.35 642.75,256.25 642.75,272.25" fill="#18512a"/>
<polygon points="592.01,272.93 603.28,277.04 592.01,281.14 580.73,277.04" fill="#ebedf0"/>
<text x="697.25" y="16.00" text-anchor="end" font-family='-apple-system, BlinkMacSystemFont, "Segoe UI", Helvetica, Arial, sans-serif' font-size="34" font-weight="700" fill="#216e39">277</text>
<text x="697.25" y="28.00" text-anchor="end" font-family='-apple-system, BlinkMacSystemFont, "Segoe UI", Helvetica, Arial, sans-serif' font-size="10" fill="#59636e" letter-spacing="0.8">TOTAL COMMITS</text>
<rect x="-92.09" y="236.94" width="12" height="14.36" rx="1" fill="#40c463"/>
<text x="-86.09" y="269.30" text-anchor="middle" font-family='-apple-system, BlinkMacSystemFont, "Segoe UI", Helvetica, Arial, sans-serif' font-size="11" fill="#59636e">S</text>
<rect x="-76.09" y="208.21" width="12" height="43.09" rx="1" fill="#40c463"/>
<text x="-70.09" y="269.30" text-anchor="middle" font-family='-apple-system, BlinkMacSystemFont, "Segoe UI", Helvetica, Arial, sans-serif' font-size="11" fill="#59636e">M</text>
<rect x="-60.09" y="207.64" width="12" height="43.66" rx="1" fill="#40c463"/>
<text x="-54.09" y="269.30" text-anchor="middle" font-family='-apple-system, BlinkMacSystemFont, "Segoe UI", Helvetica, Arial, sans-serif' font-size="11" fill="#59636e">T</text>
<rect x="-44.09" y="200.46" width="12" height="50.84" rx="1" fill="#40c463"/>
<text x="-38.09" y="269.30" text-anchor="middle" font-family='-apple-system, BlinkMacSystemFont, "Segoe UI", Helvetica, Arial, sans-serif' font-size="11" fill="#59636e">W</text>
<rect x="-28.09" y="197.30" width="12" height="54.00" rx="1" fill="#216e39"/>
<text x="-22.09" y="269.30" text-anchor="middle" font-family='-apple-system, BlinkMacSystemFont, "Segoe UI", Helvetica, Arial, sans-serif' font-size="11" fill="#59636e">T</text>
<rect x="-12.09" y="222.86" width="12" height="28.44" rx="1" fill="#40c463"/>
<text x="-6.09" y="269.30" text-anchor="middle" font-family='-apple-system, BlinkMacSystemFont, "Segoe UI", Helvetica, Arial, sans-serif' font-size="11" fill="#59636e">F</text>
<rect x="3.91" y="246.13" width="12" height="5.17" rx="1" fill="#40c463"/>
<text x="9.91" y="269.30" text-anchor="middle" font-family='-apple-system, BlinkMacSystemFont, "Segoe UI", Helvetica, Arial, sans-serif' font-size="11" fill="#59636e">S</text>
<text x="-92.09" y="289.30" font-family='-apple-system, BlinkMacSystemFont, "Segoe UI", Helvetica, Arial, sans-serif' font-size="12" fill="#59636e" letter-spacing="0.3">Most active days</text>
<text x="-92.09" y="305.30" font-family='-apple-system, BlinkMacSystemFont, "Segoe UI", Helvetica, Arial, sans-serif' font-size="9" fill="#59636e">Data pulled daily from GitHub.</text>
<text x="-92.09" y="315.30" font-family='-apple-system, BlinkMacSystemFont, "Segoe UI", Helvetica, Arial, sans-serif' font-size="9" fill="#59636e">Rolling last-12-month activity.</text>
</svg>