<svg xmlns="http://www.w3.org/2000/svg" viewBox="-98.09 -24.00 801.34 354.30" width="801" height="354">
<polygon points="0.00,-8.00 11.28,-3.90 0.00,0.21 -11.28,-3.90" fill="#9be9a8"/>
<polygon points="-11.28,4.10 -11.28,-3.90 0.00,0.21 0.00,8.21" fill="#88cd93"/>
<polygon points="0.00,8.21 0.00,0.21 11.28,-3.90 11.28,4.10" fill="#72ac7c"/>
<polygon points="-13.16,4.79 -1.88,8.89 -13.16,13.00 -24.43,8.89" fill="#ebedf0"/>
<polygon points="13.16,4.79 24.43,8.89 13.16,13.00 1.88,8.89" fill="#ebedf0"/>
<polygon points="-26.31,9.58 -15.04,13.68 -26.31,17.79 -37.59,13.68" fill="#ebedf0"/>
<polygon points="0.00,9.58 11.28,13.68 0.00,17.79 -11.28,13.68" fill="#ebedf0"/>
<polygon points="26.31,1.58 37.59,5.68 26.31,9.79 15.04,5.68" fill="#9be9a8"/>
<polygon points="15.04,13.68 15.04,5.68 26.31,9.79 26.31,17.79" fill="#88cd93"/>
<polygon points="26.31,17.79 26.31,9.79 37.59,5.68 37.59,13.68" fill="#72ac7c"/>
<polygon points="39.47,14.36 50.74,18.47 39.47,22.57 28.19,18.47" fill="#ebedf0"/>
<polygon points="-13.16,3.36 -1.88,7.47 -13.16,11.57 -24.43,7.47" fill="#9be9a8"/>
<polygon points="-24.43,18.47 -24.43,7.47 -13.16,11.57 -13.16,22.57" fill="#88cd93"/>
<polygon points="-13.16,22.57 -13.16,11.57 -1.88,7.47 -1.88,18.47" fill="#72ac7c"/>
<polygon points="13.16,1.36 24.43,5.47 13.16,9.57 1.88,5.47" fill="#9be9a8"/>
<polygon points="1.88,18.47 1.88,5.47 13.16,9.57 13.16,22.57" fill="#88cd93"/>
<polygon points="13.16,22.57 13.16,9.57 24.43,5.47 24.43,18.47" fill="#72ac7c"/>
<polygon points="-39.47,-3.64 -28.19,0.47 -39.47,4.57 -50.74,0.47" fill="#30a14e"/>
<polygon points="-50.74,18.47 -50.74,0.47 -39.47,4.57 -39.47,22.57" fill="#2a8d44"/>
<polygon points="-39.47,22.57 -39.47,4.57 -28.19,0.47 -28.19,18.47" fill="#237739"/>
<polygon points="52.62,19.15 63.90,23.26 52.62,27.36 41.35,23.26" fill="#ebedf0"/>
<polygon points="-52.62,11.15 -41.35,15.26 -52.62,19.36 -63.90,15.26" fill="#9be9a8"/>
<polygon points="-63.90,23.26 -63.90,15.26 -52.62,19.36 -52.62,27.36" fill="#88cd93"/>
<polygon points="-52.62,27.36 -52.62,19.36 -41.35,15.26 -41.35,23.26" fill="#72ac7c"/>
<polygon points="-26.31,4.15 -15.04,8.26 -26.31,12.36 -37.59,8.26" fill="#9be9a8"/>
<polygon points="-37.59,23.26 -37.59,8.26 -26.31,12.36 -26.31,27.36" fill="#88cd93"/>
<polygon points="-26.31,27.36 -26.31,12.36 -15.04,8.26 -15.04,23.26" fill="#72ac7c"/>
<polygon points="0.00,5.15 11.28,9.26 0.00,13.36 -11.28,9.26" fill="#9be9a8"/>
<polygon points="-11.28,23.26 -11.28,9.26 0.00,13.36 0.00,27.36" fill="#88cd93"/>
<polygon points="0.00,27.36 0.00,13.36 11.28,9.26 11.28,23.26" fill="#72ac7c"/>
<polygon points="26.31,8.15 37.59,12.26 26.31,16.36 15.04,12.26" fill="#9be9a8"/>
<polygon points="15.04,23.26 15.04,12.26 26.31,16.36 26.31,27.36" fill="#88cd93"/>
<polygon points="26.31,27.36 26.31,16.36 37.59,12.26 37.59,23.26" fill="#72ac7c"/>
<polygon points="-65.78,23.94 -54.50,28.05 -65.78,32.15 -77.05,28.05" fill="#ebedf0"/>
<polygon points="-39.47,23.94 -28.19,28.05 -39.47,32.15 -50.74,28.05" fill="#ebedf0"/>
<polygon points="-13.16,23.94 -1.88,28.05 -13.16,32.15 -24.43,28.05" fill="#ebedf0"/>
<polygon points="13.16,23.94 24.43,28.05 13.16,32.15 1.88,28.05" fill="#ebedf0"/>
<polygon points="39.47,23.94 50.74,28.05 39.47,32.15 28.19,28.05" fill="#ebedf0"/>
<polygon points="65.78,23.94 77.05,28.05 65.78,32.15 54.50,28.05" fill="#ebedf0"/>
<polygon points="-78.93,28.73 -67.66,32.83 -78.93,36.94 -90.21,32.83" fill="#ebedf0"/>
<polygon points="-52.62,28.73 -41.35,32.83 -52.62,36.94 -63.90,32.83" fill="#ebedf0"/>
<polygon points="0.00,28.73 11.28,32.83 0.00,36.94 -11.28,32.83" fill="#ebedf0"/>
<polygon points="26.31,28.73 37.59,32.83 26.31,36.94 15.04,32.83" fill="#ebedf0"/>
<polygon points="78.93,28.73 90.21,32.83 78.93,36.94 67.66,32.83" fill="#ebedf0"/>
<polygon points="-26.31,20.73 -15.04,24.83 -26.31,28.94 -37.59,24.83" fill="#9be9a8"/>
<polygon points="-37.59,32.83 -37.59,24.83 -26.31,28.94 -26.31,36.94" fill="#88cd93"/>
<polygon points="-26.31,36.94 -26.31,28.94 -15.04,24.83 -15.04,32.83" fill="#72ac7c"/>
<polygon points="52.62,20.73 63.90,24.83 52.62,28.94 41.35,24.83" fill="#9be9a8"/>
<polygon points="41.35,32.83 41.35,24.83 52.62,28.94 52.62,36.94" fill="#88cd93"/>
<polygon points="52.62,36.94 52.62,28.94 63.90,24.83 63.90,32.83" fill="#72ac7c"/>
<polygon points="-65.78,33.52 -54.50,37.62 -65.78,41.73 -77.05,37.62" fill="#ebedf0"/>
<polygon points="-13.16,33.52 -1.88,37.62 -13.16,41.73 -24.43,37.62" fill="#ebedf0"/>
<polygon points="39.47,33.52 50.74,37.62 39.47,41.73 28.19,37.62" fill="#ebedf0"/>
<polygon points="92.09,33.52 103.37,37.62 92.09,41.73 80.81,37.62" fill="#ebedf0"/>
<polygon points="-39.47,25.52 -28.19,29.62 -39.47,33.73 -50.74,29.62" fill="#9be9a8"/>
<polygon points="-50.74,37.62 -50.74,29.62 -39.47,33.73 -39.47,41.73" fill="#88cd93"/>
<polygon points="-39.47,41.73 -39.47,33.73 -28.19,29.62 -28.19,37.62" fill="#72ac7c"/>
<polygon points="13.16,22.52 24.43,26.62 13.16,30.73 1.88,26.62" fill="#9be9a8"/>
<polygon points="1.88,37.62 1.88,26.62 13.16,30.73 13.16,41.73" fill="#88cd93"/>
<polygon points="13.16,41.73 13.16,30.73 24.43,26.62 24.43,37.62" fill="#72ac7c"/>
<polygon points="65.78,19.52 77.05,23.62 65.78,27.73 54.50,23.62" fill="#9be9a8"/>
<polygon points="54.50,37.62 54.50,23.62 65.78,27.73 65.78,41.73" fill="#88cd93"/>
<polygon points="65.78,41.73 65.78,27.73 77.05,23.62 77.05,37.62" fill="#72ac7c"/>
<polygon points="-52.62,38.31 -41.35,42.41 -52.62,46.51 -63.90,42.41" fill="#ebedf0"/>
<polygon points="-26.31,38.31 -15.04,42.41 -26.31,46.51 -37.59,42.41" fill="#ebedf0"/>
<polygon points="0.00,38.31 11.28,42.41 0.00,46.51 -11.28,42.41" fill="#ebedf0"/>
<polygon points="26.31,25.31 37.59,29.41 26.31,33.51 15.04,29.41" fill="#9be9a8"/>
<polygon points="15.04,42.41 15.04,29.41 26.31,33.51 26.31,46.51" fill="#88cd93"/>
<polygon points="26.31,46.51 26.31,33.51 37.59,29.41 37.59,42.41" fill="#72ac7c"/>
<polygon points="52.62,30.31 63.90,34.41 52.62,38.51 41.35,34.41" fill="#9be9a8"/>
<polygon points="41.35,42.41 41.35,34.41 52.62,38.51 52.62,46.51" fill="#88cd93"/>
<polygon points="52.62,46.51 52.62,38.51 63.90,34.41 63.90,42.41" fill="#72ac7c"/>
<polygon points="105.25,30.31 116.52,34.41 105.25,38.51 93.97,34.41" fill="#9be9a8"/>
<polygon points="93.97,42.41 93.97,34.41 105.25,38.51 105.25,46.51" fill="#88cd93"/>
<polygon points="105.25,46.51 105.25,38.51 116.52,34.41 116.52,42.41" fill="#72ac7c"/>
<polygon points="78.93,20.31 90.21,24.41 78.93,28.51 67.66,24.41" fill="#30a14e"/>
<polygon points="67.66,42.41 67.66,24.41 78.93,28.51 78.93,46.51" fill="#2a8d44"/>
<polygon points="78.93,46.51 78.93,28.51 90.21,24.41 90.21,42.41" fill="#237739"/>
<polygon points="-39.47,43.09 -28.19,47.20 -39.47,51.30 -50.74,47.20" fill="#ebedf0"/>
<polygon points="-13.16,43.09 -1.88,47.20 -13.16,51.30 -24.43,47.20" fill="#ebedf0"/>
<polygon points="13.16,43.09 24.43,47.20 13.16,51.30 1.88,47.20" fill="#ebedf0"/>
<polygon points="39.47,43.09 50.74,47.20 39.47,51.30 28.19,47.20" fill="#ebedf0"/>
<polygon points="118.40,43.09 129.68,47.20 118.40,51.30 107.12,47.20" fill="#ebedf0"/>
<polygon points="92.09,32.09 103.37,36.20 92.09,40.30 80.81,36.20" fill="#9be9a8"/>
<polygon points="80.81,47.20 80.81,36.20 92.09,40.30 92.09,51.30" fill="#88cd93"/>
<polygon points="92.09,51.30 92.09,40.30 103.37,36.20 103.37,47.20" fill="#72ac7c"/>
<polygon points="65.78,25.09 77.05,29.20 65.78,33.30 54.50,29.20" fill="#30a14e"/>
<polygon points="54.50,47.20 54.50,29.20 65.78,33.30 65.78,51.30" fill="#2a8d44"/>
<polygon points="65.78,51.30 65.78,33.30 77.05,29.20 77.05,47.20" fill="#237739"/>
<polygon points="-26.31,47.88 -15.04,51.99 -26.31,56.09 -37.59,51.99" fill="#ebedf0"/>
<polygon points="26.31,47.88 37.59,51.99 26.31,56.09 15.04,51.99" fill="#ebedf0"/>
<polygon points="78.93,47.88 90.21,51.99 78.93,56.09 67.66,51.99" fill="#ebedf0"/>
<polygon points="131.56,47.88 142.83,51.99 131.56,56.09 120.28,51.99" fill="#ebedf0"/>
<polygon points="0.00,34.88 11.28,38.99 0.00,43.09 -11.28,38.99" fill="#9be9a8"/>
<polygon points="-11.28,51.99 -11.28,38.99 0.00,43.09 0.00,56.09" fill="#88cd93"/>
<polygon points="0.00,56.09 0.00,43.09 11.28,38.99 11.28,51.99" fill="#72ac7c"/>
<polygon points="52.62,36.88 63.90,40.99 52.62,45.09 41.35,40.99" fill="#9be9a8"/>
<polygon points="41.35,51.99 41.35,40.99 52.62,45.09 52.62,56.09" fill="#88cd93"/>
<polygon points="52.62,56.09 52.62,45.09 63.90,40.99 63.90,51.99" fill="#72ac7c"/>
<polygon points="105.25,36.88 116.52,40.99 105.25,45.09 93.97,40.99" fill="#9be9a8"/>
<polygon points="93.97,51.99 93.97,40.99 105.25,45.09 105.25,56.09" fill="#88cd93"/>
<polygon points="105.25,56.09 105.25,45.09 116.52,40.99 116.52,51.99" fill="#72ac7c"/>
<polygon points="-13.16,52.67 -1.88,56.78 -13.16,60.88 -24.43,56.78" fill="#ebedf0"/>
<polygon points="13.16,52.67 24.43,56.78 13.16,60.88 1.88,56.78" fill="#ebedf0"/>
<polygon points="39.47,52.67 50.74,56.78 39.47,60.88 28.19,56.78" fill="#ebedf0"/>
<polygon points="65.78,52.67 77.05,56.78 65.78,60.88 54.50,56.78" fill="#ebedf0"/>
<polygon points="118.40,52.67 129.68,56.78 118.40,60.88 107.12,56.78" fill="#ebedf0"/>
<polygon points="144.71,52.67 155.99,56.78 144.71,60.88 133.44,56.78" fill="#ebedf0"/>
<polygon points="92.09,39.67 103.37,43.78 92.09,47.88 80.81,43.78" fill="#9be9a8"/>
<polygon points="80.81,56.78 80.81,43.78 92.09,47.88 92.09,60.88" fill="#88cd93"/>
<polygon points="92.09,60.88 92.09,47.88 103.37,43.78 103.37,56.78" fill="#72ac7c"/>
<polygon points="0.00,57.46 11.28,61.56 0.00,65.67 -11.28,61.56" fill="#ebedf0"/>
<polygon points="26.31,57.46 37.59,61.56 26.31,65.67 15.04,61.56" fill="#ebedf0"/>
<polygon points="52.62,57.46 63.90,61.56 52.62,65.67 41.35,61.56" fill="#ebedf0"/>
<polygon points="157.87,57.46 169.14,61.56 157.87,65.67 146.59,61.56" fill="#ebedf0"/>
<polygon points="105.25,46.46 116.52,50.56 105.25,54.67 93.97,50.56" fill="#9be9a8"/>
<polygon points="93.97,61.56 93.97,50.56 105.25,54.67 105.25,65.67" fill="#88cd93"/>
<polygon points="105.25,65.67 105.25,54.67 116.52,50.56 116.52,61.56" fill="#72ac7c"/>
<polygon points="131.56,49.46 142.83,53.56 131.56,57.67 120.28,53.56" fill="#9be9a8"/>
<polygon points="120.28,61.56 120.28,53.56 131.56,57.67 131.56,65.67" fill="#88cd93"/>
<polygon points="131.56,65.67 131.56,57.67 142.83,53.56 142.83,61.56" fill="#72ac7c"/>
<polygon points="78.93,40.46 90.21,44.56 78.93,48.67 67.66,44.56" fill="#40c463"/>
<polygon points="67.66,61.56 67.66,44.56 78.93,48.67 78.93,65.67" fill="#38ac57"/>
<polygon points="78.93,65.67 78.93,48.67 90.21,44.56 90.21,61.56" fill="#2f9149"/>
<polygon points="13.16,62.25 24.43,66.35 13.16,70.46 1.88,66.35" fill="#ebedf0"/>
<polygon points="39.47,62.25 50.74,66.35 39.47,70.46 28.19,66.35" fill="#ebedf0"/>
<polygon points="118.40,62.25 129.68,66.35 118.40,70.46 107.12,66.35" fill="#ebedf0"/>
<polygon points="65.78,49.25 77.05,53.35 65.78,57.46 54.50,53.35" fill="#9be9a8"/>
<polygon points="54.50,66.35 54.50,53.35 65.78,57.46 65.78,70.46" fill="#88cd93"/>
<polygon points="65.78,70.46 65.78,57.46 77.05,53.35 77.05,66.35" fill="#72ac7c"/>
<polygon points="92.09,46.25 103.37,50.35 92.09,54.46 80.81,50.35" fill="#9be9a8"/>
<polygon points="80.81,66.35 80.81,50.35 92.09,54.46 92.09,70.46" fill="#88cd93"/>
<polygon points="92.09,70.46 92.09,54.46 103.37,50.35 103.37,66.35" fill="#72ac7c"/>
<polygon points="144.71,51.25 155.99,55.35 144.71,59.46 133.44,55.35" fill="#9be9a8"/>
<polygon points="133.44,66.35 133.44,55.35 144.71,59.46 144.71,70.46" fill="#88cd93"/>
<polygon points="144.71,70.46 144.71,59.46 155.99,55.35 155.99,66.35" fill="#72ac7c"/>
<polygon points="171.02,45.25 182.30,49.35 171.02,53.46 159.75,49.35" fill="#40c463"/>
<polygon points="159.75,66.35 159.75,49.35 171.02,53.46 171.02,70.46" fill="#38ac57"/>
<polygon points="171.02,70.46 171.02,53.46 182.30,49.35 182.30,66.35" fill="#2f9149"/>
<polygon points="26.31,67.04 37.59,71.14 26.31,75.24 15.04,71.14" fill="#ebedf0"/>
<polygon points="184.18,67.04 195.46,71.14 184.18,75.24 172.90,71.14" fill="#ebedf0"/>
<polygon points="78.93,56.04 90.21,60.14 78.93,64.24 67.66,60.14" fill="#9be9a8"/>
<polygon points="67.66,71.14 67.66,60.14 78.93,64.24 78.93,75.24" fill="#88cd93"/>
<polygon points="78.93,75.24 78.93,64.24 90.21,60.14 90.21,71.14" fill="#72ac7c"/>
<polygon points="52.62,51.04 63.90,55.14 52.62,59.24 41.35,55.14" fill="#40c463"/>
<polygon points="41.35,71.14 41.35,55.14 52.62,59.24 52.62,75.24" fill="#38ac57"/>
<polygon points="52.62,75.24 52.62,59.24 63.90,55.14 63.90,71.14" fill="#2f9149"/>
<polygon points="105.25,50.04 116.52,54.14 105.25,58.24 93.97,54.14" fill="#40c463"/>
<polygon points="93.97,71.14 93.97,54.14 105.25,58.24 105.25,75.24" fill="#38ac57"/>
<polygon points="105.25,75.24 105.25,58.24 116.52,54.14 116.52,71.14" fill="#2f9149"/>
<polygon points="131.56,50.04 142.83,54.14 131.56,58.24 120.28,54.14" fill="#40c463"/>
<polygon points="120.28,71.14 120.28,54.14 131.56,58.24 131.56,75.24" fill="#38ac57"/>
<polygon points="131.56,75.24 131.56,58.24 142.83,54.14 142.83,71.14" fill="#2f9149"/>
<polygon points="157.87,50.04 169.14,54.14 157.87,58.24 146.59,54.14" fill="#40c463"/>
<polygon points="146.59,71.14 146.59,54.14 157.87,58.24 157.87,75.24" fill="#38ac57"/>
<polygon points="157.87,75.24 157.87,58.24 169.14,54.14 169.14,71.14" fill="#2f9149"/>
<polygon points="39.47,71.82 50.74,75.93 39.47,80.03 28.19,75.93" fill="#ebedf0"/>
<polygon points="65.78,71.82 77.05,75.93 65.78,80.03 54.50,75.93" fill="#ebedf0"/>
<polygon points="171.02,71.82 182.30,75.93 171.02,80.03 159.75,75.93" fill="#ebedf0"/>
<polygon points="197.34,71.82 208.61,75.93 197.34,80.03 186.06,75.93" fill="#ebedf0"/>
<polygon points="92.09,58.82 103.37,62.93 92.09,67.03 80.81,62.93" fill="#9be9a8"/>
<polygon points="80.81,75.93 80.81,62.93 92.09,67.03 92.09,80.03" fill="#88cd93"/>
<polygon points="92.09,80.03 92.09,67.03 103.37,62.93 103.37,75.93" fill="#72ac7c"/>
<polygon points="118.40,53.82 129.68,57.93 118.40,62.03 107.12,57.93" fill="#40c463"/>
<polygon points="107.12,75.93 107.12,57.93 118.40,62.03 118.40,80.03" fill="#38ac57"/>
<polygon points="118.40,80.03 118.40,62.03 129.68,57.93 129.68,75.93" fill="#2f9149"/>
<polygon points="144.71,55.82 155.99,59.93 144.71,64.03 133.44,59.93" fill="#40c463"/>
<polygon points="133.44,75.93 133.44,59.93 144.71,64.03 144.71,80.03" fill="#38ac57"/>
<polygon points="144.71,80.03 144.71,64.03 155.99,59.93 155.99,75.93" fill="#2f9149"/>
<polygon points="52.62,76.61 63.90,80.72 52.62,84.82 41.35,80.72" fill="#ebedf0"/>
<polygon points="184.18,76.61 195.46,80.72 184.18,84.82 172.90,80.72" fill="#ebedf0"/>
<polygon points="210.49,76.61 221.77,80.72 210.49,84.82 199.21,80.72" fill="#ebedf0"/>
<polygon points="78.93,63.61 90.21,67.72 78.93,71.82 67.66,67.72" fill="#9be9a8"/>
<polygon points="67.66,80.72 67.66,67.72 78.93,71.82 78.93,84.82" fill="#88cd93"/>
<polygon points="78.93,84.82 78.93,71.82 90.21,67.72 90.21,80.72" fill="#72ac7c"/>
<polygon points="105.25,60.61 116.52,64.72 105.25,68.82 93.97,64.72" fill="#9be9a8"/>
<polygon points="93.97,80.72 93.97,64.72 105.25,68.82 105.25,84.82" fill="#88cd93"/>
<polygon points="105.25,84.82 105.25,68.82 116.52,64.72 116.52,80.72" fill="#72ac7c"/>
<polygon points="131.56,68.61 142.83,72.72 131.56,76.82 120.28,72.72" fill="#9be9a8"/>
<polygon points="120.28,80.72 120.28,72.72 131.56,76.82 131.56,84.82" fill="#88cd93"/>
<polygon points="131.56,84.82 131.56,76.82 142.83,72.72 142.83,80.72" fill="#72ac7c"/>
<polygon points="157.87,61.61 169.14,65.72 157.87,69.82 146.59,65.72" fill="#9be9a8"/>
<polygon points="146.59,80.72 146.59,65.72 157.87,69.82 157.87,84.82" fill="#88cd93"/>
<polygon points="157.87,84.82 157.87,69.82 169.14,65.72 169.14,80.72" fill="#72ac7c"/>
<polygon points="65.78,81.40 77.05,85.51 65.78,89.61 54.50,85.51" fill="#ebedf0"/>
<polygon points="144.71,81.40 155.99,85.51 144.71,89.61 133.44,85.51" fill="#ebedf0"/>
<polygon points="171.02,81.40 182.30,85.51 171.02,89.61 159.75,85.51" fill="#ebedf0"/>
<polygon points="197.34,81.40 208.61,85.51 197.34,89.61 186.06,85.51" fill="#ebedf0"/>
<polygon points="223.65,81.40 234.92,85.51 223.65,89.61 212.37,85.51" fill="#ebedf0"/>
<polygon points="92.09,66.40 103.37,70.51 92.09,74.61 80.81,70.51" fill="#9be9a8"/>
<polygon points="80.81,85.51 80.81,70.51 92.09,74.61 92.09,89.61" fill="#88cd93"/>
<polygon points="92.09,89.61 92.09,74.61 103.37,70.51 103.37,85.51" fill="#72ac7c"/>
<polygon points="118.40,67.40 129.68,71.51 118.40,75.61 107.12,71.51" fill="#9be9a8"/>
<polygon points="107.12,85.51 107.12,71.51 118.40,75.61 118.40,89.61" fill="#88cd93"/>
<polygon points="118.40,89.61 118.40,75.61 129.68,71.51 129.68,85.51" fill="#72ac7c"/>
<polygon points="131.56,86.19 142.83,90.29 131.56,94.40 120.28,90.29" fill="#ebedf0"/>
<polygon points="157.87,86.19 169.14,90.29 157.87,94.40 146.59,90.29" fill="#ebedf0"/>
<polygon points="184.18,86.19 195.46,90.29 184.18,94.40 172.90,90.29" fill="#ebedf0"/>
<polygon points="210.49,86.19 221.77,90.29 210.49,94.40 199.21,90.29" fill="#ebedf0"/>
<polygon points="236.80,86.19 248.08,90.29 236.80,94.40 225.53,90.29" fill="#ebedf0"/>
<polygon points="78.93,75.19 90.21,79.29 78.93,83.40 67.66,79.29" fill="#9be9a8"/>
<polygon points="67.66,90.29 67.66,79.29 78.93,83.40 78.93,94.40" fill="#88cd93"/>
<polygon points="78.93,94.40 78.93,83.40 90.21,79.29 90.21,90.29" fill="#72ac7c"/>
<polygon points="105.25,78.19 116.52,82.29 105.25,86.40 93.97,82.29" fill="#9be9a8"/>
<polygon points="93.97,90.29 93.97,82.29 105.25,86.40 105.25,94.40" fill="#88cd93"/>
<polygon points="105.25,94.40 105.25,86.40 116.52,82.29 116.52,90.29" fill="#72ac7c"/>
<polygon points="92.09,90.98 103.37,95.08 92.09,99.19 80.81,95.08" fill="#ebedf0"/>
<polygon points="118.40,90.98 129.68,95.08 118.40,99.19 107.12,95.08" fill="#ebedf0"/>
<polygon points="223.65,90.98 234.92,95.08 223.65,99.19 212.37,95.08" fill="#ebedf0"/>
<polygon points="249.96,90.98 261.23,95.08 249.96,99.19 238.68,95.08" fill="#ebedf0"/>
<polygon points="144.71,82.98 155.99,87.08 144.71,91.19 133.44,87.08" fill="#9be9a8"/>
<polygon points="133.44,95.08 133.44,87.08 144.71,91.19 144.71,99.19" fill="#88cd93"/>
<polygon points="144.71,99.19 144.71,91.19 155.99,87.08 155.99,95.08" fill="#72ac7c"/>
<polygon points="171.02,79.98 182.30,84.08 171.02,88.19 159.75,84.08" fill="#9be9a8"/>
<polygon points="159.75,95.08 159.75,84.08 171.02,88.19 171.02,99.19" fill="#88cd93"/>
<polygon points="171.02,99.19 171.02,88.19 182.30,84.08 182.30,95.08" fill="#72ac7c"/>
<polygon points="197.34,72.98 208.61,77.08 197.34,81.19 186.06,77.08" fill="#216e39"/>
<polygon points="186.06,95.08 186.06,77.08 197.34,81.19 197.34,99.19" fill="#1d6032"/>
<polygon points="197.34,99.19 197.34,81.19 208.61,77.08 208.61,95.08" fill="#18512a"/>
<polygon points="105.25,95.77 116.52,99.87 105.25,103.97 93.97,99.87" fill="#ebedf0"/>
<polygon points="131.56,95.77 142.83,99.87 131.56,103.97 120.28,99.87" fill="#ebedf0"/>
<polygon points="184.18,95.77 195.46,99.87 184.18,103.97 172.90,99.87" fill="#ebedf0"/>
<polygon points="263.11,95.77 274.39,99.87 263.11,103.97 251.84,99.87" fill="#ebedf0"/>
<polygon points="157.87,87.77 169.14,91.87 157.87,95.97 146.59,91.87" fill="#9be9a8"/>
<polygon points="146.59,99.87 146.59,91.87 157.87,95.97 157.87,103.97" fill="#88cd93"/>
<polygon points="157.87,103.97 157.87,95.97 169.14,91.87 169.14,99.87" fill="#72ac7c"/>
<polygon points="210.49,84.77 221.77,88.87 210.49,92.97 199.21,88.87" fill="#9be9a8"/>
<polygon points="199.21,99.87 199.21,88.87 210.49,92.97 210.49,103.97" fill="#88cd93"/>
<polygon points="210.49,103.97 210.49,92.97 221.77,88.87 221.77,99.87" fill="#72ac7c"/>
<polygon points="236.80,87.77 248.08,91.87 236.80,95.97 225.53,91.87" fill="#9be9a8"/>
<polygon points="225.53,99.87 225.53,91.87 236.80,95.97 236.80,103.97" fill="#88cd93"/>
<polygon points="236.80,103.97 236.80,95.97 248.08,91.87 248.08,99.87" fill="#72ac7c"/>
<polygon points="118.40,100.55 129.68,104.66 118.40,108.76 107.12,104.66" fill="#ebedf0"/>
<polygon points="171.02,100.55 182.30,104.66 171.02,108.76 159.75,104.66" fill="#ebedf0"/>
<polygon points="249.96,100.55 261.23,104.66 249.96,108.76 238.68,104.66" fill="#ebedf0"/>
<polygon points="276.27,100.55 287.55,104.66 276.27,108.76 264.99,104.66" fill="#ebedf0"/>
<polygon points="197.34,92.55 208.61,96.66 197.34,100.76 186.06,96.66" fill="#9be9a8"/>
<polygon points="186.06,104.66 186.06,96.66 197.34,100.76 197.34,108.76" fill="#88cd93"/>
<polygon points="197.34,108.76 197.34,100.76 208.61,96.66 208.61,104.66" fill="#72ac7c"/>
<polygon points="223.65,89.55 234.92,93.66 223.65,97.76 212.37,93.66" fill="#9be9a8"/>
<polygon points="212.37,104.66 212.37,93.66 223.65,97.76 223.65,108.76" fill="#88cd93"/>
<polygon points="223.65,108.76 223.65,97.76 234.92,93.66 234.92,104.66" fill="#72ac7c"/>
<polygon points="144.71,83.55 155.99,87.66 144.71,91.76 133.44,87.66" fill="#40c463"/>
<polygon points="133.44,104.66 133.44,87.66 144.71,91.76 144.71,108.76" fill="#38ac57"/>
<polygon points="144.71,108.76 144.71,91.76 155.99,87.66 155.99,104.66" fill="#2f9149"/>
<polygon points="131.56,105.34 142.83,109.45 131.56,113.55 120.28,109.45" fill="#ebedf0"/>
<polygon points="184.18,105.34 195.46,109.45 184.18,113.55 172.90,109.45" fill="#ebedf0"/>
<polygon points="210.49,105.34 221.77,109.45 210.49,113.55 199.21,109.45" fill="#ebedf0"/>
<polygon points="236.80,105.34 248.08,109.45 236.80,113.55 225.53,109.45" fill="#ebedf0"/>
<polygon points="263.11,105.34 274.39,109.45 263.11,113.55 251.84,109.45" fill="#ebedf0"/>
<polygon points="289.43,105.34 300.70,109.45 289.43,113.55 278.15,109.45" fill="#ebedf0"/>
<polygon points="157.87,97.34 169.14,101.45 157.87,105.55 146.59,101.45" fill="#9be9a8"/>
<polygon points="146.59,109.45 146.59,101.45 157.87,105.55 157.87,113.55" fill="#88cd93"/>
<polygon points="157.87,113.55 157.87,105.55 169.14,101.45 169.14,109.45" fill="#72ac7c"/>
<polygon points="144.71,110.13 155.99,114.23 144.71,118.34 133.44,114.23" fill="#ebedf0"/>
<polygon points="171.02,110.13 182.30,114.23 171.02,118.34 159.75,114.23" fill="#ebedf0"/>
<polygon points="197.34,110.13 208.61,114.23 197.34,118.34 186.06,114.23" fill="#ebedf0"/>
<polygon points="223.65,110.13 234.92,114.23 223.65,118.34 212.37,114.23" fill="#ebedf0"/>
<polygon points="249.96,110.13 261.23,114.23 249.96,118.34 238.68,114.23" fill="#ebedf0"/>
<polygon points="302.58,110.13 313.86,114.23 302.58,118.34 291.30,114.23" fill="#ebedf0"/>
<polygon points="276.27,95.13 287.55,99.23 276.27,103.34 264.99,99.23" fill="#9be9a8"/>
<polygon points="264.99,114.23 264.99,99.23 276.27,103.34 276.27,118.34" fill="#88cd93"/>
<polygon points="276.27,118.34 276.27,103.34 287.55,99.23 287.55,114.23" fill="#72ac7c"/>
<polygon points="157.87,114.92 169.14,119.02 157.87,123.13 146.59,119.02" fill="#ebedf0"/>
<polygon points="184.18,114.92 195.46,119.02 184.18,123.13 172.90,119.02" fill="#ebedf0"/>
<polygon points="210.49,114.92 221.77,119.02 210.49,123.13 199.21,119.02" fill="#ebedf0"/>
<polygon points="236.80,114.92 248.08,119.02 236.80,123.13 225.53,119.02" fill="#ebedf0"/>
<polygon points="315.74,114.92 327.01,119.02 315.74,123.13 304.46,119.02" fill="#ebedf0"/>
<polygon points="263.11,106.92 274.39,111.02 263.11,115.13 251.84,111.02" fill="#9be9a8"/>
<polygon points="251.84,119.02 251.84,111.02 263.11,115.13 263.11,123.13" fill="#88cd93"/>
<polygon points="263.11,123.13 263.11,115.13 274.39,111.02 274.39,119.02" fill="#72ac7c"/>
<polygon points="289.43,106.92 300.70,111.02 289.43,115.13 278.15,111.02" fill="#9be9a8"/>
<polygon points="278.15,119.02 278.15,111.02 289.43,115.13 289.43,123.13" fill="#88cd93"/>
<polygon points="289.43,123.13 289.43,115.13 300.70,111.02 300.70,119.02" fill="#72ac7c"/>
<polygon points="171.02,119.71 182.30,123.81 171.02,127.92 159.75,123.81" fill="#ebedf0"/>
<polygon points="197.34,119.71 208.61,123.81 197.34,127.92 186.06,123.81" fill="#ebedf0"/>
<polygon points="223.65,119.71 234.92,123.81 223.65,127.92 212.37,123.81" fill="#ebedf0"/>
<polygon points="328.89,119.71 340.17,123.81 328.89,127.92 317.62,123.81" fill="#ebedf0"/>
<polygon points="302.58,105.71 313.86,109.81 302.58,113.92 291.30,109.81" fill="#9be9a8"/>
<polygon points="291.30,123.81 291.30,109.81 302.58,113.92 302.58,127.92" fill="#88cd93"/>
<polygon points="302.58,127.92 302.58,113.92 313.86,109.81 313.86,123.81" fill="#72ac7c"/>
<polygon points="249.96,103.71 261.23,107.81 249.96,111.92 238.68,107.81" fill="#40c463"/>
<polygon points="238.68,123.81 238.68,107.81 249.96,111.92 249.96,127.92" fill="#38ac57"/>
<polygon points="249.96,127.92 249.96,111.92 261.23,107.81 261.23,123.81" fill="#2f9149"/>
<polygon points="276.27,101.71 287.55,105.81 276.27,109.92 264.99,105.81" fill="#40c463"/>
<polygon points="264.99,123.81 264.99,105.81 276.27,109.92 276.27,127.92" fill="#38ac57"/>
<polygon points="276.27,127.92 276.27,109.92 287.55,105.81 287.55,123.81" fill="#2f9149"/>
<polygon points="184.18,124.50 195.46,128.60 184.18,132.70 172.90,128.60" fill="#ebedf0"/>
<polygon points="342.05,124.50 353.32,128.60 342.05,132.70 330.77,128.60" fill="#ebedf0"/>
<polygon points="210.49,116.50 221.77,120.60 210.49,124.70 199.21,120.60" fill="#9be9a8"/>
<polygon points="199.21,128.60 199.21,120.60 210.49,124.70 210.49,132.70" fill="#88cd93"/>
<polygon points="210.49,132.70 210.49,124.70 221.77,120.60 221.77,128.60" fill="#72ac7c"/>
<polygon points="236.80,108.50 248.08,112.60 236.80,116.70 225.53,112.60" fill="#9be9a8"/>
<polygon points="225.53,128.60 225.53,112.60 236.80,116.70 236.80,132.70" fill="#88cd93"/>
<polygon points="236.80,132.70 236.80,116.70 248.08,112.60 248.08,128.60" fill="#72ac7c"/>
<polygon points="289.43,116.50 300.70,120.60 289.43,124.70 278.15,120.60" fill="#9be9a8"/>
<polygon points="278.15,128.60 278.15,120.60 289.43,124.70 289.43,132.70" fill="#88cd93"/>
<polygon points="289.43,132.70 289.43,124.70 300.70,120.60 300.70,128.60" fill="#72ac7c"/>
<polygon points="315.74,106.50 327.01,110.60 315.74,114.70 304.46,110.60" fill="#40c463"/>
<polygon points="304.46,128.60 304.46,110.60 315.74,114.70 315.74,132.70" fill="#38ac57"/>
<polygon points="315.74,132.70 315.74,114.70 327.01,110.60 327.01,128.60" fill="#2f9149"/>
<polygon points="263.11,106.50 274.39,110.60 263.11,114.70 251.84,110.60" fill="#30a14e"/>
<polygon points="251.84,128.60 251.84,110.60 263.11,114.70 263.11,132.70" fill="#2a8d44"/>
<polygon points="263.11,132.70 263.11,114.70 274.39,110.60 274.39,128.60" fill="#237739"/>
<polygon points="355.20,129.28 366.48,133.39 355.20,137.49 343.93,133.39" fill="#ebedf0"/>
<polygon points="197.34,121.28 208.61,125.39 197.34,129.49 186.06,125.39" fill="#9be9a8"/>
<polygon points="186.06,133.39 186.06,125.39 197.34,129.49 197.34,137.49" fill="#88cd93"/>
<polygon points="197.34,137.49 197.34,129.49 208.61,125.39 208.61,133.39" fill="#72ac7c"/>
<polygon points="249.96,116.28 261.23,120.39 249.96,124.49 238.68,120.39" fill="#9be9a8"/>
<polygon points="238.68,133.39 238.68,120.39 249.96,124.49 249.96,137.49" fill="#88cd93"/>
<polygon points="249.96,137.49 249.96,124.49 261.23,120.39 261.23,133.39" fill="#72ac7c"/>
<polygon points="276.27,115.28 287.55,119.39 276.27,123.49 264.99,119.39" fill="#9be9a8"/>
<polygon points="264.99,133.39 264.99,119.39 276.27,123.49 276.27,137.49" fill="#88cd93"/>
<polygon points="276.27,137.49 276.27,123.49 287.55,119.39 287.55,133.39" fill="#72ac7c"/>
<polygon points="302.58,114.28 313.86,118.39 302.58,122.49 291.30,118.39" fill="#9be9a8"/>
<polygon points="291.30,133.39 291.30,118.39 302.58,122.49 302.58,137.49" fill="#88cd93"/>
<polygon points="302.58,137.49 302.58,122.49 313.86,118.39 313.86,133.39" fill="#72ac7c"/>
<polygon points="328.89,118.28 340.17,122.39 328.89,126.49 317.62,122.39" fill="#9be9a8"/>
<polygon points="317.62,133.39 317.62,122.39 328.89,126.49 328.89,137.49" fill="#88cd93"/>
<polygon points="328.89,137.49 328.89,126.49 340.17,122.39 340.17,133.39" fill="#72ac7c"/>
<polygon points="223.65,113.28 234.92,117.39 223.65,121.49 212.37,117.39" fill="#40c463"/>
<polygon points="212.37,133.39 212.37,117.39 223.65,121.49 223.65,137.49" fill="#38ac57"/>
<polygon points="223.65,137.49 223.65,121.49 234.92,117.39 234.92,133.39" fill="#2f9149"/>
<polygon points="210.49,126.07 221.77,130.18 210.49,134.28 199.21,130.18" fill="#9be9a8"/>
<polygon points="199.21,138.18 199.21,130.18 210.49,134.28 210.49,142.28" fill="#88cd93"/>
<polygon points="210.49,142.28 210.49,134.28 221.77,130.18 221.77,138.18" fill="#72ac7c"/>
<polygon points="236.80,123.07 248.08,127.18 236.80,131.28 225.53,127.18" fill="#9be9a8"/>
<polygon points="225.53,138.18 225.53,127.18 236.80,131.28 236.80,142.28" fill="#88cd93"/>
<polygon points="236.80,142.28 236.80,131.28 248.08,127.18 248.08,138.18" fill="#72ac7c"/>
<polygon points="315.74,121.07 327.01,125.18 315.74,129.28 304.46,125.18" fill="#9be9a8"/>
<polygon points="304.46,138.18 304.46,125.18 315.74,129.28 315.74,142.28" fill="#88cd93"/>
<polygon points="315.74,142.28 315.74,129.28 327.01,125.18 327.01,138.18" fill="#72ac7c"/>
<polygon points="342.05,123.07 353.32,127.18 342.05,131.28 330.77,127.18" fill="#9be9a8"/>
<polygon points="330.77,138.18 330.77,127.18 342.05,131.28 342.05,142.28" fill="#88cd93"/>
<polygon points="342.05,142.28 342.05,131.28 353.32,127.18 353.32,138.18" fill="#72ac7c"/>
<polygon points="368.36,121.07 379.64,125.18 368.36,129.28 357.08,125.18" fill="#9be9a8"/>
<polygon points="357.08,138.18 357.08,125.18 368.36,129.28 368.36,142.28" fill="#88cd93"/>
<polygon points="368.36,142.28 368.36,129.28 379.64,125.18 379.64,138.18" fill="#72ac7c"/>
<polygon points="263.11,117.07 274.39,121.18 263.11,125.28 251.84,121.18" fill="#40c463"/>
<polygon points="251.84,138.18 251.84,121.18 263.11,125.28 263.11,142.28" fill="#38ac57"/>
<polygon points="263.11,142.28 263.11,125.28 274.39,121.18 274.39,138.18" fill="#2f9149"/>
<polygon points="289.43,117.07 300.70,121.18 289.43,125.28 278.15,121.18" fill="#40c463"/>
<polygon points="278.15,138.18 278.15,121.18 289.43,125.28 289.43,142.28" fill="#38ac57"/>
<polygon points="289.43,142.28 289.43,125.28 300.70,121.18 300.70,138.18" fill="#2f9149"/>
<polygon points="223.65,138.86 234.92,142.96 223.65,147.07 212.37,142.96" fill="#ebedf0"/>
<polygon points="249.96,138.86 261.23,142.96 249.96,147.07 238.68,142.96" fill="#ebedf0"/>
<polygon points="381.52,138.86 392.79,142.96 381.52,147.07 370.24,142.96" fill="#ebedf0"/>
<polygon points="302.58,130.86 313.86,134.96 302.58,139.07 291.30,134.96" fill="#9be9a8"/>
<polygon points="291.30,142.96 291.30,134.96 302.58,139.07 302.58,147.07" fill="#88cd93"/>
<polygon points="302.58,147.07 302.58,139.07 313.86,134.96 313.86,142.96" fill="#72ac7c"/>
<polygon points="328.89,125.86 340.17,129.96 328.89,134.07 317.62,129.96" fill="#9be9a8"/>
<polygon points="317.62,142.96 317.62,129.96 328.89,134.07 328.89,147.07" fill="#88cd93"/>
<polygon points="328.89,147.07 328.89,134.07 340.17,129.96 340.17,142.96" fill="#72ac7c"/>
<polygon points="355.20,123.86 366.48,127.96 355.20,132.07 343.93,127.96" fill="#9be9a8"/>
<polygon points="343.93,142.96 343.93,127.96 355.20,132.07 355.20,147.07" fill="#88cd93"/>
<polygon points="355.20,147.07 355.20,132.07 366.48,127.96 366.48,142.96" fill="#72ac7c"/>
<polygon points="276.27,120.86 287.55,124.96 276.27,129.07 264.99,124.96" fill="#30a14e"/>
<polygon points="264.99,142.96 264.99,124.96 276.27,129.07 276.27,147.07" fill="#2a8d44"/>
<polygon points="276.27,147.07 276.27,129.07 287.55,124.96 287.55,142.96" fill="#237739"/>
<polygon points="236.80,143.65 248.08,147.75 236.80,151.86 225.53,147.75" fill="#ebedf0"/>
<polygon points="394.67,143.65 405.95,147.75 394.67,151.86 383.39,147.75" fill="#ebedf0"/>
<polygon points="263.11,128.65 274.39,132.75 263.11,136.86 251.84,132.75" fill="#9be9a8"/>
<polygon points="251.84,147.75 251.84,132.75 263.11,136.86 263.11,151.86" fill="#88cd93"/>
<polygon points="263.11,151.86 263.11,136.86 274.39,132.75 274.39,147.75" fill="#72ac7c"/>
<polygon points="289.43,127.65 300.70,131.75 289.43,135.86 278.15,131.75" fill="#9be9a8"/>
<polygon points="278.15,147.75 278.15,131.75 289.43,135.86 289.43,151.86" fill="#88cd93"/>
<polygon points="289.43,151.86 289.43,135.86 300.70,131.75 300.70,147.75" fill="#72ac7c"/>
<polygon points="315.74,130.65 327.01,134.75 315.74,138.86 304.46,134.75" fill="#9be9a8"/>
<polygon points="304.46,147.75 304.46,134.75 315.74,138.86 315.74,151.86" fill="#88cd93"/>
<polygon points="315.74,151.86 315.74,138.86 327.01,134.75 327.01,147.75" fill="#72ac7c"/>
<polygon points="368.36,132.65 379.64,136.75 368.36,140.86 357.08,136.75" fill="#9be9a8"/>
<polygon points="357.08,147.75 357.08,136.75 368.36,140.86 368.36,151.86" fill="#88cd93"/>
<polygon points="368.36,151.86 368.36,140.86 379.64,136.75 379.64,147.75" fill="#72ac7c"/>
<polygon points="342.05,125.65 353.32,129.75 342.05,133.86 330.77,129.75" fill="#40c463"/>
<polygon points="330.77,147.75 330.77,129.75 342.05,133.86 342.05,151.86" fill="#38ac57"/>
<polygon points="342.05,151.86 342.05,133.86 353.32,129.75 353.32,147.75" fill="#2f9149"/>
<polygon points="249.96,148.44 261.23,152.54 249.96,156.65 238.68,152.54" fill="#ebedf0"/>
<polygon points="276.27,148.44 287.55,152.54 276.27,156.65 264.99,152.54" fill="#ebedf0"/>
<polygon points="407.83,148.44 419.10,152.54 407.83,156.65 396.55,152.54" fill="#ebedf0"/>
<polygon points="328.89,132.44 340.17,136.54 328.89,140.65 317.62,136.54" fill="#9be9a8"/>
<polygon points="317.62,152.54 317.62,136.54 328.89,140.65 328.89,156.65" fill="#88cd93"/>
<polygon points="328.89,156.65 328.89,140.65 340.17,136.54 340.17,152.54" fill="#72ac7c"/>
<polygon points="302.58,130.44 313.86,134.54 302.58,138.65 291.30,134.54" fill="#40c463"/>
<polygon points="291.30,152.54 291.30,134.54 302.58,138.65 302.58,156.65" fill="#38ac57"/>
<polygon points="302.58,156.65 302.58,138.65 313.86,134.54 313.86,152.54" fill="#2f9149"/>
<polygon points="355.20,130.44 366.48,134.54 355.20,138.65 343.93,134.54" fill="#40c463"/>
<polygon points="343.93,152.54 343.93,134.54 355.20,138.65 355.20,156.65" fill="#38ac57"/>
<polygon points="355.20,156.65 355.20,138.65 366.48,134.54 366.48,152.54" fill="#2f9149"/>
<polygon points="381.52,130.44 392.79,134.54 381.52,138.65 370.24,134.54" fill="#30a14e"/>
<polygon points="370.24,152.54 370.24,134.54 381.52,138.65 381.52,156.65" fill="#2a8d44"/>
<polygon points="381.52,156.65 381.52,138.65 392.79,134.54 392.79,152.54" fill="#237739"/>
<polygon points="263.11,153.23 274.39,157.33 263.11,161.43 251.84,157.33" fill="#ebedf0"/>
<polygon points="289.43,142.23 300.70,146.33 289.43,150.43 278.15,146.33" fill="#9be9a8"/>
<polygon points="278.15,157.33 278.15,146.33 289.43,150.43 289.43,161.43" fill="#88cd93"/>
<polygon points="289.43,161.43 289.43,150.43 300.70,146.33 300.70,157.33" fill="#72ac7c"/>
<polygon points="315.74,145.23 327.01,149.33 315.74,153.43 304.46,149.33" fill="#9be9a8"/>
<polygon points="304.46,157.33 304.46,149.33 315.74,153.43 315.74,161.43" fill="#88cd93"/>
<polygon points="315.74,161.43 315.74,153.43 327.01,149.33 327.01,157.33" fill="#72ac7c"/>
<polygon points="342.05,138.23 353.32,142.33 342.05,146.43 330.77,142.33" fill="#9be9a8"/>
<polygon points="330.77,157.33 330.77,142.33 342.05,146.43 342.05,161.43" fill="#88cd93"/>
<polygon points="342.05,161.43 342.05,146.43 353.32,142.33 353.32,157.33" fill="#72ac7c"/>
<polygon points="394.67,142.23 405.95,146.33 394.67,150.43 383.39,146.33" fill="#9be9a8"/>
<polygon points="383.39,157.33 383.39,146.33 394.67,150.43 394.67,161.43" fill="#88cd93"/>
<polygon points="394.67,161.43 394.67,150.43 405.95,146.33 405.95,157.33" fill="#72ac7c"/>
<polygon points="420.98,145.23 432.26,149.33 420.98,153.43 409.71,149.33" fill="#9be9a8"/>
<polygon points="409.71,157.33 409.71,149.33 420.98,153.43 420.98,161.43" fill="#88cd93"/>
<polygon points="420.98,161.43 420.98,153.43 432.26,149.33 432.26,157.33" fill="#72ac7c"/>
<polygon points="368.36,137.23 379.64,141.33 368.36,145.43 357.08,141.33" fill="#40c463"/>
<polygon points="357.08,157.33 357.08,141.33 368.36,145.43 368.36,161.43" fill="#38ac57"/>
<polygon points="368.36,161.43 368.36,145.43 379.64,141.33 379.64,157.33" fill="#2f9149"/>
<polygon points="434.14,158.01 445.41,162.12 434.14,166.22 422.86,162.12" fill="#ebedf0"/>
<polygon points="276.27,150.01 287.55,154.12 276.27,158.22 264.99,154.12" fill="#9be9a8"/>
<polygon points="264.99,162.12 264.99,154.12 276.27,158.22 276.27,166.22" fill="#88cd93"/>
<polygon points="276.27,166.22 276.27,158.22 287.55,154.12 287.55,162.12" fill="#72ac7c"/>
<polygon points="302.58,144.01 313.86,148.12 302.58,152.22 291.30,148.12" fill="#9be9a8"/>
<polygon points="291.30,162.12 291.30,148.12 302.58,152.22 302.58,166.22" fill="#88cd93"/>
<polygon points="302.58,166.22 302.58,152.22 313.86,148.12 313.86,162.12" fill="#72ac7c"/>
<polygon points="355.20,147.01 366.48,151.12 355.20,155.22 343.93,151.12" fill="#9be9a8"/>
<polygon points="343.93,162.12 343.93,151.12 355.20,155.22 355.20,166.22" fill="#88cd93"/>
<polygon points="355.20,166.22 355.20,155.22 366.48,151.12 366.48,162.12" fill="#72ac7c"/>
<polygon points="381.52,145.01 392.79,149.12 381.52,153.22 370.24,149.12" fill="#9be9a8"/>
<polygon points="370.24,162.12 370.24,149.12 381.52,153.22 381.52,166.22" fill="#88cd93"/>
<polygon points="381.52,166.22 381.52,153.22 392.79,149.12 392.79,162.12" fill="#72ac7c"/>
<polygon points="407.83,145.01 419.10,149.12 407.83,153.22 396.55,149.12" fill="#9be9a8"/>
<polygon points="396.55,162.12 396.55,149.12 407.83,153.22 407.83,166.22" fill="#88cd93"/>
<polygon points="407.83,166.22 407.83,153.22 419.10,149.12 419.10,162.12" fill="#72ac7c"/>
<polygon points="328.89,140.01 340.17,144.12 328.89,148.22 317.62,144.12" fill="#30a14e"/>
<polygon points="317.62,162.12 317.62,144.12 328.89,148.22 328.89,166.22" fill="#2a8d44"/>
<polygon points="328.89,166.22 328.89,148.22 340.17,144.12 340.17,162.12" fill="#237739"/>
<polygon points="289.43,162.80 300.70,166.91 289.43,171.01 278.15,166.91" fill="#ebedf0"/>
<polygon points="394.67,162.80 405.95,166.91 394.67,171.01 383.39,166.91" fill="#ebedf0"/>
<polygon points="420.98,162.80 432.26,166.91 420.98,171.01 409.71,166.91" fill="#ebedf0"/>
<polygon points="447.29,162.80 458.57,166.91 447.29,171.01 436.02,166.91" fill="#ebedf0"/>
<polygon points="315.74,146.80 327.01,150.91 315.74,155.01 304.46,150.91" fill="#9be9a8"/>
<polygon points="304.46,166.91 304.46,150.91 315.74,155.01 315.74,171.01" fill="#88cd93"/>
<polygon points="315.74,171.01 315.74,155.01 327.01,150.91 327.01,166.91" fill="#72ac7c"/>
<polygon points="342.05,151.80 353.32,155.91 342.05,160.01 330.77,155.91" fill="#9be9a8"/>
<polygon points="330.77,166.91 330.77,155.91 342.05,160.01 342.05,171.01" fill="#88cd93"/>
<polygon points="342.05,171.01 342.05,160.01 353.32,155.91 353.32,166.91" fill="#72ac7c"/>
<polygon points="368.36,147.80 379.64,151.91 368.36,156.01 357.08,151.91" fill="#9be9a8"/>
<polygon points="357.08,166.91 357.08,151.91 368.36,156.01 368.36,171.01" fill="#88cd93"/>
<polygon points="368.36,171.01 368.36,156.01 379.64,151.91 379.64,166.91" fill="#72ac7c"/>
<polygon points="302.58,167.59 313.86,171.69 302.58,175.80 291.30,171.69" fill="#ebedf0"/>
<polygon points="328.89,153.59 340.17,157.69 328.89,161.80 317.62,157.69" fill="#9be9a8"/>
<polygon points="317.62,171.69 317.62,157.69 328.89,161.80 328.89,175.80" fill="#88cd93"/>
<polygon points="328.89,175.80 328.89,161.80 340.17,157.69 340.17,171.69" fill="#72ac7c"/>
<polygon points="355.20,156.59 366.48,160.69 355.20,164.80 343.93,160.69" fill="#9be9a8"/>
<polygon points="343.93,171.69 343.93,160.69 355.20,164.80 355.20,175.80" fill="#88cd93"/>
<polygon points="355.20,175.80 355.20,164.80 366.48,160.69 366.48,171.69" fill="#72ac7c"/>
<polygon points="381.52,159.59 392.79,163.69 381.52,167.80 370.24,163.69" fill="#9be9a8"/>
<polygon points="370.24,171.69 370.24,163.69 381.52,167.80 381.52,175.80" fill="#88cd93"/>
<polygon points="381.52,175.80 381.52,167.80 392.79,163.69 392.79,171.69" fill="#72ac7c"/>
<polygon points="407.83,154.59 419.10,158.69 407.83,162.80 396.55,158.69" fill="#9be9a8"/>
<polygon points="396.55,171.69 396.55,158.69 407.83,162.80 407.83,175.80" fill="#88cd93"/>
<polygon points="407.83,175.80 407.83,162.80 419.10,158.69 419.10,171.69" fill="#72ac7c"/>
<polygon points="434.14,153.59 445.41,157.69 434.14,161.80 422.86,157.69" fill="#9be9a8"/>
<polygon points="422.86,171.69 422.86,157.69 434.14,161.80 434.14,175.80" fill="#88cd93"/>
<polygon points="434.14,175.80 434.14,161.80 445.41,157.69 445.41,171.69" fill="#72ac7c"/>
<polygon points="460.45,159.59 471.73,163.69 460.45,167.80 449.17,163.69" fill="#9be9a8"/>
<polygon points="449.17,171.69 449.17,163.69 460.45,167.80 460.45,175.80" fill="#88cd93"/>
<polygon points="460.45,175.80 460.45,167.80 471.73,163.69 471.73,171.69" fill="#72ac7c"/>
<polygon points="315.74,172.38 327.01,176.48 315.74,180.59 304.46,176.48" fill="#ebedf0"/>
<polygon points="342.05,172.38 353.32,176.48 342.05,180.59 330.77,176.48" fill="#ebedf0"/>
<polygon points="368.36,172.38 379.64,176.48 368.36,180.59 357.08,176.48" fill="#ebedf0"/>
<polygon points="420.98,172.38 432.26,176.48 420.98,180.59 409.71,176.48" fill="#ebedf0"/>
<polygon points="473.61,172.38 484.88,176.48 473.61,180.59 462.33,176.48" fill="#ebedf0"/>
<polygon points="394.67,158.38 405.95,162.48 394.67,166.59 383.39,162.48" fill="#9be9a8"/>
<polygon points="383.39,176.48 383.39,162.48 394.67,166.59 394.67,180.59" fill="#88cd93"/>
<polygon points="394.67,180.59 394.67,166.59 405.95,162.48 405.95,176.48" fill="#72ac7c"/>
<polygon points="447.29,156.38 458.57,160.48 447.29,164.59 436.02,160.48" fill="#9be9a8"/>
<polygon points="436.02,176.48 436.02,160.48 447.29,164.59 447.29,180.59" fill="#88cd93"/>
<polygon points="447.29,180.59 447.29,164.59 458.57,160.48 458.57,176.48" fill="#72ac7c"/>
<polygon points="328.89,177.17 340.17,181.27 328.89,185.37 317.62,181.27" fill="#ebedf0"/>
<polygon points="355.20,177.17 366.48,181.27 355.20,185.37 343.93,181.27" fill="#ebedf0"/>
<polygon points="381.52,177.17 392.79,181.27 381.52,185.37 370.24,181.27" fill="#ebedf0"/>
<polygon points="434.14,177.17 445.41,181.27 434.14,185.37 422.86,181.27" fill="#ebedf0"/>
<polygon points="407.83,169.17 419.10,173.27 407.83,177.37 396.55,173.27" fill="#9be9a8"/>
<polygon points="396.55,181.27 396.55,173.27 407.83,177.37 407.83,185.37" fill="#88cd93"/>
<polygon points="407.83,185.37 407.83,177.37 419.10,173.27 419.10,181.27" fill="#72ac7c"/>
<polygon points="460.45,161.17 471.73,165.27 460.45,169.37 449.17,165.27" fill="#9be9a8"/>
<polygon points="449.17,181.27 449.17,165.27 460.45,169.37 460.45,185.37" fill="#88cd93"/>
<polygon points="460.45,185.37 460.45,169.37 471.73,165.27 471.73,181.27" fill="#72ac7c"/>
<polygon points="486.76,160.17 498.04,164.27 486.76,168.37 475.48,164.27" fill="#40c463"/>
<polygon points="475.48,181.27 475.48,164.27 486.76,168.37 486.76,185.37" fill="#38ac57"/>
<polygon points="486.76,185.37 486.76,168.37 498.04,164.27 498.04,181.27" fill="#2f9149"/>
<polygon points="342.05,181.95 353.32,186.06 342.05,190.16 330.77,186.06" fill="#ebedf0"/>
<polygon points="368.36,181.95 379.64,186.06 368.36,190.16 357.08,186.06" fill="#ebedf0"/>
<polygon points="394.67,181.95 405.95,186.06 394.67,190.16 383.39,186.06" fill="#ebedf0"/>
<polygon points="499.92,181.95 511.19,186.06 499.92,190.16 488.64,186.06" fill="#ebedf0"/>
<polygon points="420.98,170.95 432.26,175.06 420.98,179.16 409.71,175.06" fill="#9be9a8"/>
<polygon points="409.71,186.06 409.71,175.06 420.98,179.16 420.98,190.16" fill="#88cd93"/>
<polygon points="420.98,190.16 420.98,179.16 432.26,175.06 432.26,186.06" fill="#72ac7c"/>
<polygon points="447.29,170.95 458.57,175.06 447.29,179.16 436.02,175.06" fill="#9be9a8"/>
<polygon points="436.02,186.06 436.02,175.06 447.29,179.16 447.29,190.16" fill="#88cd93"/>
<polygon points="447.29,190.16 447.29,179.16 458.57,175.06 458.57,186.06" fill="#72ac7c"/>
<polygon points="473.61,170.95 484.88,175.06 473.61,179.16 462.33,175.06" fill="#9be9a8"/>
<polygon points="462.33,186.06 462.33,175.06 473.61,179.16 473.61,190.16" fill="#88cd93"/>
<polygon points="473.61,190.16 473.61,179.16 484.88,175.06 484.88,186.06" fill="#72ac7c"/>
<polygon points="355.20,186.74 366.48,190.85 355.20,194.95 343.93,190.85" fill="#ebedf0"/>
<polygon points="381.52,186.74 392.79,190.85 381.52,194.95 370.24,190.85" fill="#ebedf0"/>
<polygon points="407.83,186.74 419.10,190.85 407.83,194.95 396.55,190.85" fill="#ebedf0"/>
<polygon points="434.14,186.74 445.41,190.85 434.14,194.95 422.86,190.85" fill="#ebedf0"/>
<polygon points="460.45,186.74 471.73,190.85 460.45,194.95 449.17,190.85" fill="#ebedf0"/>
<polygon points="513.07,186.74 524.35,190.85 513.07,194.95 501.80,190.85" fill="#ebedf0"/>
<polygon points="486.76,175.74 498.04,179.85 486.76,183.95 475.48,179.85" fill="#9be9a8"/>
<polygon points="475.48,190.85 475.48,179.85 486.76,183.95 486.76,194.95" fill="#88cd93"/>
<polygon points="486.76,194.95 486.76,183.95 498.04,179.85 498.04,190.85" fill="#72ac7c"/>
<polygon points="368.36,191.53 379.64,195.64 368.36,199.74 357.08,195.64" fill="#ebedf0"/>
<polygon points="420.98,191.53 432.26,195.64 420.98,199.74 409.71,195.64" fill="#ebedf0"/>
<polygon points="447.29,191.53 458.57,195.64 447.29,199.74 436.02,195.64" fill="#ebedf0"/>
<polygon points="526.23,191.53 537.50,195.64 526.23,199.74 514.95,195.64" fill="#ebedf0"/>
<polygon points="394.67,183.53 405.95,187.64 394.67,191.74 383.39,187.64" fill="#9be9a8"/>
<polygon points="383.39,195.64 383.39,187.64 394.67,191.74 394.67,199.74" fill="#88cd93"/>
<polygon points="394.67,199.74 394.67,191.74 405.95,187.64 405.95,195.64" fill="#72ac7c"/>
<polygon points="499.92,183.53 511.19,187.64 499.92,191.74 488.64,187.64" fill="#9be9a8"/>
<polygon points="488.64,195.64 488.64,187.64 499.92,191.74 499.92,199.74" fill="#88cd93"/>
<polygon points="499.92,199.74 499.92,191.74 511.19,187.64 511.19,195.64" fill="#72ac7c"/>
<polygon points="473.61,174.53 484.88,178.64 473.61,182.74 462.33,178.64" fill="#40c463"/>
<polygon points="462.33,195.64 462.33,178.64 473.61,182.74 473.61,199.74" fill="#38ac57"/>
<polygon points="473.61,199.74 473.61,182.74 484.88,178.64 484.88,195.64" fill="#2f9149"/>
<polygon points="381.52,196.32 392.79,200.42 381.52,204.53 370.24,200.42" fill="#ebedf0"/>
<polygon points="539.38,196.32 550.66,200.42 539.38,204.53 528.11,200.42" fill="#ebedf0"/>
<polygon points="513.07,180.32 524.35,184.42 513.07,188.53 501.80,184.42" fill="#9be9a8"/>
<polygon points="501.80,200.42 501.80,184.42 513.07,188.53 513.07,204.53" fill="#88cd93"/>
<polygon points="513.07,204.53 513.07,188.53 524.35,184.42 524.35,200.42" fill="#72ac7c"/>
<polygon points="434.14,179.32 445.41,183.42 434.14,187.53 422.86,183.42" fill="#40c463"/>
<polygon points="422.86,200.42 422.86,183.42 434.14,187.53 434.14,204.53" fill="#38ac57"/>
<polygon points="434.14,204.53 434.14,187.53 445.41,183.42 445.41,200.42" fill="#2f9149"/>
<polygon points="460.45,179.32 471.73,183.42 460.45,187.53 449.17,183.42" fill="#40c463"/>
<polygon points="449.17,200.42 449.17,183.42 460.45,187.53 460.45,204.53" fill="#38ac57"/>
<polygon points="460.45,204.53 460.45,187.53 471.73,183.42 471.73,200.42" fill="#2f9149"/>
<polygon points="486.76,178.32 498.04,182.42 486.76,186.53 475.48,182.42" fill="#40c463"/>
<polygon points="475.48,200.42 475.48,182.42 486.76,186.53 486.76,204.53" fill="#38ac57"/>
<polygon points="486.76,204.53 486.76,186.53 498.04,182.42 498.04,200.42" fill="#2f9149"/>
<polygon points="407.83,178.32 419.10,182.42 407.83,186.53 396.55,182.42" fill="#216e39"/>
<polygon points="396.55,200.42 396.55,182.42 407.83,186.53 407.83,204.53" fill="#1d6032"/>
<polygon points="407.83,204.53 407.83,186.53 419.10,182.42 419.10,200.42" fill="#18512a"/>
<polygon points="420.98,187.11 432.26,191.21 420.98,195.32 409.71,191.21" fill="#9be9a8"/>
<polygon points="409.71,205.21 409.71,191.21 420.98,195.32 420.98,209.32" fill="#88cd93"/>
<polygon points="420.98,209.32 420.98,195.32 432.26,191.21 432.26,205.21" fill="#72ac7c"/>
<polygon points="473.61,188.11 484.88,192.21 473.61,196.32 462.33,192.21" fill="#9be9a8"/>
<polygon points="462.33,205.21 462.33,192.21 473.61,196.32 473.61,209.32" fill="#88cd93"/>
<polygon points="473.61,209.32 473.61,196.32 484.88,192.21 484.88,205.21" fill="#72ac7c"/>
<polygon points="499.92,185.11 511.19,189.21 499.92,193.32 488.64,189.21" fill="#9be9a8"/>
<polygon points="488.64,205.21 488.64,189.21 499.92,193.32 499.92,209.32" fill="#88cd93"/>
<polygon points="499.92,209.32 499.92,193.32 511.19,189.21 511.19,205.21" fill="#72ac7c"/>
<polygon points="552.54,190.11 563.82,194.21 552.54,198.32 541.26,194.21" fill="#9be9a8"/>
<polygon points="541.26,205.21 541.26,194.21 552.54,198.32 552.54,209.32" fill="#88cd93"/>
<polygon points="552.54,209.32 552.54,198.32 563.82,194.21 563.82,205.21" fill="#72ac7c"/>
<polygon points="394.67,183.11 405.95,187.21 394.67,191.32 383.39,187.21" fill="#40c463"/>
<polygon points="383.39,205.21 383.39,187.21 394.67,191.32 394.67,209.32" fill="#38ac57"/>
<polygon points="394.67,209.32 394.67,191.32 405.95,187.21 405.95,205.21" fill="#2f9149"/>
<polygon points="447.29,183.11 458.57,187.21 447.29,191.32 436.02,187.21" fill="#40c463"/>
<polygon points="436.02,205.21 436.02,187.21 447.29,191.32 447.29,209.32" fill="#38ac57"/>
<polygon points="447.29,209.32 447.29,191.32 458.57,187.21 458.57,205.21" fill="#2f9149"/>
<polygon points="526.23,183.11 537.50,187.21 526.23,191.32 514.95,187.21" fill="#40c463"/>
<polygon points="514.95,205.21 514.95,187.21 526.23,191.32 526.23,209.32" fill="#38ac57"/>
<polygon points="526.23,209.32 526.23,191.32 537.50,187.21 537.50,205.21" fill="#2f9149"/>
<polygon points="407.83,205.90 419.10,210.00 407.83,214.10 396.55,210.00" fill="#ebedf0"/>
<polygon points="513.07,190.90 524.35,195.00 513.07,199.10 501.80,195.00" fill="#9be9a8"/>
<polygon points="501.80,210.00 501.80,195.00 513.07,199.10 513.07,214.10" fill="#88cd93"/>
<polygon points="513.07,214.10 513.07,199.10 524.35,195.00 524.35,210.00" fill="#72ac7c"/>
<polygon points="565.69,194.90 576.97,199.00 565.69,203.10 554.42,199.00" fill="#9be9a8"/>
<polygon points="554.42,210.00 554.42,199.00 565.69,203.10 565.69,214.10" fill="#88cd93"/>
<polygon points="565.69,214.10 565.69,203.10 576.97,199.00 576.97,210.00" fill="#72ac7c"/>
<polygon points="460.45,187.90 471.73,192.00 460.45,196.10 449.17,192.00" fill="#40c463"/>
<polygon points="449.17,210.00 449.17,192.00 460.45,196.10 460.45,214.10" fill="#38ac57"/>
<polygon points="460.45,214.10 460.45,196.10 471.73,192.00 471.73,210.00" fill="#2f9149"/>
<polygon points="539.38,189.90 550.66,194.00 539.38,198.10 528.11,194.00" fill="#40c463"/>
<polygon points="528.11,210.00 528.11,194.00 539.38,198.10 539.38,214.10" fill="#38ac57"/>
<polygon points="539.38,214.10 539.38,198.10 550.66,194.00 550.66,210.00" fill="#2f9149"/>
<polygon points="486.76,187.90 498.04,192.00 486.76,196.10 475.48,192.00" fill="#30a14e"/>
<polygon points="475.48,210.00 475.48,192.00 486.76,196.10 486.76,214.10" fill="#2a8d44"/>
<polygon points="486.76,214.10 486.76,196.10 498.04,192.00 498.04,210.00" fill="#237739"/>
<polygon points="434.14,187.90 445.41,192.00 434.14,196.10 422.86,192.00" fill="#216e39"/>
<polygon points="422.86,210.00 422.86,192.00 434.14,196.10 434.14,214.10" fill="#1d6032"/>
<polygon points="434.14,214.10 434.14,196.10 445.41,192.00 445.41,210.00" fill="#18512a"/>
<polygon points="420.98,195.68 432.26,199.79 420.98,203.89 409.71,199.79" fill="#9be9a8"/>
<polygon points="409.71,214.79 409.71,199.79 420.98,203.89 420.98,218.89" fill="#88cd93"/>
<polygon points="420.98,218.89 420.98,203.89 432.26,199.79 432.26,214.79" fill="#72ac7c"/>
<polygon points="447.29,199.68 458.57,203.79 447.29,207.89 436.02,203.79" fill="#9be9a8"/>
<polygon points="436.02,214.79 436.02,203.79 447.29,207.89 447.29,218.89" fill="#88cd93"/>
<polygon points="447.29,218.89 447.29,207.89 458.57,203.79 458.57,214.79" fill="#72ac7c"/>
<polygon points="552.54,196.68 563.82,200.79 552.54,204.89 541.26,200.79" fill="#9be9a8"/>
<polygon points="541.26,214.79 541.26,200.79 552.54,204.89 552.54,218.89" fill="#88cd93"/>
<polygon points="552.54,218.89 552.54,204.89 563.82,200.79 563.82,214.79" fill="#72ac7c"/>
<polygon points="578.85,202.68 590.13,206.79 578.85,210.89 567.57,206.79" fill="#9be9a8"/>
<polygon points="567.57,214.79 567.57,206.79 578.85,210.89 578.85,218.89" fill="#88cd93"/>
<polygon points="578.85,218.89 578.85,210.89 590.13,206.79 590.13,214.79" fill="#72ac7c"/>
<polygon points="499.92,194.68 511.19,198.79 499.92,202.89 488.64,198.79" fill="#40c463"/>
<polygon points="488.64,214.79 488.64,198.79 499.92,202.89 499.92,218.89" fill="#38ac57"/>
<polygon points="499.92,218.89 499.92,202.89 511.19,198.79 511.19,214.79" fill="#2f9149"/>
<polygon points="526.23,192.68 537.50,196.79 526.23,200.89 514.95,196.79" fill="#30a14e"/>
<polygon points="514.95,214.79 514.95,196.79 526.23,200.89 526.23,218.89" fill="#2a8d44"/>
<polygon points="526.23,218.89 526.23,200.89 537.50,196.79 537.50,214.79" fill="#237739"/>
<polygon points="473.61,192.68 484.88,196.79 473.61,200.89 462.33,196.79" fill="#216e39"/>
<polygon points="462.33,214.79 462.33,196.79 473.61,200.89 473.61,218.89" fill="#1d6032"/>
<polygon points="473.61,218.89 473.61,200.89 484.88,196.79 484.88,214.79" fill="#18512a"/>
<polygon points="434.14,215.47 445.41,219.58 434.14,223.68 422.86,219.58" fill="#ebedf0"/>
<polygon points="592.01,215.47 603.28,219.58 592.01,223.68 580.73,219.58" fill="#ebedf0"/>
<polygon points="539.38,200.47 550.66,204.58 539.38,208.68 528.11,204.58" fill="#9be9a8"/>
<polygon points="528.11,219.58 528.11,204.58 539.38,208.68 539.38,223.68" fill="#88cd93"/>
<polygon points="539.38,223.68 539.38,208.68 550.66,204.58 550.66,219.58" fill="#72ac7c"/>
<polygon points="460.45,199.47 471.73,203.58 460.45,207.68 449.17,203.58" fill="#40c463"/>
<polygon points="449.17,219.58 449.17,203.58 460.45,207.68 460.45,223.68" fill="#38ac57"/>
<polygon points="460.45,223.68 460.45,207.68 471.73,203.58 471.73,219.58" fill="#2f9149"/>
<polygon points="486.76,199.47 498.04,203.58 486.76,207.68 475.48,203.58" fill="#40c463"/>
<polygon points="475.48,219.58 475.48,203.58 486.76,207.68 486.76,223.68" fill="#38ac57"/>
<polygon points="486.76,223.68 486.76,207.68 498.04,203.58 498.04,219.58" fill="#2f9149"/>
<polygon points="565.69,198.47 576.97,202.58 565.69,206.68 554.42,202.58" fill="#40c463"/>
<polygon points="554.42,219.58 554.42,202.58 565.69,206.68 565.69,223.68" fill="#38ac57"/>
<polygon points="565.69,223.68 565.69,206.68 576.97,202.58 576.97,219.58" fill="#2f9149"/>
<polygon points="513.07,197.47 524.35,201.58 513.07,205.68 501.80,201.58" fill="#30a14e"/>
<polygon points="501.80,219.58 501.80,201.58 513.07,205.68 513.07,223.68" fill="#2a8d44"/>
<polygon points="513.07,223.68 513.07,205.68 524.35,201.58 524.35,219.58" fill="#237739"/>
<polygon points="447.29,220.26 458.57,224.37 447.29,228.47 436.02,224.37" fill="#ebedf0"/>
<polygon points="473.61,207.26 484.88,211.37 473.61,215.47 462.33,211.37" fill="#9be9a8"/>
<polygon points="462.33,224.37 462.33,211.37 473.61,215.47 473.61,228.47" fill="#88cd93"/>
<polygon points="473.61,228.47 473.61,215.47 484.88,211.37 484.88,224.37" fill="#72ac7c"/>
<polygon points="605.16,209.26 616.44,213.37 605.16,217.47 593.89,213.37" fill="#9be9a8"/>
<polygon points="593.89,224.37 593.89,213.37 605.16,217.47 605.16,228.47" fill="#88cd93"/>
<polygon points="605.16,228.47 605.16,217.47 616.44,213.37 616.44,224.37" fill="#72ac7c"/>
<polygon points="526.23,203.26 537.50,207.37 526.23,211.47 514.95,207.37" fill="#40c463"/>
<polygon points="514.95,224.37 514.95,207.37 526.23,211.47 526.23,228.47" fill="#38ac57"/>
<polygon points="526.23,228.47 526.23,211.47 537.50,207.37 537.50,224.37" fill="#2f9149"/>
<polygon points="552.54,204.26 563.82,208.37 552.54,212.47 541.26,208.37" fill="#40c463"/>
<polygon points="541.26,224.37 541.26,208.37 552.54,212.47 552.54,228.47" fill="#38ac57"/>
<polygon points="552.54,228.47 552.54,212.47 563.82,208.37 563.82,224.37" fill="#2f9149"/>
<polygon points="578.85,202.26 590.13,206.37 578.85,210.47 567.57,206.37" fill="#40c463"/>
<polygon points="567.57,224.37 567.57,206.37 578.85,210.47 578.85,228.47" fill="#38ac57"/>
<polygon points="578.85,228.47 578.85,210.47 590.13,206.37 590.13,224.37" fill="#2f9149"/>
<polygon points="499.92,202.26 511.19,206.37 499.92,210.47 488.64,206.37" fill="#30a14e"/>
<polygon points="488.64,224.37 488.64,206.37 499.92,210.47 499.92,228.47" fill="#2a8d44"/>
<polygon points="499.92,228.47 499.92,210.47 511.19,206.37 511.19,224.37" fill="#237739"/>
<polygon points="460.45,217.05 471.73,221.15 460.45,225.26 449.17,221.15" fill="#9be9a8"/>
<polygon points="449.17,229.15 449.17,221.15 460.45,225.26 460.45,233.26" fill="#88cd93"/>
<polygon points="460.45,233.26 460.45,225.26 471.73,221.15 471.73,229.15" fill="#72ac7c"/>
<polygon points="513.07,214.05 524.35,218.15 513.07,222.26 501.80,218.15" fill="#9be9a8"/>
<polygon points="501.80,229.15 501.80,218.15 513.07,222.26 513.07,233.26" fill="#88cd93"/>
<polygon points="513.07,233.26 513.07,222.26 524.35,218.15 524.35,229.15" fill="#72ac7c"/>
<polygon points="539.38,210.05 550.66,214.15 539.38,218.26 528.11,214.15" fill="#9be9a8"/>
<polygon points="528.11,229.15 528.11,214.15 539.38,218.26 539.38,233.26" fill="#88cd93"/>
<polygon points="539.38,233.26 539.38,218.26 550.66,214.15 550.66,229.15" fill="#72ac7c"/>
<polygon points="565.69,207.05 576.97,211.15 565.69,215.26 554.42,211.15" fill="#40c463"/>
<polygon points="554.42,229.15 554.42,211.15 565.69,215.26 565.69,233.26" fill="#38ac57"/>
<polygon points="565.69,233.26 565.69,215.26 576.97,211.15 576.97,229.15" fill="#2f9149"/>
<polygon points="592.01,207.05 603.28,211.15 592.01,215.26 580.73,211.15" fill="#40c463"/>
<polygon points="580.73,229.15 580.73,211.15 592.01,215.26 592.01,233.26" fill="#38ac57"/>
<polygon points="592.01,233.26 592.01,215.26 603.28,211.15 603.28,229.15" fill="#2f9149"/>
<polygon points="618.32,207.05 629.59,211.15 618.32,215.26 607.04,211.15" fill="#40c463"/>
<polygon points="607.04,229.15 607.04,211.15 618.32,215.26 618.32,233.26" fill="#38ac57"/>
<polygon points="618.32,233.26 618.32,215.26 629.59,211.15 629.59,229.15" fill="#2f9149"/>
<polygon points="486.76,207.05 498.04,211.15 486.76,215.26 475.48,211.15" fill="#30a14e"/>
<polygon points="475.48,229.15 475.48,211.15 486.76,215.26 486.76,233.26" fill="#2a8d44"/>
<polygon points="486.76,233.26 486.76,215.26 498.04,211.15 498.04,229.15" fill="#237739"/>
<polygon points="473.61,229.84 484.88,233.94 473.61,238.05 462.33,233.94" fill="#ebedf0"/>
<polygon points="631.47,229.84 642.75,233.94 631.47,238.05 620.20,233.94" fill="#ebedf0"/>
<polygon points="552.54,215.84 563.82,219.94 552.54,224.05 541.26,219.94" fill="#9be9a8"/>
<polygon points="541.26,233.94 541.26,219.94 552.54,224.05 552.54,238.05" fill="#88cd93"/>
<polygon points="552.54,238.05 552.54,224.05 563.82,219.94 563.82,233.94" fill="#72ac7c"/>
<polygon points="605.16,213.84 616.44,217.94 605.16,222.05 593.89,217.94" fill="#9be9a8"/>
<polygon points="593.89,233.94 593.89,217.94 605.16,222.05 605.16,238.05" fill="#88cd93"/>
<polygon points="605.16,238.05 605.16,222.05 616.44,217.94 616.44,233.94" fill="#72ac7c"/>
<polygon points="499.92,211.84 511.19,215.94 499.92,220.05 488.64,215.94" fill="#40c463"/>
<polygon points="488.64,233.94 488.64,215.94 499.92,220.05 499.92,238.05" fill="#38ac57"/>
<polygon points="499.92,238.05 499.92,220.05 511.19,215.94 511.19,233.94" fill="#2f9149"/>
<polygon points="526.23,211.84 537.50,215.94 526.23,220.05 514.95,215.94" fill="#30a14e"/>
<polygon points="514.95,233.94 514.95,215.94 526.23,220.05 526.23,238.05" fill="#2a8d44"/>
<polygon points="526.23,238.05 526.23,220.05 537.50,215.94 537.50,233.94" fill="#237739"/>
<polygon points="578.85,211.84 590.13,215.94 578.85,220.05 567.57,215.94" fill="#216e39"/>
<polygon points="567.57,233.94 567.57,215.94 578.85,220.05 578.85,238.05" fill="#1d6032"/>
<polygon points="578.85,238.05 578.85,220.05 590.13,215.94 590.13,233.94" fill="#18512a"/>
<polygon points="486.76,234.63 498.04,238.73 486.76,242.83 475.48,238.73" fill="#ebedf0"/>
<polygon points="513.07,223.63 524.35,227.73 513.07,231.83 501.80,227.73" fill="#9be9a8"/>
<polygon points="501.80,238.73 501.80,227.73 513.07,231.83 513.07,242.83" fill="#88cd93"/>
<polygon points="513.07,242.83 513.07,231.83 524.35,227.73 524.35,238.73" fill="#72ac7c"/>
<polygon points="644.63,218.63 655.91,222.73 644.63,226.83 633.35,222.73" fill="#40c463"/>
<polygon points="633.35,238.73 633.35,222.73 644.63,226.83 644.63,242.83" fill="#38ac57"/>
<polygon points="644.63,242.83 644.63,226.83 655.91,222.73 655.91,238.73" fill="#2f9149"/>
<polygon points="539.38,216.63 550.66,220.73 539.38,224.83 528.11,220.73" fill="#30a14e"/>
<polygon points="528.11,238.73 528.11,220.73 539.38,224.83 539.38,242.83" fill="#2a8d44"/>
<polygon points="539.38,242.83 539.38,224.83 550.66,220.73 550.66,238.73" fill="#237739"/>
<polygon points="565.69,216.63 576.97,220.73 565.69,224.83 554.42,220.73" fill="#30a14e"/>
<polygon points="554.42,238.73 554.42,220.73 565.69,224.83 565.69,242.83" fill="#2a8d44"/>
<polygon points="565.69,242.83 565.69,224.83 576.97,220.73 576.97,238.73" fill="#237739"/>
<polygon points="592.01,216.63 603.28,220.73 592.01,224.83 580.73,220.73" fill="#30a14e"/>
<polygon points="580.73,238.73 580.73,220.73 592.01,224.83 592.01,242.83" fill="#2a8d44"/>
<polygon points="592.01,242.83 592.01,224.83 603.28,220.73 603.28,238.73" fill="#237739"/>
<polygon points="618.32,216.63 629.59,220.73 618.32,224.83 607.04,220.73" fill="#30a14e"/>
<polygon points="607.04,238.73 607.04,220.73 618.32,224.83 618.32,242.83" fill="#2a8d44"/>
<polygon points="618.32,242.83 618.32,224.83 629.59,220.73 629.59,238.73" fill="#237739"/>
<polygon points="499.92,239.41 511.19,243.52 499.92,247.62 488.64,243.52" fill="#ebedf0"/>
<polygon points="657.78,239.41 669.06,243.52 657.78,247.62 646.51,243.52" fill="#ebedf0"/>
<polygon points="526.23,228.41 537.50,232.52 526.23,236.62 514.95,232.52" fill="#9be9a8"/>
<polygon points="514.95,243.52 514.95,232.52 526.23,236.62 526.23,247.62" fill="#88cd93"/>
<polygon points="526.23,247.62 526.23,236.62 537.50,232.52 537.50,243.52" fill="#72ac7c"/>
<polygon points="631.47,228.41 642.75,232.52 631.47,236.62 620.20,232.52" fill="#9be9a8"/>
<polygon points="620.20,243.52 620.20,232.52 631.47,236.62 631.47,247.62" fill="#88cd93"/>
<polygon points="631.47,247.62 631.47,236.62 642.75,232.52 642.75,243.52" fill="#72ac7c"/>
<polygon points="578.85,221.41 590.13,225.52 578.85,229.62 567.57,225.52" fill="#40c463"/>
<polygon points="567.57,243.52 567.57,225.52 578.85,229.62 578.85,247.62" fill="#38ac57"/>
<polygon points="578.85,247.62 578.85,229.62 590.13,225.52 590.13,243.52" fill="#2f9149"/>
<polygon points="605.16,221.41 616.44,225.52 605.16,229.62 593.89,225.52" fill="#30a14e"/>
<polygon points="593.89,243.52 593.89,225.52 605.16,229.62 605.16,247.62" fill="#2a8d44"/>
<polygon points="605.16,247.62 605.16,229.62 616.44,225.52 616.44,243.52" fill="#237739"/>
<polygon points="552.54,221.41 563.82,225.52 552.54,229.62 541.26,225.52" fill="#216e39"/>
<polygon points="541.26,243.52 541.26,225.52 552.54,229.62 552.54,247.62" fill="#1d6032"/>
<polygon points="552.54,247.62 552.54,229.62 563.82,225.52 563.82,243.52" fill="#18512a"/>
<polygon points="513.07,244.20 524.35,248.31 513.07,252.41 501.80,248.31" fill="#ebedf0"/>
<polygon points="670.94,231.20 682.22,235.31 670.94,239.41 659.66,235.31" fill="#9be9a8"/>
<polygon points="659.66,248.31 659.66,235.31 670.94,239.41 670.94,252.41" fill="#88cd93"/>
<polygon points="670.94,252.41 670.94,239.41 682.22,235.31 682.22,248.31" fill="#72ac7c"/>
<polygon points="565.69,226.20 576.97,230.31 565.69,234.41 554.42,230.31" fill="#40c463"/>
<polygon points="554.42,248.31 554.42,230.31 565.69,234.41 565.69,252.41" fill="#38ac57"/>
<polygon points="565.69,252.41 565.69,234.41 576.97,230.31 576.97,248.31" fill="#2f9149"/>
<polygon points="592.01,226.20 603.28,230.31 592.01,234.41 580.73,230.31" fill="#40c463"/>
<polygon points="580.73,248.31 580.73,230.31 592.01,234.41 592.01,252.41" fill="#38ac57"/>
<polygon points="592.01,252.41 592.01,234.41 603.28,230.31 603.28,248.31" fill="#2f9149"/>
<polygon points="644.63,226.20 655.91,230.31 644.63,234.41 633.35,230.31" fill="#40c463"/>
<polygon points="633.35,248.31 633.35,230.31 644.63,234.41 644.63,252.41" fill="#38ac57"/>
<polygon points="644.63,252.41 644.63,234.41 655.91,230.31 655.91,248.31" fill="#2f9149"/>
<polygon points="539.38,226.20 550.66,230.31 539.38,234.41 528.11,230.31" fill="#30a14e"/>
<polygon points="528.11,248.31 528.11,230.31 539.38,234.41 539.38,252.41" fill="#2a8d44"/>
<polygon points="539.38,252.41 539.38,234.41 550.66,230.31 550.66,248.31" fill="#237739"/>
<polygon points="618.32,226.20 629.59,230.31 618.32,234.41 607.04,230.31" fill="#216e39"/>
<polygon points="607.04,248.31 607.04,230.31 618.32,234.41 618.32,252.41" fill="#1d6032"/>
<polygon points="618.32,252.41 618.32,234.41 629.59,230.31 629.59,248.31" fill="#18512a"/>
<polygon points="684.10,248.99 695.37,253.09 684.10,257.20 672.82,253.09" fill="#ebedf0"/>
<polygon points="526.23,232.99 537.50,237.09 526.23,241.20 514.95,237.09" fill="#40c463"/>
<polygon points="514.95,253.09 514.95,237.09 526.23,241.20 526.23,257.20" fill="#38ac57"/>
<polygon points="526.23,257.20 526.23,241.20 537.50,237.09 537.50,253.09" fill="#2f9149"/>
<polygon points="552.54,232.99 563.82,237.09 552.54,241.20 541.26,237.09" fill="#40c463"/>
<polygon points="541.26,253.09 541.26,237.09 552.54,241.20 552.54,257.20" fill="#38ac57"/>
<polygon points="552.54,257.20 552.54,241.20 563.82,237.09 563.82,253.09" fill="#2f9149"/>
<polygon points="578.85,231.99 590.13,236.09 578.85,240.20 567.57,236.09" fill="#40c463"/>
<polygon points="567.57,253.09 567.57,236.09 578.85,240.20 578.85,257.20" fill="#38ac57"/>
<polygon points="578.85,257.20 578.85,240.20 590.13,236.09 590.13,253.09" fill="#2f9149"/>
<polygon points="657.78,230.99 669.06,235.09 657.78,239.20 646.51,235.09" fill="#40c463"/>
<polygon points="646.51,253.09 646.51,235.09 657.78,239.20 657.78,257.20" fill="#38ac57"/>
<polygon points="657.78,257.20 657.78,239.20 669.06,235.09 669.06,253.09" fill="#2f9149"/>
<polygon points="605.16,230.99 616.44,235.09 605.16,239.20 593.89,235.09" fill="#30a14e"/>
<polygon points="593.89,253.09 593.89,235.09 605.16,239.20 605.16,257.20" fill="#2a8d44"/>
<polygon points="605.16,257.20 605.16,239.20 616.44,235.09 616.44,253.09" fill="#237739"/>
<polygon points="631.47,230.99 642.75,235.09 631.47,239.20 620.20,235.09" fill="#216e39"/>
<polygon points="620.20,253.09 620.20,235.09 631.47,239.20 631.47,257.20" fill="#1d6032"/>
<polygon points="631.47,257.20 631.47,239.20 642.75,235.09 642.75,253.09" fill="#18512a"/>
<polygon points="539.38,253.78 550.66,257.88 539.38,261.99 528.11,257.88" fill="#ebedf0"/>
<polygon points="565.69,237.78 576.97,241.88 565.69,245.99 554.42,241.88" fill="#9be9a8"/>
<polygon points="554.42,257.88 554.42,241.88 565.69,245.99 565.69,261.99" fill="#88cd93"/>
<polygon points="565.69,261.99 565.69,245.99 576.97,241.88 576.97,257.88" fill="#72ac7c"/>
<polygon points="618.32,235.78 629.59,239.88 618.32,243.99 607.04,239.88" fill="#40c463"/>
<polygon points="607.04,257.88 607.04,239.88 618.32,243.99 618.32,261.99" fill="#38ac57"/>
<polygon points="618.32,261.99 618.32,243.99 629.59,239.88 629.59,257.88" fill="#2f9149"/>
<polygon points="592.01,235.78 603.28,239.88 592.01,243.99 580.73,239.88" fill="#30a14e"/>
<polygon points="580.73,257.88 580.73,239.88 592.01,243.99 592.01,261.99" fill="#2a8d44"/>
<polygon points="592.01,261.99 592.01,243.99 603.28,239.88 603.28,257.88" fill="#237739"/>
<polygon points="670.94,235.78 682.22,239.88 670.94,243.99 659.66,239.88" fill="#30a14e"/>
<polygon points="659.66,257.88 659.66,239.88 670.94,243.99 670.94,261.99" fill="#2a8d44"/>
<polygon points="670.94,261.99 670.94,243.99 682.22,239.88 682.22,257.88" fill="#237739"/>
<polygon points="644.63,235.78 655.91,239.88 644.63,243.99 633.35,239.88" fill="#216e39"/>
<polygon points="633.35,257.88 633.35,239.88 644.63,243.99 644.63,261.99" fill="#1d6032"/>
<polygon points="644.63,261.99 644.63,243.99 655.91,239.88 655.91,257.88" fill="#18512a"/>
<polygon points="552.54,258.57 563.82,262.67 552.54,266.78 541.26,262.67" fill="#ebedf0"/>
<polygon points="657.78,258.57 669.06,262.67 657.78,266.78 646.51,262.67" fill="#ebedf0"/>
<polygon points="578.85,240.57 590.13,244.67 578.85,248.78 567.57,244.67" fill="#30a14e"/>
<polygon points="567.57,262.67 567.57,244.67 578.85,248.78 578.85,266.78" fill="#2a8d44"/>
<polygon points="578.85,266.78 578.85,248.78 590.13,244.67 590.13,262.67" fill="#237739"/>
<polygon points="605.16,240.57 616.44,244.67 605.16,248.78 593.89,244.67" fill="#216e39"/>
<polygon points="593.89,262.67 593.89,244.67 605.16,248.78 605.16,266.78" fill="#1d6032"/>
<polygon points="605.16,266.78 605.16,248.78 616.44,244.67 616.44,262.67" fill="#18512a"/>
<polygon points="631.47,240.57 642.75,244.67 631.47,248.78 620.20,244.67" fill="#216e39"/>
<polygon points="620.20,262.67 620.20,244.67 631.47,248.78 631.47,266.78" fill="#1d6032"/>
<polygon points="631.47,266.78 631.47,248.78 642.75,244.67 642.75,262.67" fill="#18512a"/>
<polygon points="565.69,263.36 576.97,267.46 565.69,271.56 554.42,267.46" fill="#ebedf0"/>
<polygon points="618.32,255.36 629.59,259.46 618.32,263.56 607.04,259.46" fill="#9be9a8"/>
<polygon points="607.04,267.46 607.04,259.46 618.32,263.56 618.32,271.56" fill="#88cd93"/>
<polygon points="618.32,271.56 618.32,263.56 629.59,259.46 629.59,267.46" fill="#72ac7c"/>
<polygon points="644.63,252.36 655.91,256.46 644.63,260.56 633.35,256.46" fill="#9be9a8"/>
<polygon points="633.35,267.46 633.35,256.46 644.63,260.56 644.63,271.56" fill="#88cd93"/>
<polygon points="644.63,271.56 644.63,260.56 655.91,256.46 655.91,267.46" fill="#72ac7c"/>
<polygon points="592.01,245.36 603.28,249.46 592.01,253.56 580.73,249.46" fill="#40c463"/>
<polygon points="580.73,267.46 580.73,249.46 592.01,253.56 592.01,271.56" fill="#38ac57"/>
<polygon points="592.01,271.56 592.01,253.56 603.28,249.46 603.28,267.46" fill="#2f9149"/>
<polygon points="578.85,268.14 590.13,272.25 578.85,276.35 567.57,272.25" fill="#ebedf0"/>
<polygon points="605.16,252.14 616.44,256.25 605.16,260.35 593.89,256.25" fill="#9be9a8"/>
<polygon points="593.89,272.25 593.89,256.25 605.16,260.35 605.16,276.35" fill="#88cd93"/>
<polygon points="605.16,276.35 605.16,260.35 616.44,256.25 616.44,272.25" fill="#72ac7c"/>
<polygon points="631.47,253.14 642.75,257.25 631.47,261.35 620.20,257.25" fill="#9be9a8"/>
<polygon points="620.20,272.25 620.20,257.25 631.47,261.35 631.47,276.35" fill="#88cd93"/>
<polygon points="631.47,276.35 631.47,261.35 642.75,257.25 642.75,272.25" fill="#72ac7c"/>
<polygon points="592.01,272.93 603.28,277.04 592.01,281.14 580.73,277.04" fill="#ebedf0"/>
<polygon points="618.32,264.93 629.59,269.04 618.32,273.14 607.04,269.04" fill="#9be9a8"/>
<polygon points="607.04,277.04 607.04,269.04 618.32,273.14 618.32,281.14" fill="#88cd93"/>
<polygon points="618.32,281.14 618.32,273.14 629.59,269.04 629.59,277.04" fill="#72ac7c"/>
<text x="697.25" y="14.00" text-anchor="end" font-family='-apple-system, BlinkMacSystemFont, "Segoe UI", Helvetica, Arial, sans-serif' font-size="34" font-weight="700" fill="#216e39">1,422</text>
<text x="697.25" y="26.00" text-anchor="end" font-family='-apple-system, BlinkMacSystemFont, "Segoe UI", Helvetica, Arial, sans-serif' font-size="10" fill="#59636e" letter-spacing="0.8">TOTAL CONTRIBUTIONS</text>
<rect x="-92.09" y="231.58" width="12" height="7.71" rx="1" fill="#40c463"/>
<text x="-86.09" y="257.30" text-anchor="middle" font-family='-apple-system, BlinkMacSystemFont, "Segoe UI", Helvetica, Arial, sans-serif' font-size="11" fill="#59636e">S</text>
<rect x="-76.09" y="203.35" width="12" height="35.95" rx="1" fill="#40c463"/>
<text x="-70.09" y="257.30" text-anchor="middle" font-family='-apple-system, BlinkMacSystemFont, "Segoe UI", Helvetica, Arial, sans-serif' font-size="11" fill="#59636e">M</text>
<rect x="-60.09" y="185.30" width="12" height="54.00" rx="1" fill="#216e39"/>
<text x="-54.09" y="257.30" text-anchor="middle" font-family='-apple-system, BlinkMacSystemFont, "Segoe UI", Helvetica, Arial, sans-serif' font-size="11" fill="#59636e">T</text>
<rect x="-44.09" y="197.18" width="12" height="42.12" rx="1" fill="#40c463"/>
<text x="-38.09" y="257.30" text-anchor="middle" font-family='-apple-system, BlinkMacSystemFont, "Segoe UI", Helvetica, Arial, sans-serif' font-size="11" fill="#59636e">W</text>
<rect x="-28.09" y="196.10" width="12" height="43.20" rx="1" fill="#40c463"/>
<text x="-22.09" y="257.30" text-anchor="middle" font-family='-apple-system, BlinkMacSystemFont, "Segoe UI", Helvetica, Arial, sans-serif' font-size="11" fill="#59636e">T</text>
<rect x="-12.09" y="207.36" width="12" height="31.94" rx="1" fill="#40c463"/>
<text x="-6.09" y="257.30" text-anchor="middle" font-family='-apple-system, BlinkMacSystemFont, "Segoe UI", Helvetica, Arial, sans-serif' font-size="11" fill="#59636e">F</text>
<rect x="3.91" y="234.82" width="12" height="4.47" rx="1" fill="#40c463"/>
<text x="9.91" y="257.30" text-anchor="middle" font-family='-apple-system, BlinkMacSystemFont, "Segoe UI", Helvetica, Arial, sans-serif' font-size="11" fill="#59636e">S</text>
<text x="-92.09" y="277.30" font-family='-apple-system, BlinkMacSystemFont, "Segoe UI", Helvetica, Arial, sans-serif' font-size="12" fill="#59636e" letter-spacing="0.3">Most active days</text>
<text x="-92.09" y="293.30" font-family='-apple-system, BlinkMacSystemFont, "Segoe UI", Helvetica, Arial, sans-serif' font-size="9" fill="#59636e">Data pulled daily from GitHub.</text>
<text x="-92.09" y="303.30" font-family='-apple-system, BlinkMacSystemFont, "Segoe UI", Helvetica, Arial, sans-serif' font-size="9" fill="#59636e">Rolling last-12-month activity.</text>
</svg>