<svg xmlns="http://www.w3.org/2000/svg" viewBox="-98.09 -24.00 801.34 354.30" width="801" height="354">
<polygon points="0.00,0.00 11.28,4.10 0.00,8.21 -11.28,4.10" fill="#ebedf0"/>
<polygon points="13.16,-3.21 24.43,0.89 13.16,5.00 1.88,0.89" fill="#9be9a8"/>
<polygon points="1.88,8.89 1.88,0.89 13.16,5.00 13.16,13.00" fill="#88cd93"/>
<polygon points="13.16,13.00 13.16,5.00 24.43,0.89 24.43,8.89" fill="#72ac7c"/>
<polygon points="-13.16,-13.21 -1.88,-9.11 -13.16,-5.00 -24.43,-9.11" fill="#30a14e"/>
<polygon points="-24.43,8.89 -24.43,-9.11 -13.16,-5.00 -13.16,13.00" fill="#2a8d44"/>
<polygon points="-13.16,13.00 -13.16,-5.00 -1.88,-9.11 -1.88,8.89" fill="#237739"/>
<polygon points="26.31,9.58 37.59,13.68 26.31,17.79 15.04,13.68" fill="#ebedf0"/>
<polygon points="0.00,-1.42 11.28,2.68 0.00,6.79 -11.28,2.68" fill="#9be9a8"/>
<polygon points="-11.28,13.68 -11.28,2.68 0.00,6.79 0.00,17.79" fill="#88cd93"/>
<polygon points="0.00,17.79 0.00,6.79 11.28,2.68 11.28,13.68" fill="#72ac7c"/>
<polygon points="-26.31,-8.42 -15.04,-4.32 -26.31,-0.21 -37.59,-4.32" fill="#30a14e"/>
<polygon points="-37.59,13.68 -37.59,-4.32 -26.31,-0.21 -26.31,17.79" fill="#2a8d44"/>
<polygon points="-26.31,17.79 -26.31,-0.21 -15.04,-4.32 -15.04,13.68" fill="#237739"/>
<polygon points="-13.16,14.36 -1.88,18.47 -13.16,22.57 -24.43,18.47" fill="#ebedf0"/>
<polygon points="39.47,14.36 50.74,18.47 39.47,22.57 28.19,18.47" fill="#ebedf0"/>
<polygon points="-39.47,3.36 -28.19,7.47 -39.47,11.57 -50.74,7.47" fill="#9be9a8"/>
<polygon points="-50.74,18.47 -50.74,7.47 -39.47,11.57 -39.47,22.57" fill="#88cd93"/>
<polygon points="-39.47,22.57 -39.47,11.57 -28.19,7.47 -28.19,18.47" fill="#72ac7c"/>
<polygon points="13.16,3.36 24.43,7.47 13.16,11.57 1.88,7.47" fill="#9be9a8"/>
<polygon points="1.88,18.47 1.88,7.47 13.16,11.57 13.16,22.57" fill="#88cd93"/>
<polygon points="13.16,22.57 13.16,11.57 24.43,7.47 24.43,18.47" fill="#72ac7c"/>
<polygon points="-52.62,19.15 -41.35,23.26 -52.62,27.36 -63.90,23.26" fill="#ebedf0"/>
<polygon points="-26.31,19.15 -15.04,23.26 -26.31,27.36 -37.59,23.26" fill="#ebedf0"/>
<polygon points="26.31,19.15 37.59,23.26 26.31,27.36 15.04,23.26" fill="#ebedf0"/>
<polygon points="52.62,19.15 63.90,23.26 52.62,27.36 41.35,23.26" fill="#ebedf0"/>
<polygon points="0.00,6.15 11.28,10.26 0.00,14.36 -11.28,10.26" fill="#9be9a8"/>
<polygon points="-11.28,23.26 -11.28,10.26 0.00,14.36 0.00,27.36" fill="#88cd93"/>
<polygon points="0.00,27.36 0.00,14.36 11.28,10.26 11.28,23.26" fill="#72ac7c"/>
<polygon points="-65.78,23.94 -54.50,28.05 -65.78,32.15 -77.05,28.05" fill="#ebedf0"/>
<polygon points="-39.47,23.94 -28.19,28.05 -39.47,32.15 -50.74,28.05" fill="#ebedf0"/>
<polygon points="65.78,23.94 77.05,28.05 65.78,32.15 54.50,28.05" fill="#ebedf0"/>
<polygon points="13.16,12.94 24.43,17.05 13.16,21.15 1.88,17.05" fill="#9be9a8"/>
<polygon points="1.88,28.05 1.88,17.05 13.16,21.15 13.16,32.15" fill="#88cd93"/>
<polygon points="13.16,32.15 13.16,21.15 24.43,17.05 24.43,28.05" fill="#72ac7c"/>
<polygon points="39.47,15.94 50.74,20.05 39.47,24.15 28.19,20.05" fill="#9be9a8"/>
<polygon points="28.19,28.05 28.19,20.05 39.47,24.15 39.47,32.15" fill="#88cd93"/>
<polygon points="39.47,32.15 39.47,24.15 50.74,20.05 50.74,28.05" fill="#72ac7c"/>
<polygon points="-13.16,6.94 -1.88,11.05 -13.16,15.15 -24.43,11.05" fill="#40c463"/>
<polygon points="-24.43,28.05 -24.43,11.05 -13.16,15.15 -13.16,32.15" fill="#38ac57"/>
<polygon points="-13.16,32.15 -13.16,15.15 -1.88,11.05 -1.88,28.05" fill="#2f9149"/>
<polygon points="-78.93,28.73 -67.66,32.83 -78.93,36.94 -90.21,32.83" fill="#ebedf0"/>
<polygon points="-52.62,28.73 -41.35,32.83 -52.62,36.94 -63.90,32.83" fill="#ebedf0"/>
<polygon points="26.31,28.73 37.59,32.83 26.31,36.94 15.04,32.83" fill="#ebedf0"/>
<polygon points="-26.31,15.73 -15.04,19.83 -26.31,23.94 -37.59,19.83" fill="#9be9a8"/>
<polygon points="-37.59,32.83 -37.59,19.83 -26.31,23.94 -26.31,36.94" fill="#88cd93"/>
<polygon points="-26.31,36.94 -26.31,23.94 -15.04,19.83 -15.04,32.83" fill="#72ac7c"/>
<polygon points="0.00,12.73 11.28,16.83 0.00,20.94 -11.28,16.83" fill="#9be9a8"/>
<polygon points="-11.28,32.83 -11.28,16.83 0.00,20.94 0.00,36.94" fill="#88cd93"/>
<polygon points="0.00,36.94 0.00,20.94 11.28,16.83 11.28,32.83" fill="#72ac7c"/>
<polygon points="52.62,17.73 63.90,21.83 52.62,25.94 41.35,21.83" fill="#9be9a8"/>
<polygon points="41.35,32.83 41.35,21.83 52.62,25.94 52.62,36.94" fill="#88cd93"/>
<polygon points="52.62,36.94 52.62,25.94 63.90,21.83 63.90,32.83" fill="#72ac7c"/>
<polygon points="78.93,11.73 90.21,15.83 78.93,19.94 67.66,15.83" fill="#40c463"/>
<polygon points="67.66,32.83 67.66,15.83 78.93,19.94 78.93,36.94" fill="#38ac57"/>
<polygon points="78.93,36.94 78.93,19.94 90.21,15.83 90.21,32.83" fill="#2f9149"/>
<polygon points="-65.78,33.52 -54.50,37.62 -65.78,41.73 -77.05,37.62" fill="#ebedf0"/>
<polygon points="92.09,33.52 103.37,37.62 92.09,41.73 80.81,37.62" fill="#ebedf0"/>
<polygon points="-39.47,17.52 -28.19,21.62 -39.47,25.73 -50.74,21.62" fill="#9be9a8"/>
<polygon points="-50.74,37.62 -50.74,21.62 -39.47,25.73 -39.47,41.73" fill="#88cd93"/>
<polygon points="-39.47,41.73 -39.47,25.73 -28.19,21.62 -28.19,37.62" fill="#72ac7c"/>
<polygon points="-13.16,22.52 -1.88,26.62 -13.16,30.73 -24.43,26.62" fill="#9be9a8"/>
<polygon points="-24.43,37.62 -24.43,26.62 -13.16,30.73 -13.16,41.73" fill="#88cd93"/>
<polygon points="-13.16,41.73 -13.16,30.73 -1.88,26.62 -1.88,37.62" fill="#72ac7c"/>
<polygon points="13.16,16.52 24.43,20.62 13.16,24.73 1.88,20.62" fill="#40c463"/>
<polygon points="1.88,37.62 1.88,20.62 13.16,24.73 13.16,41.73" fill="#38ac57"/>
<polygon points="13.16,41.73 13.16,24.73 24.43,20.62 24.43,37.62" fill="#2f9149"/>
<polygon points="39.47,16.52 50.74,20.62 39.47,24.73 28.19,20.62" fill="#40c463"/>
<polygon points="28.19,37.62 28.19,20.62 39.47,24.73 39.47,41.73" fill="#38ac57"/>
<polygon points="39.47,41.73 39.47,24.73 50.74,20.62 50.74,37.62" fill="#2f9149"/>
<polygon points="65.78,16.52 77.05,20.62 65.78,24.73 54.50,20.62" fill="#40c463"/>
<polygon points="54.50,37.62 54.50,20.62 65.78,24.73 65.78,41.73" fill="#38ac57"/>
<polygon points="65.78,41.73 65.78,24.73 77.05,20.62 77.05,37.62" fill="#2f9149"/>
<polygon points="-52.62,38.31 -41.35,42.41 -52.62,46.51 -63.90,42.41" fill="#ebedf0"/>
<polygon points="-26.31,38.31 -15.04,42.41 -26.31,46.51 -37.59,42.41" fill="#ebedf0"/>
<polygon points="78.93,38.31 90.21,42.41 78.93,46.51 67.66,42.41" fill="#ebedf0"/>
<polygon points="105.25,38.31 116.52,42.41 105.25,46.51 93.97,42.41" fill="#ebedf0"/>
<polygon points="0.00,25.31 11.28,29.41 0.00,33.51 -11.28,29.41" fill="#9be9a8"/>
<polygon points="-11.28,42.41 -11.28,29.41 0.00,33.51 0.00,46.51" fill="#88cd93"/>
<polygon points="0.00,46.51 0.00,33.51 11.28,29.41 11.28,42.41" fill="#72ac7c"/>
<polygon points="52.62,22.31 63.90,26.41 52.62,30.51 41.35,26.41" fill="#9be9a8"/>
<polygon points="41.35,42.41 41.35,26.41 52.62,30.51 52.62,46.51" fill="#88cd93"/>
<polygon points="52.62,46.51 52.62,30.51 63.90,26.41 63.90,42.41" fill="#72ac7c"/>
<polygon points="26.31,20.31 37.59,24.41 26.31,28.51 15.04,24.41" fill="#40c463"/>
<polygon points="15.04,42.41 15.04,24.41 26.31,28.51 26.31,46.51" fill="#38ac57"/>
<polygon points="26.31,46.51 26.31,28.51 37.59,24.41 37.59,42.41" fill="#2f9149"/>
<polygon points="-39.47,43.09 -28.19,47.20 -39.47,51.30 -50.74,47.20" fill="#ebedf0"/>
<polygon points="92.09,43.09 103.37,47.20 92.09,51.30 80.81,47.20" fill="#ebedf0"/>
<polygon points="118.40,43.09 129.68,47.20 118.40,51.30 107.12,47.20" fill="#ebedf0"/>
<polygon points="-13.16,30.09 -1.88,34.20 -13.16,38.30 -24.43,34.20" fill="#9be9a8"/>
<polygon points="-24.43,47.20 -24.43,34.20 -13.16,38.30 -13.16,51.30" fill="#88cd93"/>
<polygon points="-13.16,51.30 -13.16,38.30 -1.88,34.20 -1.88,47.20" fill="#72ac7c"/>
<polygon points="13.16,27.09 24.43,31.20 13.16,35.30 1.88,31.20" fill="#9be9a8"/>
<polygon points="1.88,47.20 1.88,31.20 13.16,35.30 13.16,51.30" fill="#88cd93"/>
<polygon points="13.16,51.30 13.16,35.30 24.43,31.20 24.43,47.20" fill="#72ac7c"/>
<polygon points="39.47,35.09 50.74,39.20 39.47,43.30 28.19,39.20" fill="#9be9a8"/>
<polygon points="28.19,47.20 28.19,39.20 39.47,43.30 39.47,51.30" fill="#88cd93"/>
<polygon points="39.47,51.30 39.47,43.30 50.74,39.20 50.74,47.20" fill="#72ac7c"/>
<polygon points="65.78,28.09 77.05,32.20 65.78,36.30 54.50,32.20" fill="#9be9a8"/>
<polygon points="54.50,47.20 54.50,32.20 65.78,36.30 65.78,51.30" fill="#88cd93"/>
<polygon points="65.78,51.30 65.78,36.30 77.05,32.20 77.05,47.20" fill="#72ac7c"/>
<polygon points="-26.31,47.88 -15.04,51.99 -26.31,56.09 -37.59,51.99" fill="#ebedf0"/>
<polygon points="52.62,47.88 63.90,51.99 52.62,56.09 41.35,51.99" fill="#ebedf0"/>
<polygon points="78.93,47.88 90.21,51.99 78.93,56.09 67.66,51.99" fill="#ebedf0"/>
<polygon points="105.25,47.88 116.52,51.99 105.25,56.09 93.97,51.99" fill="#ebedf0"/>
<polygon points="131.56,47.88 142.83,51.99 131.56,56.09 120.28,51.99" fill="#ebedf0"/>
<polygon points="0.00,32.88 11.28,36.99 0.00,41.09 -11.28,36.99" fill="#9be9a8"/>
<polygon points="-11.28,51.99 -11.28,36.99 0.00,41.09 0.00,56.09" fill="#88cd93"/>
<polygon points="0.00,56.09 0.00,41.09 11.28,36.99 11.28,51.99" fill="#72ac7c"/>
<polygon points="26.31,33.88 37.59,37.99 26.31,42.09 15.04,37.99" fill="#9be9a8"/>
<polygon points="15.04,51.99 15.04,37.99 26.31,42.09 26.31,56.09" fill="#88cd93"/>
<polygon points="26.31,56.09 26.31,42.09 37.59,37.99 37.59,51.99" fill="#72ac7c"/>
<polygon points="39.47,52.67 50.74,56.78 39.47,60.88 28.19,56.78" fill="#ebedf0"/>
<polygon points="65.78,52.67 77.05,56.78 65.78,60.88 54.50,56.78" fill="#ebedf0"/>
<polygon points="92.09,52.67 103.37,56.78 92.09,60.88 80.81,56.78" fill="#ebedf0"/>
<polygon points="118.40,52.67 129.68,56.78 118.40,60.88 107.12,56.78" fill="#ebedf0"/>
<polygon points="144.71,52.67 155.99,56.78 144.71,60.88 133.44,56.78" fill="#ebedf0"/>
<polygon points="-13.16,41.67 -1.88,45.78 -13.16,49.88 -24.43,45.78" fill="#9be9a8"/>
<polygon points="-24.43,56.78 -24.43,45.78 -13.16,49.88 -13.16,60.88" fill="#88cd93"/>
<polygon points="-13.16,60.88 -13.16,49.88 -1.88,45.78 -1.88,56.78" fill="#72ac7c"/>
<polygon points="13.16,44.67 24.43,48.78 13.16,52.88 1.88,48.78" fill="#9be9a8"/>
<polygon points="1.88,56.78 1.88,48.78 13.16,52.88 13.16,60.88" fill="#88cd93"/>
<polygon points="13.16,60.88 13.16,52.88 24.43,48.78 24.43,56.78" fill="#72ac7c"/>
<polygon points="0.00,57.46 11.28,61.56 0.00,65.67 -11.28,61.56" fill="#ebedf0"/>
<polygon points="26.31,57.46 37.59,61.56 26.31,65.67 15.04,61.56" fill="#ebedf0"/>
<polygon points="131.56,57.46 142.83,61.56 131.56,65.67 120.28,61.56" fill="#ebedf0"/>
<polygon points="157.87,57.46 169.14,61.56 157.87,65.67 146.59,61.56" fill="#ebedf0"/>
<polygon points="52.62,49.46 63.90,53.56 52.62,57.67 41.35,53.56" fill="#9be9a8"/>
<polygon points="41.35,61.56 41.35,53.56 52.62,57.67 52.62,65.67" fill="#88cd93"/>
<polygon points="52.62,65.67 52.62,57.67 63.90,53.56 63.90,61.56" fill="#72ac7c"/>
<polygon points="78.93,46.46 90.21,50.56 78.93,54.67 67.66,50.56" fill="#9be9a8"/>
<polygon points="67.66,61.56 67.66,50.56 78.93,54.67 78.93,65.67" fill="#88cd93"/>
<polygon points="78.93,65.67 78.93,54.67 90.21,50.56 90.21,61.56" fill="#72ac7c"/>
<polygon points="105.25,39.46 116.52,43.56 105.25,47.67 93.97,43.56" fill="#30a14e"/>
<polygon points="93.97,61.56 93.97,43.56 105.25,47.67 105.25,65.67" fill="#2a8d44"/>
<polygon points="105.25,65.67 105.25,47.67 116.52,43.56 116.52,61.56" fill="#237739"/>
<polygon points="13.16,62.25 24.43,66.35 13.16,70.46 1.88,66.35" fill="#ebedf0"/>
<polygon points="39.47,62.25 50.74,66.35 39.47,70.46 28.19,66.35" fill="#ebedf0"/>
<polygon points="92.09,62.25 103.37,66.35 92.09,70.46 80.81,66.35" fill="#ebedf0"/>
<polygon points="171.02,62.25 182.30,66.35 171.02,70.46 159.75,66.35" fill="#ebedf0"/>
<polygon points="65.78,54.25 77.05,58.35 65.78,62.46 54.50,58.35" fill="#9be9a8"/>
<polygon points="54.50,66.35 54.50,58.35 65.78,62.46 65.78,70.46" fill="#88cd93"/>
<polygon points="65.78,70.46 65.78,62.46 77.05,58.35 77.05,66.35" fill="#72ac7c"/>
<polygon points="118.40,51.25 129.68,55.35 118.40,59.46 107.12,55.35" fill="#9be9a8"/>
<polygon points="107.12,66.35 107.12,55.35 118.40,59.46 118.40,70.46" fill="#88cd93"/>
<polygon points="118.40,70.46 118.40,59.46 129.68,55.35 129.68,66.35" fill="#72ac7c"/>
<polygon points="144.71,54.25 155.99,58.35 144.71,62.46 133.44,58.35" fill="#9be9a8"/>
<polygon points="133.44,66.35 133.44,58.35 144.71,62.46 144.71,70.46" fill="#88cd93"/>
<polygon points="144.71,70.46 144.71,62.46 155.99,58.35 155.99,66.35" fill="#72ac7c"/>
<polygon points="26.31,67.04 37.59,71.14 26.31,75.24 15.04,71.14" fill="#ebedf0"/>
<polygon points="78.93,67.04 90.21,71.14 78.93,75.24 67.66,71.14" fill="#ebedf0"/>
<polygon points="157.87,67.04 169.14,71.14 157.87,75.24 146.59,71.14" fill="#ebedf0"/>
<polygon points="184.18,67.04 195.46,71.14 184.18,75.24 172.90,71.14" fill="#ebedf0"/>
<polygon points="105.25,59.04 116.52,63.14 105.25,67.24 93.97,63.14" fill="#9be9a8"/>
<polygon points="93.97,71.14 93.97,63.14 105.25,67.24 105.25,75.24" fill="#88cd93"/>
<polygon points="105.25,75.24 105.25,67.24 116.52,63.14 116.52,71.14" fill="#72ac7c"/>
<polygon points="131.56,56.04 142.83,60.14 131.56,64.24 120.28,60.14" fill="#9be9a8"/>
<polygon points="120.28,71.14 120.28,60.14 131.56,64.24 131.56,75.24" fill="#88cd93"/>
<polygon points="131.56,75.24 131.56,64.24 142.83,60.14 142.83,71.14" fill="#72ac7c"/>
<polygon points="52.62,50.04 63.90,54.14 52.62,58.24 41.35,54.14" fill="#40c463"/>
<polygon points="41.35,71.14 41.35,54.14 52.62,58.24 52.62,75.24" fill="#38ac57"/>
<polygon points="52.62,75.24 52.62,58.24 63.90,54.14 63.90,71.14" fill="#2f9149"/>
<polygon points="39.47,71.82 50.74,75.93 39.47,80.03 28.19,75.93" fill="#ebedf0"/>
<polygon points="92.09,71.82 103.37,75.93 92.09,80.03 80.81,75.93" fill="#ebedf0"/>
<polygon points="118.40,71.82 129.68,75.93 118.40,80.03 107.12,75.93" fill="#ebedf0"/>
<polygon points="144.71,71.82 155.99,75.93 144.71,80.03 133.44,75.93" fill="#ebedf0"/>
<polygon points="171.02,71.82 182.30,75.93 171.02,80.03 159.75,75.93" fill="#ebedf0"/>
<polygon points="197.34,71.82 208.61,75.93 197.34,80.03 186.06,75.93" fill="#ebedf0"/>
<polygon points="65.78,63.82 77.05,67.93 65.78,72.03 54.50,67.93" fill="#9be9a8"/>
<polygon points="54.50,75.93 54.50,67.93 65.78,72.03 65.78,80.03" fill="#88cd93"/>
<polygon points="65.78,80.03 65.78,72.03 77.05,67.93 77.05,75.93" fill="#72ac7c"/>
<polygon points="52.62,76.61 63.90,80.72 52.62,84.82 41.35,80.72" fill="#ebedf0"/>
<polygon points="78.93,76.61 90.21,80.72 78.93,84.82 67.66,80.72" fill="#ebedf0"/>
<polygon points="105.25,76.61 116.52,80.72 105.25,84.82 93.97,80.72" fill="#ebedf0"/>
<polygon points="131.56,76.61 142.83,80.72 131.56,84.82 120.28,80.72" fill="#ebedf0"/>
<polygon points="157.87,76.61 169.14,80.72 157.87,84.82 146.59,80.72" fill="#ebedf0"/>
<polygon points="210.49,76.61 221.77,80.72 210.49,84.82 199.21,80.72" fill="#ebedf0"/>
<polygon points="184.18,61.61 195.46,65.72 184.18,69.82 172.90,65.72" fill="#9be9a8"/>
<polygon points="172.90,80.72 172.90,65.72 184.18,69.82 184.18,84.82" fill="#88cd93"/>
<polygon points="184.18,84.82 184.18,69.82 195.46,65.72 195.46,80.72" fill="#72ac7c"/>
<polygon points="65.78,81.40 77.05,85.51 65.78,89.61 54.50,85.51" fill="#ebedf0"/>
<polygon points="92.09,81.40 103.37,85.51 92.09,89.61 80.81,85.51" fill="#ebedf0"/>
<polygon points="118.40,81.40 129.68,85.51 118.40,89.61 107.12,85.51" fill="#ebedf0"/>
<polygon points="144.71,81.40 155.99,85.51 144.71,89.61 133.44,85.51" fill="#ebedf0"/>
<polygon points="223.65,81.40 234.92,85.51 223.65,89.61 212.37,85.51" fill="#ebedf0"/>
<polygon points="171.02,73.40 182.30,77.51 171.02,81.61 159.75,77.51" fill="#9be9a8"/>
<polygon points="159.75,85.51 159.75,77.51 171.02,81.61 171.02,89.61" fill="#88cd93"/>
<polygon points="171.02,89.61 171.02,81.61 182.30,77.51 182.30,85.51" fill="#72ac7c"/>
<polygon points="197.34,73.40 208.61,77.51 197.34,81.61 186.06,77.51" fill="#9be9a8"/>
<polygon points="186.06,85.51 186.06,77.51 197.34,81.61 197.34,89.61" fill="#88cd93"/>
<polygon points="197.34,89.61 197.34,81.61 208.61,77.51 208.61,85.51" fill="#72ac7c"/>
<polygon points="78.93,86.19 90.21,90.29 78.93,94.40 67.66,90.29" fill="#ebedf0"/>
<polygon points="105.25,86.19 116.52,90.29 105.25,94.40 93.97,90.29" fill="#ebedf0"/>
<polygon points="131.56,86.19 142.83,90.29 131.56,94.40 120.28,90.29" fill="#ebedf0"/>
<polygon points="236.80,86.19 248.08,90.29 236.80,94.40 225.53,90.29" fill="#ebedf0"/>
<polygon points="157.87,70.19 169.14,74.29 157.87,78.40 146.59,74.29" fill="#9be9a8"/>
<polygon points="146.59,90.29 146.59,74.29 157.87,78.40 157.87,94.40" fill="#88cd93"/>
<polygon points="157.87,94.40 157.87,78.40 169.14,74.29 169.14,90.29" fill="#72ac7c"/>
<polygon points="210.49,72.19 221.77,76.29 210.49,80.40 199.21,76.29" fill="#9be9a8"/>
<polygon points="199.21,90.29 199.21,76.29 210.49,80.40 210.49,94.40" fill="#88cd93"/>
<polygon points="210.49,94.40 210.49,80.40 221.77,76.29 221.77,90.29" fill="#72ac7c"/>
<polygon points="184.18,68.19 195.46,72.29 184.18,76.40 172.90,72.29" fill="#40c463"/>
<polygon points="172.90,90.29 172.90,72.29 184.18,76.40 184.18,94.40" fill="#38ac57"/>
<polygon points="184.18,94.40 184.18,76.40 195.46,72.29 195.46,90.29" fill="#2f9149"/>
<polygon points="92.09,90.98 103.37,95.08 92.09,99.19 80.81,95.08" fill="#ebedf0"/>
<polygon points="249.96,90.98 261.23,95.08 249.96,99.19 238.68,95.08" fill="#ebedf0"/>
<polygon points="118.40,82.98 129.68,87.08 118.40,91.19 107.12,87.08" fill="#9be9a8"/>
<polygon points="107.12,95.08 107.12,87.08 118.40,91.19 118.40,99.19" fill="#88cd93"/>
<polygon points="118.40,99.19 118.40,91.19 129.68,87.08 129.68,95.08" fill="#72ac7c"/>
<polygon points="144.71,74.98 155.99,79.08 144.71,83.19 133.44,79.08" fill="#9be9a8"/>
<polygon points="133.44,95.08 133.44,79.08 144.71,83.19 144.71,99.19" fill="#88cd93"/>
<polygon points="144.71,99.19 144.71,83.19 155.99,79.08 155.99,95.08" fill="#72ac7c"/>
<polygon points="197.34,82.98 208.61,87.08 197.34,91.19 186.06,87.08" fill="#9be9a8"/>
<polygon points="186.06,95.08 186.06,87.08 197.34,91.19 197.34,99.19" fill="#88cd93"/>
<polygon points="197.34,99.19 197.34,91.19 208.61,87.08 208.61,95.08" fill="#72ac7c"/>
<polygon points="171.02,72.98 182.30,77.08 171.02,81.19 159.75,77.08" fill="#40c463"/>
<polygon points="159.75,95.08 159.75,77.08 171.02,81.19 171.02,99.19" fill="#38ac57"/>
<polygon points="171.02,99.19 171.02,81.19 182.30,77.08 182.30,95.08" fill="#2f9149"/>
<polygon points="223.65,72.98 234.92,77.08 223.65,81.19 212.37,77.08" fill="#40c463"/>
<polygon points="212.37,95.08 212.37,77.08 223.65,81.19 223.65,99.19" fill="#38ac57"/>
<polygon points="223.65,99.19 223.65,81.19 234.92,77.08 234.92,95.08" fill="#2f9149"/>
<polygon points="263.11,95.77 274.39,99.87 263.11,103.97 251.84,99.87" fill="#ebedf0"/>
<polygon points="105.25,87.77 116.52,91.87 105.25,95.97 93.97,91.87" fill="#9be9a8"/>
<polygon points="93.97,99.87 93.97,91.87 105.25,95.97 105.25,103.97" fill="#88cd93"/>
<polygon points="105.25,103.97 105.25,95.97 116.52,91.87 116.52,99.87" fill="#72ac7c"/>
<polygon points="131.56,79.77 142.83,83.87 131.56,87.97 120.28,83.87" fill="#9be9a8"/>
<polygon points="120.28,99.87 120.28,83.87 131.56,87.97 131.56,103.97" fill="#88cd93"/>
<polygon points="131.56,103.97 131.56,87.97 142.83,83.87 142.83,99.87" fill="#72ac7c"/>
<polygon points="157.87,82.77 169.14,86.87 157.87,90.97 146.59,86.87" fill="#9be9a8"/>
<polygon points="146.59,99.87 146.59,86.87 157.87,90.97 157.87,103.97" fill="#88cd93"/>
<polygon points="157.87,103.97 157.87,90.97 169.14,86.87 169.14,99.87" fill="#72ac7c"/>
<polygon points="184.18,81.77 195.46,85.87 184.18,89.97 172.90,85.87" fill="#9be9a8"/>
<polygon points="172.90,99.87 172.90,85.87 184.18,89.97 184.18,103.97" fill="#88cd93"/>
<polygon points="184.18,103.97 184.18,89.97 195.46,85.87 195.46,99.87" fill="#72ac7c"/>
<polygon points="210.49,80.77 221.77,84.87 210.49,88.97 199.21,84.87" fill="#9be9a8"/>
<polygon points="199.21,99.87 199.21,84.87 210.49,88.97 210.49,103.97" fill="#88cd93"/>
<polygon points="210.49,103.97 210.49,88.97 221.77,84.87 221.77,99.87" fill="#72ac7c"/>
<polygon points="236.80,84.77 248.08,88.87 236.80,92.97 225.53,88.87" fill="#9be9a8"/>
<polygon points="225.53,99.87 225.53,88.87 236.80,92.97 236.80,103.97" fill="#88cd93"/>
<polygon points="236.80,103.97 236.80,92.97 248.08,88.87 248.08,99.87" fill="#72ac7c"/>
<polygon points="118.40,92.55 129.68,96.66 118.40,100.76 107.12,96.66" fill="#9be9a8"/>
<polygon points="107.12,104.66 107.12,96.66 118.40,100.76 118.40,108.76" fill="#88cd93"/>
<polygon points="118.40,108.76 118.40,100.76 129.68,96.66 129.68,104.66" fill="#72ac7c"/>
<polygon points="144.71,89.55 155.99,93.66 144.71,97.76 133.44,93.66" fill="#9be9a8"/>
<polygon points="133.44,104.66 133.44,93.66 144.71,97.76 144.71,108.76" fill="#88cd93"/>
<polygon points="144.71,108.76 144.71,97.76 155.99,93.66 155.99,104.66" fill="#72ac7c"/>
<polygon points="223.65,87.55 234.92,91.66 223.65,95.76 212.37,91.66" fill="#9be9a8"/>
<polygon points="212.37,104.66 212.37,91.66 223.65,95.76 223.65,108.76" fill="#88cd93"/>
<polygon points="223.65,108.76 223.65,95.76 234.92,91.66 234.92,104.66" fill="#72ac7c"/>
<polygon points="249.96,89.55 261.23,93.66 249.96,97.76 238.68,93.66" fill="#9be9a8"/>
<polygon points="238.68,104.66 238.68,93.66 249.96,97.76 249.96,108.76" fill="#88cd93"/>
<polygon points="249.96,108.76 249.96,97.76 261.23,93.66 261.23,104.66" fill="#72ac7c"/>
<polygon points="276.27,87.55 287.55,91.66 276.27,95.76 264.99,91.66" fill="#9be9a8"/>
<polygon points="264.99,104.66 264.99,91.66 276.27,95.76 276.27,108.76" fill="#88cd93"/>
<polygon points="276.27,108.76 276.27,95.76 287.55,91.66 287.55,104.66" fill="#72ac7c"/>
<polygon points="171.02,83.55 182.30,87.66 171.02,91.76 159.75,87.66" fill="#40c463"/>
<polygon points="159.75,104.66 159.75,87.66 171.02,91.76 171.02,108.76" fill="#38ac57"/>
<polygon points="171.02,108.76 171.02,91.76 182.30,87.66 182.30,104.66" fill="#2f9149"/>
<polygon points="197.34,83.55 208.61,87.66 197.34,91.76 186.06,87.66" fill="#40c463"/>
<polygon points="186.06,104.66 186.06,87.66 197.34,91.76 197.34,108.76" fill="#38ac57"/>
<polygon points="197.34,108.76 197.34,91.76 208.61,87.66 208.61,104.66" fill="#2f9149"/>
<polygon points="131.56,105.34 142.83,109.45 131.56,113.55 120.28,109.45" fill="#ebedf0"/>
<polygon points="157.87,105.34 169.14,109.45 157.87,113.55 146.59,109.45" fill="#ebedf0"/>
<polygon points="289.43,105.34 300.70,109.45 289.43,113.55 278.15,109.45" fill="#ebedf0"/>
<polygon points="210.49,97.34 221.77,101.45 210.49,105.55 199.21,101.45" fill="#9be9a8"/>
<polygon points="199.21,109.45 199.21,101.45 210.49,105.55 210.49,113.55" fill="#88cd93"/>
<polygon points="210.49,113.55 210.49,105.55 221.77,101.45 221.77,109.45" fill="#72ac7c"/>
<polygon points="236.80,92.34 248.08,96.45 236.80,100.55 225.53,96.45" fill="#9be9a8"/>
<polygon points="225.53,109.45 225.53,96.45 236.80,100.55 236.80,113.55" fill="#88cd93"/>
<polygon points="236.80,113.55 236.80,100.55 248.08,96.45 248.08,109.45" fill="#72ac7c"/>
<polygon points="263.11,90.34 274.39,94.45 263.11,98.55 251.84,94.45" fill="#9be9a8"/>
<polygon points="251.84,109.45 251.84,94.45 263.11,98.55 263.11,113.55" fill="#88cd93"/>
<polygon points="263.11,113.55 263.11,98.55 274.39,94.45 274.39,109.45" fill="#72ac7c"/>
<polygon points="184.18,87.34 195.46,91.45 184.18,95.55 172.90,91.45" fill="#40c463"/>
<polygon points="172.90,109.45 172.90,91.45 184.18,95.55 184.18,113.55" fill="#38ac57"/>
<polygon points="184.18,113.55 184.18,95.55 195.46,91.45 195.46,109.45" fill="#2f9149"/>
<polygon points="144.71,110.13 155.99,114.23 144.71,118.34 133.44,114.23" fill="#ebedf0"/>
<polygon points="302.58,110.13 313.86,114.23 302.58,118.34 291.30,114.23" fill="#ebedf0"/>
<polygon points="171.02,95.13 182.30,99.23 171.02,103.34 159.75,99.23" fill="#9be9a8"/>
<polygon points="159.75,114.23 159.75,99.23 171.02,103.34 171.02,118.34" fill="#88cd93"/>
<polygon points="171.02,118.34 171.02,103.34 182.30,99.23 182.30,114.23" fill="#72ac7c"/>
<polygon points="197.34,94.13 208.61,98.23 197.34,102.34 186.06,98.23" fill="#9be9a8"/>
<polygon points="186.06,114.23 186.06,98.23 197.34,102.34 197.34,118.34" fill="#88cd93"/>
<polygon points="197.34,118.34 197.34,102.34 208.61,98.23 208.61,114.23" fill="#72ac7c"/>
<polygon points="223.65,97.13 234.92,101.23 223.65,105.34 212.37,101.23" fill="#9be9a8"/>
<polygon points="212.37,114.23 212.37,101.23 223.65,105.34 223.65,118.34" fill="#88cd93"/>
<polygon points="223.65,118.34 223.65,105.34 234.92,101.23 234.92,114.23" fill="#72ac7c"/>
<polygon points="276.27,99.13 287.55,103.23 276.27,107.34 264.99,103.23" fill="#9be9a8"/>
<polygon points="264.99,114.23 264.99,103.23 276.27,107.34 276.27,118.34" fill="#88cd93"/>
<polygon points="276.27,118.34 276.27,107.34 287.55,103.23 287.55,114.23" fill="#72ac7c"/>
<polygon points="249.96,92.13 261.23,96.23 249.96,100.34 238.68,96.23" fill="#40c463"/>
<polygon points="238.68,114.23 238.68,96.23 249.96,100.34 249.96,118.34" fill="#38ac57"/>
<polygon points="249.96,118.34 249.96,100.34 261.23,96.23 261.23,114.23" fill="#2f9149"/>
<polygon points="157.87,114.92 169.14,119.02 157.87,123.13 146.59,119.02" fill="#ebedf0"/>
<polygon points="184.18,114.92 195.46,119.02 184.18,123.13 172.90,119.02" fill="#ebedf0"/>
<polygon points="315.74,114.92 327.01,119.02 315.74,123.13 304.46,119.02" fill="#ebedf0"/>
<polygon points="236.80,98.92 248.08,103.02 236.80,107.13 225.53,103.02" fill="#9be9a8"/>
<polygon points="225.53,119.02 225.53,103.02 236.80,107.13 236.80,123.13" fill="#88cd93"/>
<polygon points="236.80,123.13 236.80,107.13 248.08,103.02 248.08,119.02" fill="#72ac7c"/>
<polygon points="210.49,96.92 221.77,101.02 210.49,105.13 199.21,101.02" fill="#40c463"/>
<polygon points="199.21,119.02 199.21,101.02 210.49,105.13 210.49,123.13" fill="#38ac57"/>
<polygon points="210.49,123.13 210.49,105.13 221.77,101.02 221.77,119.02" fill="#2f9149"/>
<polygon points="263.11,96.92 274.39,101.02 263.11,105.13 251.84,101.02" fill="#40c463"/>
<polygon points="251.84,119.02 251.84,101.02 263.11,105.13 263.11,123.13" fill="#38ac57"/>
<polygon points="263.11,123.13 263.11,105.13 274.39,101.02 274.39,119.02" fill="#2f9149"/>
<polygon points="289.43,96.92 300.70,101.02 289.43,105.13 278.15,101.02" fill="#30a14e"/>
<polygon points="278.15,119.02 278.15,101.02 289.43,105.13 289.43,123.13" fill="#2a8d44"/>
<polygon points="289.43,123.13 289.43,105.13 300.70,101.02 300.70,119.02" fill="#237739"/>
<polygon points="171.02,119.71 182.30,123.81 171.02,127.92 159.75,123.81" fill="#ebedf0"/>
<polygon points="197.34,108.71 208.61,112.81 197.34,116.92 186.06,112.81" fill="#9be9a8"/>
<polygon points="186.06,123.81 186.06,112.81 197.34,116.92 197.34,127.92" fill="#88cd93"/>
<polygon points="197.34,127.92 197.34,116.92 208.61,112.81 208.61,123.81" fill="#72ac7c"/>
<polygon points="223.65,111.71 234.92,115.81 223.65,119.92 212.37,115.81" fill="#9be9a8"/>
<polygon points="212.37,123.81 212.37,115.81 223.65,119.92 223.65,127.92" fill="#88cd93"/>
<polygon points="223.65,127.92 223.65,119.92 234.92,115.81 234.92,123.81" fill="#72ac7c"/>
<polygon points="249.96,104.71 261.23,108.81 249.96,112.92 238.68,108.81" fill="#9be9a8"/>
<polygon points="238.68,123.81 238.68,108.81 249.96,112.92 249.96,127.92" fill="#88cd93"/>
<polygon points="249.96,127.92 249.96,112.92 261.23,108.81 261.23,123.81" fill="#72ac7c"/>
<polygon points="276.27,103.71 287.55,107.81 276.27,111.92 264.99,107.81" fill="#9be9a8"/>
<polygon points="264.99,123.81 264.99,107.81 276.27,111.92 276.27,127.92" fill="#88cd93"/>
<polygon points="276.27,127.92 276.27,111.92 287.55,107.81 287.55,123.81" fill="#72ac7c"/>
<polygon points="302.58,108.71 313.86,112.81 302.58,116.92 291.30,112.81" fill="#9be9a8"/>
<polygon points="291.30,123.81 291.30,112.81 302.58,116.92 302.58,127.92" fill="#88cd93"/>
<polygon points="302.58,127.92 302.58,116.92 313.86,112.81 313.86,123.81" fill="#72ac7c"/>
<polygon points="328.89,111.71 340.17,115.81 328.89,119.92 317.62,115.81" fill="#9be9a8"/>
<polygon points="317.62,123.81 317.62,115.81 328.89,119.92 328.89,127.92" fill="#88cd93"/>
<polygon points="328.89,127.92 328.89,119.92 340.17,115.81 340.17,123.81" fill="#72ac7c"/>
<polygon points="342.05,124.50 353.32,128.60 342.05,132.70 330.77,128.60" fill="#ebedf0"/>
<polygon points="184.18,116.50 195.46,120.60 184.18,124.70 172.90,120.60" fill="#9be9a8"/>
<polygon points="172.90,128.60 172.90,120.60 184.18,124.70 184.18,132.70" fill="#88cd93"/>
<polygon points="184.18,132.70 184.18,124.70 195.46,120.60 195.46,128.60" fill="#72ac7c"/>
<polygon points="210.49,110.50 221.77,114.60 210.49,118.70 199.21,114.60" fill="#9be9a8"/>
<polygon points="199.21,128.60 199.21,114.60 210.49,118.70 210.49,132.70" fill="#88cd93"/>
<polygon points="210.49,132.70 210.49,118.70 221.77,114.60 221.77,128.60" fill="#72ac7c"/>
<polygon points="263.11,113.50 274.39,117.60 263.11,121.70 251.84,117.60" fill="#9be9a8"/>
<polygon points="251.84,128.60 251.84,117.60 263.11,121.70 263.11,132.70" fill="#88cd93"/>
<polygon points="263.11,132.70 263.11,121.70 274.39,117.60 274.39,128.60" fill="#72ac7c"/>
<polygon points="289.43,111.50 300.70,115.60 289.43,119.70 278.15,115.60" fill="#9be9a8"/>
<polygon points="278.15,128.60 278.15,115.60 289.43,119.70 289.43,132.70" fill="#88cd93"/>
<polygon points="289.43,132.70 289.43,119.70 300.70,115.60 300.70,128.60" fill="#72ac7c"/>
<polygon points="315.74,111.50 327.01,115.60 315.74,119.70 304.46,115.60" fill="#9be9a8"/>
<polygon points="304.46,128.60 304.46,115.60 315.74,119.70 315.74,132.70" fill="#88cd93"/>
<polygon points="315.74,132.70 315.74,119.70 327.01,115.60 327.01,128.60" fill="#72ac7c"/>
<polygon points="236.80,106.50 248.08,110.60 236.80,114.70 225.53,110.60" fill="#30a14e"/>
<polygon points="225.53,128.60 225.53,110.60 236.80,114.70 236.80,132.70" fill="#2a8d44"/>
<polygon points="236.80,132.70 236.80,114.70 248.08,110.60 248.08,128.60" fill="#237739"/>
<polygon points="197.34,129.28 208.61,133.39 197.34,137.49 186.06,133.39" fill="#ebedf0"/>
<polygon points="302.58,129.28 313.86,133.39 302.58,137.49 291.30,133.39" fill="#ebedf0"/>
<polygon points="328.89,129.28 340.17,133.39 328.89,137.49 317.62,133.39" fill="#ebedf0"/>
<polygon points="355.20,129.28 366.48,133.39 355.20,137.49 343.93,133.39" fill="#ebedf0"/>
<polygon points="223.65,113.28 234.92,117.39 223.65,121.49 212.37,117.39" fill="#9be9a8"/>
<polygon points="212.37,133.39 212.37,117.39 223.65,121.49 223.65,137.49" fill="#88cd93"/>
<polygon points="223.65,137.49 223.65,121.49 234.92,117.39 234.92,133.39" fill="#72ac7c"/>
<polygon points="249.96,118.28 261.23,122.39 249.96,126.49 238.68,122.39" fill="#9be9a8"/>
<polygon points="238.68,133.39 238.68,122.39 249.96,126.49 249.96,137.49" fill="#88cd93"/>
<polygon points="249.96,137.49 249.96,126.49 261.23,122.39 261.23,133.39" fill="#72ac7c"/>
<polygon points="276.27,114.28 287.55,118.39 276.27,122.49 264.99,118.39" fill="#9be9a8"/>
<polygon points="264.99,133.39 264.99,118.39 276.27,122.49 276.27,137.49" fill="#88cd93"/>
<polygon points="276.27,137.49 276.27,122.49 287.55,118.39 287.55,133.39" fill="#72ac7c"/>
<polygon points="210.49,134.07 221.77,138.18 210.49,142.28 199.21,138.18" fill="#ebedf0"/>
<polygon points="236.80,120.07 248.08,124.18 236.80,128.28 225.53,124.18" fill="#9be9a8"/>
<polygon points="225.53,138.18 225.53,124.18 236.80,128.28 236.80,142.28" fill="#88cd93"/>
<polygon points="236.80,142.28 236.80,128.28 248.08,124.18 248.08,138.18" fill="#72ac7c"/>
<polygon points="263.11,123.07 274.39,127.18 263.11,131.28 251.84,127.18" fill="#9be9a8"/>
<polygon points="251.84,138.18 251.84,127.18 263.11,131.28 263.11,142.28" fill="#88cd93"/>
<polygon points="263.11,142.28 263.11,131.28 274.39,127.18 274.39,138.18" fill="#72ac7c"/>
<polygon points="289.43,126.07 300.70,130.18 289.43,134.28 278.15,130.18" fill="#9be9a8"/>
<polygon points="278.15,138.18 278.15,130.18 289.43,134.28 289.43,142.28" fill="#88cd93"/>
<polygon points="289.43,142.28 289.43,134.28 300.70,130.18 300.70,138.18" fill="#72ac7c"/>
<polygon points="315.74,121.07 327.01,125.18 315.74,129.28 304.46,125.18" fill="#9be9a8"/>
<polygon points="304.46,138.18 304.46,125.18 315.74,129.28 315.74,142.28" fill="#88cd93"/>
<polygon points="315.74,142.28 315.74,129.28 327.01,125.18 327.01,138.18" fill="#72ac7c"/>
<polygon points="342.05,120.07 353.32,124.18 342.05,128.28 330.77,124.18" fill="#9be9a8"/>
<polygon points="330.77,138.18 330.77,124.18 342.05,128.28 342.05,142.28" fill="#88cd93"/>
<polygon points="342.05,142.28 342.05,128.28 353.32,124.18 353.32,138.18" fill="#72ac7c"/>
<polygon points="368.36,126.07 379.64,130.18 368.36,134.28 357.08,130.18" fill="#9be9a8"/>
<polygon points="357.08,138.18 357.08,130.18 368.36,134.28 368.36,142.28" fill="#88cd93"/>
<polygon points="368.36,142.28 368.36,134.28 379.64,130.18 379.64,138.18" fill="#72ac7c"/>
<polygon points="223.65,138.86 234.92,142.96 223.65,147.07 212.37,142.96" fill="#ebedf0"/>
<polygon points="249.96,138.86 261.23,142.96 249.96,147.07 238.68,142.96" fill="#ebedf0"/>
<polygon points="276.27,138.86 287.55,142.96 276.27,147.07 264.99,142.96" fill="#ebedf0"/>
<polygon points="328.89,138.86 340.17,142.96 328.89,147.07 317.62,142.96" fill="#ebedf0"/>
<polygon points="381.52,138.86 392.79,142.96 381.52,147.07 370.24,142.96" fill="#ebedf0"/>
<polygon points="302.58,124.86 313.86,128.96 302.58,133.07 291.30,128.96" fill="#9be9a8"/>
<polygon points="291.30,142.96 291.30,128.96 302.58,133.07 302.58,147.07" fill="#88cd93"/>
<polygon points="302.58,147.07 302.58,133.07 313.86,128.96 313.86,142.96" fill="#72ac7c"/>
<polygon points="355.20,122.86 366.48,126.96 355.20,131.07 343.93,126.96" fill="#9be9a8"/>
<polygon points="343.93,142.96 343.93,126.96 355.20,131.07 355.20,147.07" fill="#88cd93"/>
<polygon points="355.20,147.07 355.20,131.07 366.48,126.96 366.48,142.96" fill="#72ac7c"/>
<polygon points="236.80,143.65 248.08,147.75 236.80,151.86 225.53,147.75" fill="#ebedf0"/>
<polygon points="263.11,143.65 274.39,147.75 263.11,151.86 251.84,147.75" fill="#ebedf0"/>
<polygon points="289.43,143.65 300.70,147.75 289.43,151.86 278.15,147.75" fill="#ebedf0"/>
<polygon points="342.05,143.65 353.32,147.75 342.05,151.86 330.77,147.75" fill="#ebedf0"/>
<polygon points="315.74,135.65 327.01,139.75 315.74,143.86 304.46,139.75" fill="#9be9a8"/>
<polygon points="304.46,147.75 304.46,139.75 315.74,143.86 315.74,151.86" fill="#88cd93"/>
<polygon points="315.74,151.86 315.74,143.86 327.01,139.75 327.01,147.75" fill="#72ac7c"/>
<polygon points="368.36,127.65 379.64,131.75 368.36,135.86 357.08,131.75" fill="#9be9a8"/>
<polygon points="357.08,147.75 357.08,131.75 368.36,135.86 368.36,151.86" fill="#88cd93"/>
<polygon points="368.36,151.86 368.36,135.86 379.64,131.75 379.64,147.75" fill="#72ac7c"/>
<polygon points="394.67,126.65 405.95,130.75 394.67,134.86 383.39,130.75" fill="#40c463"/>
<polygon points="383.39,147.75 383.39,130.75 394.67,134.86 394.67,151.86" fill="#38ac57"/>
<polygon points="394.67,151.86 394.67,134.86 405.95,130.75 405.95,147.75" fill="#2f9149"/>
<polygon points="249.96,148.44 261.23,152.54 249.96,156.65 238.68,152.54" fill="#ebedf0"/>
<polygon points="276.27,148.44 287.55,152.54 276.27,156.65 264.99,152.54" fill="#ebedf0"/>
<polygon points="302.58,148.44 313.86,152.54 302.58,156.65 291.30,152.54" fill="#ebedf0"/>
<polygon points="407.83,148.44 419.10,152.54 407.83,156.65 396.55,152.54" fill="#ebedf0"/>
<polygon points="328.89,137.44 340.17,141.54 328.89,145.65 317.62,141.54" fill="#9be9a8"/>
<polygon points="317.62,152.54 317.62,141.54 328.89,145.65 328.89,156.65" fill="#88cd93"/>
<polygon points="328.89,156.65 328.89,145.65 340.17,141.54 340.17,152.54" fill="#72ac7c"/>
<polygon points="355.20,137.44 366.48,141.54 355.20,145.65 343.93,141.54" fill="#9be9a8"/>
<polygon points="343.93,152.54 343.93,141.54 355.20,145.65 355.20,156.65" fill="#88cd93"/>
<polygon points="355.20,156.65 355.20,145.65 366.48,141.54 366.48,152.54" fill="#72ac7c"/>
<polygon points="381.52,137.44 392.79,141.54 381.52,145.65 370.24,141.54" fill="#9be9a8"/>
<polygon points="370.24,152.54 370.24,141.54 381.52,145.65 381.52,156.65" fill="#88cd93"/>
<polygon points="381.52,156.65 381.52,145.65 392.79,141.54 392.79,152.54" fill="#72ac7c"/>
<polygon points="263.11,153.23 274.39,157.33 263.11,161.43 251.84,157.33" fill="#ebedf0"/>
<polygon points="289.43,153.23 300.70,157.33 289.43,161.43 278.15,157.33" fill="#ebedf0"/>
<polygon points="315.74,153.23 327.01,157.33 315.74,161.43 304.46,157.33" fill="#ebedf0"/>
<polygon points="342.05,153.23 353.32,157.33 342.05,161.43 330.77,157.33" fill="#ebedf0"/>
<polygon points="368.36,153.23 379.64,157.33 368.36,161.43 357.08,157.33" fill="#ebedf0"/>
<polygon points="420.98,153.23 432.26,157.33 420.98,161.43 409.71,157.33" fill="#ebedf0"/>
<polygon points="394.67,142.23 405.95,146.33 394.67,150.43 383.39,146.33" fill="#9be9a8"/>
<polygon points="383.39,157.33 383.39,146.33 394.67,150.43 394.67,161.43" fill="#88cd93"/>
<polygon points="394.67,161.43 394.67,150.43 405.95,146.33 405.95,157.33" fill="#72ac7c"/>
<polygon points="276.27,158.01 287.55,162.12 276.27,166.22 264.99,162.12" fill="#ebedf0"/>
<polygon points="328.89,158.01 340.17,162.12 328.89,166.22 317.62,162.12" fill="#ebedf0"/>
<polygon points="355.20,158.01 366.48,162.12 355.20,166.22 343.93,162.12" fill="#ebedf0"/>
<polygon points="434.14,158.01 445.41,162.12 434.14,166.22 422.86,162.12" fill="#ebedf0"/>
<polygon points="302.58,150.01 313.86,154.12 302.58,158.22 291.30,154.12" fill="#9be9a8"/>
<polygon points="291.30,162.12 291.30,154.12 302.58,158.22 302.58,166.22" fill="#88cd93"/>
<polygon points="302.58,166.22 302.58,158.22 313.86,154.12 313.86,162.12" fill="#72ac7c"/>
<polygon points="407.83,150.01 419.10,154.12 407.83,158.22 396.55,154.12" fill="#9be9a8"/>
<polygon points="396.55,162.12 396.55,154.12 407.83,158.22 407.83,166.22" fill="#88cd93"/>
<polygon points="407.83,166.22 407.83,158.22 419.10,154.12 419.10,162.12" fill="#72ac7c"/>
<polygon points="381.52,141.01 392.79,145.12 381.52,149.22 370.24,145.12" fill="#40c463"/>
<polygon points="370.24,162.12 370.24,145.12 381.52,149.22 381.52,166.22" fill="#38ac57"/>
<polygon points="381.52,166.22 381.52,149.22 392.79,145.12 392.79,162.12" fill="#2f9149"/>
<polygon points="289.43,162.80 300.70,166.91 289.43,171.01 278.15,166.91" fill="#ebedf0"/>
<polygon points="447.29,162.80 458.57,166.91 447.29,171.01 436.02,166.91" fill="#ebedf0"/>
<polygon points="420.98,146.80 432.26,150.91 420.98,155.01 409.71,150.91" fill="#9be9a8"/>
<polygon points="409.71,166.91 409.71,150.91 420.98,155.01 420.98,171.01" fill="#88cd93"/>
<polygon points="420.98,171.01 420.98,155.01 432.26,150.91 432.26,166.91" fill="#72ac7c"/>
<polygon points="342.05,145.80 353.32,149.91 342.05,154.01 330.77,149.91" fill="#40c463"/>
<polygon points="330.77,166.91 330.77,149.91 342.05,154.01 342.05,171.01" fill="#38ac57"/>
<polygon points="342.05,171.01 342.05,154.01 353.32,149.91 353.32,166.91" fill="#2f9149"/>
<polygon points="368.36,145.80 379.64,149.91 368.36,154.01 357.08,149.91" fill="#40c463"/>
<polygon points="357.08,166.91 357.08,149.91 368.36,154.01 368.36,171.01" fill="#38ac57"/>
<polygon points="368.36,171.01 368.36,154.01 379.64,149.91 379.64,166.91" fill="#2f9149"/>
<polygon points="394.67,144.80 405.95,148.91 394.67,153.01 383.39,148.91" fill="#40c463"/>
<polygon points="383.39,166.91 383.39,148.91 394.67,153.01 394.67,171.01" fill="#38ac57"/>
<polygon points="394.67,171.01 394.67,153.01 405.95,148.91 405.95,166.91" fill="#2f9149"/>
<polygon points="315.74,144.80 327.01,148.91 315.74,153.01 304.46,148.91" fill="#30a14e"/>
<polygon points="304.46,166.91 304.46,148.91 315.74,153.01 315.74,171.01" fill="#2a8d44"/>
<polygon points="315.74,171.01 315.74,153.01 327.01,148.91 327.01,166.91" fill="#237739"/>
<polygon points="328.89,153.59 340.17,157.69 328.89,161.80 317.62,157.69" fill="#9be9a8"/>
<polygon points="317.62,171.69 317.62,157.69 328.89,161.80 328.89,175.80" fill="#88cd93"/>
<polygon points="328.89,175.80 328.89,161.80 340.17,157.69 340.17,171.69" fill="#72ac7c"/>
<polygon points="381.52,154.59 392.79,158.69 381.52,162.80 370.24,158.69" fill="#9be9a8"/>
<polygon points="370.24,171.69 370.24,158.69 381.52,162.80 381.52,175.80" fill="#88cd93"/>
<polygon points="381.52,175.80 381.52,162.80 392.79,158.69 392.79,171.69" fill="#72ac7c"/>
<polygon points="407.83,151.59 419.10,155.69 407.83,159.80 396.55,155.69" fill="#9be9a8"/>
<polygon points="396.55,171.69 396.55,155.69 407.83,159.80 407.83,175.80" fill="#88cd93"/>
<polygon points="407.83,175.80 407.83,159.80 419.10,155.69 419.10,171.69" fill="#72ac7c"/>
<polygon points="460.45,156.59 471.73,160.69 460.45,164.80 449.17,160.69" fill="#9be9a8"/>
<polygon points="449.17,171.69 449.17,160.69 460.45,164.80 460.45,175.80" fill="#88cd93"/>
<polygon points="460.45,175.80 460.45,164.80 471.73,160.69 471.73,171.69" fill="#72ac7c"/>
<polygon points="302.58,149.59 313.86,153.69 302.58,157.80 291.30,153.69" fill="#40c463"/>
<polygon points="291.30,171.69 291.30,153.69 302.58,157.80 302.58,175.80" fill="#38ac57"/>
<polygon points="302.58,175.80 302.58,157.80 313.86,153.69 313.86,171.69" fill="#2f9149"/>
<polygon points="355.20,149.59 366.48,153.69 355.20,157.80 343.93,153.69" fill="#40c463"/>
<polygon points="343.93,171.69 343.93,153.69 355.20,157.80 355.20,175.80" fill="#38ac57"/>
<polygon points="355.20,175.80 355.20,157.80 366.48,153.69 366.48,171.69" fill="#2f9149"/>
<polygon points="434.14,149.59 445.41,153.69 434.14,157.80 422.86,153.69" fill="#40c463"/>
<polygon points="422.86,171.69 422.86,153.69 434.14,157.80 434.14,175.80" fill="#38ac57"/>
<polygon points="434.14,175.80 434.14,157.80 445.41,153.69 445.41,171.69" fill="#2f9149"/>
<polygon points="315.74,172.38 327.01,176.48 315.74,180.59 304.46,176.48" fill="#ebedf0"/>
<polygon points="420.98,157.38 432.26,161.48 420.98,165.59 409.71,161.48" fill="#9be9a8"/>
<polygon points="409.71,176.48 409.71,161.48 420.98,165.59 420.98,180.59" fill="#88cd93"/>
<polygon points="420.98,180.59 420.98,165.59 432.26,161.48 432.26,176.48" fill="#72ac7c"/>
<polygon points="447.29,156.38 458.57,160.48 447.29,164.59 436.02,160.48" fill="#9be9a8"/>
<polygon points="436.02,176.48 436.02,160.48 447.29,164.59 447.29,180.59" fill="#88cd93"/>
<polygon points="447.29,180.59 447.29,164.59 458.57,160.48 458.57,176.48" fill="#72ac7c"/>
<polygon points="473.61,161.38 484.88,165.48 473.61,169.59 462.33,165.48" fill="#9be9a8"/>
<polygon points="462.33,176.48 462.33,165.48 473.61,169.59 473.61,180.59" fill="#88cd93"/>
<polygon points="473.61,180.59 473.61,169.59 484.88,165.48 484.88,176.48" fill="#72ac7c"/>
<polygon points="368.36,154.38 379.64,158.48 368.36,162.59 357.08,158.48" fill="#40c463"/>
<polygon points="357.08,176.48 357.08,158.48 368.36,162.59 368.36,180.59" fill="#38ac57"/>
<polygon points="368.36,180.59 368.36,162.59 379.64,158.48 379.64,176.48" fill="#2f9149"/>
<polygon points="394.67,154.38 405.95,158.48 394.67,162.59 383.39,158.48" fill="#40c463"/>
<polygon points="383.39,176.48 383.39,158.48 394.67,162.59 394.67,180.59" fill="#38ac57"/>
<polygon points="394.67,180.59 394.67,162.59 405.95,158.48 405.95,176.48" fill="#2f9149"/>
<polygon points="342.05,154.38 353.32,158.48 342.05,162.59 330.77,158.48" fill="#30a14e"/>
<polygon points="330.77,176.48 330.77,158.48 342.05,162.59 342.05,180.59" fill="#2a8d44"/>
<polygon points="342.05,180.59 342.05,162.59 353.32,158.48 353.32,176.48" fill="#237739"/>
<polygon points="328.89,162.17 340.17,166.27 328.89,170.37 317.62,166.27" fill="#9be9a8"/>
<polygon points="317.62,181.27 317.62,166.27 328.89,170.37 328.89,185.37" fill="#88cd93"/>
<polygon points="328.89,185.37 328.89,170.37 340.17,166.27 340.17,181.27" fill="#72ac7c"/>
<polygon points="355.20,166.17 366.48,170.27 355.20,174.37 343.93,170.27" fill="#9be9a8"/>
<polygon points="343.93,181.27 343.93,170.27 355.20,174.37 355.20,185.37" fill="#88cd93"/>
<polygon points="355.20,185.37 355.20,174.37 366.48,170.27 366.48,181.27" fill="#72ac7c"/>
<polygon points="407.83,161.17 419.10,165.27 407.83,169.37 396.55,165.27" fill="#9be9a8"/>
<polygon points="396.55,181.27 396.55,165.27 407.83,169.37 407.83,185.37" fill="#88cd93"/>
<polygon points="407.83,185.37 407.83,169.37 419.10,165.27 419.10,181.27" fill="#72ac7c"/>
<polygon points="460.45,163.17 471.73,167.27 460.45,171.37 449.17,167.27" fill="#9be9a8"/>
<polygon points="449.17,181.27 449.17,167.27 460.45,171.37 460.45,185.37" fill="#88cd93"/>
<polygon points="460.45,185.37 460.45,171.37 471.73,167.27 471.73,181.27" fill="#72ac7c"/>
<polygon points="486.76,169.17 498.04,173.27 486.76,177.37 475.48,173.27" fill="#9be9a8"/>
<polygon points="475.48,181.27 475.48,173.27 486.76,177.37 486.76,185.37" fill="#88cd93"/>
<polygon points="486.76,185.37 486.76,177.37 498.04,173.27 498.04,181.27" fill="#72ac7c"/>
<polygon points="381.52,159.17 392.79,163.27 381.52,167.37 370.24,163.27" fill="#30a14e"/>
<polygon points="370.24,181.27 370.24,163.27 381.52,167.37 381.52,185.37" fill="#2a8d44"/>
<polygon points="381.52,185.37 381.52,167.37 392.79,163.27 392.79,181.27" fill="#237739"/>
<polygon points="434.14,159.17 445.41,163.27 434.14,167.37 422.86,163.27" fill="#30a14e"/>
<polygon points="422.86,181.27 422.86,163.27 434.14,167.37 434.14,185.37" fill="#2a8d44"/>
<polygon points="434.14,185.37 434.14,167.37 445.41,163.27 445.41,181.27" fill="#237739"/>
<polygon points="342.05,181.95 353.32,186.06 342.05,190.16 330.77,186.06" fill="#ebedf0"/>
<polygon points="499.92,181.95 511.19,186.06 499.92,190.16 488.64,186.06" fill="#ebedf0"/>
<polygon points="368.36,165.95 379.64,170.06 368.36,174.16 357.08,170.06" fill="#9be9a8"/>
<polygon points="357.08,186.06 357.08,170.06 368.36,174.16 368.36,190.16" fill="#88cd93"/>
<polygon points="368.36,190.16 368.36,174.16 379.64,170.06 379.64,186.06" fill="#72ac7c"/>
<polygon points="394.67,165.95 405.95,170.06 394.67,174.16 383.39,170.06" fill="#9be9a8"/>
<polygon points="383.39,186.06 383.39,170.06 394.67,174.16 394.67,190.16" fill="#88cd93"/>
<polygon points="394.67,190.16 394.67,174.16 405.95,170.06 405.95,186.06" fill="#72ac7c"/>
<polygon points="447.29,166.95 458.57,171.06 447.29,175.16 436.02,171.06" fill="#9be9a8"/>
<polygon points="436.02,186.06 436.02,171.06 447.29,175.16 447.29,190.16" fill="#88cd93"/>
<polygon points="447.29,190.16 447.29,175.16 458.57,171.06 458.57,186.06" fill="#72ac7c"/>
<polygon points="420.98,163.95 432.26,168.06 420.98,172.16 409.71,168.06" fill="#40c463"/>
<polygon points="409.71,186.06 409.71,168.06 420.98,172.16 420.98,190.16" fill="#38ac57"/>
<polygon points="420.98,190.16 420.98,172.16 432.26,168.06 432.26,186.06" fill="#2f9149"/>
<polygon points="473.61,164.95 484.88,169.06 473.61,173.16 462.33,169.06" fill="#40c463"/>
<polygon points="462.33,186.06 462.33,169.06 473.61,173.16 473.61,190.16" fill="#38ac57"/>
<polygon points="473.61,190.16 473.61,173.16 484.88,169.06 484.88,186.06" fill="#2f9149"/>
<polygon points="355.20,186.74 366.48,190.85 355.20,194.95 343.93,190.85" fill="#ebedf0"/>
<polygon points="381.52,173.74 392.79,177.85 381.52,181.95 370.24,177.85" fill="#9be9a8"/>
<polygon points="370.24,190.85 370.24,177.85 381.52,181.95 381.52,194.95" fill="#88cd93"/>
<polygon points="381.52,194.95 381.52,181.95 392.79,177.85 392.79,190.85" fill="#72ac7c"/>
<polygon points="460.45,170.74 471.73,174.85 460.45,178.95 449.17,174.85" fill="#9be9a8"/>
<polygon points="449.17,190.85 449.17,174.85 460.45,178.95 460.45,194.95" fill="#88cd93"/>
<polygon points="460.45,194.95 460.45,178.95 471.73,174.85 471.73,190.85" fill="#72ac7c"/>
<polygon points="513.07,175.74 524.35,179.85 513.07,183.95 501.80,179.85" fill="#9be9a8"/>
<polygon points="501.80,190.85 501.80,179.85 513.07,183.95 513.07,194.95" fill="#88cd93"/>
<polygon points="513.07,194.95 513.07,183.95 524.35,179.85 524.35,190.85" fill="#72ac7c"/>
<polygon points="407.83,168.74 419.10,172.85 407.83,176.95 396.55,172.85" fill="#40c463"/>
<polygon points="396.55,190.85 396.55,172.85 407.83,176.95 407.83,194.95" fill="#38ac57"/>
<polygon points="407.83,194.95 407.83,176.95 419.10,172.85 419.10,190.85" fill="#2f9149"/>
<polygon points="434.14,169.74 445.41,173.85 434.14,177.95 422.86,173.85" fill="#40c463"/>
<polygon points="422.86,190.85 422.86,173.85 434.14,177.95 434.14,194.95" fill="#38ac57"/>
<polygon points="434.14,194.95 434.14,177.95 445.41,173.85 445.41,190.85" fill="#2f9149"/>
<polygon points="486.76,168.74 498.04,172.85 486.76,176.95 475.48,172.85" fill="#40c463"/>
<polygon points="475.48,190.85 475.48,172.85 486.76,176.95 486.76,194.95" fill="#38ac57"/>
<polygon points="486.76,194.95 486.76,176.95 498.04,172.85 498.04,190.85" fill="#2f9149"/>
<polygon points="368.36,183.53 379.64,187.64 368.36,191.74 357.08,187.64" fill="#9be9a8"/>
<polygon points="357.08,195.64 357.08,187.64 368.36,191.74 368.36,199.74" fill="#88cd93"/>
<polygon points="368.36,199.74 368.36,191.74 379.64,187.64 379.64,195.64" fill="#72ac7c"/>
<polygon points="420.98,180.53 432.26,184.64 420.98,188.74 409.71,184.64" fill="#9be9a8"/>
<polygon points="409.71,195.64 409.71,184.64 420.98,188.74 420.98,199.74" fill="#88cd93"/>
<polygon points="420.98,199.74 420.98,188.74 432.26,184.64 432.26,195.64" fill="#72ac7c"/>
<polygon points="447.29,176.53 458.57,180.64 447.29,184.74 436.02,180.64" fill="#9be9a8"/>
<polygon points="436.02,195.64 436.02,180.64 447.29,184.74 447.29,199.74" fill="#88cd93"/>
<polygon points="447.29,199.74 447.29,184.74 458.57,180.64 458.57,195.64" fill="#72ac7c"/>
<polygon points="394.67,173.53 405.95,177.64 394.67,181.74 383.39,177.64" fill="#40c463"/>
<polygon points="383.39,195.64 383.39,177.64 394.67,181.74 394.67,199.74" fill="#38ac57"/>
<polygon points="394.67,199.74 394.67,181.74 405.95,177.64 405.95,195.64" fill="#2f9149"/>
<polygon points="473.61,173.53 484.88,177.64 473.61,181.74 462.33,177.64" fill="#40c463"/>
<polygon points="462.33,195.64 462.33,177.64 473.61,181.74 473.61,199.74" fill="#38ac57"/>
<polygon points="473.61,199.74 473.61,181.74 484.88,177.64 484.88,195.64" fill="#2f9149"/>
<polygon points="499.92,173.53 511.19,177.64 499.92,181.74 488.64,177.64" fill="#40c463"/>
<polygon points="488.64,195.64 488.64,177.64 499.92,181.74 499.92,199.74" fill="#38ac57"/>
<polygon points="499.92,199.74 499.92,181.74 511.19,177.64 511.19,195.64" fill="#2f9149"/>
<polygon points="526.23,173.53 537.50,177.64 526.23,181.74 514.95,177.64" fill="#40c463"/>
<polygon points="514.95,195.64 514.95,177.64 526.23,181.74 526.23,199.74" fill="#38ac57"/>
<polygon points="526.23,199.74 526.23,181.74 537.50,177.64 537.50,195.64" fill="#2f9149"/>
<polygon points="381.52,196.32 392.79,200.42 381.52,204.53 370.24,200.42" fill="#ebedf0"/>
<polygon points="539.38,196.32 550.66,200.42 539.38,204.53 528.11,200.42" fill="#ebedf0"/>
<polygon points="460.45,182.32 471.73,186.42 460.45,190.53 449.17,186.42" fill="#9be9a8"/>
<polygon points="449.17,200.42 449.17,186.42 460.45,190.53 460.45,204.53" fill="#88cd93"/>
<polygon points="460.45,204.53 460.45,190.53 471.73,186.42 471.73,200.42" fill="#72ac7c"/>
<polygon points="513.07,180.32 524.35,184.42 513.07,188.53 501.80,184.42" fill="#9be9a8"/>
<polygon points="501.80,200.42 501.80,184.42 513.07,188.53 513.07,204.53" fill="#88cd93"/>
<polygon points="513.07,204.53 513.07,188.53 524.35,184.42 524.35,200.42" fill="#72ac7c"/>
<polygon points="407.83,178.32 419.10,182.42 407.83,186.53 396.55,182.42" fill="#40c463"/>
<polygon points="396.55,200.42 396.55,182.42 407.83,186.53 407.83,204.53" fill="#38ac57"/>
<polygon points="407.83,204.53 407.83,186.53 419.10,182.42 419.10,200.42" fill="#2f9149"/>
<polygon points="434.14,178.32 445.41,182.42 434.14,186.53 422.86,182.42" fill="#40c463"/>
<polygon points="422.86,200.42 422.86,182.42 434.14,186.53 434.14,204.53" fill="#38ac57"/>
<polygon points="434.14,204.53 434.14,186.53 445.41,182.42 445.41,200.42" fill="#2f9149"/>
<polygon points="486.76,178.32 498.04,182.42 486.76,186.53 475.48,182.42" fill="#216e39"/>
<polygon points="475.48,200.42 475.48,182.42 486.76,186.53 486.76,204.53" fill="#1d6032"/>
<polygon points="486.76,204.53 486.76,186.53 498.04,182.42 498.04,200.42" fill="#18512a"/>
<polygon points="394.67,201.11 405.95,205.21 394.67,209.32 383.39,205.21" fill="#ebedf0"/>
<polygon points="420.98,190.11 432.26,194.21 420.98,198.32 409.71,194.21" fill="#9be9a8"/>
<polygon points="409.71,205.21 409.71,194.21 420.98,198.32 420.98,209.32" fill="#88cd93"/>
<polygon points="420.98,209.32 420.98,198.32 432.26,194.21 432.26,205.21" fill="#72ac7c"/>
<polygon points="552.54,185.11 563.82,189.21 552.54,193.32 541.26,189.21" fill="#9be9a8"/>
<polygon points="541.26,205.21 541.26,189.21 552.54,193.32 552.54,209.32" fill="#88cd93"/>
<polygon points="552.54,209.32 552.54,193.32 563.82,189.21 563.82,205.21" fill="#72ac7c"/>
<polygon points="447.29,183.11 458.57,187.21 447.29,191.32 436.02,187.21" fill="#40c463"/>
<polygon points="436.02,205.21 436.02,187.21 447.29,191.32 447.29,209.32" fill="#38ac57"/>
<polygon points="447.29,209.32 447.29,191.32 458.57,187.21 458.57,205.21" fill="#2f9149"/>
<polygon points="473.61,183.11 484.88,187.21 473.61,191.32 462.33,187.21" fill="#40c463"/>
<polygon points="462.33,205.21 462.33,187.21 473.61,191.32 473.61,209.32" fill="#38ac57"/>
<polygon points="473.61,209.32 473.61,191.32 484.88,187.21 484.88,205.21" fill="#2f9149"/>
<polygon points="499.92,183.11 511.19,187.21 499.92,191.32 488.64,187.21" fill="#40c463"/>
<polygon points="488.64,205.21 488.64,187.21 499.92,191.32 499.92,209.32" fill="#38ac57"/>
<polygon points="499.92,209.32 499.92,191.32 511.19,187.21 511.19,205.21" fill="#2f9149"/>
<polygon points="526.23,183.11 537.50,187.21 526.23,191.32 514.95,187.21" fill="#40c463"/>
<polygon points="514.95,205.21 514.95,187.21 526.23,191.32 526.23,209.32" fill="#38ac57"/>
<polygon points="526.23,209.32 526.23,191.32 537.50,187.21 537.50,205.21" fill="#2f9149"/>
<polygon points="407.83,205.90 419.10,210.00 407.83,214.10 396.55,210.00" fill="#ebedf0"/>
<polygon points="565.69,205.90 576.97,210.00 565.69,214.10 554.42,210.00" fill="#ebedf0"/>
<polygon points="434.14,194.90 445.41,199.00 434.14,203.10 422.86,199.00" fill="#9be9a8"/>
<polygon points="422.86,210.00 422.86,199.00 434.14,203.10 434.14,214.10" fill="#88cd93"/>
<polygon points="434.14,214.10 434.14,203.10 445.41,199.00 445.41,210.00" fill="#72ac7c"/>
<polygon points="539.38,194.90 550.66,199.00 539.38,203.10 528.11,199.00" fill="#9be9a8"/>
<polygon points="528.11,210.00 528.11,199.00 539.38,203.10 539.38,214.10" fill="#88cd93"/>
<polygon points="539.38,214.10 539.38,203.10 550.66,199.00 550.66,210.00" fill="#72ac7c"/>
<polygon points="486.76,187.90 498.04,192.00 486.76,196.10 475.48,192.00" fill="#40c463"/>
<polygon points="475.48,210.00 475.48,192.00 486.76,196.10 486.76,214.10" fill="#38ac57"/>
<polygon points="486.76,214.10 486.76,196.10 498.04,192.00 498.04,210.00" fill="#2f9149"/>
<polygon points="513.07,187.90 524.35,192.00 513.07,196.10 501.80,192.00" fill="#40c463"/>
<polygon points="501.80,210.00 501.80,192.00 513.07,196.10 513.07,214.10" fill="#38ac57"/>
<polygon points="513.07,214.10 513.07,196.10 524.35,192.00 524.35,210.00" fill="#2f9149"/>
<polygon points="460.45,187.90 471.73,192.00 460.45,196.10 449.17,192.00" fill="#30a14e"/>
<polygon points="449.17,210.00 449.17,192.00 460.45,196.10 460.45,214.10" fill="#2a8d44"/>
<polygon points="460.45,214.10 460.45,196.10 471.73,192.00 471.73,210.00" fill="#237739"/>
<polygon points="420.98,210.68 432.26,214.79 420.98,218.89 409.71,214.79" fill="#ebedf0"/>
<polygon points="578.85,196.68 590.13,200.79 578.85,204.89 567.57,200.79" fill="#9be9a8"/>
<polygon points="567.57,214.79 567.57,200.79 578.85,204.89 578.85,218.89" fill="#88cd93"/>
<polygon points="578.85,218.89 578.85,204.89 590.13,200.79 590.13,214.79" fill="#72ac7c"/>
<polygon points="447.29,192.68 458.57,196.79 447.29,200.89 436.02,196.79" fill="#40c463"/>
<polygon points="436.02,214.79 436.02,196.79 447.29,200.89 447.29,218.89" fill="#38ac57"/>
<polygon points="447.29,218.89 447.29,200.89 458.57,196.79 458.57,214.79" fill="#2f9149"/>
<polygon points="473.61,192.68 484.88,196.79 473.61,200.89 462.33,196.79" fill="#40c463"/>
<polygon points="462.33,214.79 462.33,196.79 473.61,200.89 473.61,218.89" fill="#38ac57"/>
<polygon points="473.61,218.89 473.61,200.89 484.88,196.79 484.88,214.79" fill="#2f9149"/>
<polygon points="499.92,192.68 511.19,196.79 499.92,200.89 488.64,196.79" fill="#40c463"/>
<polygon points="488.64,214.79 488.64,196.79 499.92,200.89 499.92,218.89" fill="#38ac57"/>
<polygon points="499.92,218.89 499.92,200.89 511.19,196.79 511.19,214.79" fill="#2f9149"/>
<polygon points="552.54,192.68 563.82,196.79 552.54,200.89 541.26,196.79" fill="#40c463"/>
<polygon points="541.26,214.79 541.26,196.79 552.54,200.89 552.54,218.89" fill="#38ac57"/>
<polygon points="552.54,218.89 552.54,200.89 563.82,196.79 563.82,214.79" fill="#2f9149"/>
<polygon points="526.23,192.68 537.50,196.79 526.23,200.89 514.95,196.79" fill="#216e39"/>
<polygon points="514.95,214.79 514.95,196.79 526.23,200.89 526.23,218.89" fill="#1d6032"/>
<polygon points="526.23,218.89 526.23,200.89 537.50,196.79 537.50,214.79" fill="#18512a"/>
<polygon points="592.01,215.47 603.28,219.58 592.01,223.68 580.73,219.58" fill="#ebedf0"/>
<polygon points="434.14,199.47 445.41,203.58 434.14,207.68 422.86,203.58" fill="#9be9a8"/>
<polygon points="422.86,219.58 422.86,203.58 434.14,207.68 434.14,223.68" fill="#88cd93"/>
<polygon points="434.14,223.68 434.14,207.68 445.41,203.58 445.41,219.58" fill="#72ac7c"/>
<polygon points="460.45,199.47 471.73,203.58 460.45,207.68 449.17,203.58" fill="#9be9a8"/>
<polygon points="449.17,219.58 449.17,203.58 460.45,207.68 460.45,223.68" fill="#88cd93"/>
<polygon points="460.45,223.68 460.45,207.68 471.73,203.58 471.73,219.58" fill="#72ac7c"/>
<polygon points="486.76,198.47 498.04,202.58 486.76,206.68 475.48,202.58" fill="#40c463"/>
<polygon points="475.48,219.58 475.48,202.58 486.76,206.68 486.76,223.68" fill="#38ac57"/>
<polygon points="486.76,223.68 486.76,206.68 498.04,202.58 498.04,219.58" fill="#2f9149"/>
<polygon points="513.07,197.47 524.35,201.58 513.07,205.68 501.80,201.58" fill="#40c463"/>
<polygon points="501.80,219.58 501.80,201.58 513.07,205.68 513.07,223.68" fill="#38ac57"/>
<polygon points="513.07,223.68 513.07,205.68 524.35,201.58 524.35,219.58" fill="#2f9149"/>
<polygon points="565.69,197.47 576.97,201.58 565.69,205.68 554.42,201.58" fill="#40c463"/>
<polygon points="554.42,219.58 554.42,201.58 565.69,205.68 565.69,223.68" fill="#38ac57"/>
<polygon points="565.69,223.68 565.69,205.68 576.97,201.58 576.97,219.58" fill="#2f9149"/>
<polygon points="539.38,197.47 550.66,201.58 539.38,205.68 528.11,201.58" fill="#216e39"/>
<polygon points="528.11,219.58 528.11,201.58 539.38,205.68 539.38,223.68" fill="#1d6032"/>
<polygon points="539.38,223.68 539.38,205.68 550.66,201.58 550.66,219.58" fill="#18512a"/>
<polygon points="447.29,220.26 458.57,224.37 447.29,228.47 436.02,224.37" fill="#ebedf0"/>
<polygon points="605.16,220.26 616.44,224.37 605.16,228.47 593.89,224.37" fill="#ebedf0"/>
<polygon points="473.61,204.26 484.88,208.37 473.61,212.47 462.33,208.37" fill="#9be9a8"/>
<polygon points="462.33,224.37 462.33,208.37 473.61,212.47 473.61,228.47" fill="#88cd93"/>
<polygon points="473.61,228.47 473.61,212.47 484.88,208.37 484.88,224.37" fill="#72ac7c"/>
<polygon points="526.23,202.26 537.50,206.37 526.23,210.47 514.95,206.37" fill="#40c463"/>
<polygon points="514.95,224.37 514.95,206.37 526.23,210.47 526.23,228.47" fill="#38ac57"/>
<polygon points="526.23,228.47 526.23,210.47 537.50,206.37 537.50,224.37" fill="#2f9149"/>
<polygon points="499.92,202.26 511.19,206.37 499.92,210.47 488.64,206.37" fill="#30a14e"/>
<polygon points="488.64,224.37 488.64,206.37 499.92,210.47 499.92,228.47" fill="#2a8d44"/>
<polygon points="499.92,228.47 499.92,210.47 511.19,206.37 511.19,224.37" fill="#237739"/>
<polygon points="552.54,202.26 563.82,206.37 552.54,210.47 541.26,206.37" fill="#30a14e"/>
<polygon points="541.26,224.37 541.26,206.37 552.54,210.47 552.54,228.47" fill="#2a8d44"/>
<polygon points="552.54,228.47 552.54,210.47 563.82,206.37 563.82,224.37" fill="#237739"/>
<polygon points="578.85,202.26 590.13,206.37 578.85,210.47 567.57,206.37" fill="#30a14e"/>
<polygon points="567.57,224.37 567.57,206.37 578.85,210.47 578.85,228.47" fill="#2a8d44"/>
<polygon points="578.85,228.47 578.85,210.47 590.13,206.37 590.13,224.37" fill="#237739"/>
<polygon points="460.45,225.05 471.73,229.15 460.45,233.26 449.17,229.15" fill="#ebedf0"/>
<polygon points="565.69,209.05 576.97,213.15 565.69,217.26 554.42,213.15" fill="#9be9a8"/>
<polygon points="554.42,229.15 554.42,213.15 565.69,217.26 565.69,233.26" fill="#88cd93"/>
<polygon points="565.69,233.26 565.69,217.26 576.97,213.15 576.97,229.15" fill="#72ac7c"/>
<polygon points="592.01,217.05 603.28,221.15 592.01,225.26 580.73,221.15" fill="#9be9a8"/>
<polygon points="580.73,229.15 580.73,221.15 592.01,225.26 592.01,233.26" fill="#88cd93"/>
<polygon points="592.01,233.26 592.01,225.26 603.28,221.15 603.28,229.15" fill="#72ac7c"/>
<polygon points="618.32,211.05 629.59,215.15 618.32,219.26 607.04,215.15" fill="#9be9a8"/>
<polygon points="607.04,229.15 607.04,215.15 618.32,219.26 618.32,233.26" fill="#88cd93"/>
<polygon points="618.32,233.26 618.32,219.26 629.59,215.15 629.59,229.15" fill="#72ac7c"/>
<polygon points="486.76,207.05 498.04,211.15 486.76,215.26 475.48,211.15" fill="#40c463"/>
<polygon points="475.48,229.15 475.48,211.15 486.76,215.26 486.76,233.26" fill="#38ac57"/>
<polygon points="486.76,233.26 486.76,215.26 498.04,211.15 498.04,229.15" fill="#2f9149"/>
<polygon points="513.07,207.05 524.35,211.15 513.07,215.26 501.80,211.15" fill="#216e39"/>
<polygon points="501.80,229.15 501.80,211.15 513.07,215.26 513.07,233.26" fill="#1d6032"/>
<polygon points="513.07,233.26 513.07,215.26 524.35,211.15 524.35,229.15" fill="#18512a"/>
<polygon points="539.38,207.05 550.66,211.15 539.38,215.26 528.11,211.15" fill="#216e39"/>
<polygon points="528.11,229.15 528.11,211.15 539.38,215.26 539.38,233.26" fill="#1d6032"/>
<polygon points="539.38,233.26 539.38,215.26 550.66,211.15 550.66,229.15" fill="#18512a"/>
<polygon points="473.61,229.84 484.88,233.94 473.61,238.05 462.33,233.94" fill="#ebedf0"/>
<polygon points="631.47,229.84 642.75,233.94 631.47,238.05 620.20,233.94" fill="#ebedf0"/>
<polygon points="526.23,216.84 537.50,220.94 526.23,225.05 514.95,220.94" fill="#9be9a8"/>
<polygon points="514.95,233.94 514.95,220.94 526.23,225.05 526.23,238.05" fill="#88cd93"/>
<polygon points="526.23,238.05 526.23,225.05 537.50,220.94 537.50,233.94" fill="#72ac7c"/>
<polygon points="578.85,221.84 590.13,225.94 578.85,230.05 567.57,225.94" fill="#9be9a8"/>
<polygon points="567.57,233.94 567.57,225.94 578.85,230.05 578.85,238.05" fill="#88cd93"/>
<polygon points="578.85,238.05 578.85,230.05 590.13,225.94 590.13,233.94" fill="#72ac7c"/>
<polygon points="605.16,213.84 616.44,217.94 605.16,222.05 593.89,217.94" fill="#9be9a8"/>
<polygon points="593.89,233.94 593.89,217.94 605.16,222.05 605.16,238.05" fill="#88cd93"/>
<polygon points="605.16,238.05 605.16,222.05 616.44,217.94 616.44,233.94" fill="#72ac7c"/>
<polygon points="499.92,211.84 511.19,215.94 499.92,220.05 488.64,215.94" fill="#40c463"/>
<polygon points="488.64,233.94 488.64,215.94 499.92,220.05 499.92,238.05" fill="#38ac57"/>
<polygon points="499.92,238.05 499.92,220.05 511.19,215.94 511.19,233.94" fill="#2f9149"/>
<polygon points="552.54,211.84 563.82,215.94 552.54,220.05 541.26,215.94" fill="#40c463"/>
<polygon points="541.26,233.94 541.26,215.94 552.54,220.05 552.54,238.05" fill="#38ac57"/>
<polygon points="552.54,238.05 552.54,220.05 563.82,215.94 563.82,233.94" fill="#2f9149"/>
<polygon points="486.76,234.63 498.04,238.73 486.76,242.83 475.48,238.73" fill="#ebedf0"/>
<polygon points="513.07,217.63 524.35,221.73 513.07,225.83 501.80,221.73" fill="#40c463"/>
<polygon points="501.80,238.73 501.80,221.73 513.07,225.83 513.07,242.83" fill="#38ac57"/>
<polygon points="513.07,242.83 513.07,225.83 524.35,221.73 524.35,238.73" fill="#2f9149"/>
<polygon points="539.38,216.63 550.66,220.73 539.38,224.83 528.11,220.73" fill="#40c463"/>
<polygon points="528.11,238.73 528.11,220.73 539.38,224.83 539.38,242.83" fill="#38ac57"/>
<polygon points="539.38,242.83 539.38,224.83 550.66,220.73 550.66,238.73" fill="#2f9149"/>
<polygon points="565.69,216.63 576.97,220.73 565.69,224.83 554.42,220.73" fill="#40c463"/>
<polygon points="554.42,238.73 554.42,220.73 565.69,224.83 565.69,242.83" fill="#38ac57"/>
<polygon points="565.69,242.83 565.69,224.83 576.97,220.73 576.97,238.73" fill="#2f9149"/>
<polygon points="592.01,216.63 603.28,220.73 592.01,224.83 580.73,220.73" fill="#40c463"/>
<polygon points="580.73,238.73 580.73,220.73 592.01,224.83 592.01,242.83" fill="#38ac57"/>
<polygon points="592.01,242.83 592.01,224.83 603.28,220.73 603.28,238.73" fill="#2f9149"/>
<polygon points="618.32,216.63 629.59,220.73 618.32,224.83 607.04,220.73" fill="#40c463"/>
<polygon points="607.04,238.73 607.04,220.73 618.32,224.83 618.32,242.83" fill="#38ac57"/>
<polygon points="618.32,242.83 618.32,224.83 629.59,220.73 629.59,238.73" fill="#2f9149"/>
<polygon points="644.63,216.63 655.91,220.73 644.63,224.83 633.35,220.73" fill="#40c463"/>
<polygon points="633.35,238.73 633.35,220.73 644.63,224.83 644.63,242.83" fill="#38ac57"/>
<polygon points="644.63,242.83 644.63,224.83 655.91,220.73 655.91,238.73" fill="#2f9149"/>
<polygon points="499.92,239.41 511.19,243.52 499.92,247.62 488.64,243.52" fill="#ebedf0"/>
<polygon points="657.78,239.41 669.06,243.52 657.78,247.62 646.51,243.52" fill="#ebedf0"/>
<polygon points="552.54,228.41 563.82,232.52 552.54,236.62 541.26,232.52" fill="#9be9a8"/>
<polygon points="541.26,243.52 541.26,232.52 552.54,236.62 552.54,247.62" fill="#88cd93"/>
<polygon points="552.54,247.62 552.54,236.62 563.82,232.52 563.82,243.52" fill="#72ac7c"/>
<polygon points="578.85,223.41 590.13,227.52 578.85,231.62 567.57,227.52" fill="#9be9a8"/>
<polygon points="567.57,243.52 567.57,227.52 578.85,231.62 578.85,247.62" fill="#88cd93"/>
<polygon points="578.85,247.62 578.85,231.62 590.13,227.52 590.13,243.52" fill="#72ac7c"/>
<polygon points="605.16,225.41 616.44,229.52 605.16,233.62 593.89,229.52" fill="#9be9a8"/>
<polygon points="593.89,243.52 593.89,229.52 605.16,233.62 605.16,247.62" fill="#88cd93"/>
<polygon points="605.16,247.62 605.16,233.62 616.44,229.52 616.44,243.52" fill="#72ac7c"/>
<polygon points="526.23,221.41 537.50,225.52 526.23,229.62 514.95,225.52" fill="#40c463"/>
<polygon points="514.95,243.52 514.95,225.52 526.23,229.62 526.23,247.62" fill="#38ac57"/>
<polygon points="526.23,247.62 526.23,229.62 537.50,225.52 537.50,243.52" fill="#2f9149"/>
<polygon points="631.47,221.41 642.75,225.52 631.47,229.62 620.20,225.52" fill="#40c463"/>
<polygon points="620.20,243.52 620.20,225.52 631.47,229.62 631.47,247.62" fill="#38ac57"/>
<polygon points="631.47,247.62 631.47,229.62 642.75,225.52 642.75,243.52" fill="#2f9149"/>
<polygon points="513.07,244.20 524.35,248.31 513.07,252.41 501.80,248.31" fill="#ebedf0"/>
<polygon points="618.32,244.20 629.59,248.31 618.32,252.41 607.04,248.31" fill="#ebedf0"/>
<polygon points="670.94,244.20 682.22,248.31 670.94,252.41 659.66,248.31" fill="#ebedf0"/>
<polygon points="539.38,228.20 550.66,232.31 539.38,236.41 528.11,232.31" fill="#9be9a8"/>
<polygon points="528.11,248.31 528.11,232.31 539.38,236.41 539.38,252.41" fill="#88cd93"/>
<polygon points="539.38,252.41 539.38,236.41 550.66,232.31 550.66,248.31" fill="#72ac7c"/>
<polygon points="565.69,228.20 576.97,232.31 565.69,236.41 554.42,232.31" fill="#9be9a8"/>
<polygon points="554.42,248.31 554.42,232.31 565.69,236.41 565.69,252.41" fill="#88cd93"/>
<polygon points="565.69,252.41 565.69,236.41 576.97,232.31 576.97,248.31" fill="#72ac7c"/>
<polygon points="592.01,230.20 603.28,234.31 592.01,238.41 580.73,234.31" fill="#9be9a8"/>
<polygon points="580.73,248.31 580.73,234.31 592.01,238.41 592.01,252.41" fill="#88cd93"/>
<polygon points="592.01,252.41 592.01,238.41 603.28,234.31 603.28,248.31" fill="#72ac7c"/>
<polygon points="644.63,228.20 655.91,232.31 644.63,236.41 633.35,232.31" fill="#9be9a8"/>
<polygon points="633.35,248.31 633.35,232.31 644.63,236.41 644.63,252.41" fill="#88cd93"/>
<polygon points="644.63,252.41 644.63,236.41 655.91,232.31 655.91,248.31" fill="#72ac7c"/>
<polygon points="526.23,248.99 537.50,253.09 526.23,257.20 514.95,253.09" fill="#ebedf0"/>
<polygon points="605.16,248.99 616.44,253.09 605.16,257.20 593.89,253.09" fill="#ebedf0"/>
<polygon points="631.47,248.99 642.75,253.09 631.47,257.20 620.20,253.09" fill="#ebedf0"/>
<polygon points="684.10,248.99 695.37,253.09 684.10,257.20 672.82,253.09" fill="#ebedf0"/>
<polygon points="552.54,233.99 563.82,238.09 552.54,242.20 541.26,238.09" fill="#9be9a8"/>
<polygon points="541.26,253.09 541.26,238.09 552.54,242.20 552.54,257.20" fill="#88cd93"/>
<polygon points="552.54,257.20 552.54,242.20 563.82,238.09 563.82,253.09" fill="#72ac7c"/>
<polygon points="578.85,232.99 590.13,237.09 578.85,241.20 567.57,237.09" fill="#9be9a8"/>
<polygon points="567.57,253.09 567.57,237.09 578.85,241.20 578.85,257.20" fill="#88cd93"/>
<polygon points="578.85,257.20 578.85,241.20 590.13,237.09 590.13,253.09" fill="#72ac7c"/>
<polygon points="657.78,235.99 669.06,240.09 657.78,244.20 646.51,240.09" fill="#9be9a8"/>
<polygon points="646.51,253.09 646.51,240.09 657.78,244.20 657.78,257.20" fill="#88cd93"/>
<polygon points="657.78,257.20 657.78,244.20 669.06,240.09 669.06,253.09" fill="#72ac7c"/>
<polygon points="539.38,253.78 550.66,257.88 539.38,261.99 528.11,257.88" fill="#ebedf0"/>
<polygon points="592.01,242.78 603.28,246.88 592.01,250.99 580.73,246.88" fill="#9be9a8"/>
<polygon points="580.73,257.88 580.73,246.88 592.01,250.99 592.01,261.99" fill="#88cd93"/>
<polygon points="592.01,261.99 592.01,250.99 603.28,246.88 603.28,257.88" fill="#72ac7c"/>
<polygon points="618.32,239.78 629.59,243.88 618.32,247.99 607.04,243.88" fill="#9be9a8"/>
<polygon points="607.04,257.88 607.04,243.88 618.32,247.99 618.32,261.99" fill="#88cd93"/>
<polygon points="618.32,261.99 618.32,247.99 629.59,243.88 629.59,257.88" fill="#72ac7c"/>
<polygon points="644.63,236.78 655.91,240.88 644.63,244.99 633.35,240.88" fill="#40c463"/>
<polygon points="633.35,257.88 633.35,240.88 644.63,244.99 644.63,261.99" fill="#38ac57"/>
<polygon points="644.63,261.99 644.63,244.99 655.91,240.88 655.91,257.88" fill="#2f9149"/>
<polygon points="670.94,235.78 682.22,239.88 670.94,243.99 659.66,239.88" fill="#30a14e"/>
<polygon points="659.66,257.88 659.66,239.88 670.94,243.99 670.94,261.99" fill="#2a8d44"/>
<polygon points="670.94,261.99 670.94,243.99 682.22,239.88 682.22,257.88" fill="#237739"/>
<polygon points="565.69,235.78 576.97,239.88 565.69,243.99 554.42,239.88" fill="#216e39"/>
<polygon points="554.42,257.88 554.42,239.88 565.69,243.99 565.69,261.99" fill="#1d6032"/>
<polygon points="565.69,261.99 565.69,243.99 576.97,239.88 576.97,257.88" fill="#18512a"/>
<polygon points="631.47,242.57 642.75,246.67 631.47,250.78 620.20,246.67" fill="#9be9a8"/>
<polygon points="620.20,262.67 620.20,246.67 631.47,250.78 631.47,266.78" fill="#88cd93"/>
<polygon points="631.47,266.78 631.47,250.78 642.75,246.67 642.75,262.67" fill="#72ac7c"/>
<polygon points="657.78,244.57 669.06,248.67 657.78,252.78 646.51,248.67" fill="#9be9a8"/>
<polygon points="646.51,262.67 646.51,248.67 657.78,252.78 657.78,266.78" fill="#88cd93"/>
<polygon points="657.78,266.78 657.78,252.78 669.06,248.67 669.06,262.67" fill="#72ac7c"/>
<polygon points="552.54,240.57 563.82,244.67 552.54,248.78 541.26,244.67" fill="#40c463"/>
<polygon points="541.26,262.67 541.26,244.67 552.54,248.78 552.54,266.78" fill="#38ac57"/>
<polygon points="552.54,266.78 552.54,248.78 563.82,244.67 563.82,262.67" fill="#2f9149"/>
<polygon points="578.85,241.57 590.13,245.67 578.85,249.78 567.57,245.67" fill="#40c463"/>
<polygon points="567.57,262.67 567.57,245.67 578.85,249.78 578.85,266.78" fill="#38ac57"/>
<polygon points="578.85,266.78 578.85,249.78 590.13,245.67 590.13,262.67" fill="#2f9149"/>
<polygon points="605.16,240.57 616.44,244.67 605.16,248.78 593.89,244.67" fill="#40c463"/>
<polygon points="593.89,262.67 593.89,244.67 605.16,248.78 605.16,266.78" fill="#38ac57"/>
<polygon points="605.16,266.78 605.16,248.78 616.44,244.67 616.44,262.67" fill="#2f9149"/>
<polygon points="565.69,263.36 576.97,267.46 565.69,271.56 554.42,267.46" fill="#ebedf0"/>
<polygon points="592.01,255.36 603.28,259.46 592.01,263.56 580.73,259.46" fill="#9be9a8"/>
<polygon points="580.73,267.46 580.73,259.46 592.01,263.56 592.01,271.56" fill="#88cd93"/>
<polygon points="592.01,271.56 592.01,263.56 603.28,259.46 603.28,267.46" fill="#72ac7c"/>
<polygon points="618.32,252.36 629.59,256.46 618.32,260.56 607.04,256.46" fill="#9be9a8"/>
<polygon points="607.04,267.46 607.04,256.46 618.32,260.56 618.32,271.56" fill="#88cd93"/>
<polygon points="618.32,271.56 618.32,260.56 629.59,256.46 629.59,267.46" fill="#72ac7c"/>
<polygon points="644.63,247.36 655.91,251.46 644.63,255.56 633.35,251.46" fill="#9be9a8"/>
<polygon points="633.35,267.46 633.35,251.46 644.63,255.56 644.63,271.56" fill="#88cd93"/>
<polygon points="644.63,271.56 644.63,255.56 655.91,251.46 655.91,267.46" fill="#72ac7c"/>
<polygon points="578.85,268.14 590.13,272.25 578.85,276.35 567.57,272.25" fill="#ebedf0"/>
<polygon points="631.47,268.14 642.75,272.25 631.47,276.35 620.20,272.25" fill="#ebedf0"/>
<polygon points="605.16,254.14 616.44,258.25 605.16,262.35 593.89,258.25" fill="#9be9a8"/>
<polygon points="593.89,272.25 593.89,258.25 605.16,262.35 605.16,276.35" fill="#88cd93"/>
<polygon points="605.16,276.35 605.16,262.35 616.44,258.25 616.44,272.25" fill="#72ac7c"/>
<polygon points="592.01,272.93 603.28,277.04 592.01,281.14 580.73,277.04" fill="#ebedf0"/>
<text x="697.25" y="14.00" text-anchor="end" font-family='-apple-system, BlinkMacSystemFont, "Segoe UI", Helvetica, Arial, sans-serif' font-size="34" font-weight="700" fill="#216e39">1,655</text>
<text x="697.25" y="26.00" text-anchor="end" font-family='-apple-system, BlinkMacSystemFont, "Segoe UI", Helvetica, Arial, sans-serif' font-size="10" fill="#59636e" letter-spacing="0.8">TOTAL CONTRIBUTIONS</text>
<rect x="-92.09" y="230.30" width="12" height="9.00" rx="1" fill="#40c463"/>
<text x="-86.09" y="257.30" text-anchor="middle" font-family='-apple-system, BlinkMacSystemFont, "Segoe UI", Helvetica, Arial, sans-serif' font-size="11" fill="#59636e">S</text>
<rect x="-76.09" y="198.58" width="12" height="40.71" rx="1" fill="#40c463"/>
<text x="-70.09" y="257.30" text-anchor="middle" font-family='-apple-system, BlinkMacSystemFont, "Segoe UI", Helvetica, Arial, sans-serif' font-size="11" fill="#59636e">M</text>
<rect x="-60.09" y="185.30" width="12" height="54.00" rx="1" fill="#216e39"/>
<text x="-54.09" y="257.30" text-anchor="middle" font-family='-apple-system, BlinkMacSystemFont, "Segoe UI", Helvetica, Arial, sans-serif' font-size="11" fill="#59636e">T</text>
<rect x="-44.09" y="195.58" width="12" height="43.71" rx="1" fill="#40c463"/>
<text x="-38.09" y="257.30" text-anchor="middle" font-family='-apple-system, BlinkMacSystemFont, "Segoe UI", Helvetica, Arial, sans-serif' font-size="11" fill="#59636e">W</text>
<rect x="-28.09" y="193.73" width="12" height="45.57" rx="1" fill="#40c463"/>
<text x="-22.09" y="257.30" text-anchor="middle" font-family='-apple-system, BlinkMacSystemFont, "Segoe UI", Helvetica, Arial, sans-serif' font-size="11" fill="#59636e">T</text>
<rect x="-12.09" y="201.30" width="12" height="38.00" rx="1" fill="#40c463"/>
<text x="-6.09" y="257.30" text-anchor="middle" font-family='-apple-system, BlinkMacSystemFont, "Segoe UI", Helvetica, Arial, sans-serif' font-size="11" fill="#59636e">F</text>
<rect x="3.91" y="233.87" width="12" height="5.43" rx="1" fill="#40c463"/>
<text x="9.91" y="257.30" text-anchor="middle" font-family='-apple-system, BlinkMacSystemFont, "Segoe UI", Helvetica, Arial, sans-serif' font-size="11" fill="#59636e">S</text>
<text x="-92.09" y="277.30" font-family='-apple-system, BlinkMacSystemFont, "Segoe UI", Helvetica, Arial, sans-serif' font-size="12" fill="#59636e" letter-spacing="0.3">Most active days</text>
<text x="-92.09" y="293.30" font-family='-apple-system, BlinkMacSystemFont, "Segoe UI", Helvetica, Arial, sans-serif' font-size="9" fill="#59636e">Data pulled daily from GitHub.</text>
<text x="-92.09" y="303.30" font-family='-apple-system, BlinkMacSystemFont, "Segoe UI", Helvetica, Arial, sans-serif' font-size="9" fill="#59636e">Rolling last-12-month activity.</text>
</svg>