<svg xmlns="http://www.w3.org/2000/svg" viewBox="-98.09 -24.00 801.34 354.30" width="801" height="354">
<polygon points="0.00,-17.00 11.28,-12.90 0.00,-8.79 -11.28,-12.90" fill="#006d32"/>
<polygon points="-11.28,4.10 -11.28,-12.90 0.00,-8.79 0.00,8.21" fill="#005f2c"/>
<polygon points="0.00,8.21 0.00,-8.79 11.28,-12.90 11.28,4.10" fill="#005025"/>
<polygon points="13.16,4.79 24.43,8.89 13.16,13.00 1.88,8.89" fill="#161b22"/>
<polygon points="-13.16,-12.21 -1.88,-8.11 -13.16,-4.00 -24.43,-8.11" fill="#006d32"/>
<polygon points="-24.43,8.89 -24.43,-8.11 -13.16,-4.00 -13.16,13.00" fill="#005f2c"/>
<polygon points="-13.16,13.00 -13.16,-4.00 -1.88,-8.11 -1.88,8.89" fill="#005025"/>
<polygon points="0.00,9.58 11.28,13.68 0.00,17.79 -11.28,13.68" fill="#161b22"/>
<polygon points="26.31,9.58 37.59,13.68 26.31,17.79 15.04,13.68" fill="#161b22"/>
<polygon points="-26.31,-6.42 -15.04,-2.32 -26.31,1.79 -37.59,-2.32" fill="#0e4429"/>
<polygon points="-37.59,13.68 -37.59,-2.32 -26.31,1.79 -26.31,17.79" fill="#0c3b24"/>
<polygon points="-26.31,17.79 -26.31,1.79 -15.04,-2.32 -15.04,13.68" fill="#0a321e"/>
<polygon points="13.16,14.36 24.43,18.47 13.16,22.57 1.88,18.47" fill="#161b22"/>
<polygon points="39.47,14.36 50.74,18.47 39.47,22.57 28.19,18.47" fill="#161b22"/>
<polygon points="-39.47,6.36 -28.19,10.47 -39.47,14.57 -50.74,10.47" fill="#0e4429"/>
<polygon points="-50.74,18.47 -50.74,10.47 -39.47,14.57 -39.47,22.57" fill="#0c3b24"/>
<polygon points="-39.47,22.57 -39.47,14.57 -28.19,10.47 -28.19,18.47" fill="#0a321e"/>
<polygon points="-13.16,-0.64 -1.88,3.47 -13.16,7.57 -24.43,3.47" fill="#0e4429"/>
<polygon points="-24.43,18.47 -24.43,3.47 -13.16,7.57 -13.16,22.57" fill="#0c3b24"/>
<polygon points="-13.16,22.57 -13.16,7.57 -1.88,3.47 -1.88,18.47" fill="#0a321e"/>
<polygon points="-26.31,19.15 -15.04,23.26 -26.31,27.36 -37.59,23.26" fill="#161b22"/>
<polygon points="0.00,19.15 11.28,23.26 0.00,27.36 -11.28,23.26" fill="#161b22"/>
<polygon points="26.31,19.15 37.59,23.26 26.31,27.36 15.04,23.26" fill="#161b22"/>
<polygon points="52.62,19.15 63.90,23.26 52.62,27.36 41.35,23.26" fill="#161b22"/>
<polygon points="-52.62,5.15 -41.35,9.26 -52.62,13.36 -63.90,9.26" fill="#0e4429"/>
<polygon points="-63.90,23.26 -63.90,9.26 -52.62,13.36 -52.62,27.36" fill="#0c3b24"/>
<polygon points="-52.62,27.36 -52.62,13.36 -41.35,9.26 -41.35,23.26" fill="#0a321e"/>
<polygon points="-39.47,23.94 -28.19,28.05 -39.47,32.15 -50.74,28.05" fill="#161b22"/>
<polygon points="-13.16,23.94 -1.88,28.05 -13.16,32.15 -24.43,28.05" fill="#161b22"/>
<polygon points="13.16,23.94 24.43,28.05 13.16,32.15 1.88,28.05" fill="#161b22"/>
<polygon points="39.47,23.94 50.74,28.05 39.47,32.15 28.19,28.05" fill="#161b22"/>
<polygon points="65.78,23.94 77.05,28.05 65.78,32.15 54.50,28.05" fill="#161b22"/>
<polygon points="-65.78,15.94 -54.50,20.05 -65.78,24.15 -77.05,20.05" fill="#0e4429"/>
<polygon points="-77.05,28.05 -77.05,20.05 -65.78,24.15 -65.78,32.15" fill="#0c3b24"/>
<polygon points="-65.78,32.15 -65.78,24.15 -54.50,20.05 -54.50,28.05" fill="#0a321e"/>
<polygon points="-78.93,28.73 -67.66,32.83 -78.93,36.94 -90.21,32.83" fill="#161b22"/>
<polygon points="-52.62,28.73 -41.35,32.83 -52.62,36.94 -63.90,32.83" fill="#161b22"/>
<polygon points="52.62,28.73 63.90,32.83 52.62,36.94 41.35,32.83" fill="#161b22"/>
<polygon points="78.93,28.73 90.21,32.83 78.93,36.94 67.66,32.83" fill="#161b22"/>
<polygon points="-26.31,20.73 -15.04,24.83 -26.31,28.94 -37.59,24.83" fill="#0e4429"/>
<polygon points="-37.59,32.83 -37.59,24.83 -26.31,28.94 -26.31,36.94" fill="#0c3b24"/>
<polygon points="-26.31,36.94 -26.31,28.94 -15.04,24.83 -15.04,32.83" fill="#0a321e"/>
<polygon points="0.00,17.73 11.28,21.83 0.00,25.94 -11.28,21.83" fill="#0e4429"/>
<polygon points="-11.28,32.83 -11.28,21.83 0.00,25.94 0.00,36.94" fill="#0c3b24"/>
<polygon points="0.00,36.94 0.00,25.94 11.28,21.83 11.28,32.83" fill="#0a321e"/>
<polygon points="26.31,10.73 37.59,14.83 26.31,18.94 15.04,14.83" fill="#26a641"/>
<polygon points="15.04,32.83 15.04,14.83 26.31,18.94 26.31,36.94" fill="#219239"/>
<polygon points="26.31,36.94 26.31,18.94 37.59,14.83 37.59,32.83" fill="#1c7a30"/>
<polygon points="-65.78,33.52 -54.50,37.62 -65.78,41.73 -77.05,37.62" fill="#161b22"/>
<polygon points="-39.47,33.52 -28.19,37.62 -39.47,41.73 -50.74,37.62" fill="#161b22"/>
<polygon points="13.16,33.52 24.43,37.62 13.16,41.73 1.88,37.62" fill="#161b22"/>
<polygon points="92.09,33.52 103.37,37.62 92.09,41.73 80.81,37.62" fill="#161b22"/>
<polygon points="-13.16,25.52 -1.88,29.62 -13.16,33.73 -24.43,29.62" fill="#0e4429"/>
<polygon points="-24.43,37.62 -24.43,29.62 -13.16,33.73 -13.16,41.73" fill="#0c3b24"/>
<polygon points="-13.16,41.73 -13.16,33.73 -1.88,29.62 -1.88,37.62" fill="#0a321e"/>
<polygon points="39.47,22.52 50.74,26.62 39.47,30.73 28.19,26.62" fill="#0e4429"/>
<polygon points="28.19,37.62 28.19,26.62 39.47,30.73 39.47,41.73" fill="#0c3b24"/>
<polygon points="39.47,41.73 39.47,30.73 50.74,26.62 50.74,37.62" fill="#0a321e"/>
<polygon points="65.78,25.52 77.05,29.62 65.78,33.73 54.50,29.62" fill="#0e4429"/>
<polygon points="54.50,37.62 54.50,29.62 65.78,33.73 65.78,41.73" fill="#0c3b24"/>
<polygon points="65.78,41.73 65.78,33.73 77.05,29.62 77.05,37.62" fill="#0a321e"/>
<polygon points="-52.62,38.31 -41.35,42.41 -52.62,46.51 -63.90,42.41" fill="#161b22"/>
<polygon points="0.00,38.31 11.28,42.41 0.00,46.51 -11.28,42.41" fill="#161b22"/>
<polygon points="78.93,38.31 90.21,42.41 78.93,46.51 67.66,42.41" fill="#161b22"/>
<polygon points="105.25,38.31 116.52,42.41 105.25,46.51 93.97,42.41" fill="#161b22"/>
<polygon points="26.31,30.31 37.59,34.41 26.31,38.51 15.04,34.41" fill="#0e4429"/>
<polygon points="15.04,42.41 15.04,34.41 26.31,38.51 26.31,46.51" fill="#0c3b24"/>
<polygon points="26.31,46.51 26.31,38.51 37.59,34.41 37.59,42.41" fill="#0a321e"/>
<polygon points="52.62,27.31 63.90,31.41 52.62,35.51 41.35,31.41" fill="#0e4429"/>
<polygon points="41.35,42.41 41.35,31.41 52.62,35.51 52.62,46.51" fill="#0c3b24"/>
<polygon points="52.62,46.51 52.62,35.51 63.90,31.41 63.90,42.41" fill="#0a321e"/>
<polygon points="-26.31,21.31 -15.04,25.41 -26.31,29.51 -37.59,25.41" fill="#006d32"/>
<polygon points="-37.59,42.41 -37.59,25.41 -26.31,29.51 -26.31,46.51" fill="#005f2c"/>
<polygon points="-26.31,46.51 -26.31,29.51 -15.04,25.41 -15.04,42.41" fill="#005025"/>
<polygon points="-39.47,43.09 -28.19,47.20 -39.47,51.30 -50.74,47.20" fill="#161b22"/>
<polygon points="13.16,43.09 24.43,47.20 13.16,51.30 1.88,47.20" fill="#161b22"/>
<polygon points="39.47,43.09 50.74,47.20 39.47,51.30 28.19,47.20" fill="#161b22"/>
<polygon points="65.78,43.09 77.05,47.20 65.78,51.30 54.50,47.20" fill="#161b22"/>
<polygon points="92.09,43.09 103.37,47.20 92.09,51.30 80.81,47.20" fill="#161b22"/>
<polygon points="118.40,43.09 129.68,47.20 118.40,51.30 107.12,47.20" fill="#161b22"/>
<polygon points="-13.16,35.09 -1.88,39.20 -13.16,43.30 -24.43,39.20" fill="#0e4429"/>
<polygon points="-24.43,47.20 -24.43,39.20 -13.16,43.30 -13.16,51.30" fill="#0c3b24"/>
<polygon points="-13.16,51.30 -13.16,43.30 -1.88,39.20 -1.88,47.20" fill="#0a321e"/>
<polygon points="-26.31,47.88 -15.04,51.99 -26.31,56.09 -37.59,51.99" fill="#161b22"/>
<polygon points="0.00,47.88 11.28,51.99 0.00,56.09 -11.28,51.99" fill="#161b22"/>
<polygon points="26.31,47.88 37.59,51.99 26.31,56.09 15.04,51.99" fill="#161b22"/>
<polygon points="52.62,47.88 63.90,51.99 52.62,56.09 41.35,51.99" fill="#161b22"/>
<polygon points="78.93,47.88 90.21,51.99 78.93,56.09 67.66,51.99" fill="#161b22"/>
<polygon points="131.56,47.88 142.83,51.99 131.56,56.09 120.28,51.99" fill="#161b22"/>
<polygon points="105.25,32.88 116.52,36.99 105.25,41.09 93.97,36.99" fill="#0e4429"/>
<polygon points="93.97,51.99 93.97,36.99 105.25,41.09 105.25,56.09" fill="#0c3b24"/>
<polygon points="105.25,56.09 105.25,41.09 116.52,36.99 116.52,51.99" fill="#0a321e"/>
<polygon points="-13.16,52.67 -1.88,56.78 -13.16,60.88 -24.43,56.78" fill="#161b22"/>
<polygon points="13.16,52.67 24.43,56.78 13.16,60.88 1.88,56.78" fill="#161b22"/>
<polygon points="39.47,52.67 50.74,56.78 39.47,60.88 28.19,56.78" fill="#161b22"/>
<polygon points="65.78,52.67 77.05,56.78 65.78,60.88 54.50,56.78" fill="#161b22"/>
<polygon points="144.71,52.67 155.99,56.78 144.71,60.88 133.44,56.78" fill="#161b22"/>
<polygon points="92.09,44.67 103.37,48.78 92.09,52.88 80.81,48.78" fill="#0e4429"/>
<polygon points="80.81,56.78 80.81,48.78 92.09,52.88 92.09,60.88" fill="#0c3b24"/>
<polygon points="92.09,60.88 92.09,52.88 103.37,48.78 103.37,56.78" fill="#0a321e"/>
<polygon points="118.40,44.67 129.68,48.78 118.40,52.88 107.12,48.78" fill="#0e4429"/>
<polygon points="107.12,56.78 107.12,48.78 118.40,52.88 118.40,60.88" fill="#0c3b24"/>
<polygon points="118.40,60.88 118.40,52.88 129.68,48.78 129.68,56.78" fill="#0a321e"/>
<polygon points="0.00,57.46 11.28,61.56 0.00,65.67 -11.28,61.56" fill="#161b22"/>
<polygon points="26.31,57.46 37.59,61.56 26.31,65.67 15.04,61.56" fill="#161b22"/>
<polygon points="52.62,57.46 63.90,61.56 52.62,65.67 41.35,61.56" fill="#161b22"/>
<polygon points="157.87,57.46 169.14,61.56 157.87,65.67 146.59,61.56" fill="#161b22"/>
<polygon points="78.93,41.46 90.21,45.56 78.93,49.67 67.66,45.56" fill="#0e4429"/>
<polygon points="67.66,61.56 67.66,45.56 78.93,49.67 78.93,65.67" fill="#0c3b24"/>
<polygon points="78.93,65.67 78.93,49.67 90.21,45.56 90.21,61.56" fill="#0a321e"/>
<polygon points="131.56,43.46 142.83,47.56 131.56,51.67 120.28,47.56" fill="#0e4429"/>
<polygon points="120.28,61.56 120.28,47.56 131.56,51.67 131.56,65.67" fill="#0c3b24"/>
<polygon points="131.56,65.67 131.56,51.67 142.83,47.56 142.83,61.56" fill="#0a321e"/>
<polygon points="105.25,39.46 116.52,43.56 105.25,47.67 93.97,43.56" fill="#006d32"/>
<polygon points="93.97,61.56 93.97,43.56 105.25,47.67 105.25,65.67" fill="#005f2c"/>
<polygon points="105.25,65.67 105.25,47.67 116.52,43.56 116.52,61.56" fill="#005025"/>
<polygon points="13.16,62.25 24.43,66.35 13.16,70.46 1.88,66.35" fill="#161b22"/>
<polygon points="171.02,62.25 182.30,66.35 171.02,70.46 159.75,66.35" fill="#161b22"/>
<polygon points="39.47,54.25 50.74,58.35 39.47,62.46 28.19,58.35" fill="#0e4429"/>
<polygon points="28.19,66.35 28.19,58.35 39.47,62.46 39.47,70.46" fill="#0c3b24"/>
<polygon points="39.47,70.46 39.47,62.46 50.74,58.35 50.74,66.35" fill="#0a321e"/>
<polygon points="65.78,46.25 77.05,50.35 65.78,54.46 54.50,50.35" fill="#0e4429"/>
<polygon points="54.50,66.35 54.50,50.35 65.78,54.46 65.78,70.46" fill="#0c3b24"/>
<polygon points="65.78,70.46 65.78,54.46 77.05,50.35 77.05,66.35" fill="#0a321e"/>
<polygon points="118.40,54.25 129.68,58.35 118.40,62.46 107.12,58.35" fill="#0e4429"/>
<polygon points="107.12,66.35 107.12,58.35 118.40,62.46 118.40,70.46" fill="#0c3b24"/>
<polygon points="118.40,70.46 118.40,62.46 129.68,58.35 129.68,66.35" fill="#0a321e"/>
<polygon points="144.71,44.25 155.99,48.35 144.71,52.46 133.44,48.35" fill="#006d32"/>
<polygon points="133.44,66.35 133.44,48.35 144.71,52.46 144.71,70.46" fill="#005f2c"/>
<polygon points="144.71,70.46 144.71,52.46 155.99,48.35 155.99,66.35" fill="#005025"/>
<polygon points="92.09,44.25 103.37,48.35 92.09,52.46 80.81,48.35" fill="#26a641"/>
<polygon points="80.81,66.35 80.81,48.35 92.09,52.46 92.09,70.46" fill="#219239"/>
<polygon points="92.09,70.46 92.09,52.46 103.37,48.35 103.37,66.35" fill="#1c7a30"/>
<polygon points="184.18,67.04 195.46,71.14 184.18,75.24 172.90,71.14" fill="#161b22"/>
<polygon points="26.31,59.04 37.59,63.14 26.31,67.24 15.04,63.14" fill="#0e4429"/>
<polygon points="15.04,71.14 15.04,63.14 26.31,67.24 26.31,75.24" fill="#0c3b24"/>
<polygon points="26.31,75.24 26.31,67.24 37.59,63.14 37.59,71.14" fill="#0a321e"/>
<polygon points="52.62,51.04 63.90,55.14 52.62,59.24 41.35,55.14" fill="#0e4429"/>
<polygon points="41.35,71.14 41.35,55.14 52.62,59.24 52.62,75.24" fill="#0c3b24"/>
<polygon points="52.62,75.24 52.62,59.24 63.90,55.14 63.90,71.14" fill="#0a321e"/>
<polygon points="78.93,54.04 90.21,58.14 78.93,62.24 67.66,58.14" fill="#0e4429"/>
<polygon points="67.66,71.14 67.66,58.14 78.93,62.24 78.93,75.24" fill="#0c3b24"/>
<polygon points="78.93,75.24 78.93,62.24 90.21,58.14 90.21,71.14" fill="#0a321e"/>
<polygon points="105.25,53.04 116.52,57.14 105.25,61.24 93.97,57.14" fill="#0e4429"/>
<polygon points="93.97,71.14 93.97,57.14 105.25,61.24 105.25,75.24" fill="#0c3b24"/>
<polygon points="105.25,75.24 105.25,61.24 116.52,57.14 116.52,71.14" fill="#0a321e"/>
<polygon points="131.56,52.04 142.83,56.14 131.56,60.24 120.28,56.14" fill="#0e4429"/>
<polygon points="120.28,71.14 120.28,56.14 131.56,60.24 131.56,75.24" fill="#0c3b24"/>
<polygon points="131.56,75.24 131.56,60.24 142.83,56.14 142.83,71.14" fill="#0a321e"/>
<polygon points="157.87,56.04 169.14,60.14 157.87,64.24 146.59,60.14" fill="#0e4429"/>
<polygon points="146.59,71.14 146.59,60.14 157.87,64.24 157.87,75.24" fill="#0c3b24"/>
<polygon points="157.87,75.24 157.87,64.24 169.14,60.14 169.14,71.14" fill="#0a321e"/>
<polygon points="39.47,63.82 50.74,67.93 39.47,72.03 28.19,67.93" fill="#0e4429"/>
<polygon points="28.19,75.93 28.19,67.93 39.47,72.03 39.47,80.03" fill="#0c3b24"/>
<polygon points="39.47,80.03 39.47,72.03 50.74,67.93 50.74,75.93" fill="#0a321e"/>
<polygon points="65.78,60.82 77.05,64.93 65.78,69.03 54.50,64.93" fill="#0e4429"/>
<polygon points="54.50,75.93 54.50,64.93 65.78,69.03 65.78,80.03" fill="#0c3b24"/>
<polygon points="65.78,80.03 65.78,69.03 77.05,64.93 77.05,75.93" fill="#0a321e"/>
<polygon points="144.71,58.82 155.99,62.93 144.71,67.03 133.44,62.93" fill="#0e4429"/>
<polygon points="133.44,75.93 133.44,62.93 144.71,67.03 144.71,80.03" fill="#0c3b24"/>
<polygon points="144.71,80.03 144.71,67.03 155.99,62.93 155.99,75.93" fill="#0a321e"/>
<polygon points="171.02,60.82 182.30,64.93 171.02,69.03 159.75,64.93" fill="#0e4429"/>
<polygon points="159.75,75.93 159.75,64.93 171.02,69.03 171.02,80.03" fill="#0c3b24"/>
<polygon points="171.02,80.03 171.02,69.03 182.30,64.93 182.30,75.93" fill="#0a321e"/>
<polygon points="197.34,58.82 208.61,62.93 197.34,67.03 186.06,62.93" fill="#0e4429"/>
<polygon points="186.06,75.93 186.06,62.93 197.34,67.03 197.34,80.03" fill="#0c3b24"/>
<polygon points="197.34,80.03 197.34,67.03 208.61,62.93 208.61,75.93" fill="#0a321e"/>
<polygon points="92.09,54.82 103.37,58.93 92.09,63.03 80.81,58.93" fill="#006d32"/>
<polygon points="80.81,75.93 80.81,58.93 92.09,63.03 92.09,80.03" fill="#005f2c"/>
<polygon points="92.09,80.03 92.09,63.03 103.37,58.93 103.37,75.93" fill="#005025"/>
<polygon points="118.40,54.82 129.68,58.93 118.40,63.03 107.12,58.93" fill="#006d32"/>
<polygon points="107.12,75.93 107.12,58.93 118.40,63.03 118.40,80.03" fill="#005f2c"/>
<polygon points="118.40,80.03 118.40,63.03 129.68,58.93 129.68,75.93" fill="#005025"/>
<polygon points="52.62,76.61 63.90,80.72 52.62,84.82 41.35,80.72" fill="#161b22"/>
<polygon points="78.93,76.61 90.21,80.72 78.93,84.82 67.66,80.72" fill="#161b22"/>
<polygon points="210.49,76.61 221.77,80.72 210.49,84.82 199.21,80.72" fill="#161b22"/>
<polygon points="131.56,68.61 142.83,72.72 131.56,76.82 120.28,72.72" fill="#0e4429"/>
<polygon points="120.28,80.72 120.28,72.72 131.56,76.82 131.56,84.82" fill="#0c3b24"/>
<polygon points="131.56,84.82 131.56,76.82 142.83,72.72 142.83,80.72" fill="#0a321e"/>
<polygon points="157.87,63.61 169.14,67.72 157.87,71.82 146.59,67.72" fill="#0e4429"/>
<polygon points="146.59,80.72 146.59,67.72 157.87,71.82 157.87,84.82" fill="#0c3b24"/>
<polygon points="157.87,84.82 157.87,71.82 169.14,67.72 169.14,80.72" fill="#0a321e"/>
<polygon points="184.18,61.61 195.46,65.72 184.18,69.82 172.90,65.72" fill="#0e4429"/>
<polygon points="172.90,80.72 172.90,65.72 184.18,69.82 184.18,84.82" fill="#0c3b24"/>
<polygon points="184.18,84.82 184.18,69.82 195.46,65.72 195.46,80.72" fill="#0a321e"/>
<polygon points="105.25,58.61 116.52,62.72 105.25,66.82 93.97,62.72" fill="#006d32"/>
<polygon points="93.97,80.72 93.97,62.72 105.25,66.82 105.25,84.82" fill="#005f2c"/>
<polygon points="105.25,84.82 105.25,66.82 116.52,62.72 116.52,80.72" fill="#005025"/>
<polygon points="65.78,81.40 77.05,85.51 65.78,89.61 54.50,85.51" fill="#161b22"/>
<polygon points="223.65,81.40 234.92,85.51 223.65,89.61 212.37,85.51" fill="#161b22"/>
<polygon points="92.09,66.40 103.37,70.51 92.09,74.61 80.81,70.51" fill="#0e4429"/>
<polygon points="80.81,85.51 80.81,70.51 92.09,74.61 92.09,89.61" fill="#0c3b24"/>
<polygon points="92.09,89.61 92.09,74.61 103.37,70.51 103.37,85.51" fill="#0a321e"/>
<polygon points="118.40,65.40 129.68,69.51 118.40,73.61 107.12,69.51" fill="#0e4429"/>
<polygon points="107.12,85.51 107.12,69.51 118.40,73.61 118.40,89.61" fill="#0c3b24"/>
<polygon points="118.40,89.61 118.40,73.61 129.68,69.51 129.68,85.51" fill="#0a321e"/>
<polygon points="144.71,68.40 155.99,72.51 144.71,76.61 133.44,72.51" fill="#0e4429"/>
<polygon points="133.44,85.51 133.44,72.51 144.71,76.61 144.71,89.61" fill="#0c3b24"/>
<polygon points="144.71,89.61 144.71,76.61 155.99,72.51 155.99,85.51" fill="#0a321e"/>
<polygon points="197.34,70.40 208.61,74.51 197.34,78.61 186.06,74.51" fill="#0e4429"/>
<polygon points="186.06,85.51 186.06,74.51 197.34,78.61 197.34,89.61" fill="#0c3b24"/>
<polygon points="197.34,89.61 197.34,78.61 208.61,74.51 208.61,85.51" fill="#0a321e"/>
<polygon points="171.02,63.40 182.30,67.51 171.02,71.61 159.75,67.51" fill="#006d32"/>
<polygon points="159.75,85.51 159.75,67.51 171.02,71.61 171.02,89.61" fill="#005f2c"/>
<polygon points="171.02,89.61 171.02,71.61 182.30,67.51 182.30,85.51" fill="#005025"/>
<polygon points="78.93,86.19 90.21,90.29 78.93,94.40 67.66,90.29" fill="#161b22"/>
<polygon points="105.25,86.19 116.52,90.29 105.25,94.40 93.97,90.29" fill="#161b22"/>
<polygon points="236.80,86.19 248.08,90.29 236.80,94.40 225.53,90.29" fill="#161b22"/>
<polygon points="157.87,70.19 169.14,74.29 157.87,78.40 146.59,74.29" fill="#0e4429"/>
<polygon points="146.59,90.29 146.59,74.29 157.87,78.40 157.87,94.40" fill="#0c3b24"/>
<polygon points="157.87,94.40 157.87,78.40 169.14,74.29 169.14,90.29" fill="#0a321e"/>
<polygon points="131.56,68.19 142.83,72.29 131.56,76.40 120.28,72.29" fill="#006d32"/>
<polygon points="120.28,90.29 120.28,72.29 131.56,76.40 131.56,94.40" fill="#005f2c"/>
<polygon points="131.56,94.40 131.56,76.40 142.83,72.29 142.83,90.29" fill="#005025"/>
<polygon points="184.18,68.19 195.46,72.29 184.18,76.40 172.90,72.29" fill="#006d32"/>
<polygon points="172.90,90.29 172.90,72.29 184.18,76.40 184.18,94.40" fill="#005f2c"/>
<polygon points="184.18,94.40 184.18,76.40 195.46,72.29 195.46,90.29" fill="#005025"/>
<polygon points="210.49,68.19 221.77,72.29 210.49,76.40 199.21,72.29" fill="#26a641"/>
<polygon points="199.21,90.29 199.21,72.29 210.49,76.40 210.49,94.40" fill="#219239"/>
<polygon points="210.49,94.40 210.49,76.40 221.77,72.29 221.77,90.29" fill="#1c7a30"/>
<polygon points="92.09,90.98 103.37,95.08 92.09,99.19 80.81,95.08" fill="#161b22"/>
<polygon points="118.40,79.98 129.68,84.08 118.40,88.19 107.12,84.08" fill="#0e4429"/>
<polygon points="107.12,95.08 107.12,84.08 118.40,88.19 118.40,99.19" fill="#0c3b24"/>
<polygon points="118.40,99.19 118.40,88.19 129.68,84.08 129.68,95.08" fill="#0a321e"/>
<polygon points="144.71,82.98 155.99,87.08 144.71,91.19 133.44,87.08" fill="#0e4429"/>
<polygon points="133.44,95.08 133.44,87.08 144.71,91.19 144.71,99.19" fill="#0c3b24"/>
<polygon points="144.71,99.19 144.71,91.19 155.99,87.08 155.99,95.08" fill="#0a321e"/>
<polygon points="171.02,75.98 182.30,80.08 171.02,84.19 159.75,80.08" fill="#0e4429"/>
<polygon points="159.75,95.08 159.75,80.08 171.02,84.19 171.02,99.19" fill="#0c3b24"/>
<polygon points="171.02,99.19 171.02,84.19 182.30,80.08 182.30,95.08" fill="#0a321e"/>
<polygon points="197.34,74.98 208.61,79.08 197.34,83.19 186.06,79.08" fill="#0e4429"/>
<polygon points="186.06,95.08 186.06,79.08 197.34,83.19 197.34,99.19" fill="#0c3b24"/>
<polygon points="197.34,99.19 197.34,83.19 208.61,79.08 208.61,95.08" fill="#0a321e"/>
<polygon points="223.65,79.98 234.92,84.08 223.65,88.19 212.37,84.08" fill="#0e4429"/>
<polygon points="212.37,95.08 212.37,84.08 223.65,88.19 223.65,99.19" fill="#0c3b24"/>
<polygon points="223.65,99.19 223.65,88.19 234.92,84.08 234.92,95.08" fill="#0a321e"/>
<polygon points="249.96,82.98 261.23,87.08 249.96,91.19 238.68,87.08" fill="#0e4429"/>
<polygon points="238.68,95.08 238.68,87.08 249.96,91.19 249.96,99.19" fill="#0c3b24"/>
<polygon points="249.96,99.19 249.96,91.19 261.23,87.08 261.23,95.08" fill="#0a321e"/>
<polygon points="263.11,95.77 274.39,99.87 263.11,103.97 251.84,99.87" fill="#161b22"/>
<polygon points="105.25,87.77 116.52,91.87 105.25,95.97 93.97,91.87" fill="#0e4429"/>
<polygon points="93.97,99.87 93.97,91.87 105.25,95.97 105.25,103.97" fill="#0c3b24"/>
<polygon points="105.25,103.97 105.25,95.97 116.52,91.87 116.52,99.87" fill="#0a321e"/>
<polygon points="131.56,81.77 142.83,85.87 131.56,89.97 120.28,85.87" fill="#0e4429"/>
<polygon points="120.28,99.87 120.28,85.87 131.56,89.97 131.56,103.97" fill="#0c3b24"/>
<polygon points="131.56,103.97 131.56,89.97 142.83,85.87 142.83,99.87" fill="#0a321e"/>
<polygon points="184.18,84.77 195.46,88.87 184.18,92.97 172.90,88.87" fill="#0e4429"/>
<polygon points="172.90,99.87 172.90,88.87 184.18,92.97 184.18,103.97" fill="#0c3b24"/>
<polygon points="184.18,103.97 184.18,92.97 195.46,88.87 195.46,99.87" fill="#0a321e"/>
<polygon points="210.49,82.77 221.77,86.87 210.49,90.97 199.21,86.87" fill="#0e4429"/>
<polygon points="199.21,99.87 199.21,86.87 210.49,90.97 210.49,103.97" fill="#0c3b24"/>
<polygon points="210.49,103.97 210.49,90.97 221.77,86.87 221.77,99.87" fill="#0a321e"/>
<polygon points="236.80,82.77 248.08,86.87 236.80,90.97 225.53,86.87" fill="#0e4429"/>
<polygon points="225.53,99.87 225.53,86.87 236.80,90.97 236.80,103.97" fill="#0c3b24"/>
<polygon points="236.80,103.97 236.80,90.97 248.08,86.87 248.08,99.87" fill="#0a321e"/>
<polygon points="157.87,77.77 169.14,81.87 157.87,85.97 146.59,81.87" fill="#26a641"/>
<polygon points="146.59,99.87 146.59,81.87 157.87,85.97 157.87,103.97" fill="#219239"/>
<polygon points="157.87,103.97 157.87,85.97 169.14,81.87 169.14,99.87" fill="#1c7a30"/>
<polygon points="118.40,100.55 129.68,104.66 118.40,108.76 107.12,104.66" fill="#161b22"/>
<polygon points="223.65,100.55 234.92,104.66 223.65,108.76 212.37,104.66" fill="#161b22"/>
<polygon points="249.96,100.55 261.23,104.66 249.96,108.76 238.68,104.66" fill="#161b22"/>
<polygon points="276.27,100.55 287.55,104.66 276.27,108.76 264.99,104.66" fill="#161b22"/>
<polygon points="144.71,84.55 155.99,88.66 144.71,92.76 133.44,88.66" fill="#0e4429"/>
<polygon points="133.44,104.66 133.44,88.66 144.71,92.76 144.71,108.76" fill="#0c3b24"/>
<polygon points="144.71,108.76 144.71,92.76 155.99,88.66 155.99,104.66" fill="#0a321e"/>
<polygon points="171.02,89.55 182.30,93.66 171.02,97.76 159.75,93.66" fill="#0e4429"/>
<polygon points="159.75,104.66 159.75,93.66 171.02,97.76 171.02,108.76" fill="#0c3b24"/>
<polygon points="171.02,108.76 171.02,97.76 182.30,93.66 182.30,104.66" fill="#0a321e"/>
<polygon points="197.34,85.55 208.61,89.66 197.34,93.76 186.06,89.66" fill="#0e4429"/>
<polygon points="186.06,104.66 186.06,89.66 197.34,93.76 197.34,108.76" fill="#0c3b24"/>
<polygon points="197.34,108.76 197.34,93.76 208.61,89.66 208.61,104.66" fill="#0a321e"/>
<polygon points="131.56,105.34 142.83,109.45 131.56,113.55 120.28,109.45" fill="#161b22"/>
<polygon points="157.87,91.34 169.14,95.45 157.87,99.55 146.59,95.45" fill="#0e4429"/>
<polygon points="146.59,109.45 146.59,95.45 157.87,99.55 157.87,113.55" fill="#0c3b24"/>
<polygon points="157.87,113.55 157.87,99.55 169.14,95.45 169.14,109.45" fill="#0a321e"/>
<polygon points="184.18,94.34 195.46,98.45 184.18,102.55 172.90,98.45" fill="#0e4429"/>
<polygon points="172.90,109.45 172.90,98.45 184.18,102.55 184.18,113.55" fill="#0c3b24"/>
<polygon points="184.18,113.55 184.18,102.55 195.46,98.45 195.46,109.45" fill="#0a321e"/>
<polygon points="210.49,97.34 221.77,101.45 210.49,105.55 199.21,101.45" fill="#0e4429"/>
<polygon points="199.21,109.45 199.21,101.45 210.49,105.55 210.49,113.55" fill="#0c3b24"/>
<polygon points="210.49,113.55 210.49,105.55 221.77,101.45 221.77,109.45" fill="#0a321e"/>
<polygon points="236.80,92.34 248.08,96.45 236.80,100.55 225.53,96.45" fill="#0e4429"/>
<polygon points="225.53,109.45 225.53,96.45 236.80,100.55 236.80,113.55" fill="#0c3b24"/>
<polygon points="236.80,113.55 236.80,100.55 248.08,96.45 248.08,109.45" fill="#0a321e"/>
<polygon points="263.11,91.34 274.39,95.45 263.11,99.55 251.84,95.45" fill="#0e4429"/>
<polygon points="251.84,109.45 251.84,95.45 263.11,99.55 263.11,113.55" fill="#0c3b24"/>
<polygon points="263.11,113.55 263.11,99.55 274.39,95.45 274.39,109.45" fill="#0a321e"/>
<polygon points="289.43,97.34 300.70,101.45 289.43,105.55 278.15,101.45" fill="#0e4429"/>
<polygon points="278.15,109.45 278.15,101.45 289.43,105.55 289.43,113.55" fill="#0c3b24"/>
<polygon points="289.43,113.55 289.43,105.55 300.70,101.45 300.70,109.45" fill="#0a321e"/>
<polygon points="144.71,110.13 155.99,114.23 144.71,118.34 133.44,114.23" fill="#161b22"/>
<polygon points="171.02,110.13 182.30,114.23 171.02,118.34 159.75,114.23" fill="#161b22"/>
<polygon points="197.34,110.13 208.61,114.23 197.34,118.34 186.06,114.23" fill="#161b22"/>
<polygon points="249.96,110.13 261.23,114.23 249.96,118.34 238.68,114.23" fill="#161b22"/>
<polygon points="302.58,110.13 313.86,114.23 302.58,118.34 291.30,114.23" fill="#161b22"/>
<polygon points="223.65,96.13 234.92,100.23 223.65,104.34 212.37,100.23" fill="#0e4429"/>
<polygon points="212.37,114.23 212.37,100.23 223.65,104.34 223.65,118.34" fill="#0c3b24"/>
<polygon points="223.65,118.34 223.65,104.34 234.92,100.23 234.92,114.23" fill="#0a321e"/>
<polygon points="276.27,94.13 287.55,98.23 276.27,102.34 264.99,98.23" fill="#0e4429"/>
<polygon points="264.99,114.23 264.99,98.23 276.27,102.34 276.27,118.34" fill="#0c3b24"/>
<polygon points="276.27,118.34 276.27,102.34 287.55,98.23 287.55,114.23" fill="#0a321e"/>
<polygon points="157.87,114.92 169.14,119.02 157.87,123.13 146.59,119.02" fill="#161b22"/>
<polygon points="184.18,114.92 195.46,119.02 184.18,123.13 172.90,119.02" fill="#161b22"/>
<polygon points="210.49,114.92 221.77,119.02 210.49,123.13 199.21,119.02" fill="#161b22"/>
<polygon points="263.11,114.92 274.39,119.02 263.11,123.13 251.84,119.02" fill="#161b22"/>
<polygon points="236.80,106.92 248.08,111.02 236.80,115.13 225.53,111.02" fill="#0e4429"/>
<polygon points="225.53,119.02 225.53,111.02 236.80,115.13 236.80,123.13" fill="#0c3b24"/>
<polygon points="236.80,123.13 236.80,115.13 248.08,111.02 248.08,119.02" fill="#0a321e"/>
<polygon points="289.43,98.92 300.70,103.02 289.43,107.13 278.15,103.02" fill="#0e4429"/>
<polygon points="278.15,119.02 278.15,103.02 289.43,107.13 289.43,123.13" fill="#0c3b24"/>
<polygon points="289.43,123.13 289.43,107.13 300.70,103.02 300.70,119.02" fill="#0a321e"/>
<polygon points="315.74,97.92 327.01,102.02 315.74,106.13 304.46,102.02" fill="#006d32"/>
<polygon points="304.46,119.02 304.46,102.02 315.74,106.13 315.74,123.13" fill="#005f2c"/>
<polygon points="315.74,123.13 315.74,106.13 327.01,102.02 327.01,119.02" fill="#005025"/>
<polygon points="171.02,119.71 182.30,123.81 171.02,127.92 159.75,123.81" fill="#161b22"/>
<polygon points="197.34,119.71 208.61,123.81 197.34,127.92 186.06,123.81" fill="#161b22"/>
<polygon points="223.65,119.71 234.92,123.81 223.65,127.92 212.37,123.81" fill="#161b22"/>
<polygon points="328.89,119.71 340.17,123.81 328.89,127.92 317.62,123.81" fill="#161b22"/>
<polygon points="249.96,108.71 261.23,112.81 249.96,116.92 238.68,112.81" fill="#0e4429"/>
<polygon points="238.68,123.81 238.68,112.81 249.96,116.92 249.96,127.92" fill="#0c3b24"/>
<polygon points="249.96,127.92 249.96,116.92 261.23,112.81 261.23,123.81" fill="#0a321e"/>
<polygon points="276.27,108.71 287.55,112.81 276.27,116.92 264.99,112.81" fill="#0e4429"/>
<polygon points="264.99,123.81 264.99,112.81 276.27,116.92 276.27,127.92" fill="#0c3b24"/>
<polygon points="276.27,127.92 276.27,116.92 287.55,112.81 287.55,123.81" fill="#0a321e"/>
<polygon points="302.58,108.71 313.86,112.81 302.58,116.92 291.30,112.81" fill="#0e4429"/>
<polygon points="291.30,123.81 291.30,112.81 302.58,116.92 302.58,127.92" fill="#0c3b24"/>
<polygon points="302.58,127.92 302.58,116.92 313.86,112.81 313.86,123.81" fill="#0a321e"/>
<polygon points="184.18,124.50 195.46,128.60 184.18,132.70 172.90,128.60" fill="#161b22"/>
<polygon points="210.49,124.50 221.77,128.60 210.49,132.70 199.21,128.60" fill="#161b22"/>
<polygon points="236.80,124.50 248.08,128.60 236.80,132.70 225.53,128.60" fill="#161b22"/>
<polygon points="263.11,124.50 274.39,128.60 263.11,132.70 251.84,128.60" fill="#161b22"/>
<polygon points="289.43,124.50 300.70,128.60 289.43,132.70 278.15,128.60" fill="#161b22"/>
<polygon points="342.05,124.50 353.32,128.60 342.05,132.70 330.77,128.60" fill="#161b22"/>
<polygon points="315.74,113.50 327.01,117.60 315.74,121.70 304.46,117.60" fill="#0e4429"/>
<polygon points="304.46,128.60 304.46,117.60 315.74,121.70 315.74,132.70" fill="#0c3b24"/>
<polygon points="315.74,132.70 315.74,121.70 327.01,117.60 327.01,128.60" fill="#0a321e"/>
<polygon points="197.34,129.28 208.61,133.39 197.34,137.49 186.06,133.39" fill="#161b22"/>
<polygon points="249.96,129.28 261.23,133.39 249.96,137.49 238.68,133.39" fill="#161b22"/>
<polygon points="276.27,129.28 287.55,133.39 276.27,137.49 264.99,133.39" fill="#161b22"/>
<polygon points="355.20,129.28 366.48,133.39 355.20,137.49 343.93,133.39" fill="#161b22"/>
<polygon points="223.65,121.28 234.92,125.39 223.65,129.49 212.37,125.39" fill="#0e4429"/>
<polygon points="212.37,133.39 212.37,125.39 223.65,129.49 223.65,137.49" fill="#0c3b24"/>
<polygon points="223.65,137.49 223.65,129.49 234.92,125.39 234.92,133.39" fill="#0a321e"/>
<polygon points="328.89,121.28 340.17,125.39 328.89,129.49 317.62,125.39" fill="#0e4429"/>
<polygon points="317.62,133.39 317.62,125.39 328.89,129.49 328.89,137.49" fill="#0c3b24"/>
<polygon points="328.89,137.49 328.89,129.49 340.17,125.39 340.17,133.39" fill="#0a321e"/>
<polygon points="302.58,112.28 313.86,116.39 302.58,120.49 291.30,116.39" fill="#006d32"/>
<polygon points="291.30,133.39 291.30,116.39 302.58,120.49 302.58,137.49" fill="#005f2c"/>
<polygon points="302.58,137.49 302.58,120.49 313.86,116.39 313.86,133.39" fill="#005025"/>
<polygon points="210.49,134.07 221.77,138.18 210.49,142.28 199.21,138.18" fill="#161b22"/>
<polygon points="368.36,134.07 379.64,138.18 368.36,142.28 357.08,138.18" fill="#161b22"/>
<polygon points="342.05,118.07 353.32,122.18 342.05,126.28 330.77,122.18" fill="#0e4429"/>
<polygon points="330.77,138.18 330.77,122.18 342.05,126.28 342.05,142.28" fill="#0c3b24"/>
<polygon points="342.05,142.28 342.05,126.28 353.32,122.18 353.32,138.18" fill="#0a321e"/>
<polygon points="263.11,117.07 274.39,121.18 263.11,125.28 251.84,121.18" fill="#006d32"/>
<polygon points="251.84,138.18 251.84,121.18 263.11,125.28 263.11,142.28" fill="#005f2c"/>
<polygon points="263.11,142.28 263.11,125.28 274.39,121.18 274.39,138.18" fill="#005025"/>
<polygon points="289.43,117.07 300.70,121.18 289.43,125.28 278.15,121.18" fill="#006d32"/>
<polygon points="278.15,138.18 278.15,121.18 289.43,125.28 289.43,142.28" fill="#005f2c"/>
<polygon points="289.43,142.28 289.43,125.28 300.70,121.18 300.70,138.18" fill="#005025"/>
<polygon points="315.74,116.07 327.01,120.18 315.74,124.28 304.46,120.18" fill="#006d32"/>
<polygon points="304.46,138.18 304.46,120.18 315.74,124.28 315.74,142.28" fill="#005f2c"/>
<polygon points="315.74,142.28 315.74,124.28 327.01,120.18 327.01,138.18" fill="#005025"/>
<polygon points="236.80,116.07 248.08,120.18 236.80,124.28 225.53,120.18" fill="#26a641"/>
<polygon points="225.53,138.18 225.53,120.18 236.80,124.28 236.80,142.28" fill="#219239"/>
<polygon points="236.80,142.28 236.80,124.28 248.08,120.18 248.08,138.18" fill="#1c7a30"/>
<polygon points="249.96,124.86 261.23,128.96 249.96,133.07 238.68,128.96" fill="#0e4429"/>
<polygon points="238.68,142.96 238.68,128.96 249.96,133.07 249.96,147.07" fill="#0c3b24"/>
<polygon points="249.96,147.07 249.96,133.07 261.23,128.96 261.23,142.96" fill="#0a321e"/>
<polygon points="302.58,125.86 313.86,129.96 302.58,134.07 291.30,129.96" fill="#0e4429"/>
<polygon points="291.30,142.96 291.30,129.96 302.58,134.07 302.58,147.07" fill="#0c3b24"/>
<polygon points="302.58,147.07 302.58,134.07 313.86,129.96 313.86,142.96" fill="#0a321e"/>
<polygon points="328.89,122.86 340.17,126.96 328.89,131.07 317.62,126.96" fill="#0e4429"/>
<polygon points="317.62,142.96 317.62,126.96 328.89,131.07 328.89,147.07" fill="#0c3b24"/>
<polygon points="328.89,147.07 328.89,131.07 340.17,126.96 340.17,142.96" fill="#0a321e"/>
<polygon points="381.52,127.86 392.79,131.96 381.52,136.07 370.24,131.96" fill="#0e4429"/>
<polygon points="370.24,142.96 370.24,131.96 381.52,136.07 381.52,147.07" fill="#0c3b24"/>
<polygon points="381.52,147.07 381.52,136.07 392.79,131.96 392.79,142.96" fill="#0a321e"/>
<polygon points="223.65,120.86 234.92,124.96 223.65,129.07 212.37,124.96" fill="#006d32"/>
<polygon points="212.37,142.96 212.37,124.96 223.65,129.07 223.65,147.07" fill="#005f2c"/>
<polygon points="223.65,147.07 223.65,129.07 234.92,124.96 234.92,142.96" fill="#005025"/>
<polygon points="276.27,120.86 287.55,124.96 276.27,129.07 264.99,124.96" fill="#006d32"/>
<polygon points="264.99,142.96 264.99,124.96 276.27,129.07 276.27,147.07" fill="#005f2c"/>
<polygon points="276.27,147.07 276.27,129.07 287.55,124.96 287.55,142.96" fill="#005025"/>
<polygon points="355.20,120.86 366.48,124.96 355.20,129.07 343.93,124.96" fill="#006d32"/>
<polygon points="343.93,142.96 343.93,124.96 355.20,129.07 355.20,147.07" fill="#005f2c"/>
<polygon points="355.20,147.07 355.20,129.07 366.48,124.96 366.48,142.96" fill="#005025"/>
<polygon points="236.80,143.65 248.08,147.75 236.80,151.86 225.53,147.75" fill="#161b22"/>
<polygon points="342.05,128.65 353.32,132.75 342.05,136.86 330.77,132.75" fill="#0e4429"/>
<polygon points="330.77,147.75 330.77,132.75 342.05,136.86 342.05,151.86" fill="#0c3b24"/>
<polygon points="342.05,151.86 342.05,136.86 353.32,132.75 353.32,147.75" fill="#0a321e"/>
<polygon points="368.36,127.65 379.64,131.75 368.36,135.86 357.08,131.75" fill="#0e4429"/>
<polygon points="357.08,147.75 357.08,131.75 368.36,135.86 368.36,151.86" fill="#0c3b24"/>
<polygon points="368.36,151.86 368.36,135.86 379.64,131.75 379.64,147.75" fill="#0a321e"/>
<polygon points="394.67,132.65 405.95,136.75 394.67,140.86 383.39,136.75" fill="#0e4429"/>
<polygon points="383.39,147.75 383.39,136.75 394.67,140.86 394.67,151.86" fill="#0c3b24"/>
<polygon points="394.67,151.86 394.67,140.86 405.95,136.75 405.95,147.75" fill="#0a321e"/>
<polygon points="289.43,125.65 300.70,129.75 289.43,133.86 278.15,129.75" fill="#006d32"/>
<polygon points="278.15,147.75 278.15,129.75 289.43,133.86 289.43,151.86" fill="#005f2c"/>
<polygon points="289.43,151.86 289.43,133.86 300.70,129.75 300.70,147.75" fill="#005025"/>
<polygon points="315.74,125.65 327.01,129.75 315.74,133.86 304.46,129.75" fill="#006d32"/>
<polygon points="304.46,147.75 304.46,129.75 315.74,133.86 315.74,151.86" fill="#005f2c"/>
<polygon points="315.74,151.86 315.74,133.86 327.01,129.75 327.01,147.75" fill="#005025"/>
<polygon points="263.11,125.65 274.39,129.75 263.11,133.86 251.84,129.75" fill="#39d353"/>
<polygon points="251.84,147.75 251.84,129.75 263.11,133.86 263.11,151.86" fill="#32b949"/>
<polygon points="263.11,151.86 263.11,133.86 274.39,129.75 274.39,147.75" fill="#2a9c3d"/>
<polygon points="249.96,133.44 261.23,137.54 249.96,141.65 238.68,137.54" fill="#0e4429"/>
<polygon points="238.68,152.54 238.68,137.54 249.96,141.65 249.96,156.65" fill="#0c3b24"/>
<polygon points="249.96,156.65 249.96,141.65 261.23,137.54 261.23,152.54" fill="#0a321e"/>
<polygon points="276.27,137.44 287.55,141.54 276.27,145.65 264.99,141.54" fill="#0e4429"/>
<polygon points="264.99,152.54 264.99,141.54 276.27,145.65 276.27,156.65" fill="#0c3b24"/>
<polygon points="276.27,156.65 276.27,145.65 287.55,141.54 287.55,152.54" fill="#0a321e"/>
<polygon points="328.89,132.44 340.17,136.54 328.89,140.65 317.62,136.54" fill="#0e4429"/>
<polygon points="317.62,152.54 317.62,136.54 328.89,140.65 328.89,156.65" fill="#0c3b24"/>
<polygon points="328.89,156.65 328.89,140.65 340.17,136.54 340.17,152.54" fill="#0a321e"/>
<polygon points="381.52,134.44 392.79,138.54 381.52,142.65 370.24,138.54" fill="#0e4429"/>
<polygon points="370.24,152.54 370.24,138.54 381.52,142.65 381.52,156.65" fill="#0c3b24"/>
<polygon points="381.52,156.65 381.52,142.65 392.79,138.54 392.79,152.54" fill="#0a321e"/>
<polygon points="407.83,140.44 419.10,144.54 407.83,148.65 396.55,144.54" fill="#0e4429"/>
<polygon points="396.55,152.54 396.55,144.54 407.83,148.65 407.83,156.65" fill="#0c3b24"/>
<polygon points="407.83,156.65 407.83,148.65 419.10,144.54 419.10,152.54" fill="#0a321e"/>
<polygon points="302.58,130.44 313.86,134.54 302.58,138.65 291.30,134.54" fill="#26a641"/>
<polygon points="291.30,152.54 291.30,134.54 302.58,138.65 302.58,156.65" fill="#219239"/>
<polygon points="302.58,156.65 302.58,138.65 313.86,134.54 313.86,152.54" fill="#1c7a30"/>
<polygon points="355.20,130.44 366.48,134.54 355.20,138.65 343.93,134.54" fill="#26a641"/>
<polygon points="343.93,152.54 343.93,134.54 355.20,138.65 355.20,156.65" fill="#219239"/>
<polygon points="355.20,156.65 355.20,138.65 366.48,134.54 366.48,152.54" fill="#1c7a30"/>
<polygon points="263.11,153.23 274.39,157.33 263.11,161.43 251.84,157.33" fill="#161b22"/>
<polygon points="420.98,153.23 432.26,157.33 420.98,161.43 409.71,157.33" fill="#161b22"/>
<polygon points="289.43,137.23 300.70,141.33 289.43,145.43 278.15,141.33" fill="#0e4429"/>
<polygon points="278.15,157.33 278.15,141.33 289.43,145.43 289.43,161.43" fill="#0c3b24"/>
<polygon points="289.43,161.43 289.43,145.43 300.70,141.33 300.70,157.33" fill="#0a321e"/>
<polygon points="315.74,137.23 327.01,141.33 315.74,145.43 304.46,141.33" fill="#0e4429"/>
<polygon points="304.46,157.33 304.46,141.33 315.74,145.43 315.74,161.43" fill="#0c3b24"/>
<polygon points="315.74,161.43 315.74,145.43 327.01,141.33 327.01,157.33" fill="#0a321e"/>
<polygon points="368.36,138.23 379.64,142.33 368.36,146.43 357.08,142.33" fill="#0e4429"/>
<polygon points="357.08,157.33 357.08,142.33 368.36,146.43 368.36,161.43" fill="#0c3b24"/>
<polygon points="368.36,161.43 368.36,146.43 379.64,142.33 379.64,157.33" fill="#0a321e"/>
<polygon points="342.05,135.23 353.32,139.33 342.05,143.43 330.77,139.33" fill="#006d32"/>
<polygon points="330.77,157.33 330.77,139.33 342.05,143.43 342.05,161.43" fill="#005f2c"/>
<polygon points="342.05,161.43 342.05,143.43 353.32,139.33 353.32,157.33" fill="#005025"/>
<polygon points="394.67,136.23 405.95,140.33 394.67,144.43 383.39,140.33" fill="#006d32"/>
<polygon points="383.39,157.33 383.39,140.33 394.67,144.43 394.67,161.43" fill="#005f2c"/>
<polygon points="394.67,161.43 394.67,144.43 405.95,140.33 405.95,157.33" fill="#005025"/>
<polygon points="276.27,158.01 287.55,162.12 276.27,166.22 264.99,162.12" fill="#161b22"/>
<polygon points="302.58,145.01 313.86,149.12 302.58,153.22 291.30,149.12" fill="#0e4429"/>
<polygon points="291.30,162.12 291.30,149.12 302.58,153.22 302.58,166.22" fill="#0c3b24"/>
<polygon points="302.58,166.22 302.58,153.22 313.86,149.12 313.86,162.12" fill="#0a321e"/>
<polygon points="381.52,142.01 392.79,146.12 381.52,150.22 370.24,146.12" fill="#0e4429"/>
<polygon points="370.24,162.12 370.24,146.12 381.52,150.22 381.52,166.22" fill="#0c3b24"/>
<polygon points="381.52,166.22 381.52,150.22 392.79,146.12 392.79,162.12" fill="#0a321e"/>
<polygon points="434.14,147.01 445.41,151.12 434.14,155.22 422.86,151.12" fill="#0e4429"/>
<polygon points="422.86,162.12 422.86,151.12 434.14,155.22 434.14,166.22" fill="#0c3b24"/>
<polygon points="434.14,166.22 434.14,155.22 445.41,151.12 445.41,162.12" fill="#0a321e"/>
<polygon points="328.89,140.01 340.17,144.12 328.89,148.22 317.62,144.12" fill="#006d32"/>
<polygon points="317.62,162.12 317.62,144.12 328.89,148.22 328.89,166.22" fill="#005f2c"/>
<polygon points="328.89,166.22 328.89,148.22 340.17,144.12 340.17,162.12" fill="#005025"/>
<polygon points="355.20,141.01 366.48,145.12 355.20,149.22 343.93,145.12" fill="#006d32"/>
<polygon points="343.93,162.12 343.93,145.12 355.20,149.22 355.20,166.22" fill="#005f2c"/>
<polygon points="355.20,166.22 355.20,149.22 366.48,145.12 366.48,162.12" fill="#005025"/>
<polygon points="407.83,140.01 419.10,144.12 407.83,148.22 396.55,144.12" fill="#006d32"/>
<polygon points="396.55,162.12 396.55,144.12 407.83,148.22 407.83,166.22" fill="#005f2c"/>
<polygon points="407.83,166.22 407.83,148.22 419.10,144.12 419.10,162.12" fill="#005025"/>
<polygon points="289.43,154.80 300.70,158.91 289.43,163.01 278.15,158.91" fill="#0e4429"/>
<polygon points="278.15,166.91 278.15,158.91 289.43,163.01 289.43,171.01" fill="#0c3b24"/>
<polygon points="289.43,171.01 289.43,163.01 300.70,158.91 300.70,166.91" fill="#0a321e"/>
<polygon points="342.05,151.80 353.32,155.91 342.05,160.01 330.77,155.91" fill="#0e4429"/>
<polygon points="330.77,166.91 330.77,155.91 342.05,160.01 342.05,171.01" fill="#0c3b24"/>
<polygon points="342.05,171.01 342.05,160.01 353.32,155.91 353.32,166.91" fill="#0a321e"/>
<polygon points="368.36,147.80 379.64,151.91 368.36,156.01 357.08,151.91" fill="#0e4429"/>
<polygon points="357.08,166.91 357.08,151.91 368.36,156.01 368.36,171.01" fill="#0c3b24"/>
<polygon points="368.36,171.01 368.36,156.01 379.64,151.91 379.64,166.91" fill="#0a321e"/>
<polygon points="394.67,144.80 405.95,148.91 394.67,153.01 383.39,148.91" fill="#006d32"/>
<polygon points="383.39,166.91 383.39,148.91 394.67,153.01 394.67,171.01" fill="#005f2c"/>
<polygon points="394.67,171.01 394.67,153.01 405.95,148.91 405.95,166.91" fill="#005025"/>
<polygon points="420.98,144.80 432.26,148.91 420.98,153.01 409.71,148.91" fill="#006d32"/>
<polygon points="409.71,166.91 409.71,148.91 420.98,153.01 420.98,171.01" fill="#005f2c"/>
<polygon points="420.98,171.01 420.98,153.01 432.26,148.91 432.26,166.91" fill="#005025"/>
<polygon points="447.29,144.80 458.57,148.91 447.29,153.01 436.02,148.91" fill="#006d32"/>
<polygon points="436.02,166.91 436.02,148.91 447.29,153.01 447.29,171.01" fill="#005f2c"/>
<polygon points="447.29,171.01 447.29,153.01 458.57,148.91 458.57,166.91" fill="#005025"/>
<polygon points="315.74,144.80 327.01,148.91 315.74,153.01 304.46,148.91" fill="#26a641"/>
<polygon points="304.46,166.91 304.46,148.91 315.74,153.01 315.74,171.01" fill="#219239"/>
<polygon points="315.74,171.01 315.74,153.01 327.01,148.91 327.01,166.91" fill="#1c7a30"/>
<polygon points="302.58,167.59 313.86,171.69 302.58,175.80 291.30,171.69" fill="#161b22"/>
<polygon points="460.45,167.59 471.73,171.69 460.45,175.80 449.17,171.69" fill="#161b22"/>
<polygon points="381.52,153.59 392.79,157.69 381.52,161.80 370.24,157.69" fill="#0e4429"/>
<polygon points="370.24,171.69 370.24,157.69 381.52,161.80 381.52,175.80" fill="#0c3b24"/>
<polygon points="381.52,175.80 381.52,161.80 392.79,157.69 392.79,171.69" fill="#0a321e"/>
<polygon points="434.14,151.59 445.41,155.69 434.14,159.80 422.86,155.69" fill="#0e4429"/>
<polygon points="422.86,171.69 422.86,155.69 434.14,159.80 434.14,175.80" fill="#0c3b24"/>
<polygon points="434.14,175.80 434.14,159.80 445.41,155.69 445.41,171.69" fill="#0a321e"/>
<polygon points="328.89,149.59 340.17,153.69 328.89,157.80 317.62,153.69" fill="#006d32"/>
<polygon points="317.62,171.69 317.62,153.69 328.89,157.80 328.89,175.80" fill="#005f2c"/>
<polygon points="328.89,175.80 328.89,157.80 340.17,153.69 340.17,171.69" fill="#005025"/>
<polygon points="355.20,149.59 366.48,153.69 355.20,157.80 343.93,153.69" fill="#006d32"/>
<polygon points="343.93,171.69 343.93,153.69 355.20,157.80 355.20,175.80" fill="#005f2c"/>
<polygon points="355.20,175.80 355.20,157.80 366.48,153.69 366.48,171.69" fill="#005025"/>
<polygon points="407.83,149.59 419.10,153.69 407.83,157.80 396.55,153.69" fill="#39d353"/>
<polygon points="396.55,171.69 396.55,153.69 407.83,157.80 407.83,175.80" fill="#32b949"/>
<polygon points="407.83,175.80 407.83,157.80 419.10,153.69 419.10,171.69" fill="#2a9c3d"/>
<polygon points="315.74,172.38 327.01,176.48 315.74,180.59 304.46,176.48" fill="#161b22"/>
<polygon points="342.05,161.38 353.32,165.48 342.05,169.59 330.77,165.48" fill="#0e4429"/>
<polygon points="330.77,176.48 330.77,165.48 342.05,169.59 342.05,180.59" fill="#0c3b24"/>
<polygon points="342.05,180.59 342.05,169.59 353.32,165.48 353.32,176.48" fill="#0a321e"/>
<polygon points="473.61,156.38 484.88,160.48 473.61,164.59 462.33,160.48" fill="#0e4429"/>
<polygon points="462.33,176.48 462.33,160.48 473.61,164.59 473.61,180.59" fill="#0c3b24"/>
<polygon points="473.61,180.59 473.61,164.59 484.88,160.48 484.88,176.48" fill="#0a321e"/>
<polygon points="368.36,154.38 379.64,158.48 368.36,162.59 357.08,158.48" fill="#006d32"/>
<polygon points="357.08,176.48 357.08,158.48 368.36,162.59 368.36,180.59" fill="#005f2c"/>
<polygon points="368.36,180.59 368.36,162.59 379.64,158.48 379.64,176.48" fill="#005025"/>
<polygon points="420.98,154.38 432.26,158.48 420.98,162.59 409.71,158.48" fill="#006d32"/>
<polygon points="409.71,176.48 409.71,158.48 420.98,162.59 420.98,180.59" fill="#005f2c"/>
<polygon points="420.98,180.59 420.98,162.59 432.26,158.48 432.26,176.48" fill="#005025"/>
<polygon points="447.29,154.38 458.57,158.48 447.29,162.59 436.02,158.48" fill="#006d32"/>
<polygon points="436.02,176.48 436.02,158.48 447.29,162.59 447.29,180.59" fill="#005f2c"/>
<polygon points="447.29,180.59 447.29,162.59 458.57,158.48 458.57,176.48" fill="#005025"/>
<polygon points="394.67,154.38 405.95,158.48 394.67,162.59 383.39,158.48" fill="#26a641"/>
<polygon points="383.39,176.48 383.39,158.48 394.67,162.59 394.67,180.59" fill="#219239"/>
<polygon points="394.67,180.59 394.67,162.59 405.95,158.48 405.95,176.48" fill="#1c7a30"/>
<polygon points="328.89,177.17 340.17,181.27 328.89,185.37 317.62,181.27" fill="#161b22"/>
<polygon points="486.76,177.17 498.04,181.27 486.76,185.37 475.48,181.27" fill="#161b22"/>
<polygon points="355.20,166.17 366.48,170.27 355.20,174.37 343.93,170.27" fill="#0e4429"/>
<polygon points="343.93,181.27 343.93,170.27 355.20,174.37 355.20,185.37" fill="#0c3b24"/>
<polygon points="355.20,185.37 355.20,174.37 366.48,170.27 366.48,181.27" fill="#0a321e"/>
<polygon points="460.45,166.17 471.73,170.27 460.45,174.37 449.17,170.27" fill="#0e4429"/>
<polygon points="449.17,181.27 449.17,170.27 460.45,174.37 460.45,185.37" fill="#0c3b24"/>
<polygon points="460.45,185.37 460.45,174.37 471.73,170.27 471.73,181.27" fill="#0a321e"/>
<polygon points="407.83,159.17 419.10,163.27 407.83,167.37 396.55,163.27" fill="#006d32"/>
<polygon points="396.55,181.27 396.55,163.27 407.83,167.37 407.83,185.37" fill="#005f2c"/>
<polygon points="407.83,185.37 407.83,167.37 419.10,163.27 419.10,181.27" fill="#005025"/>
<polygon points="434.14,159.17 445.41,163.27 434.14,167.37 422.86,163.27" fill="#26a641"/>
<polygon points="422.86,181.27 422.86,163.27 434.14,167.37 434.14,185.37" fill="#219239"/>
<polygon points="434.14,185.37 434.14,167.37 445.41,163.27 445.41,181.27" fill="#1c7a30"/>
<polygon points="381.52,159.17 392.79,163.27 381.52,167.37 370.24,163.27" fill="#39d353"/>
<polygon points="370.24,181.27 370.24,163.27 381.52,167.37 381.52,185.37" fill="#32b949"/>
<polygon points="381.52,185.37 381.52,167.37 392.79,163.27 392.79,181.27" fill="#2a9c3d"/>
<polygon points="342.05,181.95 353.32,186.06 342.05,190.16 330.77,186.06" fill="#161b22"/>
<polygon points="499.92,167.95 511.19,172.06 499.92,176.16 488.64,172.06" fill="#0e4429"/>
<polygon points="488.64,186.06 488.64,172.06 499.92,176.16 499.92,190.16" fill="#0c3b24"/>
<polygon points="499.92,190.16 499.92,176.16 511.19,172.06 511.19,186.06" fill="#0a321e"/>
<polygon points="368.36,163.95 379.64,168.06 368.36,172.16 357.08,168.06" fill="#006d32"/>
<polygon points="357.08,186.06 357.08,168.06 368.36,172.16 368.36,190.16" fill="#005f2c"/>
<polygon points="368.36,190.16 368.36,172.16 379.64,168.06 379.64,186.06" fill="#005025"/>
<polygon points="394.67,163.95 405.95,168.06 394.67,172.16 383.39,168.06" fill="#006d32"/>
<polygon points="383.39,186.06 383.39,168.06 394.67,172.16 394.67,190.16" fill="#005f2c"/>
<polygon points="394.67,190.16 394.67,172.16 405.95,168.06 405.95,186.06" fill="#005025"/>
<polygon points="420.98,163.95 432.26,168.06 420.98,172.16 409.71,168.06" fill="#006d32"/>
<polygon points="409.71,186.06 409.71,168.06 420.98,172.16 420.98,190.16" fill="#005f2c"/>
<polygon points="420.98,190.16 420.98,172.16 432.26,168.06 432.26,186.06" fill="#005025"/>
<polygon points="473.61,163.95 484.88,168.06 473.61,172.16 462.33,168.06" fill="#006d32"/>
<polygon points="462.33,186.06 462.33,168.06 473.61,172.16 473.61,190.16" fill="#005f2c"/>
<polygon points="473.61,190.16 473.61,172.16 484.88,168.06 484.88,186.06" fill="#005025"/>
<polygon points="447.29,163.95 458.57,168.06 447.29,172.16 436.02,168.06" fill="#39d353"/>
<polygon points="436.02,186.06 436.02,168.06 447.29,172.16 447.29,190.16" fill="#32b949"/>
<polygon points="447.29,190.16 447.29,172.16 458.57,168.06 458.57,186.06" fill="#2a9c3d"/>
<polygon points="513.07,186.74 524.35,190.85 513.07,194.95 501.80,190.85" fill="#161b22"/>
<polygon points="355.20,170.74 366.48,174.85 355.20,178.95 343.93,174.85" fill="#0e4429"/>
<polygon points="343.93,190.85 343.93,174.85 355.20,178.95 355.20,194.95" fill="#0c3b24"/>
<polygon points="355.20,194.95 355.20,178.95 366.48,174.85 366.48,190.85" fill="#0a321e"/>
<polygon points="381.52,170.74 392.79,174.85 381.52,178.95 370.24,174.85" fill="#0e4429"/>
<polygon points="370.24,190.85 370.24,174.85 381.52,178.95 381.52,194.95" fill="#0c3b24"/>
<polygon points="381.52,194.95 381.52,178.95 392.79,174.85 392.79,190.85" fill="#0a321e"/>
<polygon points="407.83,169.74 419.10,173.85 407.83,177.95 396.55,173.85" fill="#006d32"/>
<polygon points="396.55,190.85 396.55,173.85 407.83,177.95 407.83,194.95" fill="#005f2c"/>
<polygon points="407.83,194.95 407.83,177.95 419.10,173.85 419.10,190.85" fill="#005025"/>
<polygon points="434.14,168.74 445.41,172.85 434.14,176.95 422.86,172.85" fill="#006d32"/>
<polygon points="422.86,190.85 422.86,172.85 434.14,176.95 434.14,194.95" fill="#005f2c"/>
<polygon points="434.14,194.95 434.14,176.95 445.41,172.85 445.41,190.85" fill="#005025"/>
<polygon points="486.76,168.74 498.04,172.85 486.76,176.95 475.48,172.85" fill="#006d32"/>
<polygon points="475.48,190.85 475.48,172.85 486.76,176.95 486.76,194.95" fill="#005f2c"/>
<polygon points="486.76,194.95 486.76,176.95 498.04,172.85 498.04,190.85" fill="#005025"/>
<polygon points="460.45,168.74 471.73,172.85 460.45,176.95 449.17,172.85" fill="#39d353"/>
<polygon points="449.17,190.85 449.17,172.85 460.45,176.95 460.45,194.95" fill="#32b949"/>
<polygon points="460.45,194.95 460.45,176.95 471.73,172.85 471.73,190.85" fill="#2a9c3d"/>
<polygon points="368.36,191.53 379.64,195.64 368.36,199.74 357.08,195.64" fill="#161b22"/>
<polygon points="526.23,191.53 537.50,195.64 526.23,199.74 514.95,195.64" fill="#161b22"/>
<polygon points="394.67,175.53 405.95,179.64 394.67,183.74 383.39,179.64" fill="#0e4429"/>
<polygon points="383.39,195.64 383.39,179.64 394.67,183.74 394.67,199.74" fill="#0c3b24"/>
<polygon points="394.67,199.74 394.67,183.74 405.95,179.64 405.95,195.64" fill="#0a321e"/>
<polygon points="447.29,173.53 458.57,177.64 447.29,181.74 436.02,177.64" fill="#006d32"/>
<polygon points="436.02,195.64 436.02,177.64 447.29,181.74 447.29,199.74" fill="#005f2c"/>
<polygon points="447.29,199.74 447.29,181.74 458.57,177.64 458.57,195.64" fill="#005025"/>
<polygon points="420.98,173.53 432.26,177.64 420.98,181.74 409.71,177.64" fill="#26a641"/>
<polygon points="409.71,195.64 409.71,177.64 420.98,181.74 420.98,199.74" fill="#219239"/>
<polygon points="420.98,199.74 420.98,181.74 432.26,177.64 432.26,195.64" fill="#1c7a30"/>
<polygon points="473.61,173.53 484.88,177.64 473.61,181.74 462.33,177.64" fill="#26a641"/>
<polygon points="462.33,195.64 462.33,177.64 473.61,181.74 473.61,199.74" fill="#219239"/>
<polygon points="473.61,199.74 473.61,181.74 484.88,177.64 484.88,195.64" fill="#1c7a30"/>
<polygon points="499.92,173.53 511.19,177.64 499.92,181.74 488.64,177.64" fill="#26a641"/>
<polygon points="488.64,195.64 488.64,177.64 499.92,181.74 499.92,199.74" fill="#219239"/>
<polygon points="499.92,199.74 499.92,181.74 511.19,177.64 511.19,195.64" fill="#1c7a30"/>
<polygon points="381.52,196.32 392.79,200.42 381.52,204.53 370.24,200.42" fill="#161b22"/>
<polygon points="486.76,180.32 498.04,184.42 486.76,188.53 475.48,184.42" fill="#0e4429"/>
<polygon points="475.48,200.42 475.48,184.42 486.76,188.53 486.76,204.53" fill="#0c3b24"/>
<polygon points="486.76,204.53 486.76,188.53 498.04,184.42 498.04,200.42" fill="#0a321e"/>
<polygon points="513.07,188.32 524.35,192.42 513.07,196.53 501.80,192.42" fill="#0e4429"/>
<polygon points="501.80,200.42 501.80,192.42 513.07,196.53 513.07,204.53" fill="#0c3b24"/>
<polygon points="513.07,204.53 513.07,196.53 524.35,192.42 524.35,200.42" fill="#0a321e"/>
<polygon points="539.38,182.32 550.66,186.42 539.38,190.53 528.11,186.42" fill="#0e4429"/>
<polygon points="528.11,200.42 528.11,186.42 539.38,190.53 539.38,204.53" fill="#0c3b24"/>
<polygon points="539.38,204.53 539.38,190.53 550.66,186.42 550.66,200.42" fill="#0a321e"/>
<polygon points="407.83,178.32 419.10,182.42 407.83,186.53 396.55,182.42" fill="#006d32"/>
<polygon points="396.55,200.42 396.55,182.42 407.83,186.53 407.83,204.53" fill="#005f2c"/>
<polygon points="407.83,204.53 407.83,186.53 419.10,182.42 419.10,200.42" fill="#005025"/>
<polygon points="434.14,178.32 445.41,182.42 434.14,186.53 422.86,182.42" fill="#39d353"/>
<polygon points="422.86,200.42 422.86,182.42 434.14,186.53 434.14,204.53" fill="#32b949"/>
<polygon points="434.14,204.53 434.14,186.53 445.41,182.42 445.41,200.42" fill="#2a9c3d"/>
<polygon points="460.45,178.32 471.73,182.42 460.45,186.53 449.17,182.42" fill="#39d353"/>
<polygon points="449.17,200.42 449.17,182.42 460.45,186.53 460.45,204.53" fill="#32b949"/>
<polygon points="460.45,204.53 460.45,186.53 471.73,182.42 471.73,200.42" fill="#2a9c3d"/>
<polygon points="394.67,201.11 405.95,205.21 394.67,209.32 383.39,205.21" fill="#161b22"/>
<polygon points="552.54,201.11 563.82,205.21 552.54,209.32 541.26,205.21" fill="#161b22"/>
<polygon points="447.29,188.11 458.57,192.21 447.29,196.32 436.02,192.21" fill="#0e4429"/>
<polygon points="436.02,205.21 436.02,192.21 447.29,196.32 447.29,209.32" fill="#0c3b24"/>
<polygon points="447.29,209.32 447.29,196.32 458.57,192.21 458.57,205.21" fill="#0a321e"/>
<polygon points="499.92,193.11 511.19,197.21 499.92,201.32 488.64,197.21" fill="#0e4429"/>
<polygon points="488.64,205.21 488.64,197.21 499.92,201.32 499.92,209.32" fill="#0c3b24"/>
<polygon points="499.92,209.32 499.92,201.32 511.19,197.21 511.19,205.21" fill="#0a321e"/>
<polygon points="526.23,185.11 537.50,189.21 526.23,193.32 514.95,189.21" fill="#0e4429"/>
<polygon points="514.95,205.21 514.95,189.21 526.23,193.32 526.23,209.32" fill="#0c3b24"/>
<polygon points="526.23,209.32 526.23,193.32 537.50,189.21 537.50,205.21" fill="#0a321e"/>
<polygon points="420.98,183.11 432.26,187.21 420.98,191.32 409.71,187.21" fill="#006d32"/>
<polygon points="409.71,205.21 409.71,187.21 420.98,191.32 420.98,209.32" fill="#005f2c"/>
<polygon points="420.98,209.32 420.98,191.32 432.26,187.21 432.26,205.21" fill="#005025"/>
<polygon points="473.61,183.11 484.88,187.21 473.61,191.32 462.33,187.21" fill="#006d32"/>
<polygon points="462.33,205.21 462.33,187.21 473.61,191.32 473.61,209.32" fill="#005f2c"/>
<polygon points="473.61,209.32 473.61,191.32 484.88,187.21 484.88,205.21" fill="#005025"/>
<polygon points="407.83,205.90 419.10,210.00 407.83,214.10 396.55,210.00" fill="#161b22"/>
<polygon points="434.14,188.90 445.41,193.00 434.14,197.10 422.86,193.00" fill="#006d32"/>
<polygon points="422.86,210.00 422.86,193.00 434.14,197.10 434.14,214.10" fill="#005f2c"/>
<polygon points="434.14,214.10 434.14,197.10 445.41,193.00 445.41,210.00" fill="#005025"/>
<polygon points="460.45,187.90 471.73,192.00 460.45,196.10 449.17,192.00" fill="#006d32"/>
<polygon points="449.17,210.00 449.17,192.00 460.45,196.10 460.45,214.10" fill="#005f2c"/>
<polygon points="460.45,214.10 460.45,196.10 471.73,192.00 471.73,210.00" fill="#005025"/>
<polygon points="486.76,187.90 498.04,192.00 486.76,196.10 475.48,192.00" fill="#006d32"/>
<polygon points="475.48,210.00 475.48,192.00 486.76,196.10 486.76,214.10" fill="#005f2c"/>
<polygon points="486.76,214.10 486.76,196.10 498.04,192.00 498.04,210.00" fill="#005025"/>
<polygon points="513.07,187.90 524.35,192.00 513.07,196.10 501.80,192.00" fill="#006d32"/>
<polygon points="501.80,210.00 501.80,192.00 513.07,196.10 513.07,214.10" fill="#005f2c"/>
<polygon points="513.07,214.10 513.07,196.10 524.35,192.00 524.35,210.00" fill="#005025"/>
<polygon points="539.38,187.90 550.66,192.00 539.38,196.10 528.11,192.00" fill="#006d32"/>
<polygon points="528.11,210.00 528.11,192.00 539.38,196.10 539.38,214.10" fill="#005f2c"/>
<polygon points="539.38,214.10 539.38,196.10 550.66,192.00 550.66,210.00" fill="#005025"/>
<polygon points="565.69,187.90 576.97,192.00 565.69,196.10 554.42,192.00" fill="#006d32"/>
<polygon points="554.42,210.00 554.42,192.00 565.69,196.10 565.69,214.10" fill="#005f2c"/>
<polygon points="565.69,214.10 565.69,196.10 576.97,192.00 576.97,210.00" fill="#005025"/>
<polygon points="420.98,210.68 432.26,214.79 420.98,218.89 409.71,214.79" fill="#161b22"/>
<polygon points="578.85,210.68 590.13,214.79 578.85,218.89 567.57,214.79" fill="#161b22"/>
<polygon points="473.61,199.68 484.88,203.79 473.61,207.89 462.33,203.79" fill="#0e4429"/>
<polygon points="462.33,214.79 462.33,203.79 473.61,207.89 473.61,218.89" fill="#0c3b24"/>
<polygon points="473.61,218.89 473.61,207.89 484.88,203.79 484.88,214.79" fill="#0a321e"/>
<polygon points="499.92,194.68 511.19,198.79 499.92,202.89 488.64,198.79" fill="#0e4429"/>
<polygon points="488.64,214.79 488.64,198.79 499.92,202.89 499.92,218.89" fill="#0c3b24"/>
<polygon points="499.92,218.89 499.92,202.89 511.19,198.79 511.19,214.79" fill="#0a321e"/>
<polygon points="526.23,196.68 537.50,200.79 526.23,204.89 514.95,200.79" fill="#0e4429"/>
<polygon points="514.95,214.79 514.95,200.79 526.23,204.89 526.23,218.89" fill="#0c3b24"/>
<polygon points="526.23,218.89 526.23,204.89 537.50,200.79 537.50,214.79" fill="#0a321e"/>
<polygon points="447.29,192.68 458.57,196.79 447.29,200.89 436.02,196.79" fill="#006d32"/>
<polygon points="436.02,214.79 436.02,196.79 447.29,200.89 447.29,218.89" fill="#005f2c"/>
<polygon points="447.29,218.89 447.29,200.89 458.57,196.79 458.57,214.79" fill="#005025"/>
<polygon points="552.54,192.68 563.82,196.79 552.54,200.89 541.26,196.79" fill="#006d32"/>
<polygon points="541.26,214.79 541.26,196.79 552.54,200.89 552.54,218.89" fill="#005f2c"/>
<polygon points="552.54,218.89 552.54,200.89 563.82,196.79 563.82,214.79" fill="#005025"/>
<polygon points="434.14,215.47 445.41,219.58 434.14,223.68 422.86,219.58" fill="#161b22"/>
<polygon points="539.38,215.47 550.66,219.58 539.38,223.68 528.11,219.58" fill="#161b22"/>
<polygon points="592.01,215.47 603.28,219.58 592.01,223.68 580.73,219.58" fill="#161b22"/>
<polygon points="460.45,199.47 471.73,203.58 460.45,207.68 449.17,203.58" fill="#0e4429"/>
<polygon points="449.17,219.58 449.17,203.58 460.45,207.68 460.45,223.68" fill="#0c3b24"/>
<polygon points="460.45,223.68 460.45,207.68 471.73,203.58 471.73,219.58" fill="#0a321e"/>
<polygon points="486.76,199.47 498.04,203.58 486.76,207.68 475.48,203.58" fill="#0e4429"/>
<polygon points="475.48,219.58 475.48,203.58 486.76,207.68 486.76,223.68" fill="#0c3b24"/>
<polygon points="486.76,223.68 486.76,207.68 498.04,203.58 498.04,219.58" fill="#0a321e"/>
<polygon points="513.07,201.47 524.35,205.58 513.07,209.68 501.80,205.58" fill="#0e4429"/>
<polygon points="501.80,219.58 501.80,205.58 513.07,209.68 513.07,223.68" fill="#0c3b24"/>
<polygon points="513.07,223.68 513.07,209.68 524.35,205.58 524.35,219.58" fill="#0a321e"/>
<polygon points="565.69,199.47 576.97,203.58 565.69,207.68 554.42,203.58" fill="#0e4429"/>
<polygon points="554.42,219.58 554.42,203.58 565.69,207.68 565.69,223.68" fill="#0c3b24"/>
<polygon points="565.69,223.68 565.69,207.68 576.97,203.58 576.97,219.58" fill="#0a321e"/>
<polygon points="447.29,220.26 458.57,224.37 447.29,228.47 436.02,224.37" fill="#161b22"/>
<polygon points="526.23,220.26 537.50,224.37 526.23,228.47 514.95,224.37" fill="#161b22"/>
<polygon points="552.54,220.26 563.82,224.37 552.54,228.47 541.26,224.37" fill="#161b22"/>
<polygon points="605.16,220.26 616.44,224.37 605.16,228.47 593.89,224.37" fill="#161b22"/>
<polygon points="473.61,205.26 484.88,209.37 473.61,213.47 462.33,209.37" fill="#0e4429"/>
<polygon points="462.33,224.37 462.33,209.37 473.61,213.47 473.61,228.47" fill="#0c3b24"/>
<polygon points="473.61,228.47 473.61,213.47 484.88,209.37 484.88,224.37" fill="#0a321e"/>
<polygon points="499.92,204.26 511.19,208.37 499.92,212.47 488.64,208.37" fill="#0e4429"/>
<polygon points="488.64,224.37 488.64,208.37 499.92,212.47 499.92,228.47" fill="#0c3b24"/>
<polygon points="499.92,228.47 499.92,212.47 511.19,208.37 511.19,224.37" fill="#0a321e"/>
<polygon points="578.85,207.26 590.13,211.37 578.85,215.47 567.57,211.37" fill="#0e4429"/>
<polygon points="567.57,224.37 567.57,211.37 578.85,215.47 578.85,228.47" fill="#0c3b24"/>
<polygon points="578.85,228.47 578.85,215.47 590.13,211.37 590.13,224.37" fill="#0a321e"/>
<polygon points="460.45,225.05 471.73,229.15 460.45,233.26 449.17,229.15" fill="#161b22"/>
<polygon points="618.32,225.05 629.59,229.15 618.32,233.26 607.04,229.15" fill="#161b22"/>
<polygon points="513.07,214.05 524.35,218.15 513.07,222.26 501.80,218.15" fill="#0e4429"/>
<polygon points="501.80,229.15 501.80,218.15 513.07,222.26 513.07,233.26" fill="#0c3b24"/>
<polygon points="513.07,233.26 513.07,222.26 524.35,218.15 524.35,229.15" fill="#0a321e"/>
<polygon points="539.38,211.05 550.66,215.15 539.38,219.26 528.11,215.15" fill="#0e4429"/>
<polygon points="528.11,229.15 528.11,215.15 539.38,219.26 539.38,233.26" fill="#0c3b24"/>
<polygon points="539.38,233.26 539.38,219.26 550.66,215.15 550.66,229.15" fill="#0a321e"/>
<polygon points="565.69,208.05 576.97,212.15 565.69,216.26 554.42,212.15" fill="#006d32"/>
<polygon points="554.42,229.15 554.42,212.15 565.69,216.26 565.69,233.26" fill="#005f2c"/>
<polygon points="565.69,233.26 565.69,216.26 576.97,212.15 576.97,229.15" fill="#005025"/>
<polygon points="592.01,207.05 603.28,211.15 592.01,215.26 580.73,211.15" fill="#26a641"/>
<polygon points="580.73,229.15 580.73,211.15 592.01,215.26 592.01,233.26" fill="#219239"/>
<polygon points="592.01,233.26 592.01,215.26 603.28,211.15 603.28,229.15" fill="#1c7a30"/>
<polygon points="486.76,207.05 498.04,211.15 486.76,215.26 475.48,211.15" fill="#39d353"/>
<polygon points="475.48,229.15 475.48,211.15 486.76,215.26 486.76,233.26" fill="#32b949"/>
<polygon points="486.76,233.26 486.76,215.26 498.04,211.15 498.04,229.15" fill="#2a9c3d"/>
<polygon points="631.47,229.84 642.75,233.94 631.47,238.05 620.20,233.94" fill="#161b22"/>
<polygon points="552.54,213.84 563.82,217.94 552.54,222.05 541.26,217.94" fill="#0e4429"/>
<polygon points="541.26,233.94 541.26,217.94 552.54,222.05 552.54,238.05" fill="#0c3b24"/>
<polygon points="552.54,238.05 552.54,222.05 563.82,217.94 563.82,233.94" fill="#0a321e"/>
<polygon points="578.85,215.84 590.13,219.94 578.85,224.05 567.57,219.94" fill="#0e4429"/>
<polygon points="567.57,233.94 567.57,219.94 578.85,224.05 578.85,238.05" fill="#0c3b24"/>
<polygon points="578.85,238.05 578.85,224.05 590.13,219.94 590.13,233.94" fill="#0a321e"/>
<polygon points="473.61,211.84 484.88,215.94 473.61,220.05 462.33,215.94" fill="#006d32"/>
<polygon points="462.33,233.94 462.33,215.94 473.61,220.05 473.61,238.05" fill="#005f2c"/>
<polygon points="473.61,238.05 473.61,220.05 484.88,215.94 484.88,233.94" fill="#005025"/>
<polygon points="499.92,212.84 511.19,216.94 499.92,221.05 488.64,216.94" fill="#006d32"/>
<polygon points="488.64,233.94 488.64,216.94 499.92,221.05 499.92,238.05" fill="#005f2c"/>
<polygon points="499.92,238.05 499.92,221.05 511.19,216.94 511.19,233.94" fill="#005025"/>
<polygon points="526.23,211.84 537.50,215.94 526.23,220.05 514.95,215.94" fill="#006d32"/>
<polygon points="514.95,233.94 514.95,215.94 526.23,220.05 526.23,238.05" fill="#005f2c"/>
<polygon points="526.23,238.05 526.23,220.05 537.50,215.94 537.50,233.94" fill="#005025"/>
<polygon points="605.16,211.84 616.44,215.94 605.16,220.05 593.89,215.94" fill="#006d32"/>
<polygon points="593.89,233.94 593.89,215.94 605.16,220.05 605.16,238.05" fill="#005f2c"/>
<polygon points="605.16,238.05 605.16,220.05 616.44,215.94 616.44,233.94" fill="#005025"/>
<polygon points="486.76,234.63 498.04,238.73 486.76,242.83 475.48,238.73" fill="#161b22"/>
<polygon points="618.32,234.63 629.59,238.73 618.32,242.83 607.04,238.73" fill="#161b22"/>
<polygon points="644.63,234.63 655.91,238.73 644.63,242.83 633.35,238.73" fill="#161b22"/>
<polygon points="513.07,226.63 524.35,230.73 513.07,234.83 501.80,230.73" fill="#0e4429"/>
<polygon points="501.80,238.73 501.80,230.73 513.07,234.83 513.07,242.83" fill="#0c3b24"/>
<polygon points="513.07,242.83 513.07,234.83 524.35,230.73 524.35,238.73" fill="#0a321e"/>
<polygon points="539.38,223.63 550.66,227.73 539.38,231.83 528.11,227.73" fill="#0e4429"/>
<polygon points="528.11,238.73 528.11,227.73 539.38,231.83 539.38,242.83" fill="#0c3b24"/>
<polygon points="539.38,242.83 539.38,231.83 550.66,227.73 550.66,238.73" fill="#0a321e"/>
<polygon points="565.69,216.63 576.97,220.73 565.69,224.83 554.42,220.73" fill="#006d32"/>
<polygon points="554.42,238.73 554.42,220.73 565.69,224.83 565.69,242.83" fill="#005f2c"/>
<polygon points="565.69,242.83 565.69,224.83 576.97,220.73 576.97,238.73" fill="#005025"/>
<polygon points="592.01,216.63 603.28,220.73 592.01,224.83 580.73,220.73" fill="#006d32"/>
<polygon points="580.73,238.73 580.73,220.73 592.01,224.83 592.01,242.83" fill="#005f2c"/>
<polygon points="592.01,242.83 592.01,224.83 603.28,220.73 603.28,238.73" fill="#005025"/>
<polygon points="499.92,239.41 511.19,243.52 499.92,247.62 488.64,243.52" fill="#161b22"/>
<polygon points="526.23,225.41 537.50,229.52 526.23,233.62 514.95,229.52" fill="#0e4429"/>
<polygon points="514.95,243.52 514.95,229.52 526.23,233.62 526.23,247.62" fill="#0c3b24"/>
<polygon points="526.23,247.62 526.23,233.62 537.50,229.52 537.50,243.52" fill="#0a321e"/>
<polygon points="552.54,226.41 563.82,230.52 552.54,234.62 541.26,230.52" fill="#0e4429"/>
<polygon points="541.26,243.52 541.26,230.52 552.54,234.62 552.54,247.62" fill="#0c3b24"/>
<polygon points="552.54,247.62 552.54,234.62 563.82,230.52 563.82,243.52" fill="#0a321e"/>
<polygon points="578.85,224.41 590.13,228.52 578.85,232.62 567.57,228.52" fill="#0e4429"/>
<polygon points="567.57,243.52 567.57,228.52 578.85,232.62 578.85,247.62" fill="#0c3b24"/>
<polygon points="578.85,247.62 578.85,232.62 590.13,228.52 590.13,243.52" fill="#0a321e"/>
<polygon points="605.16,223.41 616.44,227.52 605.16,231.62 593.89,227.52" fill="#0e4429"/>
<polygon points="593.89,243.52 593.89,227.52 605.16,231.62 605.16,247.62" fill="#0c3b24"/>
<polygon points="605.16,247.62 605.16,231.62 616.44,227.52 616.44,243.52" fill="#0a321e"/>
<polygon points="657.78,228.41 669.06,232.52 657.78,236.62 646.51,232.52" fill="#0e4429"/>
<polygon points="646.51,243.52 646.51,232.52 657.78,236.62 657.78,247.62" fill="#0c3b24"/>
<polygon points="657.78,247.62 657.78,236.62 669.06,232.52 669.06,243.52" fill="#0a321e"/>
<polygon points="631.47,221.41 642.75,225.52 631.47,229.62 620.20,225.52" fill="#26a641"/>
<polygon points="620.20,243.52 620.20,225.52 631.47,229.62 631.47,247.62" fill="#219239"/>
<polygon points="631.47,247.62 631.47,229.62 642.75,225.52 642.75,243.52" fill="#1c7a30"/>
<polygon points="513.07,244.20 524.35,248.31 513.07,252.41 501.80,248.31" fill="#161b22"/>
<polygon points="670.94,244.20 682.22,248.31 670.94,252.41 659.66,248.31" fill="#161b22"/>
<polygon points="592.01,233.20 603.28,237.31 592.01,241.41 580.73,237.31" fill="#0e4429"/>
<polygon points="580.73,248.31 580.73,237.31 592.01,241.41 592.01,252.41" fill="#0c3b24"/>
<polygon points="592.01,252.41 592.01,241.41 603.28,237.31 603.28,248.31" fill="#0a321e"/>
<polygon points="539.38,226.20 550.66,230.31 539.38,234.41 528.11,230.31" fill="#006d32"/>
<polygon points="528.11,248.31 528.11,230.31 539.38,234.41 539.38,252.41" fill="#005f2c"/>
<polygon points="539.38,252.41 539.38,234.41 550.66,230.31 550.66,248.31" fill="#005025"/>
<polygon points="618.32,226.20 629.59,230.31 618.32,234.41 607.04,230.31" fill="#006d32"/>
<polygon points="607.04,248.31 607.04,230.31 618.32,234.41 618.32,252.41" fill="#005f2c"/>
<polygon points="618.32,252.41 618.32,234.41 629.59,230.31 629.59,248.31" fill="#005025"/>
<polygon points="644.63,226.20 655.91,230.31 644.63,234.41 633.35,230.31" fill="#006d32"/>
<polygon points="633.35,248.31 633.35,230.31 644.63,234.41 644.63,252.41" fill="#005f2c"/>
<polygon points="644.63,252.41 644.63,234.41 655.91,230.31 655.91,248.31" fill="#005025"/>
<polygon points="565.69,226.20 576.97,230.31 565.69,234.41 554.42,230.31" fill="#26a641"/>
<polygon points="554.42,248.31 554.42,230.31 565.69,234.41 565.69,252.41" fill="#219239"/>
<polygon points="565.69,252.41 565.69,234.41 576.97,230.31 576.97,248.31" fill="#1c7a30"/>
<polygon points="526.23,248.99 537.50,253.09 526.23,257.20 514.95,253.09" fill="#161b22"/>
<polygon points="552.54,248.99 563.82,253.09 552.54,257.20 541.26,253.09" fill="#161b22"/>
<polygon points="684.10,248.99 695.37,253.09 684.10,257.20 672.82,253.09" fill="#161b22"/>
<polygon points="578.85,231.99 590.13,236.09 578.85,240.20 567.57,236.09" fill="#006d32"/>
<polygon points="567.57,253.09 567.57,236.09 578.85,240.20 578.85,257.20" fill="#005f2c"/>
<polygon points="578.85,257.20 578.85,240.20 590.13,236.09 590.13,253.09" fill="#005025"/>
<polygon points="631.47,230.99 642.75,235.09 631.47,239.20 620.20,235.09" fill="#006d32"/>
<polygon points="620.20,253.09 620.20,235.09 631.47,239.20 631.47,257.20" fill="#005f2c"/>
<polygon points="631.47,257.20 631.47,239.20 642.75,235.09 642.75,253.09" fill="#005025"/>
<polygon points="605.16,230.99 616.44,235.09 605.16,239.20 593.89,235.09" fill="#26a641"/>
<polygon points="593.89,253.09 593.89,235.09 605.16,239.20 605.16,257.20" fill="#219239"/>
<polygon points="605.16,257.20 605.16,239.20 616.44,235.09 616.44,253.09" fill="#1c7a30"/>
<polygon points="657.78,230.99 669.06,235.09 657.78,239.20 646.51,235.09" fill="#39d353"/>
<polygon points="646.51,253.09 646.51,235.09 657.78,239.20 657.78,257.20" fill="#32b949"/>
<polygon points="657.78,257.20 657.78,239.20 669.06,235.09 669.06,253.09" fill="#2a9c3d"/>
<polygon points="539.38,253.78 550.66,257.88 539.38,261.99 528.11,257.88" fill="#161b22"/>
<polygon points="565.69,253.78 576.97,257.88 565.69,261.99 554.42,257.88" fill="#161b22"/>
<polygon points="618.32,237.78 629.59,241.88 618.32,245.99 607.04,241.88" fill="#0e4429"/>
<polygon points="607.04,257.88 607.04,241.88 618.32,245.99 618.32,261.99" fill="#0c3b24"/>
<polygon points="618.32,261.99 618.32,245.99 629.59,241.88 629.59,257.88" fill="#0a321e"/>
<polygon points="644.63,245.78 655.91,249.88 644.63,253.99 633.35,249.88" fill="#0e4429"/>
<polygon points="633.35,257.88 633.35,249.88 644.63,253.99 644.63,261.99" fill="#0c3b24"/>
<polygon points="644.63,261.99 644.63,253.99 655.91,249.88 655.91,257.88" fill="#0a321e"/>
<polygon points="670.94,245.78 682.22,249.88 670.94,253.99 659.66,249.88" fill="#0e4429"/>
<polygon points="659.66,257.88 659.66,249.88 670.94,253.99 670.94,261.99" fill="#0c3b24"/>
<polygon points="670.94,261.99 670.94,253.99 682.22,249.88 682.22,257.88" fill="#0a321e"/>
<polygon points="592.01,235.78 603.28,239.88 592.01,243.99 580.73,239.88" fill="#006d32"/>
<polygon points="580.73,257.88 580.73,239.88 592.01,243.99 592.01,261.99" fill="#005f2c"/>
<polygon points="592.01,261.99 592.01,243.99 603.28,239.88 603.28,257.88" fill="#005025"/>
<polygon points="552.54,258.57 563.82,262.67 552.54,266.78 541.26,262.67" fill="#161b22"/>
<polygon points="578.85,258.57 590.13,262.67 578.85,266.78 567.57,262.67" fill="#161b22"/>
<polygon points="631.47,247.57 642.75,251.67 631.47,255.78 620.20,251.67" fill="#0e4429"/>
<polygon points="620.20,262.67 620.20,251.67 631.47,255.78 631.47,266.78" fill="#0c3b24"/>
<polygon points="631.47,266.78 631.47,255.78 642.75,251.67 642.75,262.67" fill="#0a321e"/>
<polygon points="657.78,245.57 669.06,249.67 657.78,253.78 646.51,249.67" fill="#0e4429"/>
<polygon points="646.51,262.67 646.51,249.67 657.78,253.78 657.78,266.78" fill="#0c3b24"/>
<polygon points="657.78,266.78 657.78,253.78 669.06,249.67 669.06,262.67" fill="#0a321e"/>
<polygon points="605.16,240.57 616.44,244.67 605.16,248.78 593.89,244.67" fill="#006d32"/>
<polygon points="593.89,262.67 593.89,244.67 605.16,248.78 605.16,266.78" fill="#005f2c"/>
<polygon points="605.16,266.78 605.16,248.78 616.44,244.67 616.44,262.67" fill="#005025"/>
<polygon points="565.69,263.36 576.97,267.46 565.69,271.56 554.42,267.46" fill="#161b22"/>
<polygon points="644.63,263.36 655.91,267.46 644.63,271.56 633.35,267.46" fill="#161b22"/>
<polygon points="592.01,250.36 603.28,254.46 592.01,258.56 580.73,254.46" fill="#0e4429"/>
<polygon points="580.73,267.46 580.73,254.46 592.01,258.56 592.01,271.56" fill="#0c3b24"/>
<polygon points="592.01,271.56 592.01,258.56 603.28,254.46 603.28,267.46" fill="#0a321e"/>
<polygon points="618.32,248.36 629.59,252.46 618.32,256.56 607.04,252.46" fill="#0e4429"/>
<polygon points="607.04,267.46 607.04,252.46 618.32,256.56 618.32,271.56" fill="#0c3b24"/>
<polygon points="618.32,271.56 618.32,256.56 629.59,252.46 629.59,267.46" fill="#0a321e"/>
<polygon points="578.85,268.14 590.13,272.25 578.85,276.35 567.57,272.25" fill="#161b22"/>
<polygon points="605.16,255.14 616.44,259.25 605.16,263.35 593.89,259.25" fill="#0e4429"/>
<polygon points="593.89,272.25 593.89,259.25 605.16,263.35 605.16,276.35" fill="#0c3b24"/>
<polygon points="605.16,276.35 605.16,263.35 616.44,259.25 616.44,272.25" fill="#0a321e"/>
<polygon points="592.01,272.93 603.28,277.04 592.01,281.14 580.73,277.04" fill="#161b22"/>
<text x="697.25" y="14.00" text-anchor="end" font-family='-apple-system, BlinkMacSystemFont, "Segoe UI", Helvetica, Arial, sans-serif' font-size="34" font-weight="700" fill="#39d353">1,755</text>
<text x="697.25" y="26.00" text-anchor="end" font-family='-apple-system, BlinkMacSystemFont, "Segoe UI", Helvetica, Arial, sans-serif' font-size="10" fill="#7d8590" letter-spacing="0.8">TOTAL CONTRIBUTIONS</text>
<rect x="-92.09" y="230.55" width="12" height="8.75" rx="1" fill="#006d32"/>
<text x="-86.09" y="257.30" text-anchor="middle" font-family='-apple-system, BlinkMacSystemFont, "Segoe UI", Helvetica, Arial, sans-serif' font-size="11" fill="#7d8590">S</text>
<rect x="-76.09" y="195.14" width="12" height="44.16" rx="1" fill="#006d32"/>
<text x="-70.09" y="257.30" text-anchor="middle" font-family='-apple-system, BlinkMacSystemFont, "Segoe UI", Helvetica, Arial, sans-serif' font-size="11" fill="#7d8590">M</text>
<rect x="-60.09" y="185.30" width="12" height="54.00" rx="1" fill="#39d353"/>
<text x="-54.09" y="257.30" text-anchor="middle" font-family='-apple-system, BlinkMacSystemFont, "Segoe UI", Helvetica, Arial, sans-serif' font-size="11" fill="#7d8590">T</text>
<rect x="-44.09" y="197.05" width="12" height="42.24" rx="1" fill="#006d32"/>
<text x="-38.09" y="257.30" text-anchor="middle" font-family='-apple-system, BlinkMacSystemFont, "Segoe UI", Helvetica, Arial, sans-serif' font-size="11" fill="#7d8590">W</text>
<rect x="-28.09" y="189.81" width="12" height="49.49" rx="1" fill="#006d32"/>
<text x="-22.09" y="257.30" text-anchor="middle" font-family='-apple-system, BlinkMacSystemFont, "Segoe UI", Helvetica, Arial, sans-serif' font-size="11" fill="#7d8590">T</text>
<rect x="-12.09" y="202.93" width="12" height="36.36" rx="1" fill="#006d32"/>
<text x="-6.09" y="257.30" text-anchor="middle" font-family='-apple-system, BlinkMacSystemFont, "Segoe UI", Helvetica, Arial, sans-serif' font-size="11" fill="#7d8590">F</text>
<rect x="3.91" y="234.38" width="12" height="4.92" rx="1" fill="#006d32"/>
<text x="9.91" y="257.30" text-anchor="middle" font-family='-apple-system, BlinkMacSystemFont, "Segoe UI", Helvetica, Arial, sans-serif' font-size="11" fill="#7d8590">S</text>
<text x="-92.09" y="277.30" font-family='-apple-system, BlinkMacSystemFont, "Segoe UI", Helvetica, Arial, sans-serif' font-size="12" fill="#7d8590" letter-spacing="0.3">Most active days</text>
<text x="-92.09" y="293.30" font-family='-apple-system, BlinkMacSystemFont, "Segoe UI", Helvetica, Arial, sans-serif' font-size="9" fill="#7d8590">Data pulled daily from GitHub.</text>
<text x="-92.09" y="303.30" font-family='-apple-system, BlinkMacSystemFont, "Segoe UI", Helvetica, Arial, sans-serif' font-size="9" fill="#7d8590">Rolling last-12-month activity.</text>
</svg>